<?xml version="1.0" encoding="UTF-8"?>
<svg xmlns="http://www.w3.org/2000/svg" xmlns:xlink="http://www.w3.org/1999/xlink" width="285" height="95" viewBox="0 0 285 95">
<path fill="none" stroke-width="1.136364" stroke-linecap="butt" stroke-linejoin="miter" stroke="rgb(0%, 0%, 0%)" stroke-opacity="1" stroke-miterlimit="10" d="M 7 0 C 7 3.867188 3.867188 7 0 7 C -3.867188 7 -7 3.867188 -7 0 C -7 -3.867188 -3.867188 -7 0 -7 C 3.867188 -7 7 -3.867188 7 0 " transform="matrix(1, 0, 0, 1, 47.5, 47.5)"/>
<path fill="none" stroke-width="1.136364" stroke-linecap="butt" stroke-linejoin="miter" stroke="rgb(0%, 0%, 0%)" stroke-opacity="1" stroke-miterlimit="10" d="M 7 0 L 2.109375 0 " transform="matrix(0.000000000000000061, -1, 1, 0.000000000000000061, 47.5, 47.5)"/>
<path fill="none" stroke-width="1.136364" stroke-linecap="butt" stroke-linejoin="miter" stroke="rgb(0%, 0%, 0%)" stroke-opacity="1" stroke-miterlimit="10" d="M 7 0 L 17.429688 0 " transform="matrix(0.000000000000000061, -1, 1, 0.000000000000000061, 47.5, 47.5)"/>
<path fill="none" stroke-width="1.136364" stroke-linecap="butt" stroke-linejoin="miter" stroke="rgb(0%, 0%, 0%)" stroke-opacity="1" stroke-miterlimit="10" d="M 23.929688 0 L 23.921875 0.316406 L 23.902344 0.632812 L 23.871094 0.945312 L 23.828125 1.253906 L 23.773438 1.558594 L 23.707031 1.855469 L 23.628906 2.144531 L 23.542969 2.425781 L 23.445313 2.699219 L 23.335938 2.960938 L 23.21875 3.210938 L 23.09375 3.449219 L 22.957031 3.671875 L 22.8125 3.878906 L 22.660156 4.070312 L 22.5 4.246094 L 22.335938 4.40625 L 22.164063 4.546875 L 21.988281 4.667969 L 21.808594 4.773438 L 21.625 4.859375 L 21.4375 4.925781 L 21.25 4.972656 L 21.058594 4.996094 L 20.867188 5 L 20.675781 4.984375 L 20.488281 4.949219 L 20.300781 4.894531 L 20.117188 4.820312 L 19.933594 4.726562 L 19.753906 4.613281 L 19.582031 4.480469 L 19.414063 4.332031 L 19.253906 4.164062 L 19.097656 3.980469 L 18.949219 3.78125 L 18.808594 3.566406 L 18.675781 3.335938 L 18.554688 3.09375 L 18.441406 2.839844 L 18.339844 2.574219 L 18.246094 2.296875 L 18.164063 2.011719 L 18.09375 1.71875 L 18.035156 1.417969 L 17.988281 1.109375 L 17.953125 0.796875 L 17.929688 0.480469 L 17.917969 0.164062 L 17.917969 -0.152344 L 17.929688 -0.46875 L 17.953125 -0.785156 L 17.988281 -1.097656 L 18.035156 -1.40625 L 18.09375 -1.707031 L 18.164063 -2 L 18.246094 -2.285156 L 18.339844 -2.5625 L 18.441406 -2.828125 L 18.554688 -3.082031 L 18.675781 -3.324219 L 18.808594 -3.554688 L 18.949219 -3.769531 L 19.097656 -3.96875 L 19.253906 -4.152344 L 19.414063 -4.320312 L 19.582031 -4.46875 L 19.753906 -4.601562 L 19.933594 -4.714844 L 20.117188 -4.808594 L 20.300781 -4.882812 L 20.488281 -4.9375 L 20.675781 -4.972656 L 20.867188 -4.988281 L 21.058594 -4.984375 L 21.25 -4.960938 L 21.4375 -4.914062 L 21.625 -4.847656 L 21.808594 -4.761719 L 21.988281 -4.65625 L 22.164063 -4.535156 L 22.335938 -4.394531 L 22.5 -4.234375 L 22.660156 -4.058594 L 22.8125 -3.867188 L 22.957031 -3.660156 L 23.09375 -3.4375 L 23.21875 -3.199219 L 23.335938 -2.949219 L 23.445313 -2.6875 L 23.542969 -2.414062 L 23.628906 -2.132812 L 23.707031 -1.84375 L 23.773438 -1.546875 L 23.828125 -1.242188 L 23.871094 -0.933594 L 23.902344 -0.621094 L 23.921875 -0.304688 L 23.929688 0.0117188 " transform="matrix(0.000000000000000061, -1, 1, 0.000000000000000061, 47.5, 47.5)"/>
<path fill="none" stroke-width="1.136364" stroke-linecap="butt" stroke-linejoin="miter" stroke="rgb(0%, 0%, 0%)" stroke-opacity="1" stroke-miterlimit="10" d="M 15.929688 0 L 15.929688 -5 L 15.929688 5 Z M 15.929688 0 " transform="matrix(0.000000000000000061, -1, 1, 0.000000000000000061, 47.5, 47.5)"/>
<path fill="none" stroke-width="1.136364" stroke-linecap="butt" stroke-linejoin="miter" stroke="rgb(0%, 0%, 0%)" stroke-opacity="1" stroke-miterlimit="10" d="M 29 0 L 21.929688 -7.070312 L 29 0 L 21.929688 7.070312 Z M 29 0 " transform="matrix(0.000000000000000061, -1, 1, 0.000000000000000061, 47.5, 47.5)"/>
<path fill="none" stroke-width="1.136364" stroke-linecap="butt" stroke-linejoin="miter" stroke="rgb(0%, 0%, 0%)" stroke-opacity="1" stroke-miterlimit="10" d="M 6.999202 -0.00125137 L 19.998278 0.000126316 " transform="matrix(0.951057, -0.309017, 0.309017, 0.951057, 47.5, 47.5)"/>
<path fill="none" stroke-width="1.136364" stroke-linecap="butt" stroke-linejoin="miter" stroke="rgb(0%, 0%, 0%)" stroke-opacity="1" stroke-miterlimit="10" d="M 5.700911 -0.0000425807 L 5.69627 0.0395223 L 5.684199 0.0766729 L 5.654947 0.128778 L 5.63043 0.15367 L 5.598483 0.176148 L 5.583716 0.183672 L 5.546753 0.196305 L 5.512204 0.201509 L 5.491215 0.202903 L 5.45165 0.198262 L 5.414499 0.186191 L 5.379763 0.16669 L 5.363602 0.153225 L 5.351156 0.140966 L 5.317439 0.0930454 L 5.298488 0.0376008 L 5.295887 0.0203263 L 5.294492 -0.000663182 L 5.299133 -0.040228 L 5.311204 -0.0773787 L 5.340456 -0.129483 L 5.364973 -0.154375 L 5.39692 -0.176853 L 5.411686 -0.184377 L 5.448649 -0.197011 L 5.483198 -0.202214 L 5.504188 -0.203609 L 5.543753 -0.198968 L 5.580903 -0.186897 L 5.61564 -0.167396 L 5.631801 -0.15393 L 5.644247 -0.141672 L 5.677964 -0.0937512 L 5.696914 -0.0383066 L 5.699516 -0.0210321 L 5.700911 -0.0000425807 L 5.69627 0.0395223 L 5.684199 0.0766729 L 5.654947 0.128778 L 5.63043 0.15367 L 5.598483 0.176148 L 5.583716 0.183672 L 5.546753 0.196305 L 5.512204 0.201509 L 5.491215 0.202903 L 5.45165 0.198262 L 5.414499 0.186191 L 5.379763 0.16669 L 5.363602 0.153225 L 5.351156 0.140966 L 5.317439 0.0930454 L 5.298488 0.0376008 L 5.295887 0.0203263 L 5.294492 -0.000663182 " transform="matrix(0.951057, -0.309017, 0.309017, 0.951057, 47.5, 47.5)"/>
<path fill="none" stroke-width="1.136364" stroke-linecap="butt" stroke-linejoin="miter" stroke="rgb(0%, 0%, 0%)" stroke-opacity="1" stroke-miterlimit="10" d="M 7.000049 0.00153797 L 21.928354 0.00302169 " transform="matrix(0.587785, 0.809017, -0.809017, 0.587785, 47.5, 47.5)"/>
<path fill="none" stroke-width="1.136364" stroke-linecap="butt" stroke-linejoin="miter" stroke="rgb(0%, 0%, 0%)" stroke-opacity="1" stroke-miterlimit="10" d="M 29.000199 -0.00121851 L 21.929571 -7.069687 L 21.929434 7.07257 Z M 29.000199 -0.00121851 " transform="matrix(0.587785, 0.809017, -0.809017, 0.587785, 47.5, 47.5)"/>
<path fill="none" stroke-width="1.136364" stroke-linecap="butt" stroke-linejoin="miter" stroke="rgb(0%, 0%, 0%)" stroke-opacity="1" stroke-miterlimit="10" d="M 19.928051 -0.00176652 L 19.930257 -5.002376 L 19.925845 4.998843 Z M 19.928051 -0.00176652 " transform="matrix(0.587785, 0.809017, -0.809017, 0.587785, 47.5, 47.5)"/>
<path fill="none" stroke-width="1.136364" stroke-linecap="butt" stroke-linejoin="miter" stroke="rgb(0%, 0%, 0%)" stroke-opacity="1" stroke-miterlimit="10" d="M 28.748618 0.000523928 L 6.996889 0.000758064 L 28.748618 0.000523928 M 29.000199 0.00121851 L 21.93173 -7.06941 L 29.000199 0.00121851 L 21.929571 7.069687 Z M 29.000199 0.00121851 " transform="matrix(-0.587785, 0.809017, -0.809017, -0.587785, 47.5, 47.5)"/>
<path fill="none" stroke-width="1.136364" stroke-linecap="butt" stroke-linejoin="miter" stroke="rgb(0%, 0%, 0%)" stroke-opacity="1" stroke-miterlimit="10" d="M 21.998235 -0.00100267 L 6.997995 -0.00246369 L 21.998235 -0.00100267 L 29.06965 -7.071297 L 21.998235 -0.00100267 L 29.06853 7.070412 Z M 21.998235 -0.00100267 " transform="matrix(-0.951057, -0.309017, 0.309017, -0.951057, 47.5, 47.5)"/>
<path fill="none" stroke-width="1.136364" stroke-linecap="butt" stroke-linejoin="miter" stroke="rgb(0%, 0%, 0%)" stroke-opacity="1" stroke-miterlimit="10" d="M 21.000114 -0.00116804 L 21.002242 -5.000412 L 20.997986 4.998076 Z M 21.000114 -0.00116804 " transform="matrix(-0.951057, -0.309017, 0.309017, -0.951057, 47.5, 47.5)"/>
<path fill="none" stroke-width="1.136364" stroke-linecap="butt" stroke-linejoin="miter" stroke="rgb(0%, 0%, 0%)" stroke-opacity="1" stroke-miterlimit="10" d="M 17.99832 0.000750038 L 18.000447 -4.998494 L 17.996192 4.999994 Z M 17.99832 0.000750038 " transform="matrix(-0.951057, -0.309017, 0.309017, -0.951057, 47.5, 47.5)"/>
<path fill="none" stroke-width="1.136364" stroke-linecap="butt" stroke-linejoin="miter" stroke="rgb(0%, 0%, 0%)" stroke-opacity="1" stroke-miterlimit="10" d="M 7 0 C 7 3.867188 3.867188 7 0 7 C -3.867188 7 -7 3.867188 -7 0 C -7 -3.867188 -3.867188 -7 0 -7 C 3.867188 -7 7 -3.867188 7 0 " transform="matrix(1, 0, 0, 1, 142.5, 47.5)"/>
<path fill="none" stroke-width="1.136364" stroke-linecap="butt" stroke-linejoin="miter" stroke="rgb(0%, 0%, 0%)" stroke-opacity="1" stroke-miterlimit="10" d="M 7 0 L 2.109375 0 " transform="matrix(0.000000000000000061, -1, 1, 0.000000000000000061, 142.5, 47.5)"/>
<path fill="none" stroke-width="1.136364" stroke-linecap="butt" stroke-linejoin="miter" stroke="rgb(0%, 0%, 0%)" stroke-opacity="1" stroke-miterlimit="10" d="M 7 0 L 23 0 " transform="matrix(0.000000000000000061, -1, 1, 0.000000000000000061, 142.5, 47.5)"/>
<path fill="none" stroke-width="1.136364" stroke-linecap="butt" stroke-linejoin="miter" stroke="rgb(0%, 0%, 0%)" stroke-opacity="1" stroke-miterlimit="10" d="M 23 3 L 23 -3 L 29 -3 L 29 3 L 29 -3 L 23 -3 Z M 23 3 " transform="matrix(0.000000000000000061, -1, 1, 0.000000000000000061, 142.5, 47.5)"/>
<path fill="none" stroke-width="1.136364" stroke-linecap="butt" stroke-linejoin="miter" stroke="rgb(0%, 0%, 0%)" stroke-opacity="1" stroke-miterlimit="10" d="M 21.5 0 L 21.5 -5 L 21.5 5 Z M 21.5 0 " transform="matrix(0.000000000000000061, -1, 1, 0.000000000000000061, 142.5, 47.5)"/>
<path fill="none" stroke-width="1.136364" stroke-linecap="butt" stroke-linejoin="miter" stroke="rgb(0%, 0%, 0%)" stroke-opacity="1" stroke-miterlimit="10" d="M 28.750392 0.00162673 L 7.00171 0.00367079 L 28.750392 0.00162673 M 29.001153 0.000958394 L 21.929738 -7.069336 L 29.001153 0.000958394 L 21.930858 7.072373 Z M 29.001153 0.000958394 " transform="matrix(0.951057, -0.309017, 0.309017, 0.951057, 142.5, 47.5)"/>
<path fill="none" stroke-width="1.136364" stroke-linecap="butt" stroke-linejoin="miter" stroke="rgb(0%, 0%, 0%)" stroke-opacity="1" stroke-miterlimit="10" d="M 7.000049 0.00153797 L 21.928354 0.00302169 " transform="matrix(0.587785, 0.809017, -0.809017, 0.587785, 142.5, 47.5)"/>
<path fill="none" stroke-width="1.136364" stroke-linecap="butt" stroke-linejoin="miter" stroke="rgb(0%, 0%, 0%)" stroke-opacity="1" stroke-miterlimit="10" d="M 29.000199 -0.00121851 L 21.929571 -7.069687 L 21.929434 7.07257 Z M 29.000199 -0.00121851 " transform="matrix(0.587785, 0.809017, -0.809017, 0.587785, 142.5, 47.5)"/>
<path fill="none" stroke-width="1.136364" stroke-linecap="butt" stroke-linejoin="miter" stroke="rgb(0%, 0%, 0%)" stroke-opacity="1" stroke-miterlimit="10" d="M 7.000049 -0.00153797 L 19.998415 -0.00107179 " transform="matrix(-0.587785, 0.809017, -0.809017, -0.587785, 142.5, 47.5)"/>
<path fill="none" stroke-width="1.136364" stroke-linecap="butt" stroke-linejoin="miter" stroke="rgb(0%, 0%, 0%)" stroke-opacity="1" stroke-miterlimit="10" d="M 5.702222 -0.000147663 L 5.701925 0.0193813 L 5.699333 0.0357501 L 5.687827 0.0730797 L 5.67173 0.104089 L 5.660521 0.12189 L 5.63351 0.15117 L 5.601908 0.174131 L 5.565714 0.190771 L 5.545321 0.19593 L 5.510855 0.201658 L 5.471797 0.201065 L 5.415802 0.183806 L 5.400298 0.175758 L 5.382497 0.164549 L 5.353216 0.137538 L 5.330256 0.105936 L 5.305296 0.0516447 L 5.300136 0.0312515 L 5.297273 0.0140185 L 5.297866 -0.0250395 L 5.300458 -0.0414082 L 5.311964 -0.0787379 L 5.328062 -0.109747 L 5.339271 -0.127548 L 5.366281 -0.156828 L 5.397883 -0.179789 L 5.434077 -0.196429 L 5.45447 -0.201588 L 5.488936 -0.207316 L 5.527994 -0.206723 L 5.583989 -0.189464 L 5.599493 -0.181416 L 5.617294 -0.170207 L 5.646575 -0.143196 L 5.669535 -0.111594 L 5.694495 -0.0573028 L 5.699655 -0.0369096 L 5.702518 -0.0196767 L 5.701925 0.0193813 L 5.699333 0.0357501 L 5.687827 0.0730797 L 5.67173 0.104089 L 5.660521 0.12189 L 5.63351 0.15117 L 5.601908 0.174131 L 5.565714 0.190771 L 5.545321 0.19593 L 5.510855 0.201658 L 5.471797 0.201065 L 5.415802 0.183806 L 5.400298 0.175758 L 5.382497 0.164549 L 5.353216 0.137538 L 5.330256 0.105936 L 5.305296 0.0516447 L 5.300136 0.0312515 L 5.297273 0.0140185 L 5.297569 -0.00551047 " transform="matrix(-0.587785, 0.809017, -0.809017, -0.587785, 142.5, 47.5)"/>
<path fill="none" stroke-width="1.136364" stroke-linecap="butt" stroke-linejoin="miter" stroke="rgb(0%, 0%, 0%)" stroke-opacity="1" stroke-miterlimit="10" d="M 28.750392 -0.00162673 L 7.00171 -0.00367079 L 28.750392 -0.00162673 M 29.001153 -0.000958394 L 21.930858 -7.072373 L 29.001153 -0.000958394 L 21.929738 7.069336 Z M 29.001153 -0.000958394 " transform="matrix(-0.951057, -0.309017, 0.309017, -0.951057, 142.5, 47.5)"/>
<path fill="none" stroke-width="1.136364" stroke-linecap="butt" stroke-linejoin="miter" stroke="rgb(0%, 0%, 0%)" stroke-opacity="1" stroke-miterlimit="10" d="M 7 0 C 7 3.867188 3.867188 7 0 7 C -3.867188 7 -7 3.867188 -7 0 C -7 -3.867188 -3.867188 -7 0 -7 C 3.867188 -7 7 -3.867188 7 0 " transform="matrix(1, 0, 0, 1, 237.5, 47.5)"/>
<path fill="none" stroke-width="1.136364" stroke-linecap="butt" stroke-linejoin="miter" stroke="rgb(0%, 0%, 0%)" stroke-opacity="1" stroke-miterlimit="10" d="M 7 0 L 2.109375 0 " transform="matrix(0.000000000000000061, -1, 1, 0.000000000000000061, 237.5, 47.5)"/>
<path fill="none" stroke-width="1.136364" stroke-linecap="butt" stroke-linejoin="miter" stroke="rgb(0%, 0%, 0%)" stroke-opacity="1" stroke-miterlimit="10" d="M 7 0 L 23 0 " transform="matrix(0.000000000000000061, -1, 1, 0.000000000000000061, 237.5, 47.5)"/>
<path fill="none" stroke-width="1.136364" stroke-linecap="butt" stroke-linejoin="miter" stroke="rgb(0%, 0%, 0%)" stroke-opacity="1" stroke-miterlimit="10" d="M 29 5 L 28.808594 4.996094 L 28.617188 4.988281 L 28.425781 4.976562 L 28.238281 4.957031 L 28.050781 4.933594 L 27.863281 4.90625 L 27.675781 4.875 L 27.492188 4.835938 L 27.308594 4.792969 L 27.125 4.746094 L 26.945312 4.695312 L 26.765625 4.640625 L 26.589844 4.578125 L 26.417969 4.511719 L 26.246094 4.441406 L 26.078125 4.367188 L 25.914062 4.289062 L 25.753906 4.207031 L 25.59375 4.121094 L 25.4375 4.027344 L 25.285156 3.929688 L 25.136719 3.828125 L 24.992188 3.722656 L 24.851562 3.613281 L 24.714844 3.503906 L 24.582031 3.390625 L 24.457031 3.273438 L 24.335938 3.152344 L 24.21875 3.027344 L 24.105469 2.898438 L 23.996094 2.769531 L 23.894531 2.636719 L 23.796875 2.5 L 23.703125 2.363281 L 23.617188 2.222656 L 23.535156 2.078125 L 23.457031 1.933594 L 23.386719 1.785156 L 23.320312 1.636719 L 23.261719 1.484375 L 23.207031 1.332031 L 23.160156 1.179688 L 23.117188 1.023438 L 23.082031 0.867188 L 23.050781 0.710938 L 23.027344 0.554688 L 23.007812 0.398438 L 22.996094 0.238281 L 22.988281 0.078125 L 22.988281 -0.0820312 L 22.996094 -0.242188 L 23.007812 -0.402344 L 23.027344 -0.558594 L 23.050781 -0.714844 L 23.082031 -0.871094 L 23.117188 -1.027344 L 23.160156 -1.183594 L 23.207031 -1.335938 L 23.261719 -1.488281 L 23.320312 -1.640625 L 23.386719 -1.789062 L 23.457031 -1.9375 L 23.535156 -2.082031 L 23.617188 -2.226562 L 23.703125 -2.367188 L 23.796875 -2.503906 L 23.894531 -2.640625 L 23.996094 -2.773438 L 24.105469 -2.902344 L 24.21875 -3.03125 L 24.335938 -3.15625 L 24.457031 -3.277344 L 24.582031 -3.394531 L 24.714844 -3.507812 L 24.851562 -3.617188 L 24.992188 -3.726562 L 25.136719 -3.832031 L 25.285156 -3.933594 L 25.4375 -4.03125 L 25.59375 -4.125 L 25.753906 -4.210938 L 25.914062 -4.292969 L 26.078125 -4.371094 L 26.246094 -4.445312 L 26.417969 -4.515625 L 26.589844 -4.582031 L 26.765625 -4.644531 L 26.945312 -4.699219 L 27.125 -4.75 L 27.308594 -4.796875 L 27.492188 -4.839844 L 27.675781 -4.878906 L 27.863281 -4.910156 L 28.050781 -4.9375 L 28.238281 -4.960938 L 28.425781 -4.980469 L 28.617188 -4.992188 L 28.808594 -5 L 29 -5.003906 " transform="matrix(0.000000000000000061, -1, 1, 0.000000000000000061, 237.5, 47.5)"/>
<path fill="none" stroke-width="1.136364" stroke-linecap="butt" stroke-linejoin="miter" stroke="rgb(0%, 0%, 0%)" stroke-opacity="1" stroke-miterlimit="10" d="M 21.5 0 L 21.5 -5 L 21.5 5 Z M 21.5 0 " transform="matrix(0.000000000000000061, -1, 1, 0.000000000000000061, 237.5, 47.5)"/>
<path fill="none" stroke-width="1.136364" stroke-linecap="butt" stroke-linejoin="miter" stroke="rgb(0%, 0%, 0%)" stroke-opacity="1" stroke-miterlimit="10" d="M 6.999156 0.000794713 L 21.928409 0.000338093 " transform="matrix(0.781831, -0.62349, 0.62349, 0.781831, 237.5, 47.5)"/>
<path fill="none" stroke-width="1.136364" stroke-linecap="butt" stroke-linejoin="miter" stroke="rgb(0%, 0%, 0%)" stroke-opacity="1" stroke-miterlimit="10" d="M 28.999548 -0.00141845 L 21.929088 -7.073855 L 21.927111 7.069041 Z M 28.999548 -0.00141845 " transform="matrix(0.781831, -0.62349, 0.62349, 0.781831, 237.5, 47.5)"/>
<path fill="none" stroke-width="1.136364" stroke-linecap="butt" stroke-linejoin="miter" stroke="rgb(0%, 0%, 0%)" stroke-opacity="1" stroke-miterlimit="10" d="M 28.752234 0.000475383 L 7.003749 0.000115798 L 28.752234 0.000475383 M 29.000519 -0.000100035 L 21.929123 -7.07264 L 29.000519 -0.000100035 L 21.927979 7.071295 Z M 29.000519 -0.000100035 " transform="matrix(0.974928, 0.222521, -0.222521, 0.974928, 237.5, 47.5)"/>
<path fill="none" stroke-width="1.136364" stroke-linecap="butt" stroke-linejoin="miter" stroke="rgb(0%, 0%, 0%)" stroke-opacity="1" stroke-miterlimit="10" d="M 28.748888 0.00113078 L 6.997232 0.000920096 L 28.748888 0.00113078 M 29.00047 0.000889092 L 21.931426 -7.071309 L 29.00047 0.000889092 L 21.928272 7.069933 Z M 29.00047 0.000889092 " transform="matrix(0.433884, 0.900969, -0.900969, 0.433884, 237.5, 47.5)"/>
<path fill="none" stroke-width="1.136364" stroke-linecap="butt" stroke-linejoin="miter" stroke="rgb(0%, 0%, 0%)" stroke-opacity="1" stroke-miterlimit="10" d="M 29.00047 -0.000889092 L 7.000752 -0.00261495 L 29.00047 -0.000889092 L 21.931426 7.071309 Z M 29.00047 -0.000889092 " transform="matrix(-0.433884, 0.900969, -0.900969, -0.433884, 237.5, 47.5)"/>
<path fill="none" stroke-width="1.136364" stroke-linecap="butt" stroke-linejoin="miter" stroke="rgb(0%, 0%, 0%)" stroke-opacity="1" stroke-miterlimit="10" d="M 26.000651 -0.0000105195 L 18.931607 7.072188 Z M 26.000651 -0.0000105195 " transform="matrix(-0.433884, 0.900969, -0.900969, -0.433884, 237.5, 47.5)"/>
<path fill="none" stroke-width="1.136364" stroke-linecap="butt" stroke-linejoin="miter" stroke="rgb(0%, 0%, 0%)" stroke-opacity="1" stroke-miterlimit="10" d="M 6.999941 -0.000985021 L 29.000519 0.000100035 " transform="matrix(-0.974928, 0.222521, -0.222521, -0.974928, 237.5, 47.5)"/>
<path fill="none" stroke-width="1.136364" stroke-linecap="butt" stroke-linejoin="miter" stroke="rgb(0%, 0%, 0%)" stroke-opacity="1" stroke-miterlimit="10" d="M 6.999156 -0.000794713 L 17.925843 -0.00102163 " transform="matrix(-0.781831, -0.62349, 0.62349, -0.781831, 237.5, 47.5)"/>
<path fill="none" stroke-width="1.136364" stroke-linecap="butt" stroke-linejoin="miter" stroke="rgb(0%, 0%, 0%)" stroke-opacity="1" stroke-miterlimit="10" d="M 24.427191 0.00046605 L 24.421818 0.319516 L 24.403031 0.634275 L 24.373265 0.947797 L 24.330084 1.257028 L 24.276543 1.559533 L 24.209587 1.857746 L 24.13227 2.149233 L 24.047647 2.431558 L 23.950228 2.704102 L 23.843067 2.96443 L 23.726164 3.212542 L 23.599519 3.448437 L 23.463132 3.672117 L 23.320056 3.881145 L 23.167858 4.072467 L 23.008971 4.249138 L 22.844015 4.405668 L 22.672371 4.547546 L 22.497093 4.672336 L 22.315745 4.776986 L 22.133818 4.862113 L 21.94582 4.927099 L 21.757244 4.972562 L 21.568087 4.998503 L 21.37835 5.004921 L 21.188033 4.991816 L 21.00019 4.956753 L 20.811768 4.902167 L 20.625819 4.825624 L 20.44478 4.730176 L 20.265597 4.61826 L 20.091323 4.487439 L 19.921959 4.337715 L 19.75994 4.17214 L 19.60283 3.987661 L 19.453066 3.787332 L 19.313082 3.574207 L 19.180443 3.345232 L 19.057585 3.103461 L 18.944508 2.848894 L 18.841211 2.581531 L 18.75013 2.304426 L 18.668212 2.020014 L 18.598509 1.72586 L 18.537969 1.4244 L 18.489026 1.118687 L 18.454735 0.806286 L 18.428987 0.492068 L 18.417272 0.176652 L 18.417155 -0.143017 L 18.430453 -0.458394 L 18.45473 -0.772535 L 18.489985 -1.085438 L 18.538656 -1.394051 L 18.597687 -1.695937 L 18.667078 -1.991096 L 18.749266 -2.276475 L 18.841814 -2.555127 L 18.944104 -2.821563 L 19.056136 -3.075783 L 19.17791 -3.317787 L 19.309426 -3.547574 L 19.44763 -3.76271 L 19.598012 -3.962576 L 19.752028 -4.145355 L 19.912731 -4.313482 L 20.082559 -4.463904 L 20.25602 -4.597238 L 20.43555 -4.710431 L 20.615661 -4.804102 L 20.801841 -4.877631 L 20.988601 -4.931638 L 21.175941 -4.966122 L 21.363861 -4.981084 L 21.552361 -4.976523 L 21.74144 -4.952439 L 21.9311 -4.908832 L 22.118286 -4.843268 L 22.300562 -4.758799 L 22.477928 -4.655426 L 22.655874 -4.532531 L 22.826475 -4.393785 L 22.992167 -4.236136 L 23.150514 -4.062636 L 23.303951 -3.870232 L 23.450042 -3.661978 L 23.586354 -3.440928 L 23.71532 -3.204028 L 23.834505 -2.954332 L 23.94391 -2.69184 L 24.041099 -2.419606 L 24.126072 -2.137629 L 24.201882 -1.848347 L 24.265477 -1.549322 L 24.317474 -1.246044 L 24.360308 -0.935461 L 24.391546 -0.620624 L 24.40875 -0.30459 L 24.414975 0.0102081 " transform="matrix(-0.781831, -0.62349, 0.62349, -0.781831, 237.5, 47.5)"/>
<path fill="none" stroke-width="1.136364" stroke-linecap="butt" stroke-linejoin="miter" stroke="rgb(0%, 0%, 0%)" stroke-opacity="1" stroke-miterlimit="10" d="M 16.927791 0.000489129 L 11.978102 4.951987 " transform="matrix(-0.781831, -0.62349, 0.62349, -0.781831, 237.5, 47.5)"/>
<path fill="none" stroke-width="1.136364" stroke-linecap="butt" stroke-linejoin="miter" stroke="rgb(0%, 0%, 0%)" stroke-opacity="1" stroke-miterlimit="10" d="M 28.999548 0.00141845 L 21.927111 -7.069041 L 28.999548 0.00141845 L 21.929088 7.073855 Z M 28.999548 0.00141845 " transform="matrix(-0.781831, -0.62349, 0.62349, -0.781831, 237.5, 47.5)"/>
<path fill="none" stroke-width="1.136364" stroke-linecap="butt" stroke-linejoin="miter" stroke="rgb(0%, 0%, 0%)" stroke-opacity="1" stroke-miterlimit="10" d="M 13.928766 -0.00108665 L 8.979076 4.950411 " transform="matrix(-0.781831, -0.62349, 0.62349, -0.781831, 237.5, 47.5)"/>
</svg>
