<?xml version="1.0" encoding="UTF-8"?>
<svg xmlns="http://www.w3.org/2000/svg" xmlns:xlink="http://www.w3.org/1999/xlink" width="397.544144" height="198.772072" viewBox="0 0 397.544144 198.772072">
<path fill="none" stroke-width="1.136364" stroke-linecap="butt" stroke-linejoin="miter" stroke="rgb(0%, 0%, 0%)" stroke-opacity="1" stroke-miterlimit="10" d="M 11.385107 -0.00161172 C 11.385107 6.287451 6.287451 11.385107 -0.00161172 11.385107 C -6.286768 11.385107 -11.384424 6.287451 -11.384424 -0.00161172 C -11.384424 -6.286768 -6.286768 -11.384424 -0.00161172 -11.384424 C 6.287451 -11.384424 11.385107 -6.286768 11.385107 -0.00161172 " transform="matrix(1, 0, 0, 1, 49.693018, 49.693018)"/>
<path fill="none" stroke-width="1.136364" stroke-linecap="butt" stroke-linejoin="miter" stroke="rgb(0%, 0%, 0%)" stroke-opacity="1" stroke-miterlimit="10" d="M 11.384424 -0.00161172 L 3.79458 -0.00161172 " transform="matrix(0.000000000000000061, -1, 1, 0.000000000000000061, 49.693018, 49.693018)"/>
<path fill="none" stroke-width="1.136364" stroke-linecap="butt" stroke-linejoin="miter" stroke="rgb(0%, 0%, 0%)" stroke-opacity="1" stroke-miterlimit="10" d="M 11.384424 -0.00161172 L 21.814112 -0.00161172 " transform="matrix(0.000000000000000061, -1, 1, 0.000000000000000061, 49.693018, 49.693018)"/>
<path fill="none" stroke-width="1.136364" stroke-linecap="butt" stroke-linejoin="miter" stroke="rgb(0%, 0%, 0%)" stroke-opacity="1" stroke-miterlimit="10" d="M 28.314112 -0.00161172 L 28.306299 0.314795 L 28.286768 0.631201 L 28.255518 0.943701 L 28.212549 1.252295 L 28.157862 1.556982 L 28.091455 1.853857 L 28.01333 2.14292 L 27.927393 2.42417 L 27.829737 2.697607 L 27.720362 2.959326 L 27.603174 3.209326 L 27.478174 3.447607 L 27.341455 3.670263 L 27.196924 3.877295 L 27.04458 4.068701 L 26.884424 4.244482 L 26.720362 4.404638 L 26.548487 4.545263 L 26.372705 4.666357 L 26.193018 4.771826 L 26.009424 4.857763 L 25.821924 4.92417 L 25.634424 4.971045 L 25.443018 4.994482 L 25.251612 4.998388 L 25.060205 4.982763 L 24.872705 4.947607 L 24.685205 4.89292 L 24.501612 4.818701 L 24.318018 4.724951 L 24.13833 4.61167 L 23.966455 4.478857 L 23.798487 4.33042 L 23.63833 4.162451 L 23.48208 3.978857 L 23.333643 3.779638 L 23.193018 3.564795 L 23.060205 3.334326 L 22.939112 3.092138 L 22.82583 2.838232 L 22.724268 2.572607 L 22.630518 2.295263 L 22.548487 2.010107 L 22.478174 1.717138 L 22.41958 1.416357 L 22.372705 1.107763 L 22.337549 0.795263 L 22.314112 0.478857 L 22.302393 0.162451 L 22.302393 -0.153955 L 22.314112 -0.470362 L 22.337549 -0.786768 L 22.372705 -1.099268 L 22.41958 -1.407862 L 22.478174 -1.708643 L 22.548487 -2.001612 L 22.630518 -2.286768 L 22.724268 -2.564112 L 22.82583 -2.829737 L 22.939112 -3.083643 L 23.060205 -3.32583 L 23.193018 -3.556299 L 23.333643 -3.771143 L 23.48208 -3.970362 L 23.63833 -4.153955 L 23.798487 -4.321924 L 23.966455 -4.470362 L 24.13833 -4.603174 L 24.318018 -4.716455 L 24.501612 -4.810205 L 24.685205 -4.884424 L 24.872705 -4.939112 L 25.060205 -4.974268 L 25.251612 -4.989893 L 25.443018 -4.985987 L 25.634424 -4.962549 L 25.821924 -4.915674 L 26.009424 -4.849268 L 26.193018 -4.76333 L 26.372705 -4.657862 L 26.548487 -4.536768 L 26.720362 -4.396143 L 26.884424 -4.235987 L 27.04458 -4.060205 L 27.196924 -3.868799 L 27.341455 -3.661768 L 27.478174 -3.439112 L 27.603174 -3.20083 L 27.720362 -2.95083 L 27.829737 -2.689112 L 27.927393 -2.415674 L 28.01333 -2.134424 L 28.091455 -1.845362 L 28.157862 -1.548487 L 28.212549 -1.243799 L 28.255518 -0.935205 L 28.286768 -0.622705 L 28.306299 -0.306299 L 28.314112 0.010107 " transform="matrix(0.000000000000000061, -1, 1, 0.000000000000000061, 49.693018, 49.693018)"/>
<path fill="none" stroke-width="1.136364" stroke-linecap="butt" stroke-linejoin="miter" stroke="rgb(0%, 0%, 0%)" stroke-opacity="1" stroke-miterlimit="10" d="M 20.314112 -0.00161172 L 20.314112 -5.001612 L 20.314112 4.998388 Z M 20.314112 -0.00161172 " transform="matrix(0.000000000000000061, -1, 1, 0.000000000000000061, 49.693018, 49.693018)"/>
<path fill="none" stroke-width="1.136364" stroke-linecap="butt" stroke-linejoin="miter" stroke="rgb(0%, 0%, 0%)" stroke-opacity="1" stroke-miterlimit="10" d="M 33.384424 -0.00161172 L 26.314112 -7.071924 L 33.384424 -0.00161172 L 26.314112 7.068701 Z M 33.384424 -0.00161172 " transform="matrix(0.000000000000000061, -1, 1, 0.000000000000000061, 49.693018, 49.693018)"/>
<path fill="none" stroke-width="1.136364" stroke-linecap="butt" stroke-linejoin="miter" stroke="rgb(0%, 0%, 0%)" stroke-opacity="1" stroke-miterlimit="10" d="M 11.387227 0.00169279 L 24.386303 0.00307048 " transform="matrix(0.951057, -0.309017, 0.309017, 0.951057, 49.693018, 49.693018)"/>
<path fill="none" stroke-width="1.136364" stroke-linecap="butt" stroke-linejoin="miter" stroke="rgb(0%, 0%, 0%)" stroke-opacity="1" stroke-miterlimit="10" d="M 10.08522 0.00169449 L 10.08058 0.0412593 L 10.068509 0.07841 L 10.039257 0.130515 L 10.01474 0.155407 L 9.982793 0.177885 L 9.968026 0.185409 L 9.931063 0.198042 L 9.896514 0.203246 L 9.875525 0.20464 L 9.83596 0.199999 L 9.798809 0.187929 L 9.764073 0.168427 L 9.747912 0.154962 L 9.735466 0.142703 L 9.701749 0.0947825 L 9.682798 0.0393379 L 9.680197 0.0220634 L 9.678802 0.00107389 L 9.683443 -0.038491 L 9.695514 -0.0756416 L 9.724765 -0.127746 L 9.749282 -0.152638 L 9.78123 -0.175116 L 9.795996 -0.18264 L 9.832959 -0.195274 L 9.867508 -0.200477 L 9.888498 -0.201872 L 9.928063 -0.197231 L 9.965213 -0.18516 L 9.99995 -0.165659 L 10.016111 -0.152193 L 10.028557 -0.139935 L 10.062274 -0.0920141 L 10.081224 -0.0365695 L 10.083826 -0.019295 L 10.08522 0.00169449 L 10.08058 0.0412593 L 10.068509 0.07841 L 10.039257 0.130515 L 10.01474 0.155407 L 9.982793 0.177885 L 9.968026 0.185409 L 9.931063 0.198042 L 9.896514 0.203246 L 9.875525 0.20464 L 9.83596 0.199999 L 9.798809 0.187929 L 9.764073 0.168427 L 9.747912 0.154962 L 9.735466 0.142703 L 9.701749 0.0947825 L 9.682798 0.0393379 L 9.680197 0.0220634 L 9.678802 0.00107389 " transform="matrix(0.951057, -0.309017, 0.309017, 0.951057, 49.693018, 49.693018)"/>
<path fill="none" stroke-width="1.136364" stroke-linecap="butt" stroke-linejoin="miter" stroke="rgb(0%, 0%, 0%)" stroke-opacity="1" stroke-miterlimit="10" d="M 11.38812 0.000084226 L 26.316425 0.00156794 " transform="matrix(0.587785, 0.809017, -0.809017, 0.587785, 49.693018, 49.693018)"/>
<path fill="none" stroke-width="1.136364" stroke-linecap="butt" stroke-linejoin="miter" stroke="rgb(0%, 0%, 0%)" stroke-opacity="1" stroke-miterlimit="10" d="M 33.385974 0.000487968 L 26.315345 -7.06798 L 26.315209 7.074277 Z M 33.385974 0.000487968 " transform="matrix(0.587785, 0.809017, -0.809017, 0.587785, 49.693018, 49.693018)"/>
<path fill="none" stroke-width="1.136364" stroke-linecap="butt" stroke-linejoin="miter" stroke="rgb(0%, 0%, 0%)" stroke-opacity="1" stroke-miterlimit="10" d="M 24.313826 -0.0000600462 L 24.316032 -5.00067 L 24.31162 5.00055 Z M 24.313826 -0.0000600462 " transform="matrix(0.587785, 0.809017, -0.809017, 0.587785, 49.693018, 49.693018)"/>
<path fill="none" stroke-width="1.136364" stroke-linecap="butt" stroke-linejoin="miter" stroke="rgb(0%, 0%, 0%)" stroke-opacity="1" stroke-miterlimit="10" d="M 33.133992 -0.00173496 L 11.382262 -0.00150082 L 33.133992 -0.00173496 M 33.385572 -0.00104038 L 26.317104 -7.071669 L 33.385572 -0.00104038 L 26.314944 7.067428 Z M 33.385572 -0.00104038 " transform="matrix(-0.587785, 0.809017, -0.809017, -0.587785, 49.693018, 49.693018)"/>
<path fill="none" stroke-width="1.136364" stroke-linecap="butt" stroke-linejoin="miter" stroke="rgb(0%, 0%, 0%)" stroke-opacity="1" stroke-miterlimit="10" d="M 26.386818 -0.0000207707 L 11.386578 -0.00148179 L 26.386818 -0.0000207707 L 33.458233 -7.070315 L 26.386818 -0.0000207707 L 33.457113 7.071394 Z M 26.386818 -0.0000207707 " transform="matrix(-0.951057, -0.309017, 0.309017, -0.951057, 49.693018, 49.693018)"/>
<path fill="none" stroke-width="1.136364" stroke-linecap="butt" stroke-linejoin="miter" stroke="rgb(0%, 0%, 0%)" stroke-opacity="1" stroke-miterlimit="10" d="M 25.384982 0.00102096 L 25.387109 -4.998223 L 25.382854 5.000265 Z M 25.384982 0.00102096 " transform="matrix(-0.951057, -0.309017, 0.309017, -0.951057, 49.693018, 49.693018)"/>
<path fill="none" stroke-width="1.136364" stroke-linecap="butt" stroke-linejoin="miter" stroke="rgb(0%, 0%, 0%)" stroke-opacity="1" stroke-miterlimit="10" d="M 22.386902 0.00173194 L 22.38903 -4.997512 L 22.384775 5.000976 Z M 22.386902 0.00173194 " transform="matrix(-0.951057, -0.309017, 0.309017, -0.951057, 49.693018, 49.693018)"/>
<path fill="none" stroke-width="1.136364" stroke-linecap="butt" stroke-linejoin="miter" stroke="rgb(0%, 0%, 0%)" stroke-opacity="1" stroke-miterlimit="10" d="M 11.38579 -0.00161172 C 11.38579 6.287451 6.288134 11.385107 -0.000928898 11.385107 C -6.289991 11.385107 -11.387648 6.287451 -11.387648 -0.00161172 C -11.387648 -6.286768 -6.289991 -11.384424 -0.000928898 -11.384424 C 6.288134 -11.384424 11.38579 -6.286768 11.38579 -0.00161172 " transform="matrix(1, 0, 0, 1, 149.079054, 49.693018)"/>
<path fill="none" stroke-width="1.136364" stroke-linecap="butt" stroke-linejoin="miter" stroke="rgb(0%, 0%, 0%)" stroke-opacity="1" stroke-miterlimit="10" d="M 11.384424 -0.000928898 L 3.79458 -0.000928898 " transform="matrix(0.000000000000000061, -1, 1, 0.000000000000000061, 149.079054, 49.693018)"/>
<path fill="none" stroke-width="1.136364" stroke-linecap="butt" stroke-linejoin="miter" stroke="rgb(0%, 0%, 0%)" stroke-opacity="1" stroke-miterlimit="10" d="M 11.384424 -0.000928898 L 27.384424 -0.000928898 " transform="matrix(0.000000000000000061, -1, 1, 0.000000000000000061, 149.079054, 49.693018)"/>
<path fill="none" stroke-width="1.136364" stroke-linecap="butt" stroke-linejoin="miter" stroke="rgb(0%, 0%, 0%)" stroke-opacity="1" stroke-miterlimit="10" d="M 27.384424 2.999071 L 27.384424 -3.000929 L 33.384424 -3.000929 L 33.384424 2.999071 L 33.384424 -3.000929 L 27.384424 -3.000929 Z M 27.384424 2.999071 " transform="matrix(0.000000000000000061, -1, 1, 0.000000000000000061, 149.079054, 49.693018)"/>
<path fill="none" stroke-width="1.136364" stroke-linecap="butt" stroke-linejoin="miter" stroke="rgb(0%, 0%, 0%)" stroke-opacity="1" stroke-miterlimit="10" d="M 25.884424 -0.000928898 L 25.884424 -5.000929 L 25.884424 4.999071 Z M 25.884424 -0.000928898 " transform="matrix(0.000000000000000061, -1, 1, 0.000000000000000061, 149.079054, 49.693018)"/>
<path fill="none" stroke-width="1.136364" stroke-linecap="butt" stroke-linejoin="miter" stroke="rgb(0%, 0%, 0%)" stroke-opacity="1" stroke-miterlimit="10" d="M 33.136558 -0.000140263 L 11.387876 0.0019038 L 33.136558 -0.000140263 M 33.387319 -0.000808598 L 26.315904 -7.071103 L 33.387319 -0.000808598 L 26.317024 7.070606 Z M 33.387319 -0.000808598 " transform="matrix(0.951057, -0.309017, 0.309017, 0.951057, 149.079054, 49.693018)"/>
<path fill="none" stroke-width="1.136364" stroke-linecap="butt" stroke-linejoin="miter" stroke="rgb(0%, 0%, 0%)" stroke-opacity="1" stroke-miterlimit="10" d="M 11.388521 -0.000468185 L 26.316827 0.00101553 " transform="matrix(0.587785, 0.809017, -0.809017, 0.587785, 149.079054, 49.693018)"/>
<path fill="none" stroke-width="1.136364" stroke-linecap="butt" stroke-linejoin="miter" stroke="rgb(0%, 0%, 0%)" stroke-opacity="1" stroke-miterlimit="10" d="M 33.386375 -0.000064443 L 26.315747 -7.068533 L 26.315611 7.073724 Z M 33.386375 -0.000064443 " transform="matrix(0.587785, 0.809017, -0.809017, 0.587785, 149.079054, 49.693018)"/>
<path fill="none" stroke-width="1.136364" stroke-linecap="butt" stroke-linejoin="miter" stroke="rgb(0%, 0%, 0%)" stroke-opacity="1" stroke-miterlimit="10" d="M 11.387317 -0.00118905 L 24.385683 -0.00072287 " transform="matrix(-0.587785, 0.809017, -0.809017, -0.587785, 149.079054, 49.693018)"/>
<path fill="none" stroke-width="1.136364" stroke-linecap="butt" stroke-linejoin="miter" stroke="rgb(0%, 0%, 0%)" stroke-opacity="1" stroke-miterlimit="10" d="M 10.084034 -0.000662927 L 10.083737 0.0188661 L 10.081145 0.0352348 L 10.069639 0.0725645 L 10.053542 0.103574 L 10.042333 0.121374 L 10.015323 0.150655 L 9.98372 0.173615 L 9.947526 0.190255 L 9.927133 0.195415 L 9.892667 0.201142 L 9.853609 0.200549 L 9.797614 0.183291 L 9.78211 0.175242 L 9.764309 0.164033 L 9.735028 0.137023 L 9.712068 0.105421 L 9.687108 0.0511294 L 9.681948 0.0307362 L 9.679085 0.0135033 L 9.679678 -0.0255547 L 9.68227 -0.0419235 L 9.693776 -0.0792531 L 9.709874 -0.110262 L 9.721083 -0.128063 L 9.748093 -0.157344 L 9.779695 -0.180304 L 9.815889 -0.196944 L 9.836282 -0.202104 L 9.870748 -0.207831 L 9.909806 -0.207238 L 9.965801 -0.18998 L 9.981305 -0.181931 L 9.999106 -0.170722 L 10.028387 -0.143712 L 10.051347 -0.11211 L 10.076307 -0.0578181 L 10.081467 -0.0374249 L 10.084331 -0.0201919 L 10.083737 0.0188661 L 10.081145 0.0352348 L 10.069639 0.0725645 L 10.053542 0.103574 L 10.042333 0.121374 L 10.015323 0.150655 L 9.98372 0.173615 L 9.947526 0.190255 L 9.927133 0.195415 L 9.892667 0.201142 L 9.853609 0.200549 L 9.797614 0.183291 L 9.78211 0.175242 L 9.764309 0.164033 L 9.735028 0.137023 L 9.712068 0.105421 L 9.687108 0.0511294 L 9.681948 0.0307362 L 9.679085 0.0135033 L 9.679381 -0.00602573 " transform="matrix(-0.587785, 0.809017, -0.809017, -0.587785, 149.079054, 49.693018)"/>
<path fill="none" stroke-width="1.136364" stroke-linecap="butt" stroke-linejoin="miter" stroke="rgb(0%, 0%, 0%)" stroke-opacity="1" stroke-miterlimit="10" d="M 33.13461 0.00077327 L 11.385928 -0.00127079 L 33.13461 0.00077327 M 33.385371 0.00144161 L 26.315076 -7.069973 L 33.385371 0.00144161 L 26.313956 7.071736 Z M 33.385371 0.00144161 " transform="matrix(-0.951057, -0.309017, 0.309017, -0.951057, 149.079054, 49.693018)"/>
<path fill="none" stroke-width="1.136364" stroke-linecap="butt" stroke-linejoin="miter" stroke="rgb(0%, 0%, 0%)" stroke-opacity="1" stroke-miterlimit="10" d="M 11.386473 -0.00161172 C 11.386473 6.287451 6.288816 11.385107 -0.00024608 11.385107 C -6.289309 11.385107 -11.386965 6.287451 -11.386965 -0.00161172 C -11.386965 -6.286768 -6.289309 -11.384424 -0.00024608 -11.384424 C 6.288816 -11.384424 11.386473 -6.286768 11.386473 -0.00161172 " transform="matrix(1, 0, 0, 1, 248.46509, 49.693018)"/>
<path fill="none" stroke-width="1.136364" stroke-linecap="butt" stroke-linejoin="miter" stroke="rgb(0%, 0%, 0%)" stroke-opacity="1" stroke-miterlimit="10" d="M 11.384424 -0.00024608 L 3.79458 -0.00024608 " transform="matrix(0.000000000000000061, -1, 1, 0.000000000000000061, 248.46509, 49.693018)"/>
<path fill="none" stroke-width="1.136364" stroke-linecap="butt" stroke-linejoin="miter" stroke="rgb(0%, 0%, 0%)" stroke-opacity="1" stroke-miterlimit="10" d="M 11.384424 -0.00024608 L 26.884424 -0.00024608 " transform="matrix(0.000000000000000061, -1, 1, 0.000000000000000061, 248.46509, 49.693018)"/>
<path fill="none" stroke-width="1.136364" stroke-linecap="butt" stroke-linejoin="miter" stroke="rgb(0%, 0%, 0%)" stroke-opacity="1" stroke-miterlimit="10" d="M 33.384424 -0.00024608 L 33.376612 0.31616 L 33.35708 0.632566 L 33.32583 0.945066 L 33.282862 1.25366 L 33.228174 1.558348 L 33.161768 1.855223 L 33.083643 2.144285 L 32.997705 2.425535 L 32.900049 2.698973 L 32.790674 2.960691 L 32.673487 3.210691 L 32.548487 3.448973 L 32.411768 3.671629 L 32.267237 3.87866 L 32.114893 4.070066 L 31.954737 4.245848 L 31.790674 4.406004 L 31.618799 4.546629 L 31.443018 4.667723 L 31.26333 4.773191 L 31.079737 4.859129 L 30.892237 4.925535 L 30.704737 4.97241 L 30.51333 4.995848 L 30.321924 4.999754 L 30.130518 4.984129 L 29.943018 4.948973 L 29.755518 4.894285 L 29.571924 4.820066 L 29.38833 4.726316 L 29.208643 4.613035 L 29.036768 4.480223 L 28.868799 4.331785 L 28.708643 4.163816 L 28.552393 3.980223 L 28.403955 3.781004 L 28.26333 3.56616 L 28.130518 3.335691 L 28.009424 3.093504 L 27.896143 2.839598 L 27.79458 2.573973 L 27.70083 2.296629 L 27.618799 2.011473 L 27.548487 1.718504 L 27.489893 1.417723 L 27.443018 1.109129 L 27.407862 0.796629 L 27.384424 0.480223 L 27.372705 0.163816 L 27.372705 -0.15259 L 27.384424 -0.468996 L 27.407862 -0.785402 L 27.443018 -1.097902 L 27.489893 -1.406496 L 27.548487 -1.707277 L 27.618799 -2.000246 L 27.70083 -2.285402 L 27.79458 -2.562746 L 27.896143 -2.828371 L 28.009424 -3.082277 L 28.130518 -3.324465 L 28.26333 -3.554934 L 28.403955 -3.769777 L 28.552393 -3.968996 L 28.708643 -4.15259 L 28.868799 -4.320559 L 29.036768 -4.468996 L 29.208643 -4.601809 L 29.38833 -4.71509 L 29.571924 -4.80884 L 29.755518 -4.883059 L 29.943018 -4.937746 L 30.130518 -4.972902 L 30.321924 -4.988527 L 30.51333 -4.984621 L 30.704737 -4.961184 L 30.892237 -4.914309 L 31.079737 -4.847902 L 31.26333 -4.761965 L 31.443018 -4.656496 L 31.618799 -4.535402 L 31.790674 -4.394777 L 31.954737 -4.234621 L 32.114893 -4.05884 L 32.267237 -3.867434 L 32.411768 -3.660402 L 32.548487 -3.437746 L 32.673487 -3.199465 L 32.790674 -2.949465 L 32.900049 -2.687746 L 32.997705 -2.414309 L 33.083643 -2.133059 L 33.161768 -1.843996 L 33.228174 -1.547121 L 33.282862 -1.242434 L 33.32583 -0.93384 L 33.35708 -0.62134 L 33.376612 -0.304934 L 33.384424 0.0114727 " transform="matrix(0.000000000000000061, -1, 1, 0.000000000000000061, 248.46509, 49.693018)"/>
<path fill="none" stroke-width="1.136364" stroke-linecap="butt" stroke-linejoin="miter" stroke="rgb(0%, 0%, 0%)" stroke-opacity="1" stroke-miterlimit="10" d="M 26.385061 -0.0000179288 L 11.386261 -0.0000640857 L 26.385061 -0.0000179288 L 33.457497 -7.070478 L 26.385061 -0.0000179288 L 33.455521 7.072418 Z M 26.385061 -0.0000179288 " transform="matrix(0.781831, -0.62349, 0.62349, 0.781831, 248.46509, 49.693018)"/>
<path fill="none" stroke-width="1.136364" stroke-linecap="butt" stroke-linejoin="miter" stroke="rgb(0%, 0%, 0%)" stroke-opacity="1" stroke-miterlimit="10" d="M 25.38701 -0.00152869 L 25.387837 -5.002147 L 25.386182 4.999089 Z M 25.38701 -0.00152869 " transform="matrix(0.781831, -0.62349, 0.62349, 0.781831, 248.46509, 49.693018)"/>
<path fill="none" stroke-width="1.136364" stroke-linecap="butt" stroke-linejoin="miter" stroke="rgb(0%, 0%, 0%)" stroke-opacity="1" stroke-miterlimit="10" d="M 22.387984 0.0000470881 L 22.388811 -5.000571 L 22.387157 5.000665 Z M 22.387984 0.0000470881 " transform="matrix(0.781831, -0.62349, 0.62349, 0.781831, 248.46509, 49.693018)"/>
<path fill="none" stroke-width="1.136364" stroke-linecap="butt" stroke-linejoin="miter" stroke="rgb(0%, 0%, 0%)" stroke-opacity="1" stroke-miterlimit="10" d="M 33.139043 -0.000761653 L 11.390558 -0.00112124 L 33.139043 -0.000761653 M 33.387328 -0.00133707 L 26.315932 -7.073877 L 33.387328 -0.00133707 L 26.314788 7.070058 Z M 33.387328 -0.00133707 " transform="matrix(0.974928, 0.222521, -0.222521, 0.974928, 248.46509, 49.693018)"/>
<path fill="none" stroke-width="1.136364" stroke-linecap="butt" stroke-linejoin="miter" stroke="rgb(0%, 0%, 0%)" stroke-opacity="1" stroke-miterlimit="10" d="M 30.386265 -0.00151087 L 23.313725 7.069884 Z M 30.386265 -0.00151087 " transform="matrix(0.974928, 0.222521, -0.222521, 0.974928, 248.46509, 49.693018)"/>
<path fill="none" stroke-width="1.136364" stroke-linecap="butt" stroke-linejoin="miter" stroke="rgb(0%, 0%, 0%)" stroke-opacity="1" stroke-miterlimit="10" d="M 33.134368 0.00189735 L 11.382712 0.00168667 L 33.134368 0.00189735 M 33.38595 0.00165567 L 26.316906 -7.070543 L 33.38595 0.00165567 L 26.313751 7.070699 Z M 33.38595 0.00165567 " transform="matrix(0.433884, 0.900969, -0.900969, 0.433884, 248.46509, 49.693018)"/>
<path fill="none" stroke-width="1.136364" stroke-linecap="butt" stroke-linejoin="miter" stroke="rgb(0%, 0%, 0%)" stroke-opacity="1" stroke-miterlimit="10" d="M 25.387605 -0.00012224 L 25.388504 -4.998648 L 25.386705 4.998403 Z M 25.387605 -0.00012224 " transform="matrix(0.433884, 0.900969, -0.900969, 0.433884, 248.46509, 49.693018)"/>
<path fill="none" stroke-width="1.136364" stroke-linecap="butt" stroke-linejoin="miter" stroke="rgb(0%, 0%, 0%)" stroke-opacity="1" stroke-miterlimit="10" d="M 23.385379 -0.00183786 L 23.386278 -5.000364 L 23.384479 4.996688 Z M 23.385379 -0.00183786 " transform="matrix(0.433884, 0.900969, -0.900969, 0.433884, 248.46509, 49.693018)"/>
<path fill="none" stroke-width="1.136364" stroke-linecap="butt" stroke-linejoin="miter" stroke="rgb(0%, 0%, 0%)" stroke-opacity="1" stroke-miterlimit="10" d="M 11.38814 0.000581301 L 33.387858 0.00230716 " transform="matrix(-0.433884, 0.900969, -0.900969, -0.433884, 248.46509, 49.693018)"/>
<path fill="none" stroke-width="1.136364" stroke-linecap="butt" stroke-linejoin="miter" stroke="rgb(0%, 0%, 0%)" stroke-opacity="1" stroke-miterlimit="10" d="M 33.386163 -0.00121225 L 33.385264 -4.999738 L 33.387062 4.997313 Z M 33.386163 -0.00121225 " transform="matrix(-0.433884, 0.900969, -0.900969, -0.433884, 248.46509, 49.693018)"/>
<path fill="none" stroke-width="1.136364" stroke-linecap="butt" stroke-linejoin="miter" stroke="rgb(0%, 0%, 0%)" stroke-opacity="1" stroke-miterlimit="10" d="M 11.38723 0.000361531 L 27.385682 0.00179419 " transform="matrix(-0.974928, 0.222521, -0.222521, -0.974928, 248.46509, 49.693018)"/>
<path fill="none" stroke-width="1.136364" stroke-linecap="butt" stroke-linejoin="miter" stroke="rgb(0%, 0%, 0%)" stroke-opacity="1" stroke-miterlimit="10" d="M 33.384579 5.001079 L 33.193087 4.99744 L 33.002465 4.989992 L 32.812713 4.978736 L 32.624698 4.959863 L 32.437553 4.937182 L 32.251277 4.910692 L 32.065871 4.880395 L 31.882202 4.84248 L 31.699403 4.800758 L 31.517474 4.755227 L 31.337282 4.702079 L 31.15796 4.645123 L 30.983316 4.585228 L 30.81041 4.517716 L 30.638373 4.446396 L 30.471013 4.372137 L 30.304523 4.29407 L 30.14358 4.209255 L 29.983506 4.120632 L 29.828109 4.02907 L 29.67739 3.934569 L 29.528409 3.832451 L 29.384106 3.727394 L 29.244481 3.619398 L 29.109533 3.508463 L 28.979262 3.394589 L 28.853669 3.277775 L 28.732754 3.158023 L 28.616516 3.035331 L 28.504955 2.909701 L 28.398073 2.781131 L 28.295867 2.649622 L 28.19834 2.515175 L 28.105489 2.377788 L 28.017317 2.237462 L 27.933822 2.094196 L 27.858812 1.948861 L 27.78848 1.800587 L 27.722826 1.649374 L 27.664789 1.499899 L 27.611428 1.347486 L 27.562746 1.192133 L 27.52168 1.038518 L 27.485292 0.881965 L 27.45652 0.72715 L 27.432426 0.569395 L 27.41214 0.41251 L 27.40034 0.253556 L 27.392348 0.0954699 L 27.392842 -0.0646856 L 27.397144 -0.223972 L 27.409063 -0.38152 L 27.428599 -0.537329 L 27.452812 -0.696077 L 27.484642 -0.853088 L 27.52028 -1.009228 L 27.563535 -1.163631 L 27.610598 -1.317164 L 27.665278 -1.468958 L 27.723766 -1.619884 L 27.78987 -1.769071 L 27.859783 -1.917389 L 27.937313 -2.063968 L 28.017781 -2.20587 L 28.105867 -2.346033 L 28.19776 -2.485327 L 28.29727 -2.622883 L 28.39972 -2.755761 L 28.509786 -2.886901 L 28.622791 -3.013363 L 28.739604 -3.138956 L 28.863165 -3.259002 L 28.990534 -3.378179 L 29.120842 -3.492679 L 29.258767 -3.60544 L 29.39963 -3.713523 L 29.543433 -3.816929 L 29.690175 -3.915658 L 29.840726 -4.013517 L 29.994215 -4.106699 L 30.154452 -4.194333 L 30.317628 -4.277291 L 30.483743 -4.355571 L 30.652797 -4.429173 L 30.82479 -4.498098 L 30.995914 -4.563214 L 31.169977 -4.623653 L 31.346979 -4.679414 L 31.52692 -4.730498 L 31.709801 -4.776905 L 31.891812 -4.819503 L 32.076762 -4.857423 L 32.264651 -4.890666 L 32.451671 -4.920101 L 32.640761 -4.941049 L 32.828982 -4.95819 L 33.020142 -4.970653 L 33.210432 -4.979307 L 33.398984 -4.980345 " transform="matrix(-0.974928, 0.222521, -0.222521, -0.974928, 248.46509, 49.693018)"/>
<path fill="none" stroke-width="1.136364" stroke-linecap="butt" stroke-linejoin="miter" stroke="rgb(0%, 0%, 0%)" stroke-opacity="1" stroke-miterlimit="10" d="M 11.386646 -0.000242771 L 26.885689 0.000482707 " transform="matrix(-0.781831, -0.62349, 0.62349, -0.781831, 248.46509, 49.693018)"/>
<path fill="none" stroke-width="1.136364" stroke-linecap="butt" stroke-linejoin="miter" stroke="rgb(0%, 0%, 0%)" stroke-opacity="1" stroke-miterlimit="10" d="M 33.384602 -0.00108364 L 33.37923 0.317967 L 33.360442 0.632726 L 33.330676 0.946248 L 33.287495 1.255479 L 33.233954 1.557983 L 33.166998 1.856197 L 33.089682 2.147683 L 33.005059 2.430008 L 32.907639 2.702552 L 32.800478 2.96288 L 32.683575 3.210992 L 32.55693 3.446888 L 32.420543 3.670567 L 32.277468 3.879595 L 32.125269 4.070918 L 31.966382 4.247588 L 31.801426 4.404118 L 31.629782 4.545996 L 31.454504 4.670787 L 31.273156 4.775436 L 31.091229 4.860563 L 30.903232 4.925549 L 30.714655 4.971012 L 30.525498 4.996953 L 30.335761 5.003371 L 30.145444 4.990266 L 29.957602 4.955203 L 29.769179 4.900618 L 29.58323 4.824074 L 29.402191 4.728626 L 29.223008 4.61671 L 29.048734 4.48589 L 28.87937 4.336165 L 28.717351 4.17059 L 28.560241 3.986111 L 28.410477 3.785783 L 28.270493 3.572658 L 28.137855 3.343683 L 28.014997 3.101912 L 27.901919 2.847344 L 27.798622 2.579981 L 27.707541 2.302876 L 27.625623 2.018464 L 27.55592 1.72431 L 27.49538 1.42285 L 27.446437 1.117137 L 27.412146 0.804737 L 27.386398 0.490519 L 27.374684 0.175103 L 27.374567 -0.144566 L 27.387864 -0.459944 L 27.412141 -0.774084 L 27.447397 -1.086988 L 27.496067 -1.395601 L 27.555098 -1.697486 L 27.624489 -1.992646 L 27.706677 -2.278025 L 27.799225 -2.556677 L 27.901515 -2.823113 L 28.013547 -3.077333 L 28.135321 -3.319336 L 28.266837 -3.549124 L 28.405042 -3.76426 L 28.555423 -3.964126 L 28.709439 -4.146905 L 28.870143 -4.315032 L 29.03997 -4.465453 L 29.213431 -4.598788 L 29.392962 -4.711981 L 29.573072 -4.805652 L 29.759252 -4.879181 L 29.946012 -4.933188 L 30.133352 -4.967672 L 30.321272 -4.982633 L 30.509772 -4.978072 L 30.698851 -4.953988 L 30.888511 -4.910382 L 31.075697 -4.844817 L 31.257973 -4.760349 L 31.435339 -4.656976 L 31.613285 -4.534081 L 31.783887 -4.395335 L 31.949578 -4.237685 L 32.107925 -4.064186 L 32.261362 -3.871782 L 32.407454 -3.663528 L 32.543765 -3.442478 L 32.672731 -3.205578 L 32.791917 -2.955882 L 32.901321 -2.693389 L 32.99851 -2.421155 L 33.083483 -2.139179 L 33.159294 -1.849896 L 33.222888 -1.550871 L 33.274885 -1.247594 L 33.31772 -0.93701 L 33.348957 -0.622174 L 33.366161 -0.306139 L 33.372386 0.00865839 " transform="matrix(-0.781831, -0.62349, 0.62349, -0.781831, 248.46509, 49.693018)"/>
<path fill="none" stroke-width="1.136364" stroke-linecap="butt" stroke-linejoin="miter" stroke="rgb(0%, 0%, 0%)" stroke-opacity="1" stroke-miterlimit="10" d="M 25.885202 -0.00106056 L 18.814742 7.071376 " transform="matrix(-0.781831, -0.62349, 0.62349, -0.781831, 248.46509, 49.693018)"/>
<path fill="none" stroke-width="1.136364" stroke-linecap="butt" stroke-linejoin="miter" stroke="rgb(0%, 0%, 0%)" stroke-opacity="1" stroke-miterlimit="10" d="M 11.385107 -0.000928898 C 11.385107 6.288134 6.287451 11.38579 -0.00161172 11.38579 C -6.286768 11.38579 -11.384424 6.288134 -11.384424 -0.000928898 C -11.384424 -6.289991 -6.286768 -11.387648 -0.00161172 -11.387648 C 6.287451 -11.387648 11.385107 -6.289991 11.385107 -0.000928898 " transform="matrix(1, 0, 0, 1, 49.693018, 149.079054)"/>
<path fill="none" stroke-width="1.136364" stroke-linecap="butt" stroke-linejoin="miter" stroke="rgb(0%, 0%, 0%)" stroke-opacity="1" stroke-miterlimit="10" d="M 11.387648 -0.00161172 L 3.797804 -0.00161172 " transform="matrix(0.000000000000000061, -1, 1, 0.000000000000000061, 49.693018, 149.079054)"/>
<path fill="none" stroke-width="1.136364" stroke-linecap="butt" stroke-linejoin="miter" stroke="rgb(0%, 0%, 0%)" stroke-opacity="1" stroke-miterlimit="10" d="M 11.387648 -0.00161172 L 26.317335 -0.00161172 " transform="matrix(0.000000000000000061, -1, 1, 0.000000000000000061, 49.693018, 149.079054)"/>
<path fill="none" stroke-width="1.136364" stroke-linecap="butt" stroke-linejoin="miter" stroke="rgb(0%, 0%, 0%)" stroke-opacity="1" stroke-miterlimit="10" d="M 33.387648 -0.00161172 L 26.317335 -7.071924 L 26.317335 7.068701 Z M 33.387648 -0.00161172 " transform="matrix(0.000000000000000061, -1, 1, 0.000000000000000061, 49.693018, 149.079054)"/>
<path fill="none" stroke-width="1.136364" stroke-linecap="butt" stroke-linejoin="miter" stroke="rgb(0%, 0%, 0%)" stroke-opacity="1" stroke-miterlimit="10" d="M 24.313429 -0.00161172 L 24.313429 -5.001612 L 24.313429 4.998388 Z M 24.313429 -0.00161172 " transform="matrix(0.000000000000000061, -1, 1, 0.000000000000000061, 49.693018, 149.079054)"/>
<path fill="none" stroke-width="1.136364" stroke-linecap="butt" stroke-linejoin="miter" stroke="rgb(0%, 0%, 0%)" stroke-opacity="1" stroke-miterlimit="10" d="M 33.137549 0.000703608 L 11.387648 0.000646091 L 33.137549 0.000703608 M 33.386109 0.00153491 L 26.31316 -7.069484 L 33.386109 0.00153491 L 26.31509 7.074484 Z M 33.386109 0.00153491 " transform="matrix(0.866025, 0.5, -0.5, 0.866025, 49.693018, 149.079054)"/>
<path fill="none" stroke-width="1.136364" stroke-linecap="butt" stroke-linejoin="miter" stroke="rgb(0%, 0%, 0%)" stroke-opacity="1" stroke-miterlimit="10" d="M 25.388206 0.000323918 L 25.387254 -5.001325 L 25.389158 5.001973 Z M 25.388206 0.000323918 " transform="matrix(0.866025, 0.5, -0.5, 0.866025, 49.693018, 149.079054)"/>
<path fill="none" stroke-width="1.136364" stroke-linecap="butt" stroke-linejoin="miter" stroke="rgb(0%, 0%, 0%)" stroke-opacity="1" stroke-miterlimit="10" d="M 23.386193 0.00148601 L 23.385241 -5.000163 L 23.387145 5.003135 Z M 23.386193 0.00148601 " transform="matrix(0.866025, 0.5, -0.5, 0.866025, 49.693018, 149.079054)"/>
<path fill="none" stroke-width="1.136364" stroke-linecap="butt" stroke-linejoin="miter" stroke="rgb(0%, 0%, 0%)" stroke-opacity="1" stroke-miterlimit="10" d="M 33.136957 -0.00104502 L 11.387057 -0.0009875 L 33.136957 -0.00104502 M 33.385517 -0.00187632 L 26.314498 -7.074825 L 33.385517 -0.00187632 L 26.312569 7.069143 Z M 33.385517 -0.00187632 " transform="matrix(-0.866025, 0.5, -0.5, -0.866025, 49.693018, 149.079054)"/>
<path fill="none" stroke-width="1.136364" stroke-linecap="butt" stroke-linejoin="miter" stroke="rgb(0%, 0%, 0%)" stroke-opacity="1" stroke-miterlimit="10" d="M 11.38579 -0.000928898 C 11.38579 6.288134 6.288134 11.38579 -0.000928898 11.38579 C -6.289991 11.38579 -11.387648 6.288134 -11.387648 -0.000928898 C -11.387648 -6.289991 -6.289991 -11.387648 -0.000928898 -11.387648 C 6.288134 -11.387648 11.38579 -6.289991 11.38579 -0.000928898 " transform="matrix(1, 0, 0, 1, 149.079054, 149.079054)"/>
<path fill="none" stroke-width="1.136364" stroke-linecap="butt" stroke-linejoin="miter" stroke="rgb(0%, 0%, 0%)" stroke-opacity="1" stroke-miterlimit="10" d="M 11.387648 -0.000928898 L 3.797804 -0.000928898 " transform="matrix(0.000000000000000061, -1, 1, 0.000000000000000061, 149.079054, 149.079054)"/>
<path fill="none" stroke-width="1.136364" stroke-linecap="butt" stroke-linejoin="miter" stroke="rgb(0%, 0%, 0%)" stroke-opacity="1" stroke-miterlimit="10" d="M 11.387648 -0.000928898 L 26.887648 -0.000928898 " transform="matrix(0.000000000000000061, -1, 1, 0.000000000000000061, 149.079054, 149.079054)"/>
<path fill="none" stroke-width="1.136364" stroke-linecap="butt" stroke-linejoin="miter" stroke="rgb(0%, 0%, 0%)" stroke-opacity="1" stroke-miterlimit="10" d="M 33.387648 -0.000928898 L 33.379835 0.315477 L 33.360304 0.631884 L 33.329054 0.944384 L 33.286085 1.252977 L 33.231398 1.557665 L 33.164991 1.85454 L 33.086866 2.143602 L 33.000929 2.424852 L 32.903273 2.69829 L 32.793898 2.960009 L 32.67671 3.210009 L 32.55171 3.44829 L 32.414991 3.670946 L 32.27046 3.877977 L 32.118116 4.069384 L 31.95796 4.245165 L 31.793898 4.405321 L 31.622023 4.545946 L 31.446241 4.66704 L 31.266554 4.772509 L 31.08296 4.858446 L 30.89546 4.924852 L 30.70796 4.971727 L 30.516554 4.995165 L 30.325148 4.999071 L 30.133741 4.983446 L 29.946241 4.94829 L 29.758741 4.893602 L 29.575148 4.819384 L 29.391554 4.725634 L 29.211866 4.612352 L 29.039991 4.47954 L 28.872023 4.331102 L 28.711866 4.163134 L 28.555616 3.97954 L 28.407179 3.780321 L 28.266554 3.565477 L 28.133741 3.335009 L 28.012648 3.092821 L 27.899366 2.838915 L 27.797804 2.57329 L 27.704054 2.295946 L 27.622023 2.01079 L 27.55171 1.717821 L 27.493116 1.41704 L 27.446241 1.108446 L 27.411085 0.795946 L 27.387648 0.47954 L 27.375929 0.163134 L 27.375929 -0.153273 L 27.387648 -0.469679 L 27.411085 -0.786085 L 27.446241 -1.098585 L 27.493116 -1.407179 L 27.55171 -1.70796 L 27.622023 -2.000929 L 27.704054 -2.286085 L 27.797804 -2.563429 L 27.899366 -2.829054 L 28.012648 -3.08296 L 28.133741 -3.325148 L 28.266554 -3.555616 L 28.407179 -3.77046 L 28.555616 -3.969679 L 28.711866 -4.153273 L 28.872023 -4.321241 L 29.039991 -4.469679 L 29.211866 -4.602491 L 29.391554 -4.715773 L 29.575148 -4.809523 L 29.758741 -4.883741 L 29.946241 -4.938429 L 30.133741 -4.973585 L 30.325148 -4.98921 L 30.516554 -4.985304 L 30.70796 -4.961866 L 30.89546 -4.914991 L 31.08296 -4.848585 L 31.266554 -4.762648 L 31.446241 -4.657179 L 31.622023 -4.536085 L 31.793898 -4.39546 L 31.95796 -4.235304 L 32.118116 -4.059523 L 32.27046 -3.868116 L 32.414991 -3.661085 L 32.55171 -3.438429 L 32.67671 -3.200148 L 32.793898 -2.950148 L 32.903273 -2.688429 L 33.000929 -2.414991 L 33.086866 -2.133741 L 33.164991 -1.844679 L 33.231398 -1.547804 L 33.286085 -1.243116 L 33.329054 -0.934523 L 33.360304 -0.622023 L 33.379835 -0.305616 L 33.387648 0.0107899 " transform="matrix(0.000000000000000061, -1, 1, 0.000000000000000061, 149.079054, 149.079054)"/>
<path fill="none" stroke-width="1.136364" stroke-linecap="butt" stroke-linejoin="miter" stroke="rgb(0%, 0%, 0%)" stroke-opacity="1" stroke-miterlimit="10" d="M 25.887648 -0.000928898 L 18.817335 7.069384 " transform="matrix(0.000000000000000061, -1, 1, 0.000000000000000061, 149.079054, 149.079054)"/>
<path fill="none" stroke-width="1.136364" stroke-linecap="butt" stroke-linejoin="miter" stroke="rgb(0%, 0%, 0%)" stroke-opacity="1" stroke-miterlimit="10" d="M 11.385302 0.0000440329 L 26.884345 -0.000681445 " transform="matrix(0.781831, -0.62349, 0.62349, 0.781831, 149.079054, 149.079054)"/>
<path fill="none" stroke-width="1.136364" stroke-linecap="butt" stroke-linejoin="miter" stroke="rgb(0%, 0%, 0%)" stroke-opacity="1" stroke-miterlimit="10" d="M 33.385693 -0.00216913 L 33.379468 0.312629 L 33.362264 0.628663 L 33.331027 0.9435 L 33.288192 1.254083 L 33.236195 1.557361 L 33.172601 1.856386 L 33.09679 2.145668 L 33.011818 2.427645 L 32.914629 2.699879 L 32.805224 2.962371 L 32.686038 3.212067 L 32.557072 3.448967 L 32.420761 3.670017 L 32.274669 3.878271 L 32.121232 4.070675 L 31.962886 4.244175 L 31.797194 4.401824 L 31.626593 4.54057 L 31.448646 4.663465 L 31.27128 4.766838 L 31.089004 4.851307 L 30.901818 4.916871 L 30.712159 4.960478 L 30.523079 4.984561 L 30.334579 4.989123 L 30.146659 4.974161 L 29.959319 4.939677 L 29.772559 4.88567 L 29.586379 4.812141 L 29.406269 4.71847 L 29.226738 4.605277 L 29.053277 4.471943 L 28.88345 4.321521 L 28.722746 4.153394 L 28.568731 3.970615 L 28.418349 3.770749 L 28.280145 3.555613 L 28.148629 3.325826 L 28.026854 3.083822 L 27.914822 2.829602 L 27.812532 2.563166 L 27.719984 2.284514 L 27.637797 1.999135 L 27.568405 1.703976 L 27.509374 1.40209 L 27.460704 1.093477 L 27.425448 0.780574 L 27.401172 0.466433 L 27.387874 0.151055 L 27.387991 -0.168613 L 27.399705 -0.484029 L 27.425453 -0.798247 L 27.459744 -1.110648 L 27.508687 -1.416361 L 27.569228 -1.717821 L 27.63893 -2.011975 L 27.720849 -2.296387 L 27.811929 -2.573492 L 27.915226 -2.840855 L 28.028304 -3.095422 L 28.151162 -3.337193 L 28.283801 -3.566168 L 28.423784 -3.779293 L 28.573549 -3.979622 L 28.730658 -4.164101 L 28.892677 -4.329676 L 29.062041 -4.4794 L 29.236315 -4.610221 L 29.415499 -4.722137 L 29.596538 -4.817585 L 29.782486 -4.894129 L 29.970909 -4.948714 L 30.158752 -4.983777 L 30.349068 -4.996882 L 30.538805 -4.990464 L 30.727962 -4.964523 L 30.916539 -4.91906 L 31.104536 -4.854074 L 31.286464 -4.768947 L 31.467811 -4.664297 L 31.643089 -4.539507 L 31.814733 -4.397629 L 31.97969 -4.241099 L 32.138576 -4.064428 L 32.290775 -3.873106 L 32.43385 -3.664078 L 32.570237 -3.440398 L 32.696882 -3.204503 L 32.813786 -2.956391 L 32.920947 -2.696063 L 33.018366 -2.423519 L 33.102989 -2.141194 L 33.180305 -1.849707 L 33.247261 -1.551494 L 33.300803 -1.24899 L 33.343983 -0.939759 L 33.37375 -0.626236 L 33.392537 -0.311477 L 33.397909 0.0075729 " transform="matrix(0.781831, -0.62349, 0.62349, 0.781831, 149.079054, 149.079054)"/>
<path fill="none" stroke-width="1.136364" stroke-linecap="butt" stroke-linejoin="miter" stroke="rgb(0%, 0%, 0%)" stroke-opacity="1" stroke-miterlimit="10" d="M 25.886293 -0.00219221 L 18.813857 7.068268 " transform="matrix(0.781831, -0.62349, 0.62349, 0.781831, 149.079054, 149.079054)"/>
<path fill="none" stroke-width="1.136364" stroke-linecap="butt" stroke-linejoin="miter" stroke="rgb(0%, 0%, 0%)" stroke-opacity="1" stroke-miterlimit="10" d="M 22.887268 -0.000616428 L 15.814832 7.069843 " transform="matrix(0.781831, -0.62349, 0.62349, 0.781831, 149.079054, 149.079054)"/>
<path fill="none" stroke-width="1.136364" stroke-linecap="butt" stroke-linejoin="miter" stroke="rgb(0%, 0%, 0%)" stroke-opacity="1" stroke-miterlimit="10" d="M 11.386236 0.000565625 L 33.386814 -0.000519431 " transform="matrix(0.974928, 0.222521, -0.222521, 0.974928, 149.079054, 149.079054)"/>
<path fill="none" stroke-width="1.136364" stroke-linecap="butt" stroke-linejoin="miter" stroke="rgb(0%, 0%, 0%)" stroke-opacity="1" stroke-miterlimit="10" d="M 11.384726 -0.000921278 L 26.312128 -0.000705142 " transform="matrix(0.433884, 0.900969, -0.900969, 0.433884, 149.079054, 149.079054)"/>
<path fill="none" stroke-width="1.136364" stroke-linecap="butt" stroke-linejoin="miter" stroke="rgb(0%, 0%, 0%)" stroke-opacity="1" stroke-miterlimit="10" d="M 33.387963 -0.000952282 L 26.31892 -7.073151 L 26.319284 7.069786 Z M 33.387963 -0.000952282 " transform="matrix(0.433884, 0.900969, -0.900969, 0.433884, 149.079054, 149.079054)"/>
<path fill="none" stroke-width="1.136364" stroke-linecap="butt" stroke-linejoin="miter" stroke="rgb(0%, 0%, 0%)" stroke-opacity="1" stroke-miterlimit="10" d="M 11.383837 -0.000924316 L 24.382402 -0.0000821463 " transform="matrix(-0.433884, 0.900969, -0.900969, -0.433884, 149.079054, 149.079054)"/>
<path fill="none" stroke-width="1.136364" stroke-linecap="butt" stroke-linejoin="miter" stroke="rgb(0%, 0%, 0%)" stroke-opacity="1" stroke-miterlimit="10" d="M 10.087474 -0.000956655 L 10.087214 0.0165107 L 10.079657 0.0548351 L 10.074183 0.0704779 L 10.056197 0.105153 L 10.034821 0.13279 L 9.987115 0.168771 L 9.95192 0.185719 L 9.913337 0.195629 L 9.89235 0.197065 L 9.874883 0.196805 L 9.817396 0.185469 L 9.765383 0.15849 L 9.751565 0.147802 L 9.736052 0.133594 L 9.712064 0.10179 L 9.695116 0.066596 L 9.680251 0.00872027 L 9.68077 -0.0262144 L 9.688327 -0.0645389 L 9.693801 -0.0801817 L 9.711787 -0.114857 L 9.733163 -0.142493 L 9.780869 -0.178475 L 9.816064 -0.195423 L 9.854647 -0.205333 L 9.875634 -0.206768 L 9.893101 -0.206509 L 9.950588 -0.195173 L 10.002601 -0.168193 L 10.016419 -0.157506 L 10.031932 -0.143298 L 10.05592 -0.111494 L 10.072868 -0.0762997 L 10.087733 -0.018424 L 10.087214 0.0165107 L 10.079657 0.0548351 L 10.074183 0.0704779 L 10.056197 0.105153 L 10.034821 0.13279 L 9.987115 0.168771 L 9.95192 0.185719 L 9.913337 0.195629 L 9.89235 0.197065 L 9.874883 0.196805 L 9.817396 0.185469 L 9.765383 0.15849 L 9.751565 0.147802 L 9.736052 0.133594 L 9.712064 0.10179 L 9.695116 0.066596 L 9.680251 0.00872027 L 9.68051 -0.00874708 " transform="matrix(-0.433884, 0.900969, -0.900969, -0.433884, 149.079054, 149.079054)"/>
<path fill="none" stroke-width="1.136364" stroke-linecap="butt" stroke-linejoin="miter" stroke="rgb(0%, 0%, 0%)" stroke-opacity="1" stroke-miterlimit="10" d="M 11.388047 -0.000152226 L 26.316658 0.0015051 " transform="matrix(-0.974928, 0.222521, -0.222521, -0.974928, 149.079054, 149.079054)"/>
<path fill="none" stroke-width="1.136364" stroke-linecap="butt" stroke-linejoin="miter" stroke="rgb(0%, 0%, 0%)" stroke-opacity="1" stroke-miterlimit="10" d="M 33.384817 0.0000636075 L 26.312277 -7.071332 L 26.313421 7.072603 Z M 33.384817 0.0000636075 " transform="matrix(-0.974928, 0.222521, -0.222521, -0.974928, 149.079054, 149.079054)"/>
<path fill="none" stroke-width="1.136364" stroke-linecap="butt" stroke-linejoin="miter" stroke="rgb(0%, 0%, 0%)" stroke-opacity="1" stroke-miterlimit="10" d="M 24.31341 0.00104148 L 24.312831 -4.99946 L 24.31399 5.001543 Z M 24.31341 0.00104148 " transform="matrix(-0.974928, 0.222521, -0.222521, -0.974928, 149.079054, 149.079054)"/>
<path fill="none" stroke-width="1.136364" stroke-linecap="butt" stroke-linejoin="miter" stroke="rgb(0%, 0%, 0%)" stroke-opacity="1" stroke-miterlimit="10" d="M 22.313971 0.00144709 L 22.313392 -4.999055 L 22.31455 5.001949 Z M 22.313971 0.00144709 " transform="matrix(-0.974928, 0.222521, -0.222521, -0.974928, 149.079054, 149.079054)"/>
<path fill="none" stroke-width="1.136364" stroke-linecap="butt" stroke-linejoin="miter" stroke="rgb(0%, 0%, 0%)" stroke-opacity="1" stroke-miterlimit="10" d="M 33.137024 0.000624993 L 11.386754 -0.00120235 L 33.137024 0.000624993 M 33.387146 0.00101081 L 26.314709 -7.069449 L 33.387146 0.00101081 L 26.316686 7.073447 Z M 33.387146 0.00101081 " transform="matrix(-0.781831, -0.62349, 0.62349, -0.781831, 149.079054, 149.079054)"/>
<path fill="none" stroke-width="1.136364" stroke-linecap="butt" stroke-linejoin="miter" stroke="rgb(0%, 0%, 0%)" stroke-opacity="1" stroke-miterlimit="10" d="M 11.386473 -0.000928898 C 11.386473 6.288134 6.288816 11.38579 -0.00024608 11.38579 C -6.289309 11.38579 -11.386965 6.288134 -11.386965 -0.000928898 C -11.386965 -6.289991 -6.289309 -11.387648 -0.00024608 -11.387648 C 6.288816 -11.387648 11.386473 -6.289991 11.386473 -0.000928898 " transform="matrix(1, 0, 0, 1, 248.46509, 149.079054)"/>
<path fill="none" stroke-width="1.136364" stroke-linecap="butt" stroke-linejoin="miter" stroke="rgb(0%, 0%, 0%)" stroke-opacity="1" stroke-miterlimit="10" d="M 11.387648 -0.00024608 L 3.797804 -0.00024608 " transform="matrix(0.000000000000000061, -1, 1, 0.000000000000000061, 248.46509, 149.079054)"/>
<path fill="none" stroke-width="1.136364" stroke-linecap="butt" stroke-linejoin="miter" stroke="rgb(0%, 0%, 0%)" stroke-opacity="1" stroke-miterlimit="10" d="M 11.387648 -0.00024608 L 33.387648 -0.00024608 " transform="matrix(0.000000000000000061, -1, 1, 0.000000000000000061, 248.46509, 149.079054)"/>
<path fill="none" stroke-width="1.136364" stroke-linecap="butt" stroke-linejoin="miter" stroke="rgb(0%, 0%, 0%)" stroke-opacity="1" stroke-miterlimit="10" d="M 33.387648 -0.00024608 L 33.387648 -5.000246 L 33.387648 4.999754 Z M 33.387648 -0.00024608 " transform="matrix(0.000000000000000061, -1, 1, 0.000000000000000061, 248.46509, 149.079054)"/>
<path fill="none" stroke-width="1.136364" stroke-linecap="butt" stroke-linejoin="miter" stroke="rgb(0%, 0%, 0%)" stroke-opacity="1" stroke-miterlimit="10" d="M 31.387648 -0.00024608 L 31.387648 -5.000246 L 31.387648 4.999754 Z M 31.387648 -0.00024608 " transform="matrix(0.000000000000000061, -1, 1, 0.000000000000000061, 248.46509, 149.079054)"/>
<path fill="none" stroke-width="1.136364" stroke-linecap="butt" stroke-linejoin="miter" stroke="rgb(0%, 0%, 0%)" stroke-opacity="1" stroke-miterlimit="10" d="M 11.384424 -0.000142385 L 26.883108 -0.000901764 " transform="matrix(0.866025, -0.5, 0.5, 0.866025, 248.46509, 149.079054)"/>
<path fill="none" stroke-width="1.136364" stroke-linecap="butt" stroke-linejoin="miter" stroke="rgb(0%, 0%, 0%)" stroke-opacity="1" stroke-miterlimit="10" d="M 33.386267 0.000921924 L 33.379529 0.317281 L 33.360689 0.631163 L 33.329747 0.942568 L 33.286703 1.251498 L 33.23351 1.554567 L 33.170169 1.851778 L 33.093296 2.141176 L 33.006274 2.424714 L 32.907674 2.697058 L 32.800878 2.960159 L 32.684456 3.208681 L 32.556457 3.446008 L 32.418831 3.668757 L 32.276917 3.875498 L 32.125377 4.06766 L 31.966165 4.241861 L 31.802663 4.400054 L 31.631489 4.540286 L 31.456026 4.66451 L 31.274844 4.76739 L 31.091325 4.850878 L 30.90547 4.914976 L 30.717279 4.959682 L 30.526752 4.984998 L 30.335841 4.987539 L 30.145978 4.972643 L 29.959114 4.936926 L 29.769914 4.881817 L 29.583713 4.805888 L 29.403896 4.711092 L 29.225125 4.598857 L 29.052736 4.467755 L 28.886731 4.317785 L 28.725155 4.15233 L 28.569962 3.968008 L 28.422581 3.770154 L 28.281583 3.553432 L 28.148397 3.323179 L 28.026407 3.081347 L 27.912229 2.825983 L 27.809247 2.559041 L 27.71746 2.280521 L 27.634916 1.993804 L 27.564997 1.700846 L 27.50432 1.399691 L 27.456268 1.092295 L 27.418888 0.782038 L 27.394133 0.46554 L 27.383434 0.148134 L 27.381453 -0.168748 L 27.393528 -0.486536 L 27.417704 -0.801848 L 27.453982 -1.114684 L 27.500409 -1.42166 L 27.560367 -1.720823 L 27.630474 -2.014127 L 27.71073 -2.301572 L 27.802565 -2.577822 L 27.905978 -2.842876 L 28.017586 -3.098687 L 28.140773 -3.343304 L 28.273586 -3.573342 L 28.412641 -3.790755 L 28.559368 -3.990206 L 28.715721 -4.175079 L 28.876363 -4.343945 L 29.044677 -4.494848 L 29.21871 -4.624408 L 29.397033 -4.73796 L 29.577692 -4.83212 L 29.760688 -4.90689 L 29.949402 -4.960315 L 30.13707 -4.996303 L 30.327074 -5.0129 L 30.517461 -5.006722 L 30.706801 -4.983107 L 30.896525 -4.936718 L 31.083248 -4.869508 L 31.268925 -4.78486 L 31.44822 -4.681344 L 31.624514 -4.557008 L 31.796379 -4.417186 L 31.961861 -4.258497 L 32.120961 -4.080941 L 32.272248 -3.889853 L 32.413769 -3.68185 L 32.550861 -3.458362 L 32.676757 -3.223296 L 32.794841 -2.974699 L 32.90173 -2.714522 L 33.000806 -2.440814 L 33.087257 -2.160864 L 33.162512 -1.869335 L 33.228525 -1.569611 L 33.281913 -1.263644 L 33.324629 -0.954817 L 33.354719 -0.639748 L 33.370755 -0.323773 L 33.376118 -0.00493745 " transform="matrix(0.866025, -0.5, 0.5, 0.866025, 248.46509, 149.079054)"/>
<path fill="none" stroke-width="1.136364" stroke-linecap="butt" stroke-linejoin="miter" stroke="rgb(0%, 0%, 0%)" stroke-opacity="1" stroke-miterlimit="10" d="M 26.387012 0.00101318 L 11.385448 0.0019164 L 26.387012 0.00101318 L 33.458031 -7.071935 L 26.387012 0.00101318 L 33.459961 7.072032 Z M 26.387012 0.00101318 " transform="matrix(0.866025, 0.5, -0.5, 0.866025, 248.46509, 149.079054)"/>
<path fill="none" stroke-width="1.136364" stroke-linecap="butt" stroke-linejoin="miter" stroke="rgb(0%, 0%, 0%)" stroke-opacity="1" stroke-miterlimit="10" d="M 25.386006 0.00159422 L 25.385054 -5.000055 L 25.386958 5.003243 Z M 25.386006 0.00159422 " transform="matrix(0.866025, 0.5, -0.5, 0.866025, 248.46509, 149.079054)"/>
<path fill="none" stroke-width="1.136364" stroke-linecap="butt" stroke-linejoin="miter" stroke="rgb(0%, 0%, 0%)" stroke-opacity="1" stroke-miterlimit="10" d="M 22.38637 0.00138424 L 22.385418 -5.000265 L 22.387322 5.003033 Z M 22.38637 0.00138424 " transform="matrix(0.866025, 0.5, -0.5, 0.866025, 248.46509, 149.079054)"/>
<path fill="none" stroke-width="1.136364" stroke-linecap="butt" stroke-linejoin="miter" stroke="rgb(0%, 0%, 0%)" stroke-opacity="1" stroke-miterlimit="10" d="M 33.38579 0.00024608 L 11.38579 0.00024608 L 33.38579 0.00024608 L 26.315477 7.070559 Z M 33.38579 0.00024608 " transform="matrix(0.000000000000000061, 1, -1, 0.000000000000000061, 248.46509, 149.079054)"/>
<path fill="none" stroke-width="1.136364" stroke-linecap="butt" stroke-linejoin="miter" stroke="rgb(0%, 0%, 0%)" stroke-opacity="1" stroke-miterlimit="10" d="M 11.385874 -0.00167032 L 27.385062 -0.00213917 " transform="matrix(-0.866025, 0.5, -0.5, -0.866025, 248.46509, 149.079054)"/>
<path fill="none" stroke-width="1.136364" stroke-linecap="butt" stroke-linejoin="miter" stroke="rgb(0%, 0%, 0%)" stroke-opacity="1" stroke-miterlimit="10" d="M 33.386765 5.001043 L 33.194425 4.998249 L 33.004038 4.992071 L 32.812221 4.980558 L 32.624311 4.962278 L 32.43497 4.938663 L 32.247583 4.911665 L 32.062149 4.881284 L 31.877238 4.842184 L 31.69428 4.799701 L 31.513276 4.753835 L 31.330841 4.702633 L 31.152313 4.644665 L 30.975738 4.583315 L 30.801116 4.518581 L 30.630401 4.447082 L 30.461638 4.372199 L 30.294829 4.293934 L 30.131926 4.208903 L 29.974359 4.122442 L 29.820698 4.029215 L 29.66899 3.932606 L 29.519236 3.832613 L 29.37677 3.727808 L 29.236258 3.61962 L 29.101082 3.510002 L 28.969812 3.393619 L 28.843878 3.275805 L 28.719897 3.154609 L 28.603205 3.0286 L 28.49185 2.901161 L 28.382447 2.770339 L 28.278381 2.638087 L 28.181604 2.501023 L 28.090162 2.362529 L 28.004057 2.222605 L 27.923288 2.081251 L 27.844472 1.936515 L 27.772945 1.786966 L 27.706754 1.635987 L 27.649282 1.485531 L 27.597146 1.333645 L 27.550346 1.18033 L 27.508883 1.025585 L 27.472755 0.86941 L 27.441963 0.711805 L 27.41989 0.554724 L 27.403153 0.396213 L 27.391753 0.236272 L 27.383735 0.0782845 L 27.384436 -0.0791799 L 27.390473 -0.238074 L 27.401846 -0.398398 L 27.419985 -0.554816 L 27.443461 -0.712663 L 27.475655 -0.869988 L 27.511232 -1.025359 L 27.552144 -1.182159 L 27.599823 -1.335054 L 27.652838 -1.489378 L 27.712619 -1.639797 L 27.775782 -1.788262 L 27.847665 -1.936203 L 27.92293 -2.082192 L 28.004962 -2.224274 L 28.090376 -2.364403 L 28.184509 -2.504009 L 28.282025 -2.641662 L 28.386307 -2.775408 L 28.493971 -2.907202 L 28.608402 -3.035089 L 28.726215 -3.161023 L 28.850795 -3.28305 L 28.976804 -3.399742 L 29.106196 -3.51448 L 29.242354 -3.625313 L 29.381895 -3.734192 L 29.526248 -3.835782 L 29.673984 -3.935419 L 29.825104 -4.033103 L 29.981036 -4.123497 L 30.14035 -4.211939 L 30.301095 -4.295044 L 30.465223 -4.376196 L 30.634163 -4.45006 L 30.804533 -4.518587 L 30.978286 -4.585161 L 31.153469 -4.646399 L 31.330081 -4.702301 L 31.510077 -4.756249 L 31.691502 -4.804862 L 31.874357 -4.848139 L 32.058642 -4.886079 L 32.244357 -4.918684 L 32.431501 -4.945953 L 32.620075 -4.967885 L 32.810079 -4.984482 L 32.99813 -4.997695 L 33.187611 -5.005573 L 33.378521 -5.008114 " transform="matrix(-0.866025, 0.5, -0.5, -0.866025, 248.46509, 149.079054)"/>
<path fill="none" stroke-width="1.136364" stroke-linecap="butt" stroke-linejoin="miter" stroke="rgb(0%, 0%, 0%)" stroke-opacity="1" stroke-miterlimit="10" d="M 11.38485 -0.000103695 L 26.31471 -0.000203122 " transform="matrix(-0.866025, -0.5, 0.5, -0.866025, 248.46509, 149.079054)"/>
<path fill="none" stroke-width="1.136364" stroke-linecap="butt" stroke-linejoin="miter" stroke="rgb(0%, 0%, 0%)" stroke-opacity="1" stroke-miterlimit="10" d="M 33.386693 -0.001168 L 26.313745 -7.072187 L 26.313721 7.068398 Z M 33.386693 -0.001168 " transform="matrix(-0.866025, -0.5, 0.5, -0.866025, 248.46509, 149.079054)"/>
<path fill="none" stroke-width="1.136364" stroke-linecap="butt" stroke-linejoin="miter" stroke="rgb(0%, 0%, 0%)" stroke-opacity="1" stroke-miterlimit="10" d="M 24.31608 -0.000994151 L 24.315128 -5.002643 L 24.317032 5.000655 Z M 24.31608 -0.000994151 " transform="matrix(-0.866025, -0.5, 0.5, -0.866025, 248.46509, 149.079054)"/>
<path fill="none" stroke-width="1.136364" stroke-linecap="butt" stroke-linejoin="miter" stroke="rgb(0%, 0%, 0%)" stroke-opacity="1" stroke-miterlimit="10" d="M 22.314067 0.000167945 L 22.313115 -5.001481 L 22.315019 5.001817 Z M 22.314067 0.000167945 " transform="matrix(-0.866025, -0.5, 0.5, -0.866025, 248.46509, 149.079054)"/>
<path fill="none" stroke-width="1.136364" stroke-linecap="butt" stroke-linejoin="miter" stroke="rgb(0%, 0%, 0%)" stroke-opacity="1" stroke-miterlimit="10" d="M 11.387155 -0.000928898 C 11.387155 6.288134 6.289499 11.38579 0.000436738 11.38579 C -6.288626 11.38579 -11.386282 6.288134 -11.386282 -0.000928898 C -11.386282 -6.289991 -6.288626 -11.387648 0.000436738 -11.387648 C 6.289499 -11.387648 11.387155 -6.289991 11.387155 -0.000928898 " transform="matrix(1, 0, 0, 1, 347.851126, 149.079054)"/>
<path fill="none" stroke-width="1.136364" stroke-linecap="butt" stroke-linejoin="miter" stroke="rgb(0%, 0%, 0%)" stroke-opacity="1" stroke-miterlimit="10" d="M 11.387648 0.000436738 L 3.797804 0.000436738 " transform="matrix(0.000000000000000061, -1, 1, 0.000000000000000061, 347.851126, 149.079054)"/>
<path fill="none" stroke-width="1.136364" stroke-linecap="butt" stroke-linejoin="miter" stroke="rgb(0%, 0%, 0%)" stroke-opacity="1" stroke-miterlimit="10" d="M 11.387648 0.000436738 L 33.387648 0.000436738 " transform="matrix(0.000000000000000061, -1, 1, 0.000000000000000061, 347.851126, 149.079054)"/>
<path fill="none" stroke-width="1.136364" stroke-linecap="butt" stroke-linejoin="miter" stroke="rgb(0%, 0%, 0%)" stroke-opacity="1" stroke-miterlimit="10" d="M 11.385015 0.000199024 L 26.314875 0.000298452 " transform="matrix(0.866025, -0.5, 0.5, 0.866025, 347.851126, 149.079054)"/>
<path fill="none" stroke-width="1.136364" stroke-linecap="butt" stroke-linejoin="miter" stroke="rgb(0%, 0%, 0%)" stroke-opacity="1" stroke-miterlimit="10" d="M 33.386858 0.00126333 L 26.31584 -7.071685 L 26.315863 7.068899 Z M 33.386858 0.00126333 " transform="matrix(0.866025, -0.5, 0.5, 0.866025, 347.851126, 149.079054)"/>
<path fill="none" stroke-width="1.136364" stroke-linecap="butt" stroke-linejoin="miter" stroke="rgb(0%, 0%, 0%)" stroke-opacity="1" stroke-miterlimit="10" d="M 24.316245 0.00108948 L 24.317197 -5.00056 L 24.315293 5.002739 Z M 24.316245 0.00108948 " transform="matrix(0.866025, -0.5, 0.5, 0.866025, 347.851126, 149.079054)"/>
<path fill="none" stroke-width="1.136364" stroke-linecap="butt" stroke-linejoin="miter" stroke="rgb(0%, 0%, 0%)" stroke-opacity="1" stroke-miterlimit="10" d="M 22.314232 -0.0000726159 L 22.315184 -5.001722 L 22.31328 5.001576 Z M 22.314232 -0.0000726159 " transform="matrix(0.866025, -0.5, 0.5, 0.866025, 347.851126, 149.079054)"/>
<path fill="none" stroke-width="1.136364" stroke-linecap="butt" stroke-linejoin="miter" stroke="rgb(0%, 0%, 0%)" stroke-opacity="1" stroke-miterlimit="10" d="M 26.387604 0.000671768 L 11.386039 0.00157499 L 26.387604 0.000671768 L 33.458623 -7.072277 L 26.387604 0.000671768 L 33.460552 7.071691 Z M 26.387604 0.000671768 " transform="matrix(0.866025, 0.5, -0.5, 0.866025, 347.851126, 149.079054)"/>
<path fill="none" stroke-width="1.136364" stroke-linecap="butt" stroke-linejoin="miter" stroke="rgb(0%, 0%, 0%)" stroke-opacity="1" stroke-miterlimit="10" d="M 11.38579 -0.000436738 L 33.38579 -0.000436738 " transform="matrix(0.000000000000000061, 1, -1, 0.000000000000000061, 347.851126, 149.079054)"/>
<path fill="none" stroke-width="1.136364" stroke-linecap="butt" stroke-linejoin="miter" stroke="rgb(0%, 0%, 0%)" stroke-opacity="1" stroke-miterlimit="10" d="M 33.38579 -0.000436738 L 33.38579 -5.000437 L 33.38579 4.999563 Z M 33.38579 -0.000436738 " transform="matrix(0.000000000000000061, 1, -1, 0.000000000000000061, 347.851126, 149.079054)"/>
<path fill="none" stroke-width="1.136364" stroke-linecap="butt" stroke-linejoin="miter" stroke="rgb(0%, 0%, 0%)" stroke-opacity="1" stroke-miterlimit="10" d="M 26.386847 -0.00110851 L 11.385283 -0.00201173 L 26.386847 -0.00110851 L 33.459796 -7.072127 L 26.386847 -0.00110851 L 33.457866 7.07184 Z M 26.386847 -0.00110851 " transform="matrix(-0.866025, 0.5, -0.5, -0.866025, 347.851126, 149.079054)"/>
<path fill="none" stroke-width="1.136364" stroke-linecap="butt" stroke-linejoin="miter" stroke="rgb(0%, 0%, 0%)" stroke-opacity="1" stroke-miterlimit="10" d="M 25.385841 -0.00168955 L 25.386793 -5.003339 L 25.384889 4.99996 Z M 25.385841 -0.00168955 " transform="matrix(-0.866025, 0.5, -0.5, -0.866025, 347.851126, 149.079054)"/>
<path fill="none" stroke-width="1.136364" stroke-linecap="butt" stroke-linejoin="miter" stroke="rgb(0%, 0%, 0%)" stroke-opacity="1" stroke-miterlimit="10" d="M 22.386205 -0.00147957 L 22.387157 -5.003129 L 22.385252 5.00017 Z M 22.386205 -0.00147957 " transform="matrix(-0.866025, 0.5, -0.5, -0.866025, 347.851126, 149.079054)"/>
<path fill="none" stroke-width="1.136364" stroke-linecap="butt" stroke-linejoin="miter" stroke="rgb(0%, 0%, 0%)" stroke-opacity="1" stroke-miterlimit="10" d="M 11.384259 0.000237714 L 33.382719 0.00112653 " transform="matrix(-0.866025, -0.5, 0.5, -0.866025, 347.851126, 149.079054)"/>
</svg>
