<?xml version="1.0" encoding="UTF-8"?>
<svg xmlns="http://www.w3.org/2000/svg" xmlns:xlink="http://www.w3.org/1999/xlink" width="397.544144" height="198.772072" viewBox="0 0 397.544144 198.772072">
<path fill="none" stroke-width="1.136364" stroke-linecap="butt" stroke-linejoin="miter" stroke="rgb(0%, 0%, 0%)" stroke-opacity="1" stroke-miterlimit="10" d="M 11.385107 -0.00161172 C 11.385107 6.287451 6.287451 11.385107 -0.00161172 11.385107 C -6.286768 11.385107 -11.384424 6.287451 -11.384424 -0.00161172 C -11.384424 -6.286768 -6.286768 -11.384424 -0.00161172 -11.384424 C 6.287451 -11.384424 11.385107 -6.286768 11.385107 -0.00161172 " transform="matrix(1, 0, 0, 1, 49.693018, 49.693018)"/>
<path fill="none" stroke-width="1.136364" stroke-linecap="butt" stroke-linejoin="miter" stroke="rgb(0%, 0%, 0%)" stroke-opacity="1" stroke-miterlimit="10" d="M 11.384424 -0.00161172 L 3.79458 -0.00161172 L 11.384424 -0.00161172 " transform="matrix(0.000000000000000061, -1, 1, 0.000000000000000061, 49.693018, 49.693018)"/>
<path fill="none" stroke-width="1.136364" stroke-linecap="butt" stroke-linejoin="miter" stroke="rgb(0%, 0%, 0%)" stroke-opacity="1" stroke-miterlimit="10" d="M 11.384424 -0.00161172 L 22.314112 -0.00161172 L 11.384424 -0.00161172 " transform="matrix(0.000000000000000061, -1, 1, 0.000000000000000061, 49.693018, 49.693018)"/>
<path fill="none" stroke-width="1.136364" stroke-linecap="butt" stroke-linejoin="miter" stroke="rgb(0%, 0%, 0%)" stroke-opacity="1" stroke-miterlimit="10" d="M 28.314112 -0.00161172 L 28.306299 0.33042 L 28.286768 0.662451 L 28.255518 0.990576 L 28.208643 1.314795 L 28.150049 1.631201 L 28.079737 1.943701 L 27.997705 2.244482 L 27.900049 2.537451 L 27.79458 2.818701 L 27.677393 3.088232 L 27.548487 3.342138 L 27.411768 3.58042 L 27.26333 3.803076 L 27.10708 4.010107 L 26.943018 4.197607 L 26.771143 4.369482 L 26.591455 4.521826 L 26.407862 4.654638 L 26.220362 4.764013 L 26.028955 4.853857 L 25.833643 4.920263 L 25.634424 4.967138 L 25.435205 4.990576 L 25.235987 4.990576 L 25.036768 4.971045 L 24.837549 4.928076 L 24.642237 4.86167 L 24.45083 4.775732 L 24.26333 4.666357 L 24.079737 4.537451 L 23.900049 4.389013 L 23.728174 4.221045 L 23.564112 4.033545 L 23.407862 3.83042 L 23.259424 3.607763 L 23.118799 3.369482 L 22.989893 3.115576 L 22.868799 2.849951 L 22.759424 2.568701 L 22.661768 2.279638 L 22.57583 1.978857 L 22.501612 1.670263 L 22.439112 1.353857 L 22.392237 1.029638 L 22.35708 0.701513 L 22.333643 0.369482 L 22.32583 0.0374508 L 22.329737 -0.29458 L 22.349268 -0.626612 L 22.380518 -0.954737 L 22.423487 -1.278955 L 22.48208 -1.599268 L 22.552393 -1.911768 L 22.634424 -2.216455 L 22.728174 -2.509424 L 22.833643 -2.790674 L 22.95083 -3.060205 L 23.079737 -3.318018 L 23.216455 -3.560205 L 23.364893 -3.786768 L 23.521143 -3.997705 L 23.685205 -4.189112 L 23.85708 -4.360987 L 24.032862 -4.51333 L 24.216455 -4.646143 L 24.403955 -4.759424 L 24.595362 -4.853174 L 24.790674 -4.923487 L 24.989893 -4.974268 L 25.189112 -5.001612 L 25.38833 -5.005518 L 25.587549 -4.989893 L 25.786768 -4.95083 L 25.98208 -4.88833 L 26.177393 -4.806299 L 26.368799 -4.70083 L 26.552393 -4.57583 L 26.73208 -4.431299 L 26.903955 -4.267237 L 27.071924 -4.083643 L 27.23208 -3.880518 L 27.384424 -3.661768 L 27.525049 -3.427393 L 27.657862 -3.177393 L 27.778955 -2.911768 L 27.88833 -2.634424 L 27.985987 -2.345362 L 28.071924 -2.04458 L 28.146143 -1.735987 L 28.208643 -1.41958 L 28.259424 -1.095362 L 28.29458 -0.767237 L 28.318018 -0.435205 L 28.329737 -0.103174 L 28.32583 0.228857 L 28.310205 0.560888 L 28.278955 0.889013 L 28.235987 1.213232 L 28.181299 1.533545 L 28.235987 1.213232 L 28.278955 0.889013 L 28.310205 0.560888 L 28.32583 0.228857 L 28.329737 -0.103174 L 28.318018 -0.435205 L 28.29458 -0.767237 L 28.259424 -1.095362 L 28.208643 -1.41958 L 28.146143 -1.735987 L 28.071924 -2.04458 L 27.985987 -2.345362 L 27.88833 -2.634424 L 27.778955 -2.911768 L 27.657862 -3.177393 L 27.525049 -3.427393 L 27.384424 -3.661768 L 27.23208 -3.880518 L 27.071924 -4.083643 L 26.903955 -4.267237 L 26.73208 -4.431299 L 26.552393 -4.57583 L 26.368799 -4.70083 L 26.177393 -4.806299 L 25.98208 -4.88833 L 25.786768 -4.95083 L 25.587549 -4.989893 L 25.38833 -5.005518 L 25.189112 -5.001612 L 24.989893 -4.974268 L 24.790674 -4.923487 L 24.595362 -4.853174 L 24.403955 -4.759424 L 24.216455 -4.646143 L 24.032862 -4.51333 L 23.85708 -4.360987 L 23.685205 -4.189112 L 23.521143 -3.997705 L 23.364893 -3.786768 L 23.216455 -3.560205 L 23.079737 -3.318018 L 22.95083 -3.060205 L 22.833643 -2.790674 L 22.728174 -2.509424 L 22.634424 -2.216455 L 22.552393 -1.911768 L 22.48208 -1.599268 L 22.423487 -1.278955 L 22.380518 -0.954737 L 22.349268 -0.626612 L 22.329737 -0.29458 L 22.32583 0.0374508 L 22.333643 0.369482 L 22.35708 0.701513 L 22.392237 1.029638 L 22.439112 1.353857 L 22.501612 1.670263 L 22.57583 1.978857 L 22.661768 2.279638 L 22.759424 2.568701 L 22.868799 2.849951 L 22.989893 3.115576 L 23.118799 3.369482 L 23.259424 3.607763 L 23.407862 3.83042 L 23.564112 4.033545 L 23.728174 4.221045 L 23.900049 4.389013 L 24.079737 4.537451 L 24.26333 4.666357 L 24.45083 4.775732 L 24.642237 4.86167 L 24.837549 4.928076 L 25.036768 4.971045 L 25.235987 4.990576 L 25.435205 4.990576 L 25.634424 4.967138 L 25.833643 4.920263 L 26.028955 4.853857 L 26.220362 4.764013 L 26.407862 4.654638 L 26.591455 4.521826 L 26.771143 4.369482 L 26.943018 4.197607 L 27.10708 4.010107 L 27.26333 3.803076 L 27.411768 3.58042 L 27.548487 3.342138 L 27.677393 3.088232 L 27.79458 2.818701 L 27.900049 2.537451 L 27.997705 2.244482 L 28.079737 1.943701 L 28.150049 1.631201 L 28.208643 1.314795 L 28.255518 0.990576 L 28.286768 0.662451 L 28.306299 0.33042 L 28.314112 -0.00161172 " transform="matrix(0.000000000000000061, -1, 1, 0.000000000000000061, 49.693018, 49.693018)"/>
<path fill="none" stroke-width="1.136364" stroke-linecap="butt" stroke-linejoin="miter" stroke="rgb(0%, 0%, 0%)" stroke-opacity="1" stroke-miterlimit="10" d="M 11.384424 -0.00161172 L 20.314112 -0.00161172 L 11.384424 -0.00161172 " transform="matrix(0.000000000000000061, -1, 1, 0.000000000000000061, 49.693018, 49.693018)"/>
<path fill="none" stroke-width="1.136364" stroke-linecap="butt" stroke-linejoin="miter" stroke="rgb(0%, 0%, 0%)" stroke-opacity="1" stroke-miterlimit="10" d="M 20.314112 -0.00161172 L 20.314112 -5.001612 L 20.314112 4.998388 L 20.314112 -0.00161172 L 20.314112 4.998388 L 20.314112 -5.001612 L 20.314112 -0.00161172 " transform="matrix(0.000000000000000061, -1, 1, 0.000000000000000061, 49.693018, 49.693018)"/>
<path fill="none" stroke-width="1.136364" stroke-linecap="butt" stroke-linejoin="miter" stroke="rgb(0%, 0%, 0%)" stroke-opacity="1" stroke-miterlimit="10" d="M 33.384424 -0.00161172 L 26.314112 -7.071924 L 33.384424 -0.00161172 L 26.314112 7.068701 L 33.384424 -0.00161172 L 26.314112 7.068701 L 33.384424 -0.00161172 L 26.314112 -7.071924 L 33.384424 -0.00161172 " transform="matrix(0.000000000000000061, -1, 1, 0.000000000000000061, 49.693018, 49.693018)"/>
<path fill="none" stroke-width="1.136364" stroke-linecap="butt" stroke-linejoin="miter" stroke="rgb(0%, 0%, 0%)" stroke-opacity="1" stroke-miterlimit="10" d="M 11.387227 0.00169279 L 24.386303 0.00307048 L 11.387227 0.00169279 " transform="matrix(0.951057, -0.309017, 0.309017, 0.951057, 49.693018, 49.693018)"/>
<path fill="none" stroke-width="1.136364" stroke-linecap="butt" stroke-linejoin="miter" stroke="rgb(0%, 0%, 0%)" stroke-opacity="1" stroke-miterlimit="10" d="M 9.885076 -0.00172733 L 9.880435 0.0378375 L 9.868364 0.0749882 L 9.839112 0.127093 L 9.814595 0.151985 L 9.782648 0.174463 L 9.767882 0.181987 L 9.730919 0.19462 L 9.69637 0.199824 L 9.67538 0.201219 L 9.635815 0.196578 L 9.598665 0.184507 L 9.563928 0.165006 L 9.547767 0.15154 L 9.535321 0.139281 L 9.501604 0.0913607 L 9.482654 0.035916 L 9.480052 0.0186416 L 9.478657 -0.00234793 L 9.483298 -0.0419128 L 9.495369 -0.0790634 L 9.524621 -0.131168 L 9.549138 -0.15606 L 9.581085 -0.178538 L 9.595852 -0.186062 L 9.632815 -0.198696 L 9.667364 -0.203899 L 9.688353 -0.205294 L 9.727918 -0.200653 L 9.765069 -0.188582 L 9.799805 -0.169081 L 9.815966 -0.155615 L 9.828412 -0.143357 L 9.862129 -0.095436 L 9.881079 -0.0399913 L 9.883681 -0.0227168 L 9.885076 -0.00172733 L 9.880435 0.0378375 L 9.868364 0.0749882 L 9.839112 0.127093 L 9.814595 0.151985 L 9.782648 0.174463 L 9.767882 0.181987 L 9.730919 0.19462 L 9.69637 0.199824 L 9.67538 0.201219 L 9.635815 0.196578 L 9.598665 0.184507 L 9.563928 0.165006 L 9.547767 0.15154 L 9.535321 0.139281 L 9.501604 0.0913607 L 9.482654 0.035916 L 9.480052 0.0186416 L 9.478657 -0.00234793 L 9.480052 0.0186416 L 9.482654 0.035916 L 9.501604 0.0913607 L 9.535321 0.139281 L 9.547767 0.15154 L 9.563928 0.165006 L 9.598665 0.184507 L 9.635815 0.196578 L 9.67538 0.201219 L 9.69637 0.199824 L 9.730919 0.19462 L 9.767882 0.181987 L 9.782648 0.174463 L 9.814595 0.151985 L 9.839112 0.127093 L 9.868364 0.0749882 L 9.880435 0.0378375 L 9.885076 -0.00172733 L 9.883681 -0.0227168 L 9.881079 -0.0399913 L 9.862129 -0.095436 L 9.828412 -0.143357 L 9.815966 -0.155615 L 9.799805 -0.169081 L 9.765069 -0.188582 L 9.727918 -0.200653 L 9.688353 -0.205294 L 9.667364 -0.203899 L 9.632815 -0.198696 L 9.595852 -0.186062 L 9.581085 -0.178538 L 9.549138 -0.15606 L 9.524621 -0.131168 L 9.495369 -0.0790634 L 9.483298 -0.0419128 L 9.478657 -0.00234793 L 9.480052 0.0186416 L 9.482654 0.035916 L 9.501604 0.0913607 L 9.535321 0.139281 L 9.547767 0.15154 L 9.563928 0.165006 L 9.598665 0.184507 L 9.635815 0.196578 L 9.67538 0.201219 L 9.69637 0.199824 L 9.730919 0.19462 L 9.767882 0.181987 L 9.782648 0.174463 L 9.814595 0.151985 L 9.839112 0.127093 L 9.868364 0.0749882 L 9.880435 0.0378375 L 9.885076 -0.00172733 " transform="matrix(0.951057, -0.309017, 0.309017, 0.951057, 49.693018, 49.693018)"/>
<path fill="none" stroke-width="1.136364" stroke-linecap="butt" stroke-linejoin="miter" stroke="rgb(0%, 0%, 0%)" stroke-opacity="1" stroke-miterlimit="10" d="M 11.38812 0.000084226 L 26.316425 0.00156794 L 11.38812 0.000084226 " transform="matrix(0.587785, 0.809017, -0.809017, 0.587785, 49.693018, 49.693018)"/>
<path fill="none" stroke-width="1.136364" stroke-linecap="butt" stroke-linejoin="miter" stroke="rgb(0%, 0%, 0%)" stroke-opacity="1" stroke-miterlimit="10" d="M 33.385974 0.000487968 L 26.315345 -7.06798 L 33.385974 0.000487968 L 26.317505 7.071116 L 26.317642 -7.071141 L 33.38827 -0.00267225 L 26.317642 -7.071141 L 26.317505 7.071116 L 33.385974 0.000487968 L 26.315345 -7.06798 L 33.385974 0.000487968 " transform="matrix(0.587785, 0.809017, -0.809017, 0.587785, 49.693018, 49.693018)"/>
<path fill="none" stroke-width="1.136364" stroke-linecap="butt" stroke-linejoin="miter" stroke="rgb(0%, 0%, 0%)" stroke-opacity="1" stroke-miterlimit="10" d="M 11.38812 0.000084226 L 24.316986 0.00223599 L 11.38812 0.000084226 " transform="matrix(0.587785, 0.809017, -0.809017, 0.587785, 49.693018, 49.693018)"/>
<path fill="none" stroke-width="1.136364" stroke-linecap="butt" stroke-linejoin="miter" stroke="rgb(0%, 0%, 0%)" stroke-opacity="1" stroke-miterlimit="10" d="M 24.313826 -0.0000600462 L 24.316032 -5.00067 L 24.31162 5.00055 L 24.313826 -0.0000600462 L 24.31162 5.00055 L 24.316032 -5.00067 L 24.313826 -0.0000600462 " transform="matrix(0.587785, 0.809017, -0.809017, 0.587785, 49.693018, 49.693018)"/>
<path fill="none" stroke-width="1.136364" stroke-linecap="butt" stroke-linejoin="miter" stroke="rgb(0%, 0%, 0%)" stroke-opacity="1" stroke-miterlimit="10" d="M 11.387719 -0.000636637 L 33.385572 -0.00104038 L 11.387719 -0.000636637 " transform="matrix(-0.587785, 0.809017, -0.809017, -0.587785, 49.693018, 49.693018)"/>
<path fill="none" stroke-width="1.136364" stroke-linecap="butt" stroke-linejoin="miter" stroke="rgb(0%, 0%, 0%)" stroke-opacity="1" stroke-miterlimit="10" d="M 33.385572 -0.00104038 L 26.317104 -7.071669 L 33.385572 -0.00104038 L 26.314944 7.067428 L 33.385572 -0.00104038 L 26.314944 7.067428 L 33.385572 -0.00104038 L 26.317104 -7.071669 L 33.385572 -0.00104038 " transform="matrix(-0.587785, 0.809017, -0.809017, -0.587785, 49.693018, 49.693018)"/>
<path fill="none" stroke-width="1.136364" stroke-linecap="butt" stroke-linejoin="miter" stroke="rgb(0%, 0%, 0%)" stroke-opacity="1" stroke-miterlimit="10" d="M 11.386578 -0.00148179 L 26.386818 -0.0000207707 L 11.386578 -0.00148179 " transform="matrix(-0.951057, -0.309017, 0.309017, -0.951057, 49.693018, 49.693018)"/>
<path fill="none" stroke-width="1.136364" stroke-linecap="butt" stroke-linejoin="miter" stroke="rgb(0%, 0%, 0%)" stroke-opacity="1" stroke-miterlimit="10" d="M 26.386818 -0.0000207707 L 33.458233 -7.070315 L 26.386818 -0.0000207707 L 33.457113 7.071394 L 26.386818 -0.0000207707 L 33.457113 7.071394 L 26.386818 -0.0000207707 L 33.458233 -7.070315 L 26.386818 -0.0000207707 " transform="matrix(-0.951057, -0.309017, 0.309017, -0.951057, 49.693018, 49.693018)"/>
<path fill="none" stroke-width="1.136364" stroke-linecap="butt" stroke-linejoin="miter" stroke="rgb(0%, 0%, 0%)" stroke-opacity="1" stroke-miterlimit="10" d="M 11.386578 -0.00148179 L 25.388697 -0.000186142 L 11.386578 -0.00148179 " transform="matrix(-0.951057, -0.309017, 0.309017, -0.951057, 49.693018, 49.693018)"/>
<path fill="none" stroke-width="1.136364" stroke-linecap="butt" stroke-linejoin="miter" stroke="rgb(0%, 0%, 0%)" stroke-opacity="1" stroke-miterlimit="10" d="M 25.384982 0.00102096 L 25.387109 -4.998223 L 25.382854 5.000265 L 25.384982 0.00102096 L 25.382854 5.000265 L 25.387109 -4.998223 L 25.384982 0.00102096 " transform="matrix(-0.951057, -0.309017, 0.309017, -0.951057, 49.693018, 49.693018)"/>
<path fill="none" stroke-width="1.136364" stroke-linecap="butt" stroke-linejoin="miter" stroke="rgb(0%, 0%, 0%)" stroke-opacity="1" stroke-miterlimit="10" d="M 11.386578 -0.00148179 L 23.387532 -0.00302485 L 11.386578 -0.00148179 " transform="matrix(-0.951057, -0.309017, 0.309017, -0.951057, 49.693018, 49.693018)"/>
<path fill="none" stroke-width="1.136364" stroke-linecap="butt" stroke-linejoin="miter" stroke="rgb(0%, 0%, 0%)" stroke-opacity="1" stroke-miterlimit="10" d="M 23.385024 0.00189731 L 23.387152 -4.997347 L 23.382896 5.001141 L 23.385024 0.00189731 L 23.382896 5.001141 L 23.387152 -4.997347 L 23.385024 0.00189731 " transform="matrix(-0.951057, -0.309017, 0.309017, -0.951057, 49.693018, 49.693018)"/>
<path fill="none" stroke-width="1.136364" stroke-linecap="butt" stroke-linejoin="miter" stroke="rgb(0%, 0%, 0%)" stroke-opacity="1" stroke-miterlimit="10" d="M 11.38579 -0.00161172 C 11.38579 6.287451 6.288134 11.385107 -0.000928898 11.385107 C -6.289991 11.385107 -11.387648 6.287451 -11.387648 -0.00161172 C -11.387648 -6.286768 -6.289991 -11.384424 -0.000928898 -11.384424 C 6.288134 -11.384424 11.38579 -6.286768 11.38579 -0.00161172 " transform="matrix(1, 0, 0, 1, 149.079054, 49.693018)"/>
<path fill="none" stroke-width="1.136364" stroke-linecap="butt" stroke-linejoin="miter" stroke="rgb(0%, 0%, 0%)" stroke-opacity="1" stroke-miterlimit="10" d="M 11.384424 -0.000928898 L 3.79458 -0.000928898 L 11.384424 -0.000928898 " transform="matrix(0.000000000000000061, -1, 1, 0.000000000000000061, 149.079054, 49.693018)"/>
<path fill="none" stroke-width="1.136364" stroke-linecap="butt" stroke-linejoin="miter" stroke="rgb(0%, 0%, 0%)" stroke-opacity="1" stroke-miterlimit="10" d="M 11.384424 -0.000928898 L 27.384424 -0.000928898 L 11.384424 -0.000928898 " transform="matrix(0.000000000000000061, -1, 1, 0.000000000000000061, 149.079054, 49.693018)"/>
<path fill="none" stroke-width="1.136364" stroke-linecap="butt" stroke-linejoin="miter" stroke="rgb(0%, 0%, 0%)" stroke-opacity="1" stroke-miterlimit="10" d="M 27.384424 -0.000928898 L 27.384424 2.999071 L 27.384424 -3.000929 L 33.384424 -3.000929 L 33.384424 2.999071 L 33.384424 -3.000929 L 27.384424 -3.000929 L 27.384424 2.999071 L 27.384424 -0.000928898 " transform="matrix(0.000000000000000061, -1, 1, 0.000000000000000061, 149.079054, 49.693018)"/>
<path fill="none" stroke-width="1.136364" stroke-linecap="butt" stroke-linejoin="miter" stroke="rgb(0%, 0%, 0%)" stroke-opacity="1" stroke-miterlimit="10" d="M 11.384424 -0.000928898 L 25.884424 -0.000928898 L 11.384424 -0.000928898 " transform="matrix(0.000000000000000061, -1, 1, 0.000000000000000061, 149.079054, 49.693018)"/>
<path fill="none" stroke-width="1.136364" stroke-linecap="butt" stroke-linejoin="miter" stroke="rgb(0%, 0%, 0%)" stroke-opacity="1" stroke-miterlimit="10" d="M 25.884424 -0.000928898 L 25.884424 -5.000929 L 25.884424 4.999071 L 25.884424 -0.000928898 L 25.884424 4.999071 L 25.884424 -5.000929 L 25.884424 -0.000928898 " transform="matrix(0.000000000000000061, -1, 1, 0.000000000000000061, 149.079054, 49.693018)"/>
<path fill="none" stroke-width="1.136364" stroke-linecap="butt" stroke-linejoin="miter" stroke="rgb(0%, 0%, 0%)" stroke-opacity="1" stroke-miterlimit="10" d="M 11.384161 0.000696699 L 33.382397 0.00169937 L 11.384161 0.000696699 " transform="matrix(0.951057, -0.309017, 0.309017, 0.951057, 149.079054, 49.693018)"/>
<path fill="none" stroke-width="1.136364" stroke-linecap="butt" stroke-linejoin="miter" stroke="rgb(0%, 0%, 0%)" stroke-opacity="1" stroke-miterlimit="10" d="M 33.387319 -0.000808598 L 26.315904 -7.071103 L 33.387319 -0.000808598 L 26.317024 7.070606 L 33.387319 -0.000808598 L 26.317024 7.070606 L 33.387319 -0.000808598 L 26.315904 -7.071103 L 33.387319 -0.000808598 " transform="matrix(0.951057, -0.309017, 0.309017, 0.951057, 149.079054, 49.693018)"/>
<path fill="none" stroke-width="1.136364" stroke-linecap="butt" stroke-linejoin="miter" stroke="rgb(0%, 0%, 0%)" stroke-opacity="1" stroke-miterlimit="10" d="M 11.388521 -0.000468185 L 26.316827 0.00101553 L 11.388521 -0.000468185 " transform="matrix(0.587785, 0.809017, -0.809017, 0.587785, 149.079054, 49.693018)"/>
<path fill="none" stroke-width="1.136364" stroke-linecap="butt" stroke-linejoin="miter" stroke="rgb(0%, 0%, 0%)" stroke-opacity="1" stroke-miterlimit="10" d="M 33.386375 -0.000064443 L 26.315747 -7.068533 L 33.386375 -0.000064443 L 26.317907 7.070564 L 26.318043 -7.071693 L 33.388671 -0.00322467 L 26.318043 -7.071693 L 26.317907 7.070564 L 33.386375 -0.000064443 L 26.315747 -7.068533 L 33.386375 -0.000064443 " transform="matrix(0.587785, 0.809017, -0.809017, 0.587785, 149.079054, 49.693018)"/>
<path fill="none" stroke-width="1.136364" stroke-linecap="butt" stroke-linejoin="miter" stroke="rgb(0%, 0%, 0%)" stroke-opacity="1" stroke-miterlimit="10" d="M 11.387317 -0.00118905 L 24.385683 -0.00072287 L 11.387317 -0.00118905 " transform="matrix(-0.587785, 0.809017, -0.809017, -0.587785, 149.079054, 49.693018)"/>
<path fill="none" stroke-width="1.136364" stroke-linecap="butt" stroke-linejoin="miter" stroke="rgb(0%, 0%, 0%)" stroke-opacity="1" stroke-miterlimit="10" d="M 9.885584 -0.00133212 L 9.885287 0.0181969 L 9.882695 0.0345657 L 9.871189 0.0718953 L 9.855092 0.102904 L 9.843882 0.120705 L 9.816872 0.149986 L 9.78527 0.172946 L 9.749076 0.189586 L 9.728683 0.194746 L 9.694217 0.200473 L 9.655159 0.19988 L 9.599164 0.182622 L 9.58366 0.174573 L 9.565859 0.163364 L 9.536578 0.136354 L 9.513618 0.104752 L 9.488658 0.0504602 L 9.483498 0.030067 L 9.480635 0.0128341 L 9.481228 -0.0262239 L 9.48382 -0.0425927 L 9.495326 -0.0799223 L 9.511423 -0.110932 L 9.522632 -0.128732 L 9.549643 -0.158013 L 9.581245 -0.180973 L 9.617439 -0.197613 L 9.637832 -0.202773 L 9.672298 -0.2085 L 9.711356 -0.207907 L 9.767351 -0.190649 L 9.782855 -0.1826 L 9.800656 -0.171391 L 9.829937 -0.144381 L 9.852897 -0.112779 L 9.877857 -0.0584873 L 9.883017 -0.0380941 L 9.88588 -0.0208611 L 9.885287 0.0181969 L 9.882695 0.0345657 L 9.871189 0.0718953 L 9.855092 0.102904 L 9.843882 0.120705 L 9.816872 0.149986 L 9.78527 0.172946 L 9.749076 0.189586 L 9.728683 0.194746 L 9.694217 0.200473 L 9.655159 0.19988 L 9.599164 0.182622 L 9.58366 0.174573 L 9.565859 0.163364 L 9.536578 0.136354 L 9.513618 0.104752 L 9.488658 0.0504602 L 9.483498 0.030067 L 9.480635 0.0128341 L 9.480931 -0.00669493 L 9.480635 0.0128341 L 9.483498 0.030067 L 9.488658 0.0504602 L 9.513618 0.104752 L 9.536578 0.136354 L 9.565859 0.163364 L 9.58366 0.174573 L 9.599164 0.182622 L 9.655159 0.19988 L 9.694217 0.200473 L 9.728683 0.194746 L 9.749076 0.189586 L 9.78527 0.172946 L 9.816872 0.149986 L 9.843882 0.120705 L 9.855092 0.102904 L 9.871189 0.0718953 L 9.882695 0.0345657 L 9.885287 0.0181969 L 9.88588 -0.0208611 L 9.883017 -0.0380941 L 9.877857 -0.0584873 L 9.852897 -0.112779 L 9.829937 -0.144381 L 9.800656 -0.171391 L 9.782855 -0.1826 L 9.767351 -0.190649 L 9.711356 -0.207907 L 9.672298 -0.2085 L 9.637832 -0.202773 L 9.617439 -0.197613 L 9.581245 -0.180973 L 9.549643 -0.158013 L 9.522632 -0.128732 L 9.511423 -0.110932 L 9.495326 -0.0799223 L 9.48382 -0.0425927 L 9.481228 -0.0262239 L 9.480635 0.0128341 L 9.483498 0.030067 L 9.488658 0.0504602 L 9.513618 0.104752 L 9.536578 0.136354 L 9.565859 0.163364 L 9.58366 0.174573 L 9.599164 0.182622 L 9.655159 0.19988 L 9.694217 0.200473 L 9.728683 0.194746 L 9.749076 0.189586 L 9.78527 0.172946 L 9.816872 0.149986 L 9.843882 0.120705 L 9.855092 0.102904 L 9.871189 0.0718953 L 9.882695 0.0345657 L 9.885287 0.0181969 L 9.885584 -0.00133212 " transform="matrix(-0.587785, 0.809017, -0.809017, -0.587785, 149.079054, 49.693018)"/>
<path fill="none" stroke-width="1.136364" stroke-linecap="butt" stroke-linejoin="miter" stroke="rgb(0%, 0%, 0%)" stroke-opacity="1" stroke-miterlimit="10" d="M 11.385928 -0.00127079 L 33.384164 -0.00227346 L 11.385928 -0.00127079 " transform="matrix(-0.951057, -0.309017, 0.309017, -0.951057, 149.079054, 49.693018)"/>
<path fill="none" stroke-width="1.136364" stroke-linecap="butt" stroke-linejoin="miter" stroke="rgb(0%, 0%, 0%)" stroke-opacity="1" stroke-miterlimit="10" d="M 33.385371 0.00144161 L 26.315076 -7.069973 L 33.385371 0.00144161 L 26.313956 7.071736 L 33.385371 0.00144161 L 26.313956 7.071736 L 33.385371 0.00144161 L 26.315076 -7.069973 L 33.385371 0.00144161 " transform="matrix(-0.951057, -0.309017, 0.309017, -0.951057, 149.079054, 49.693018)"/>
<path fill="none" stroke-width="1.136364" stroke-linecap="butt" stroke-linejoin="miter" stroke="rgb(0%, 0%, 0%)" stroke-opacity="1" stroke-miterlimit="10" d="M 11.386473 -0.00161172 C 11.386473 6.287451 6.288816 11.385107 -0.00024608 11.385107 C -6.289309 11.385107 -11.386965 6.287451 -11.386965 -0.00161172 C -11.386965 -6.286768 -6.289309 -11.384424 -0.00024608 -11.384424 C 6.288816 -11.384424 11.386473 -6.286768 11.386473 -0.00161172 " transform="matrix(1, 0, 0, 1, 248.46509, 49.693018)"/>
<path fill="none" stroke-width="1.136364" stroke-linecap="butt" stroke-linejoin="miter" stroke="rgb(0%, 0%, 0%)" stroke-opacity="1" stroke-miterlimit="10" d="M 11.384424 -0.00024608 L 3.79458 -0.00024608 L 11.384424 -0.00024608 " transform="matrix(0.000000000000000061, -1, 1, 0.000000000000000061, 248.46509, 49.693018)"/>
<path fill="none" stroke-width="1.136364" stroke-linecap="butt" stroke-linejoin="miter" stroke="rgb(0%, 0%, 0%)" stroke-opacity="1" stroke-miterlimit="10" d="M 11.384424 -0.00024608 L 27.384424 -0.00024608 L 11.384424 -0.00024608 " transform="matrix(0.000000000000000061, -1, 1, 0.000000000000000061, 248.46509, 49.693018)"/>
<path fill="none" stroke-width="1.136364" stroke-linecap="butt" stroke-linejoin="miter" stroke="rgb(0%, 0%, 0%)" stroke-opacity="1" stroke-miterlimit="10" d="M 33.384424 -0.00024608 L 33.376612 0.331785 L 33.35708 0.663816 L 33.32583 0.991941 L 33.278955 1.31616 L 33.220362 1.632566 L 33.150049 1.945066 L 33.068018 2.245848 L 32.970362 2.538816 L 32.864893 2.820066 L 32.747705 3.089598 L 32.618799 3.343504 L 32.48208 3.581785 L 32.333643 3.804441 L 32.177393 4.011473 L 32.01333 4.198973 L 31.841455 4.370848 L 31.661768 4.523191 L 31.478174 4.656004 L 31.290674 4.765379 L 31.099268 4.855223 L 30.903955 4.921629 L 30.704737 4.968504 L 30.505518 4.991941 L 30.306299 4.991941 L 30.10708 4.97241 L 29.907862 4.929441 L 29.712549 4.863035 L 29.521143 4.777098 L 29.333643 4.667723 L 29.150049 4.538816 L 28.970362 4.390379 L 28.798487 4.22241 L 28.634424 4.03491 L 28.478174 3.831785 L 28.329737 3.609129 L 28.189112 3.370848 L 28.060205 3.116941 L 27.939112 2.851316 L 27.829737 2.570066 L 27.73208 2.281004 L 27.646143 1.980223 L 27.571924 1.671629 L 27.509424 1.355223 L 27.462549 1.031004 L 27.427393 0.702879 L 27.403955 0.370848 L 27.396143 0.0388164 L 27.400049 -0.293215 L 27.41958 -0.625246 L 27.45083 -0.953371 L 27.493799 -1.27759 L 27.552393 -1.597902 L 27.622705 -1.910402 L 27.704737 -2.21509 L 27.798487 -2.508059 L 27.903955 -2.789309 L 28.021143 -3.05884 L 28.150049 -3.316652 L 28.286768 -3.55884 L 28.435205 -3.785402 L 28.591455 -3.99634 L 28.755518 -4.187746 L 28.927393 -4.359621 L 29.103174 -4.511965 L 29.286768 -4.644777 L 29.474268 -4.758059 L 29.665674 -4.851809 L 29.860987 -4.922121 L 30.060205 -4.972902 L 30.259424 -5.000246 L 30.458643 -5.004152 L 30.657862 -4.988527 L 30.85708 -4.949465 L 31.052393 -4.886965 L 31.247705 -4.804934 L 31.439112 -4.699465 L 31.622705 -4.574465 L 31.802393 -4.429934 L 31.974268 -4.265871 L 32.142237 -4.082277 L 32.302393 -3.879152 L 32.454737 -3.660402 L 32.595362 -3.426027 L 32.728174 -3.176027 L 32.849268 -2.910402 L 32.958643 -2.633059 L 33.056299 -2.343996 L 33.142237 -2.043215 L 33.216455 -1.734621 L 33.278955 -1.418215 L 33.329737 -1.093996 L 33.364893 -0.765871 L 33.38833 -0.43384 L 33.400049 -0.101809 L 33.396143 0.230223 L 33.380518 0.562254 L 33.349268 0.890379 L 33.306299 1.214598 L 33.251612 1.53491 L 33.306299 1.214598 L 33.349268 0.890379 L 33.380518 0.562254 L 33.396143 0.230223 L 33.400049 -0.101809 L 33.38833 -0.43384 L 33.364893 -0.765871 L 33.329737 -1.093996 L 33.278955 -1.418215 L 33.216455 -1.734621 L 33.142237 -2.043215 L 33.056299 -2.343996 L 32.958643 -2.633059 L 32.849268 -2.910402 L 32.728174 -3.176027 L 32.595362 -3.426027 L 32.454737 -3.660402 L 32.302393 -3.879152 L 32.142237 -4.082277 L 31.974268 -4.265871 L 31.802393 -4.429934 L 31.622705 -4.574465 L 31.439112 -4.699465 L 31.247705 -4.804934 L 31.052393 -4.886965 L 30.85708 -4.949465 L 30.657862 -4.988527 L 30.458643 -5.004152 L 30.259424 -5.000246 L 30.060205 -4.972902 L 29.860987 -4.922121 L 29.665674 -4.851809 L 29.474268 -4.758059 L 29.286768 -4.644777 L 29.103174 -4.511965 L 28.927393 -4.359621 L 28.755518 -4.187746 L 28.591455 -3.99634 L 28.435205 -3.785402 L 28.286768 -3.55884 L 28.150049 -3.316652 L 28.021143 -3.05884 L 27.903955 -2.789309 L 27.798487 -2.508059 L 27.704737 -2.21509 L 27.622705 -1.910402 L 27.552393 -1.597902 L 27.493799 -1.27759 L 27.45083 -0.953371 L 27.41958 -0.625246 L 27.400049 -0.293215 L 27.396143 0.0388164 L 27.403955 0.370848 L 27.427393 0.702879 L 27.462549 1.031004 L 27.509424 1.355223 L 27.571924 1.671629 L 27.646143 1.980223 L 27.73208 2.281004 L 27.829737 2.570066 L 27.939112 2.851316 L 28.060205 3.116941 L 28.189112 3.370848 L 28.329737 3.609129 L 28.478174 3.831785 L 28.634424 4.03491 L 28.798487 4.22241 L 28.970362 4.390379 L 29.150049 4.538816 L 29.333643 4.667723 L 29.521143 4.777098 L 29.712549 4.863035 L 29.907862 4.929441 L 30.10708 4.97241 L 30.306299 4.991941 L 30.505518 4.991941 L 30.704737 4.968504 L 30.903955 4.921629 L 31.099268 4.855223 L 31.290674 4.765379 L 31.478174 4.656004 L 31.661768 4.523191 L 31.841455 4.370848 L 32.01333 4.198973 L 32.177393 4.011473 L 32.333643 3.804441 L 32.48208 3.581785 L 32.618799 3.343504 L 32.747705 3.089598 L 32.864893 2.820066 L 32.970362 2.538816 L 33.068018 2.245848 L 33.150049 1.945066 L 33.220362 1.632566 L 33.278955 1.31616 L 33.32583 0.991941 L 33.35708 0.663816 L 33.376612 0.331785 L 33.384424 -0.00024608 " transform="matrix(0.000000000000000061, -1, 1, 0.000000000000000061, 248.46509, 49.693018)"/>
<path fill="none" stroke-width="1.136364" stroke-linecap="butt" stroke-linejoin="miter" stroke="rgb(0%, 0%, 0%)" stroke-opacity="1" stroke-miterlimit="10" d="M 11.386261 -0.0000640857 L 26.385061 -0.0000179288 L 11.386261 -0.0000640857 " transform="matrix(0.781831, -0.62349, 0.62349, 0.781831, 248.46509, 49.693018)"/>
<path fill="none" stroke-width="1.136364" stroke-linecap="butt" stroke-linejoin="miter" stroke="rgb(0%, 0%, 0%)" stroke-opacity="1" stroke-miterlimit="10" d="M 26.385061 -0.0000179288 L 33.457497 -7.070478 L 26.385061 -0.0000179288 L 33.455521 7.072418 L 26.385061 -0.0000179288 L 33.455521 7.072418 L 26.385061 -0.0000179288 L 33.457497 -7.070478 L 26.385061 -0.0000179288 " transform="matrix(0.781831, -0.62349, 0.62349, 0.781831, 248.46509, 49.693018)"/>
<path fill="none" stroke-width="1.136364" stroke-linecap="butt" stroke-linejoin="miter" stroke="rgb(0%, 0%, 0%)" stroke-opacity="1" stroke-miterlimit="10" d="M 11.386261 -0.0000640857 L 25.38701 -0.00152869 L 11.386261 -0.0000640857 " transform="matrix(0.781831, -0.62349, 0.62349, 0.781831, 248.46509, 49.693018)"/>
<path fill="none" stroke-width="1.136364" stroke-linecap="butt" stroke-linejoin="miter" stroke="rgb(0%, 0%, 0%)" stroke-opacity="1" stroke-miterlimit="10" d="M 25.38701 -0.00152869 L 25.387837 -5.002147 L 25.386182 4.999089 L 25.38701 -0.00152869 L 25.386182 4.999089 L 25.387837 -5.002147 L 25.38701 -0.00152869 " transform="matrix(0.781831, -0.62349, 0.62349, 0.781831, 248.46509, 49.693018)"/>
<path fill="none" stroke-width="1.136364" stroke-linecap="butt" stroke-linejoin="miter" stroke="rgb(0%, 0%, 0%)" stroke-opacity="1" stroke-miterlimit="10" d="M 11.386261 -0.0000640857 L 23.386036 0.00155785 L 11.386261 -0.0000640857 " transform="matrix(0.781831, -0.62349, 0.62349, 0.781831, 248.46509, 49.693018)"/>
<path fill="none" stroke-width="1.136364" stroke-linecap="butt" stroke-linejoin="miter" stroke="rgb(0%, 0%, 0%)" stroke-opacity="1" stroke-miterlimit="10" d="M 23.386036 0.00155785 L 23.386863 -4.99906 L 23.385208 5.002176 L 23.386036 0.00155785 L 23.385208 5.002176 L 23.386863 -4.99906 L 23.386036 0.00155785 " transform="matrix(0.781831, -0.62349, 0.62349, 0.781831, 248.46509, 49.693018)"/>
<path fill="none" stroke-width="1.136364" stroke-linecap="butt" stroke-linejoin="miter" stroke="rgb(0%, 0%, 0%)" stroke-opacity="1" stroke-miterlimit="10" d="M 11.38675 -0.000252015 L 33.387328 -0.00133707 L 11.38675 -0.000252015 " transform="matrix(0.974928, 0.222521, -0.222521, 0.974928, 248.46509, 49.693018)"/>
<path fill="none" stroke-width="1.136364" stroke-linecap="butt" stroke-linejoin="miter" stroke="rgb(0%, 0%, 0%)" stroke-opacity="1" stroke-miterlimit="10" d="M 33.387328 -0.00133707 L 26.315932 -7.073877 L 33.387328 -0.00133707 L 26.314788 7.070058 L 33.387328 -0.00133707 L 26.314788 7.070058 L 33.387328 -0.00133707 L 26.315932 -7.073877 L 33.387328 -0.00133707 " transform="matrix(0.974928, 0.222521, -0.222521, 0.974928, 248.46509, 49.693018)"/>
<path fill="none" stroke-width="1.136364" stroke-linecap="butt" stroke-linejoin="miter" stroke="rgb(0%, 0%, 0%)" stroke-opacity="1" stroke-miterlimit="10" d="M 11.38675 -0.000252015 L 30.386265 -0.00151087 L 23.313725 7.069884 L 30.386265 -0.00151087 L 23.313725 7.069884 L 30.386265 -0.00151087 L 11.38675 -0.000252015 " transform="matrix(0.974928, 0.222521, -0.222521, 0.974928, 248.46509, 49.693018)"/>
<path fill="none" stroke-width="1.136364" stroke-linecap="butt" stroke-linejoin="miter" stroke="rgb(0%, 0%, 0%)" stroke-opacity="1" stroke-miterlimit="10" d="M 11.387926 -0.000137881 L 33.387644 -0.00186374 L 11.387926 -0.000137881 " transform="matrix(0.433884, 0.900969, -0.900969, 0.433884, 248.46509, 49.693018)"/>
<path fill="none" stroke-width="1.136364" stroke-linecap="butt" stroke-linejoin="miter" stroke="rgb(0%, 0%, 0%)" stroke-opacity="1" stroke-miterlimit="10" d="M 33.38595 0.00165567 L 26.316906 -7.070543 L 33.38595 0.00165567 L 26.313751 7.070699 L 33.38595 0.00165567 L 26.313751 7.070699 L 33.38595 0.00165567 L 26.316906 -7.070543 L 33.38595 0.00165567 " transform="matrix(0.433884, 0.900969, -0.900969, 0.433884, 248.46509, 49.693018)"/>
<path fill="none" stroke-width="1.136364" stroke-linecap="butt" stroke-linejoin="miter" stroke="rgb(0%, 0%, 0%)" stroke-opacity="1" stroke-miterlimit="10" d="M 11.387926 -0.000137881 L 25.387605 -0.00012224 L 11.387926 -0.000137881 " transform="matrix(0.433884, 0.900969, -0.900969, 0.433884, 248.46509, 49.693018)"/>
<path fill="none" stroke-width="1.136364" stroke-linecap="butt" stroke-linejoin="miter" stroke="rgb(0%, 0%, 0%)" stroke-opacity="1" stroke-miterlimit="10" d="M 25.387605 -0.00012224 L 25.388504 -4.998648 L 25.386705 4.998403 L 25.387605 -0.00012224 L 25.386705 4.998403 L 25.388504 -4.998648 L 25.387605 -0.00012224 " transform="matrix(0.433884, 0.900969, -0.900969, 0.433884, 248.46509, 49.693018)"/>
<path fill="none" stroke-width="1.136364" stroke-linecap="butt" stroke-linejoin="miter" stroke="rgb(0%, 0%, 0%)" stroke-opacity="1" stroke-miterlimit="10" d="M 11.387926 -0.000137881 L 23.388898 -0.000143002 L 11.387926 -0.000137881 " transform="matrix(0.433884, 0.900969, -0.900969, 0.433884, 248.46509, 49.693018)"/>
<path fill="none" stroke-width="1.136364" stroke-linecap="butt" stroke-linejoin="miter" stroke="rgb(0%, 0%, 0%)" stroke-opacity="1" stroke-miterlimit="10" d="M 23.385379 -0.00183786 L 23.386278 -5.000364 L 23.384479 4.996688 L 23.385379 -0.00183786 L 23.384479 4.996688 L 23.386278 -5.000364 L 23.385379 -0.00183786 " transform="matrix(0.433884, 0.900969, -0.900969, 0.433884, 248.46509, 49.693018)"/>
<path fill="none" stroke-width="1.136364" stroke-linecap="butt" stroke-linejoin="miter" stroke="rgb(0%, 0%, 0%)" stroke-opacity="1" stroke-miterlimit="10" d="M 11.38814 0.000581301 L 33.387858 0.00230716 L 11.38814 0.000581301 " transform="matrix(-0.433884, 0.900969, -0.900969, -0.433884, 248.46509, 49.693018)"/>
<path fill="none" stroke-width="1.136364" stroke-linecap="butt" stroke-linejoin="miter" stroke="rgb(0%, 0%, 0%)" stroke-opacity="1" stroke-miterlimit="10" d="M 33.386163 -0.00121225 L 33.385264 -4.999738 L 33.387062 4.997313 L 33.386163 -0.00121225 L 33.387062 4.997313 L 33.385264 -4.999738 L 33.386163 -0.00121225 " transform="matrix(-0.433884, 0.900969, -0.900969, -0.433884, 248.46509, 49.693018)"/>
<path fill="none" stroke-width="1.136364" stroke-linecap="butt" stroke-linejoin="miter" stroke="rgb(0%, 0%, 0%)" stroke-opacity="1" stroke-miterlimit="10" d="M 11.38723 0.000361531 L 27.385682 0.00179419 L 11.38723 0.000361531 " transform="matrix(-0.974928, 0.222521, -0.222521, -0.974928, 248.46509, 49.693018)"/>
<path fill="none" stroke-width="1.136364" stroke-linecap="butt" stroke-linejoin="miter" stroke="rgb(0%, 0%, 0%)" stroke-opacity="1" stroke-miterlimit="10" d="M 33.384579 5.001079 L 33.193087 4.99744 L 33.002465 4.989992 L 32.812713 4.978736 L 32.624698 4.959863 L 32.437553 4.937182 L 32.251277 4.910692 L 32.065871 4.880395 L 31.882202 4.84248 L 31.699403 4.800758 L 31.517474 4.755227 L 31.337282 4.702079 L 31.15796 4.645123 L 30.983316 4.585228 L 30.81041 4.517716 L 30.638373 4.446396 L 30.471013 4.372137 L 30.304523 4.29407 L 30.14358 4.209255 L 29.983506 4.120632 L 29.828109 4.02907 L 29.67739 3.934569 L 29.528409 3.832451 L 29.384106 3.727394 L 29.244481 3.619398 L 29.109533 3.508463 L 28.979262 3.394589 L 28.853669 3.277775 L 28.732754 3.158023 L 28.616516 3.035331 L 28.504955 2.909701 L 28.398073 2.781131 L 28.295867 2.649622 L 28.19834 2.515175 L 28.105489 2.377788 L 28.017317 2.237462 L 27.933822 2.094196 L 27.858812 1.948861 L 27.78848 1.800587 L 27.722826 1.649374 L 27.664789 1.499899 L 27.611428 1.347486 L 27.562746 1.192133 L 27.52168 1.038518 L 27.485292 0.881965 L 27.45652 0.72715 L 27.432426 0.569395 L 27.41214 0.41251 L 27.40034 0.253556 L 27.392348 0.0954699 L 27.392842 -0.0646856 L 27.397144 -0.223972 L 27.409063 -0.38152 L 27.428599 -0.537329 L 27.452812 -0.696077 L 27.484642 -0.853088 L 27.52028 -1.009228 L 27.563535 -1.163631 L 27.610598 -1.317164 L 27.665278 -1.468958 L 27.723766 -1.619884 L 27.78987 -1.769071 L 27.859783 -1.917389 L 27.937313 -2.063968 L 28.017781 -2.20587 L 28.105867 -2.346033 L 28.19776 -2.485327 L 28.29727 -2.622883 L 28.39972 -2.755761 L 28.509786 -2.886901 L 28.622791 -3.013363 L 28.739604 -3.138956 L 28.863165 -3.259002 L 28.990534 -3.378179 L 29.120842 -3.492679 L 29.258767 -3.60544 L 29.39963 -3.713523 L 29.543433 -3.816929 L 29.690175 -3.915658 L 29.840726 -4.013517 L 29.994215 -4.106699 L 30.154452 -4.194333 L 30.317628 -4.277291 L 30.483743 -4.355571 L 30.652797 -4.429173 L 30.82479 -4.498098 L 30.995914 -4.563214 L 31.169977 -4.623653 L 31.346979 -4.679414 L 31.52692 -4.730498 L 31.709801 -4.776905 L 31.891812 -4.819503 L 32.076762 -4.857423 L 32.264651 -4.890666 L 32.451671 -4.920101 L 32.640761 -4.941049 L 32.828982 -4.95819 L 33.020142 -4.970653 L 33.210432 -4.979307 L 33.398984 -4.980345 L 33.210432 -4.979307 L 33.020142 -4.970653 L 32.828982 -4.95819 L 32.640761 -4.941049 L 32.451671 -4.920101 L 32.264651 -4.890666 L 32.076762 -4.857423 L 31.891812 -4.819503 L 31.709801 -4.776905 L 31.52692 -4.730498 L 31.346979 -4.679414 L 31.169977 -4.623653 L 30.995914 -4.563214 L 30.82479 -4.498098 L 30.652797 -4.429173 L 30.483743 -4.355571 L 30.317628 -4.277291 L 30.154452 -4.194333 L 29.994215 -4.106699 L 29.840726 -4.013517 L 29.690175 -3.915658 L 29.543433 -3.816929 L 29.39963 -3.713523 L 29.258767 -3.60544 L 29.120842 -3.492679 L 28.990534 -3.378179 L 28.863165 -3.259002 L 28.739604 -3.138956 L 28.622791 -3.013363 L 28.509786 -2.886901 L 28.39972 -2.755761 L 28.29727 -2.622883 L 28.19776 -2.485327 L 28.105867 -2.346033 L 28.017781 -2.20587 L 27.937313 -2.063968 L 27.859783 -1.917389 L 27.78987 -1.769071 L 27.723766 -1.619884 L 27.665278 -1.468958 L 27.610598 -1.317164 L 27.563535 -1.163631 L 27.52028 -1.009228 L 27.484642 -0.853088 L 27.452812 -0.696077 L 27.428599 -0.537329 L 27.409063 -0.38152 L 27.397144 -0.223972 L 27.392842 -0.0646856 L 27.392348 0.0954699 L 27.40034 0.253556 L 27.41214 0.41251 L 27.432426 0.569395 L 27.45652 0.72715 L 27.485292 0.881965 L 27.52168 1.038518 L 27.562746 1.192133 L 27.611428 1.347486 L 27.664789 1.499899 L 27.722826 1.649374 L 27.78848 1.800587 L 27.858812 1.948861 L 27.933822 2.094196 L 28.017317 2.237462 L 28.105489 2.377788 L 28.19834 2.515175 L 28.295867 2.649622 L 28.398073 2.781131 L 28.504955 2.909701 L 28.616516 3.035331 L 28.732754 3.158023 L 28.853669 3.277775 L 28.979262 3.394589 L 29.109533 3.508463 L 29.244481 3.619398 L 29.384106 3.727394 L 29.528409 3.832451 L 29.67739 3.934569 L 29.828109 4.02907 L 29.983506 4.120632 L 30.14358 4.209255 L 30.304523 4.29407 L 30.471013 4.372137 L 30.638373 4.446396 L 30.81041 4.517716 L 30.983316 4.585228 L 31.15796 4.645123 L 31.337282 4.702079 L 31.517474 4.755227 L 31.699403 4.800758 L 31.882202 4.84248 L 32.065871 4.880395 L 32.251277 4.910692 L 32.437553 4.937182 L 32.624698 4.959863 L 32.812713 4.978736 L 33.002465 4.989992 L 33.193087 4.99744 L 33.384579 5.001079 " transform="matrix(-0.974928, 0.222521, -0.222521, -0.974928, 248.46509, 49.693018)"/>
<path fill="none" stroke-width="1.136364" stroke-linecap="butt" stroke-linejoin="miter" stroke="rgb(0%, 0%, 0%)" stroke-opacity="1" stroke-miterlimit="10" d="M 11.386646 -0.000242771 L 27.385933 0.00125434 L 11.386646 -0.000242771 " transform="matrix(-0.781831, -0.62349, 0.62349, -0.781831, 248.46509, 49.693018)"/>
<path fill="none" stroke-width="1.136364" stroke-linecap="butt" stroke-linejoin="miter" stroke="rgb(0%, 0%, 0%)" stroke-opacity="1" stroke-miterlimit="10" d="M 33.384602 -0.00108364 L 33.380428 0.332 L 33.359785 0.663227 L 33.325728 0.990164 L 33.278256 1.31281 L 33.21737 1.631164 L 33.146123 1.942792 L 33.06208 2.244639 L 32.96524 2.536706 L 32.858659 2.816557 L 32.739282 3.086627 L 32.610781 3.338991 L 32.472539 3.579139 L 32.325172 3.801582 L 32.168683 4.006319 L 32.005505 4.196404 L 31.833204 4.368784 L 31.654833 4.521022 L 31.470393 4.65312 L 31.282937 4.76264 L 31.089412 4.85202 L 30.892871 4.918823 L 30.695751 4.966103 L 30.495615 4.990806 L 30.295517 4.990498 L 30.09484 4.970666 L 29.896637 4.928877 L 29.700908 4.865129 L 29.507652 4.779424 L 29.316872 4.67176 L 29.134054 4.542756 L 28.956146 4.394849 L 28.783148 4.228037 L 28.618114 4.039886 L 28.460424 3.835884 L 28.313134 3.613597 L 28.173189 3.37546 L 28.043024 3.124527 L 27.925694 2.858362 L 27.818145 2.579401 L 27.720376 2.287644 L 27.634824 1.986145 L 27.561487 1.674905 L 27.499748 1.359411 L 27.452661 1.03723 L 27.417171 0.710796 L 27.393279 0.38011 L 27.38342 0.0482247 L 27.387594 -0.284859 L 27.405801 -0.61914 L 27.437423 -0.949131 L 27.48246 -1.274831 L 27.537857 -1.593804 L 27.609104 -1.905432 L 27.690711 -2.210333 L 27.785115 -2.505454 L 27.88926 -2.788358 L 28.008638 -3.058428 L 28.134703 -3.313847 L 28.27051 -3.557049 L 28.415441 -3.782546 L 28.572549 -3.992772 L 28.735727 -4.182857 L 28.908028 -4.355237 L 29.083963 -4.51053 L 29.265968 -4.645681 L 29.454042 -4.760691 L 29.645132 -4.853125 L 29.839237 -4.922982 L 30.036357 -4.970262 L 30.234058 -4.998019 L 30.434774 -5.0032 L 30.633016 -4.986423 L 30.831219 -4.944633 L 31.030002 -4.883321 L 31.223257 -4.797616 L 31.411603 -4.693006 L 31.597474 -4.566438 L 31.778436 -4.420966 L 31.951434 -4.254154 L 32.117087 -4.071492 L 32.27783 -3.869926 L 32.428175 -3.650075 L 32.571174 -3.414373 L 32.701339 -3.16344 L 32.821723 -2.899711 L 32.932326 -2.623185 L 33.033149 -2.333864 L 33.121755 -2.034801 L 33.198146 -1.725995 L 33.259885 -1.410502 L 33.309408 -1.085266 L 33.344897 -0.758833 L 33.368789 -0.428146 L 33.378648 -0.0962613 L 33.374474 0.236822 L 33.359321 0.568668 L 33.330753 0.896223 L 33.288771 1.219488 L 33.233374 1.538461 L 33.288771 1.219488 L 33.330753 0.896223 L 33.359321 0.568668 L 33.374474 0.236822 L 33.378648 -0.0962613 L 33.368789 -0.428146 L 33.344897 -0.758833 L 33.309408 -1.085266 L 33.259885 -1.410502 L 33.198146 -1.725995 L 33.121755 -2.034801 L 33.033149 -2.333864 L 32.932326 -2.623185 L 32.821723 -2.899711 L 32.701339 -3.16344 L 32.571174 -3.414373 L 32.428175 -3.650075 L 32.27783 -3.869926 L 32.117087 -4.071492 L 31.951434 -4.254154 L 31.778436 -4.420966 L 31.597474 -4.566438 L 31.411603 -4.693006 L 31.223257 -4.797616 L 31.030002 -4.883321 L 30.831219 -4.944633 L 30.633016 -4.986423 L 30.434774 -5.0032 L 30.234058 -4.998019 L 30.036357 -4.970262 L 29.839237 -4.922982 L 29.645132 -4.853125 L 29.454042 -4.760691 L 29.265968 -4.645681 L 29.083963 -4.51053 L 28.908028 -4.355237 L 28.735727 -4.182857 L 28.572549 -3.992772 L 28.415441 -3.782546 L 28.27051 -3.557049 L 28.134703 -3.313847 L 28.008638 -3.058428 L 27.88926 -2.788358 L 27.785115 -2.505454 L 27.690711 -2.210333 L 27.609104 -1.905432 L 27.537857 -1.593804 L 27.48246 -1.274831 L 27.437423 -0.949131 L 27.405801 -0.61914 L 27.387594 -0.284859 L 27.38342 0.0482247 L 27.393279 0.38011 L 27.417171 0.710796 L 27.452661 1.03723 L 27.499748 1.359411 L 27.561487 1.674905 L 27.634824 1.986145 L 27.720376 2.287644 L 27.818145 2.579401 L 27.925694 2.858362 L 28.043024 3.124527 L 28.173189 3.37546 L 28.313134 3.613597 L 28.460424 3.835884 L 28.618114 4.039886 L 28.783148 4.228037 L 28.956146 4.394849 L 29.134054 4.542756 L 29.316872 4.67176 L 29.507652 4.779424 L 29.700908 4.865129 L 29.896637 4.928877 L 30.09484 4.970666 L 30.295517 4.990498 L 30.495615 4.990806 L 30.695751 4.966103 L 30.892871 4.918823 L 31.089412 4.85202 L 31.282937 4.76264 L 31.470393 4.65312 L 31.654833 4.521022 L 31.833204 4.368784 L 32.005505 4.196404 L 32.168683 4.006319 L 32.325172 3.801582 L 32.472539 3.579139 L 32.610781 3.338991 L 32.739282 3.086627 L 32.858659 2.816557 L 32.96524 2.536706 L 33.06208 2.244639 L 33.146123 1.942792 L 33.21737 1.631164 L 33.278256 1.31281 L 33.325728 0.990164 L 33.359785 0.663227 L 33.380428 0.332 L 33.384602 -0.00108364 " transform="matrix(-0.781831, -0.62349, 0.62349, -0.781831, 248.46509, 49.693018)"/>
<path fill="none" stroke-width="1.136364" stroke-linecap="butt" stroke-linejoin="miter" stroke="rgb(0%, 0%, 0%)" stroke-opacity="1" stroke-miterlimit="10" d="M 11.386646 -0.000242771 L 25.885202 -0.00106056 L 18.814742 7.071376 L 25.885202 -0.00106056 L 18.814742 7.071376 L 25.885202 -0.00106056 L 11.386646 -0.000242771 " transform="matrix(-0.781831, -0.62349, 0.62349, -0.781831, 248.46509, 49.693018)"/>
<path fill="none" stroke-width="1.136364" stroke-linecap="butt" stroke-linejoin="miter" stroke="rgb(0%, 0%, 0%)" stroke-opacity="1" stroke-miterlimit="10" d="M 11.385107 -0.000928898 C 11.385107 6.288134 6.287451 11.38579 -0.00161172 11.38579 C -6.286768 11.38579 -11.384424 6.288134 -11.384424 -0.000928898 C -11.384424 -6.289991 -6.286768 -11.387648 -0.00161172 -11.387648 C 6.287451 -11.387648 11.385107 -6.289991 11.385107 -0.000928898 " transform="matrix(1, 0, 0, 1, 49.693018, 149.079054)"/>
<path fill="none" stroke-width="1.136364" stroke-linecap="butt" stroke-linejoin="miter" stroke="rgb(0%, 0%, 0%)" stroke-opacity="1" stroke-miterlimit="10" d="M 11.387648 -0.00161172 L 3.797804 -0.00161172 L 11.387648 -0.00161172 " transform="matrix(0.000000000000000061, -1, 1, 0.000000000000000061, 49.693018, 149.079054)"/>
<path fill="none" stroke-width="1.136364" stroke-linecap="butt" stroke-linejoin="miter" stroke="rgb(0%, 0%, 0%)" stroke-opacity="1" stroke-miterlimit="10" d="M 11.387648 -0.00161172 L 26.317335 -0.00161172 L 11.387648 -0.00161172 " transform="matrix(0.000000000000000061, -1, 1, 0.000000000000000061, 49.693018, 149.079054)"/>
<path fill="none" stroke-width="1.136364" stroke-linecap="butt" stroke-linejoin="miter" stroke="rgb(0%, 0%, 0%)" stroke-opacity="1" stroke-miterlimit="10" d="M 33.387648 -0.00161172 L 26.317335 -7.071924 L 33.387648 -0.00161172 L 26.317335 7.068701 L 26.317335 -7.071924 L 33.387648 -0.00161172 L 26.317335 -7.071924 L 26.317335 7.068701 L 33.387648 -0.00161172 L 26.317335 -7.071924 L 33.387648 -0.00161172 " transform="matrix(0.000000000000000061, -1, 1, 0.000000000000000061, 49.693018, 149.079054)"/>
<path fill="none" stroke-width="1.136364" stroke-linecap="butt" stroke-linejoin="miter" stroke="rgb(0%, 0%, 0%)" stroke-opacity="1" stroke-miterlimit="10" d="M 11.387648 -0.00161172 L 24.317335 -0.00161172 L 11.387648 -0.00161172 " transform="matrix(0.000000000000000061, -1, 1, 0.000000000000000061, 49.693018, 149.079054)"/>
<path fill="none" stroke-width="1.136364" stroke-linecap="butt" stroke-linejoin="miter" stroke="rgb(0%, 0%, 0%)" stroke-opacity="1" stroke-miterlimit="10" d="M 24.313429 -0.00161172 L 24.313429 -5.001612 L 24.313429 4.998388 L 24.313429 -0.00161172 L 24.313429 4.998388 L 24.313429 -5.001612 L 24.313429 -0.00161172 " transform="matrix(0.000000000000000061, -1, 1, 0.000000000000000061, 49.693018, 149.079054)"/>
<path fill="none" stroke-width="1.136364" stroke-linecap="butt" stroke-linejoin="miter" stroke="rgb(0%, 0%, 0%)" stroke-opacity="1" stroke-miterlimit="10" d="M 11.387648 0.000646091 L 33.386109 0.00153491 L 11.387648 0.000646091 " transform="matrix(0.866025, 0.5, -0.5, 0.866025, 49.693018, 149.079054)"/>
<path fill="none" stroke-width="1.136364" stroke-linecap="butt" stroke-linejoin="miter" stroke="rgb(0%, 0%, 0%)" stroke-opacity="1" stroke-miterlimit="10" d="M 33.386109 0.00153491 L 26.31316 -7.069484 L 33.386109 0.00153491 L 26.31509 7.074484 L 33.386109 0.00153491 L 26.31509 7.074484 L 33.386109 0.00153491 L 26.31316 -7.069484 L 33.386109 0.00153491 " transform="matrix(0.866025, 0.5, -0.5, 0.866025, 49.693018, 149.079054)"/>
<path fill="none" stroke-width="1.136364" stroke-linecap="butt" stroke-linejoin="miter" stroke="rgb(0%, 0%, 0%)" stroke-opacity="1" stroke-miterlimit="10" d="M 11.387648 0.000646091 L 25.388206 0.000323918 L 11.387648 0.000646091 " transform="matrix(0.866025, 0.5, -0.5, 0.866025, 49.693018, 149.079054)"/>
<path fill="none" stroke-width="1.136364" stroke-linecap="butt" stroke-linejoin="miter" stroke="rgb(0%, 0%, 0%)" stroke-opacity="1" stroke-miterlimit="10" d="M 25.388206 0.000323918 L 25.387254 -5.001325 L 25.389158 5.001973 L 25.388206 0.000323918 L 25.389158 5.001973 L 25.387254 -5.001325 L 25.388206 0.000323918 " transform="matrix(0.866025, 0.5, -0.5, 0.866025, 49.693018, 149.079054)"/>
<path fill="none" stroke-width="1.136364" stroke-linecap="butt" stroke-linejoin="miter" stroke="rgb(0%, 0%, 0%)" stroke-opacity="1" stroke-miterlimit="10" d="M 11.387648 0.000646091 L 23.386193 0.00148601 L 11.387648 0.000646091 " transform="matrix(0.866025, 0.5, -0.5, 0.866025, 49.693018, 149.079054)"/>
<path fill="none" stroke-width="1.136364" stroke-linecap="butt" stroke-linejoin="miter" stroke="rgb(0%, 0%, 0%)" stroke-opacity="1" stroke-miterlimit="10" d="M 23.386193 0.00148601 L 23.385241 -5.000163 L 23.387145 5.003135 L 23.386193 0.00148601 L 23.387145 5.003135 L 23.385241 -5.000163 L 23.386193 0.00148601 " transform="matrix(0.866025, 0.5, -0.5, 0.866025, 49.693018, 149.079054)"/>
<path fill="none" stroke-width="1.136364" stroke-linecap="butt" stroke-linejoin="miter" stroke="rgb(0%, 0%, 0%)" stroke-opacity="1" stroke-miterlimit="10" d="M 11.387057 -0.0009875 L 33.385517 -0.00187632 L 11.387057 -0.0009875 " transform="matrix(-0.866025, 0.5, -0.5, -0.866025, 49.693018, 149.079054)"/>
<path fill="none" stroke-width="1.136364" stroke-linecap="butt" stroke-linejoin="miter" stroke="rgb(0%, 0%, 0%)" stroke-opacity="1" stroke-miterlimit="10" d="M 33.385517 -0.00187632 L 26.314498 -7.074825 L 33.385517 -0.00187632 L 26.312569 7.069143 L 33.385517 -0.00187632 L 26.312569 7.069143 L 33.385517 -0.00187632 L 26.314498 -7.074825 L 33.385517 -0.00187632 " transform="matrix(-0.866025, 0.5, -0.5, -0.866025, 49.693018, 149.079054)"/>
<path fill="none" stroke-width="1.136364" stroke-linecap="butt" stroke-linejoin="miter" stroke="rgb(0%, 0%, 0%)" stroke-opacity="1" stroke-miterlimit="10" d="M 11.38579 -0.000928898 C 11.38579 6.288134 6.288134 11.38579 -0.000928898 11.38579 C -6.289991 11.38579 -11.387648 6.288134 -11.387648 -0.000928898 C -11.387648 -6.289991 -6.289991 -11.387648 -0.000928898 -11.387648 C 6.288134 -11.387648 11.38579 -6.289991 11.38579 -0.000928898 " transform="matrix(1, 0, 0, 1, 149.079054, 149.079054)"/>
<path fill="none" stroke-width="1.136364" stroke-linecap="butt" stroke-linejoin="miter" stroke="rgb(0%, 0%, 0%)" stroke-opacity="1" stroke-miterlimit="10" d="M 11.387648 -0.000928898 L 3.797804 -0.000928898 L 11.387648 -0.000928898 " transform="matrix(0.000000000000000061, -1, 1, 0.000000000000000061, 149.079054, 149.079054)"/>
<path fill="none" stroke-width="1.136364" stroke-linecap="butt" stroke-linejoin="miter" stroke="rgb(0%, 0%, 0%)" stroke-opacity="1" stroke-miterlimit="10" d="M 11.387648 -0.000928898 L 27.387648 -0.000928898 L 11.387648 -0.000928898 " transform="matrix(0.000000000000000061, -1, 1, 0.000000000000000061, 149.079054, 149.079054)"/>
<path fill="none" stroke-width="1.136364" stroke-linecap="butt" stroke-linejoin="miter" stroke="rgb(0%, 0%, 0%)" stroke-opacity="1" stroke-miterlimit="10" d="M 33.387648 -0.000928898 L 33.379835 0.331102 L 33.360304 0.663134 L 33.329054 0.991259 L 33.282179 1.315477 L 33.223585 1.631884 L 33.153273 1.944384 L 33.071241 2.245165 L 32.973585 2.538134 L 32.868116 2.819384 L 32.750929 3.088915 L 32.622023 3.342821 L 32.485304 3.581102 L 32.336866 3.803759 L 32.180616 4.01079 L 32.016554 4.19829 L 31.844679 4.370165 L 31.664991 4.522509 L 31.481398 4.655321 L 31.293898 4.764696 L 31.102491 4.85454 L 30.907179 4.920946 L 30.70796 4.967821 L 30.508741 4.991259 L 30.309523 4.991259 L 30.110304 4.971727 L 29.911085 4.928759 L 29.715773 4.862352 L 29.524366 4.776415 L 29.336866 4.66704 L 29.153273 4.538134 L 28.973585 4.389696 L 28.80171 4.221727 L 28.637648 4.034227 L 28.481398 3.831102 L 28.33296 3.608446 L 28.192335 3.370165 L 28.063429 3.116259 L 27.942335 2.850634 L 27.83296 2.569384 L 27.735304 2.280321 L 27.649366 1.97954 L 27.575148 1.670946 L 27.512648 1.35454 L 27.465773 1.030321 L 27.430616 0.702196 L 27.407179 0.370165 L 27.399366 0.0381336 L 27.403273 -0.293898 L 27.422804 -0.625929 L 27.454054 -0.954054 L 27.497023 -1.278273 L 27.555616 -1.598585 L 27.625929 -1.911085 L 27.70796 -2.215773 L 27.80171 -2.508741 L 27.907179 -2.789991 L 28.024366 -3.059523 L 28.153273 -3.317335 L 28.289991 -3.559523 L 28.438429 -3.786085 L 28.594679 -3.997023 L 28.758741 -4.188429 L 28.930616 -4.360304 L 29.106398 -4.512648 L 29.289991 -4.64546 L 29.477491 -4.758741 L 29.668898 -4.852491 L 29.86421 -4.922804 L 30.063429 -4.973585 L 30.262648 -5.000929 L 30.461866 -5.004835 L 30.661085 -4.98921 L 30.860304 -4.950148 L 31.055616 -4.887648 L 31.250929 -4.805616 L 31.442335 -4.700148 L 31.625929 -4.575148 L 31.805616 -4.430616 L 31.977491 -4.266554 L 32.14546 -4.08296 L 32.305616 -3.879835 L 32.45796 -3.661085 L 32.598585 -3.42671 L 32.731398 -3.17671 L 32.852491 -2.911085 L 32.961866 -2.633741 L 33.059523 -2.344679 L 33.14546 -2.043898 L 33.219679 -1.735304 L 33.282179 -1.418898 L 33.33296 -1.094679 L 33.368116 -0.766554 L 33.391554 -0.434523 L 33.403273 -0.102491 L 33.399366 0.22954 L 33.383741 0.561571 L 33.352491 0.889696 L 33.309523 1.213915 L 33.254835 1.534227 L 33.309523 1.213915 L 33.352491 0.889696 L 33.383741 0.561571 L 33.399366 0.22954 L 33.403273 -0.102491 L 33.391554 -0.434523 L 33.368116 -0.766554 L 33.33296 -1.094679 L 33.282179 -1.418898 L 33.219679 -1.735304 L 33.14546 -2.043898 L 33.059523 -2.344679 L 32.961866 -2.633741 L 32.852491 -2.911085 L 32.731398 -3.17671 L 32.598585 -3.42671 L 32.45796 -3.661085 L 32.305616 -3.879835 L 32.14546 -4.08296 L 31.977491 -4.266554 L 31.805616 -4.430616 L 31.625929 -4.575148 L 31.442335 -4.700148 L 31.250929 -4.805616 L 31.055616 -4.887648 L 30.860304 -4.950148 L 30.661085 -4.98921 L 30.461866 -5.004835 L 30.262648 -5.000929 L 30.063429 -4.973585 L 29.86421 -4.922804 L 29.668898 -4.852491 L 29.477491 -4.758741 L 29.289991 -4.64546 L 29.106398 -4.512648 L 28.930616 -4.360304 L 28.758741 -4.188429 L 28.594679 -3.997023 L 28.438429 -3.786085 L 28.289991 -3.559523 L 28.153273 -3.317335 L 28.024366 -3.059523 L 27.907179 -2.789991 L 27.80171 -2.508741 L 27.70796 -2.215773 L 27.625929 -1.911085 L 27.555616 -1.598585 L 27.497023 -1.278273 L 27.454054 -0.954054 L 27.422804 -0.625929 L 27.403273 -0.293898 L 27.399366 0.0381336 L 27.407179 0.370165 L 27.430616 0.702196 L 27.465773 1.030321 L 27.512648 1.35454 L 27.575148 1.670946 L 27.649366 1.97954 L 27.735304 2.280321 L 27.83296 2.569384 L 27.942335 2.850634 L 28.063429 3.116259 L 28.192335 3.370165 L 28.33296 3.608446 L 28.481398 3.831102 L 28.637648 4.034227 L 28.80171 4.221727 L 28.973585 4.389696 L 29.153273 4.538134 L 29.336866 4.66704 L 29.524366 4.776415 L 29.715773 4.862352 L 29.911085 4.928759 L 30.110304 4.971727 L 30.309523 4.991259 L 30.508741 4.991259 L 30.70796 4.967821 L 30.907179 4.920946 L 31.102491 4.85454 L 31.293898 4.764696 L 31.481398 4.655321 L 31.664991 4.522509 L 31.844679 4.370165 L 32.016554 4.19829 L 32.180616 4.01079 L 32.336866 3.803759 L 32.485304 3.581102 L 32.622023 3.342821 L 32.750929 3.088915 L 32.868116 2.819384 L 32.973585 2.538134 L 33.071241 2.245165 L 33.153273 1.944384 L 33.223585 1.631884 L 33.282179 1.315477 L 33.329054 0.991259 L 33.360304 0.663134 L 33.379835 0.331102 L 33.387648 -0.000928898 " transform="matrix(0.000000000000000061, -1, 1, 0.000000000000000061, 149.079054, 149.079054)"/>
<path fill="none" stroke-width="1.136364" stroke-linecap="butt" stroke-linejoin="miter" stroke="rgb(0%, 0%, 0%)" stroke-opacity="1" stroke-miterlimit="10" d="M 11.387648 -0.000928898 L 25.887648 -0.000928898 L 18.817335 7.069384 L 25.887648 -0.000928898 L 18.817335 7.069384 L 25.887648 -0.000928898 L 11.387648 -0.000928898 " transform="matrix(0.000000000000000061, -1, 1, 0.000000000000000061, 149.079054, 149.079054)"/>
<path fill="none" stroke-width="1.136364" stroke-linecap="butt" stroke-linejoin="miter" stroke="rgb(0%, 0%, 0%)" stroke-opacity="1" stroke-miterlimit="10" d="M 11.385302 0.0000440329 L 27.384588 -0.00145308 L 11.385302 0.0000440329 " transform="matrix(0.781831, -0.62349, 0.62349, 0.781831, 149.079054, 149.079054)"/>
<path fill="none" stroke-width="1.136364" stroke-linecap="butt" stroke-linejoin="miter" stroke="rgb(0%, 0%, 0%)" stroke-opacity="1" stroke-miterlimit="10" d="M 33.385693 -0.00216913 L 33.378888 0.332151 L 33.35805 0.665273 L 33.325615 0.994143 L 33.278527 1.316324 L 33.219842 1.634253 L 33.146506 1.945494 L 33.060953 2.246993 L 32.963185 2.538749 L 32.855635 2.81771 L 32.73587 3.086929 L 32.606324 3.343352 L 32.469433 3.583924 L 32.322142 3.806211 L 32.167507 4.012648 L 32.002472 4.2008 L 31.830093 4.373101 L 31.649749 4.524063 L 31.464497 4.65612 L 31.27677 4.766219 L 31.084133 4.857415 L 30.889022 4.926652 L 30.691438 4.973931 L 30.491379 4.999252 L 30.291281 4.99956 L 30.091764 4.980346 L 29.895262 4.938556 L 29.698721 4.871753 L 29.505815 4.787863 L 29.315924 4.681396 L 29.132102 4.554789 L 28.951296 4.405604 L 28.779613 4.238714 L 28.614 4.051683 L 28.45751 3.846946 L 28.310144 3.624503 L 28.169465 3.387409 L 28.040965 3.135045 L 27.919152 2.868029 L 27.812571 2.588178 L 27.715732 2.296111 L 27.631689 1.994264 L 27.558006 1.68569 L 27.49712 1.367336 L 27.449648 1.04469 L 27.41559 0.717753 L 27.394948 0.386526 L 27.385284 0.0540608 L 27.389654 -0.277206 L 27.408056 -0.607273 L 27.440492 -0.936143 L 27.484525 -1.26076 L 27.54321 -1.578689 L 27.613492 -1.892365 L 27.695991 -2.196299 L 27.790706 -2.490492 L 27.895201 -2.771888 L 28.011912 -3.043542 L 28.138404 -3.302401 L 28.275296 -3.542973 L 28.421967 -3.77075 L 28.579038 -3.980241 L 28.741019 -4.170828 L 28.910344 -4.345564 L 29.087634 -4.498961 L 29.269832 -4.633455 L 29.459995 -4.746608 L 29.652631 -4.837803 L 29.847742 -4.90704 L 30.045327 -4.954319 L 30.245386 -4.97964 L 30.444864 -4.985438 L 30.644382 -4.966224 L 30.843319 -4.927488 L 31.039242 -4.866174 L 31.232148 -4.782284 L 31.422039 -4.675818 L 31.605861 -4.54921 L 31.786049 -4.405515 L 31.960167 -4.241679 L 32.128216 -4.057702 L 32.287141 -3.856019 L 32.436943 -3.63663 L 32.577621 -3.399536 L 32.708557 -3.150226 L 32.83037 -2.88321 L 32.939387 -2.606413 L 33.038661 -2.317401 L 33.12514 -2.018607 L 33.198822 -1.710033 L 33.262144 -1.394733 L 33.309616 -1.072087 L 33.346728 -0.742715 L 33.37286 -0.412106 L 33.382523 -0.0796412 L 33.381208 0.254061 L 33.36586 0.586564 L 33.336478 0.917869 L 33.292445 1.242486 L 33.236814 1.56285 L 33.292445 1.242486 L 33.336478 0.917869 L 33.36586 0.586564 L 33.381208 0.254061 L 33.382523 -0.0796412 L 33.37286 -0.412106 L 33.346728 -0.742715 L 33.309616 -1.072087 L 33.262144 -1.394733 L 33.198822 -1.710033 L 33.12514 -2.018607 L 33.038661 -2.317401 L 32.939387 -2.606413 L 32.83037 -2.88321 L 32.708557 -3.150226 L 32.577621 -3.399536 L 32.436943 -3.63663 L 32.287141 -3.856019 L 32.128216 -4.057702 L 31.960167 -4.241679 L 31.786049 -4.405515 L 31.605861 -4.54921 L 31.422039 -4.675818 L 31.232148 -4.782284 L 31.039242 -4.866174 L 30.843319 -4.927488 L 30.644382 -4.966224 L 30.444864 -4.985438 L 30.245386 -4.97964 L 30.045327 -4.954319 L 29.847742 -4.90704 L 29.652631 -4.837803 L 29.459995 -4.746608 L 29.269832 -4.633455 L 29.087634 -4.498961 L 28.910344 -4.345564 L 28.741019 -4.170828 L 28.579038 -3.980241 L 28.421967 -3.77075 L 28.275296 -3.542973 L 28.138404 -3.302401 L 28.011912 -3.043542 L 27.895201 -2.771888 L 27.790706 -2.490492 L 27.695991 -2.196299 L 27.613492 -1.892365 L 27.54321 -1.578689 L 27.484525 -1.26076 L 27.440492 -0.936143 L 27.408056 -0.607273 L 27.389654 -0.277206 L 27.385284 0.0540608 L 27.394948 0.386526 L 27.41559 0.717753 L 27.449648 1.04469 L 27.49712 1.367336 L 27.558006 1.68569 L 27.631689 1.994264 L 27.715732 2.296111 L 27.812571 2.588178 L 27.919152 2.868029 L 28.040965 3.135045 L 28.169465 3.387409 L 28.310144 3.624503 L 28.45751 3.846946 L 28.614 4.051683 L 28.779613 4.238714 L 28.951296 4.405604 L 29.132102 4.554789 L 29.315924 4.681396 L 29.505815 4.787863 L 29.698721 4.871753 L 29.895262 4.938556 L 30.091764 4.980346 L 30.291281 4.99956 L 30.491379 4.999252 L 30.691438 4.973931 L 30.889022 4.926652 L 31.084133 4.857415 L 31.27677 4.766219 L 31.464497 4.65612 L 31.649749 4.524063 L 31.830093 4.373101 L 32.002472 4.2008 L 32.167507 4.012648 L 32.322142 3.806211 L 32.469433 3.583924 L 32.606324 3.343352 L 32.73587 3.086929 L 32.855635 2.81771 L 32.963185 2.538749 L 33.060953 2.246993 L 33.146506 1.945494 L 33.219842 1.634253 L 33.278527 1.316324 L 33.325615 0.994143 L 33.35805 0.665273 L 33.378888 0.332151 L 33.385693 -0.00216913 " transform="matrix(0.781831, -0.62349, 0.62349, 0.781831, 149.079054, 149.079054)"/>
<path fill="none" stroke-width="1.136364" stroke-linecap="butt" stroke-linejoin="miter" stroke="rgb(0%, 0%, 0%)" stroke-opacity="1" stroke-miterlimit="10" d="M 11.385302 0.0000440329 L 25.883858 0.000861824 L 18.811422 7.071322 L 25.883858 0.000861824 L 18.811422 7.071322 L 25.883858 0.000861824 L 11.385302 0.0000440329 " transform="matrix(0.781831, -0.62349, 0.62349, 0.781831, 149.079054, 149.079054)"/>
<path fill="none" stroke-width="1.136364" stroke-linecap="butt" stroke-linejoin="miter" stroke="rgb(0%, 0%, 0%)" stroke-opacity="1" stroke-miterlimit="10" d="M 11.385302 0.0000440329 L 22.887268 -0.000616428 L 15.814832 7.069843 L 22.887268 -0.000616428 L 15.814832 7.069843 L 22.887268 -0.000616428 L 11.385302 0.0000440329 " transform="matrix(0.781831, -0.62349, 0.62349, 0.781831, 149.079054, 149.079054)"/>
<path fill="none" stroke-width="1.136364" stroke-linecap="butt" stroke-linejoin="miter" stroke="rgb(0%, 0%, 0%)" stroke-opacity="1" stroke-miterlimit="10" d="M 11.386236 0.000565625 L 33.386814 -0.000519431 L 11.386236 0.000565625 " transform="matrix(0.974928, 0.222521, -0.222521, 0.974928, 149.079054, 149.079054)"/>
<path fill="none" stroke-width="1.136364" stroke-linecap="butt" stroke-linejoin="miter" stroke="rgb(0%, 0%, 0%)" stroke-opacity="1" stroke-miterlimit="10" d="M 11.384726 -0.000921278 L 26.312128 -0.000705142 L 11.384726 -0.000921278 " transform="matrix(0.433884, 0.900969, -0.900969, 0.433884, 149.079054, 149.079054)"/>
<path fill="none" stroke-width="1.136364" stroke-linecap="butt" stroke-linejoin="miter" stroke="rgb(0%, 0%, 0%)" stroke-opacity="1" stroke-miterlimit="10" d="M 33.387963 -0.000952282 L 26.31892 -7.073151 L 33.387963 -0.000952282 L 26.315765 7.068091 L 26.3154 -7.074845 L 33.384444 -0.00264714 L 26.3154 -7.074845 L 26.315765 7.068091 L 33.387963 -0.000952282 L 26.31892 -7.073151 L 33.387963 -0.000952282 " transform="matrix(0.433884, 0.900969, -0.900969, 0.433884, 149.079054, 149.079054)"/>
<path fill="none" stroke-width="1.136364" stroke-linecap="butt" stroke-linejoin="miter" stroke="rgb(0%, 0%, 0%)" stroke-opacity="1" stroke-miterlimit="10" d="M 11.383837 -0.000924316 L 24.382402 -0.0000821463 L 11.383837 -0.000924316 " transform="matrix(-0.433884, 0.900969, -0.900969, -0.433884, 149.079054, 149.079054)"/>
<path fill="none" stroke-width="1.136364" stroke-linecap="butt" stroke-linejoin="miter" stroke="rgb(0%, 0%, 0%)" stroke-opacity="1" stroke-miterlimit="10" d="M 9.884775 0.00127468 L 9.884515 0.018742 L 9.876958 0.0570665 L 9.871484 0.0727093 L 9.853498 0.107385 L 9.832122 0.135021 L 9.784415 0.171002 L 9.749221 0.187951 L 9.710637 0.197861 L 9.689651 0.199296 L 9.672183 0.199037 L 9.614697 0.1877 L 9.562684 0.160721 L 9.548865 0.150033 L 9.533352 0.135826 L 9.509365 0.104021 L 9.492416 0.0688273 L 9.477552 0.0109516 L 9.478071 -0.0239831 L 9.485628 -0.0623075 L 9.491102 -0.0779503 L 9.509088 -0.112626 L 9.530464 -0.140262 L 9.57817 -0.176243 L 9.613364 -0.193192 L 9.651948 -0.203102 L 9.672935 -0.204537 L 9.690402 -0.204278 L 9.747889 -0.192941 L 9.799902 -0.165962 L 9.81372 -0.155274 L 9.829233 -0.141067 L 9.853221 -0.109262 L 9.870169 -0.0740684 L 9.885034 -0.0161927 L 9.884515 0.018742 L 9.876958 0.0570665 L 9.871484 0.0727093 L 9.853498 0.107385 L 9.832122 0.135021 L 9.784415 0.171002 L 9.749221 0.187951 L 9.710637 0.197861 L 9.689651 0.199296 L 9.672183 0.199037 L 9.614697 0.1877 L 9.562684 0.160721 L 9.548865 0.150033 L 9.533352 0.135826 L 9.509365 0.104021 L 9.492416 0.0688273 L 9.477552 0.0109516 L 9.477811 -0.00651575 L 9.477552 0.0109516 L 9.492416 0.0688273 L 9.509365 0.104021 L 9.533352 0.135826 L 9.548865 0.150033 L 9.562684 0.160721 L 9.614697 0.1877 L 9.672183 0.199037 L 9.689651 0.199296 L 9.710637 0.197861 L 9.749221 0.187951 L 9.784415 0.171002 L 9.832122 0.135021 L 9.853498 0.107385 L 9.871484 0.0727093 L 9.876958 0.0570665 L 9.884515 0.018742 L 9.885034 -0.0161927 L 9.870169 -0.0740684 L 9.853221 -0.109262 L 9.829233 -0.141067 L 9.81372 -0.155274 L 9.799902 -0.165962 L 9.747889 -0.192941 L 9.690402 -0.204278 L 9.672935 -0.204537 L 9.651948 -0.203102 L 9.613364 -0.193192 L 9.57817 -0.176243 L 9.530464 -0.140262 L 9.509088 -0.112626 L 9.491102 -0.0779503 L 9.485628 -0.0623075 L 9.478071 -0.0239831 L 9.477552 0.0109516 L 9.492416 0.0688273 L 9.509365 0.104021 L 9.533352 0.135826 L 9.548865 0.150033 L 9.562684 0.160721 L 9.614697 0.1877 L 9.672183 0.199037 L 9.689651 0.199296 L 9.710637 0.197861 L 9.749221 0.187951 L 9.784415 0.171002 L 9.832122 0.135021 L 9.853498 0.107385 L 9.871484 0.0727093 L 9.876958 0.0570665 L 9.884515 0.018742 L 9.884775 0.00127468 " transform="matrix(-0.433884, 0.900969, -0.900969, -0.433884, 149.079054, 149.079054)"/>
<path fill="none" stroke-width="1.136364" stroke-linecap="butt" stroke-linejoin="miter" stroke="rgb(0%, 0%, 0%)" stroke-opacity="1" stroke-miterlimit="10" d="M 11.388047 -0.000152226 L 26.316658 0.0015051 L 11.388047 -0.000152226 " transform="matrix(-0.974928, 0.222521, -0.222521, -0.974928, 149.079054, 149.079054)"/>
<path fill="none" stroke-width="1.136364" stroke-linecap="butt" stroke-linejoin="miter" stroke="rgb(0%, 0%, 0%)" stroke-opacity="1" stroke-miterlimit="10" d="M 33.384817 0.0000636075 L 26.312277 -7.071332 L 33.384817 0.0000636075 L 26.313421 7.072603 L 26.312277 -7.071332 L 33.384817 0.0000636075 L 26.312277 -7.071332 L 26.313421 7.072603 L 33.384817 0.0000636075 L 26.312277 -7.071332 L 33.384817 0.0000636075 " transform="matrix(-0.974928, 0.222521, -0.222521, -0.974928, 149.079054, 149.079054)"/>
<path fill="none" stroke-width="1.136364" stroke-linecap="butt" stroke-linejoin="miter" stroke="rgb(0%, 0%, 0%)" stroke-opacity="1" stroke-miterlimit="10" d="M 11.388047 -0.000152226 L 24.318088 -0.00189761 L 11.388047 -0.000152226 " transform="matrix(-0.974928, 0.222521, -0.222521, -0.974928, 149.079054, 149.079054)"/>
<path fill="none" stroke-width="1.136364" stroke-linecap="butt" stroke-linejoin="miter" stroke="rgb(0%, 0%, 0%)" stroke-opacity="1" stroke-miterlimit="10" d="M 24.31341 0.00104148 L 24.312831 -4.99946 L 24.31399 5.001543 L 24.31341 0.00104148 L 24.31399 5.001543 L 24.312831 -4.99946 L 24.31341 0.00104148 " transform="matrix(-0.974928, 0.222521, -0.222521, -0.974928, 149.079054, 149.079054)"/>
<path fill="none" stroke-width="1.136364" stroke-linecap="butt" stroke-linejoin="miter" stroke="rgb(0%, 0%, 0%)" stroke-opacity="1" stroke-miterlimit="10" d="M 11.388047 -0.000152226 L 22.318649 -0.001492 L 11.388047 -0.000152226 " transform="matrix(-0.974928, 0.222521, -0.222521, -0.974928, 149.079054, 149.079054)"/>
<path fill="none" stroke-width="1.136364" stroke-linecap="butt" stroke-linejoin="miter" stroke="rgb(0%, 0%, 0%)" stroke-opacity="1" stroke-miterlimit="10" d="M 22.313971 0.00144709 L 22.313392 -4.999055 L 22.31455 5.001949 L 22.313971 0.00144709 L 22.31455 5.001949 L 22.313392 -4.999055 L 22.313971 0.00144709 " transform="matrix(-0.974928, 0.222521, -0.222521, -0.974928, 149.079054, 149.079054)"/>
<path fill="none" stroke-width="1.136364" stroke-linecap="butt" stroke-linejoin="miter" stroke="rgb(0%, 0%, 0%)" stroke-opacity="1" stroke-miterlimit="10" d="M 11.386754 -0.00120235 L 33.38471 -0.00204322 L 11.386754 -0.00120235 " transform="matrix(-0.781831, -0.62349, 0.62349, -0.781831, 149.079054, 149.079054)"/>
<path fill="none" stroke-width="1.136364" stroke-linecap="butt" stroke-linejoin="miter" stroke="rgb(0%, 0%, 0%)" stroke-opacity="1" stroke-miterlimit="10" d="M 33.387146 0.00101081 L 26.314709 -7.069449 L 33.387146 0.00101081 L 26.316686 7.073447 L 33.387146 0.00101081 L 26.316686 7.073447 L 33.387146 0.00101081 L 26.314709 -7.069449 L 33.387146 0.00101081 " transform="matrix(-0.781831, -0.62349, 0.62349, -0.781831, 149.079054, 149.079054)"/>
<path fill="none" stroke-width="1.136364" stroke-linecap="butt" stroke-linejoin="miter" stroke="rgb(0%, 0%, 0%)" stroke-opacity="1" stroke-miterlimit="10" d="M 11.386473 -0.000928898 C 11.386473 6.288134 6.288816 11.38579 -0.00024608 11.38579 C -6.289309 11.38579 -11.386965 6.288134 -11.386965 -0.000928898 C -11.386965 -6.289991 -6.289309 -11.387648 -0.00024608 -11.387648 C 6.288816 -11.387648 11.386473 -6.289991 11.386473 -0.000928898 " transform="matrix(1, 0, 0, 1, 248.46509, 149.079054)"/>
<path fill="none" stroke-width="1.136364" stroke-linecap="butt" stroke-linejoin="miter" stroke="rgb(0%, 0%, 0%)" stroke-opacity="1" stroke-miterlimit="10" d="M 11.387648 -0.00024608 L 3.797804 -0.00024608 L 11.387648 -0.00024608 " transform="matrix(0.000000000000000061, -1, 1, 0.000000000000000061, 248.46509, 149.079054)"/>
<path fill="none" stroke-width="1.136364" stroke-linecap="butt" stroke-linejoin="miter" stroke="rgb(0%, 0%, 0%)" stroke-opacity="1" stroke-miterlimit="10" d="M 11.387648 -0.00024608 L 33.387648 -0.00024608 L 11.387648 -0.00024608 " transform="matrix(0.000000000000000061, -1, 1, 0.000000000000000061, 248.46509, 149.079054)"/>
<path fill="none" stroke-width="1.136364" stroke-linecap="butt" stroke-linejoin="miter" stroke="rgb(0%, 0%, 0%)" stroke-opacity="1" stroke-miterlimit="10" d="M 33.387648 -0.00024608 L 33.387648 -5.000246 L 33.387648 4.999754 L 33.387648 -0.00024608 L 33.387648 4.999754 L 33.387648 -5.000246 L 33.387648 -0.00024608 " transform="matrix(0.000000000000000061, -1, 1, 0.000000000000000061, 248.46509, 149.079054)"/>
<path fill="none" stroke-width="1.136364" stroke-linecap="butt" stroke-linejoin="miter" stroke="rgb(0%, 0%, 0%)" stroke-opacity="1" stroke-miterlimit="10" d="M 11.387648 -0.00024608 L 31.387648 -0.00024608 L 11.387648 -0.00024608 " transform="matrix(0.000000000000000061, -1, 1, 0.000000000000000061, 248.46509, 149.079054)"/>
<path fill="none" stroke-width="1.136364" stroke-linecap="butt" stroke-linejoin="miter" stroke="rgb(0%, 0%, 0%)" stroke-opacity="1" stroke-miterlimit="10" d="M 31.387648 -0.00024608 L 31.387648 -5.000246 L 31.387648 4.999754 L 31.387648 -0.00024608 L 31.387648 4.999754 L 31.387648 -5.000246 L 31.387648 -0.00024608 " transform="matrix(0.000000000000000061, -1, 1, 0.000000000000000061, 248.46509, 149.079054)"/>
<path fill="none" stroke-width="1.136364" stroke-linecap="butt" stroke-linejoin="miter" stroke="rgb(0%, 0%, 0%)" stroke-opacity="1" stroke-miterlimit="10" d="M 11.384424 -0.000142385 L 27.383612 -0.00061124 L 11.384424 -0.000142385 " transform="matrix(0.866025, -0.5, 0.5, 0.866025, 248.46509, 149.079054)"/>
<path fill="none" stroke-width="1.136364" stroke-linecap="butt" stroke-linejoin="miter" stroke="rgb(0%, 0%, 0%)" stroke-opacity="1" stroke-miterlimit="10" d="M 33.386267 0.000921924 L 33.378482 0.334718 L 33.358595 0.666038 L 33.326607 0.994882 L 33.279133 1.319296 L 33.221511 1.637851 L 33.150357 1.948593 L 33.065671 2.251522 L 32.969407 2.543257 L 32.861565 2.823795 L 32.742144 3.093139 L 32.613097 3.347904 L 32.474425 3.588091 L 32.326128 3.813699 L 32.170159 4.021346 L 32.006517 4.211032 L 31.835203 4.382757 L 31.658169 4.533137 L 31.473464 4.665557 L 31.283039 4.776632 L 31.092232 4.864933 L 30.895705 4.93189 L 30.696841 4.979456 L 30.497595 5.004248 L 30.297966 5.006267 L 30.097953 4.985511 L 29.900941 4.943934 L 29.703545 4.879584 L 29.509149 4.794413 L 29.319706 4.685038 L 29.136646 4.556795 L 28.956585 4.407731 L 28.782907 4.2398 L 28.615612 4.053001 L 28.458083 3.849288 L 28.310319 3.62866 L 28.17232 3.391117 L 28.042135 3.140043 L 27.921715 2.872054 L 27.81249 2.592487 L 27.714461 2.301341 L 27.627627 1.998617 L 27.553418 1.68965 L 27.493788 1.371058 L 27.446783 1.046223 L 27.410449 0.718529 L 27.390124 0.386546 L 27.380472 0.0517025 L 27.382921 -0.280664 L 27.402807 -0.611984 L 27.434796 -0.940828 L 27.478887 -1.267195 L 27.536509 -1.58575 L 27.607663 -1.896492 L 27.688965 -2.201374 L 27.781846 -2.495062 L 27.886306 -2.777554 L 28.002344 -3.04885 L 28.128008 -3.305568 L 28.263297 -3.547708 L 28.411594 -3.773317 L 28.567564 -3.980964 L 28.731205 -4.17065 L 28.90252 -4.342374 L 29.081506 -4.496138 L 29.262829 -4.63051 L 29.44987 -4.743539 L 29.642631 -4.835223 L 29.837728 -4.907516 L 30.036591 -4.955082 L 30.235838 -4.979874 L 30.43742 -4.985275 L 30.636003 -4.969856 L 30.834969 -4.931662 L 31.030935 -4.872648 L 31.225331 -4.787476 L 31.413344 -4.683437 L 31.598357 -4.558578 L 31.776988 -4.41485 L 31.952619 -4.250302 L 32.118484 -4.068839 L 32.277967 -3.868509 L 32.427684 -3.651263 L 32.567635 -3.417104 L 32.697821 -3.16603 L 32.820194 -2.901424 L 32.931372 -2.625239 L 33.031355 -2.337477 L 33.120142 -2.038135 L 33.19435 -1.729168 L 33.255934 -1.413959 L 33.304892 -1.092507 L 33.341225 -0.764813 L 33.366886 -0.434259 L 33.378492 -0.102799 L 33.376043 0.229568 L 33.359539 0.562841 L 33.330933 0.893638 L 33.286843 1.220005 L 33.232604 1.540512 L 33.286843 1.220005 L 33.330933 0.893638 L 33.359539 0.562841 L 33.376043 0.229568 L 33.378492 -0.102799 L 33.366886 -0.434259 L 33.341225 -0.764813 L 33.304892 -1.092507 L 33.255934 -1.413959 L 33.19435 -1.729168 L 33.120142 -2.038135 L 33.031355 -2.337477 L 32.931372 -2.625239 L 32.820194 -2.901424 L 32.697821 -3.16603 L 32.567635 -3.417104 L 32.427684 -3.651263 L 32.277967 -3.868509 L 32.118484 -4.068839 L 31.952619 -4.250302 L 31.776988 -4.41485 L 31.598357 -4.558578 L 31.413344 -4.683437 L 31.225331 -4.787476 L 31.030935 -4.872648 L 30.834969 -4.931662 L 30.636003 -4.969856 L 30.43742 -4.985275 L 30.235838 -4.979874 L 30.036591 -4.955082 L 29.837728 -4.907516 L 29.642631 -4.835223 L 29.44987 -4.743539 L 29.262829 -4.63051 L 29.081506 -4.496138 L 28.90252 -4.342374 L 28.731205 -4.17065 L 28.567564 -3.980964 L 28.411594 -3.773317 L 28.263297 -3.547708 L 28.128008 -3.305568 L 28.002344 -3.04885 L 27.886306 -2.777554 L 27.781846 -2.495062 L 27.688965 -2.201374 L 27.607663 -1.896492 L 27.536509 -1.58575 L 27.478887 -1.267195 L 27.434796 -0.940828 L 27.402807 -0.611984 L 27.382921 -0.280664 L 27.380472 0.0517025 L 27.390124 0.386546 L 27.410449 0.718529 L 27.446783 1.046223 L 27.493788 1.371058 L 27.553418 1.68965 L 27.627627 1.998617 L 27.714461 2.301341 L 27.81249 2.592487 L 27.921715 2.872054 L 28.042135 3.140043 L 28.17232 3.391117 L 28.310319 3.62866 L 28.458083 3.849288 L 28.615612 4.053001 L 28.782907 4.2398 L 28.956585 4.407731 L 29.136646 4.556795 L 29.319706 4.685038 L 29.509149 4.794413 L 29.703545 4.879584 L 29.900941 4.943934 L 30.097953 4.985511 L 30.297966 5.006267 L 30.497595 5.004248 L 30.696841 4.979456 L 30.895705 4.93189 L 31.092232 4.864933 L 31.283039 4.776632 L 31.473464 4.665557 L 31.658169 4.533137 L 31.835203 4.382757 L 32.006517 4.211032 L 32.170159 4.021346 L 32.326128 3.813699 L 32.474425 3.588091 L 32.613097 3.347904 L 32.742144 3.093139 L 32.861565 2.823795 L 32.969407 2.543257 L 33.065671 2.251522 L 33.150357 1.948593 L 33.221511 1.637851 L 33.279133 1.319296 L 33.326607 0.994882 L 33.358595 0.666038 L 33.378482 0.334718 L 33.386267 0.000921924 " transform="matrix(0.866025, -0.5, 0.5, 0.866025, 248.46509, 149.079054)"/>
<path fill="none" stroke-width="1.136364" stroke-linecap="butt" stroke-linejoin="miter" stroke="rgb(0%, 0%, 0%)" stroke-opacity="1" stroke-miterlimit="10" d="M 11.385448 0.0019164 L 26.387012 0.00101318 L 11.385448 0.0019164 " transform="matrix(0.866025, 0.5, -0.5, 0.866025, 248.46509, 149.079054)"/>
<path fill="none" stroke-width="1.136364" stroke-linecap="butt" stroke-linejoin="miter" stroke="rgb(0%, 0%, 0%)" stroke-opacity="1" stroke-miterlimit="10" d="M 26.387012 0.00101318 L 33.458031 -7.071935 L 26.387012 0.00101318 L 33.459961 7.072032 L 26.387012 0.00101318 L 33.459961 7.072032 L 26.387012 0.00101318 L 33.458031 -7.071935 L 26.387012 0.00101318 " transform="matrix(0.866025, 0.5, -0.5, 0.866025, 248.46509, 149.079054)"/>
<path fill="none" stroke-width="1.136364" stroke-linecap="butt" stroke-linejoin="miter" stroke="rgb(0%, 0%, 0%)" stroke-opacity="1" stroke-miterlimit="10" d="M 11.385448 0.0019164 L 25.386006 0.00159422 L 11.385448 0.0019164 " transform="matrix(0.866025, 0.5, -0.5, 0.866025, 248.46509, 149.079054)"/>
<path fill="none" stroke-width="1.136364" stroke-linecap="butt" stroke-linejoin="miter" stroke="rgb(0%, 0%, 0%)" stroke-opacity="1" stroke-miterlimit="10" d="M 25.386006 0.00159422 L 25.385054 -5.000055 L 25.386958 5.003243 L 25.386006 0.00159422 L 25.386958 5.003243 L 25.385054 -5.000055 L 25.386006 0.00159422 " transform="matrix(0.866025, 0.5, -0.5, 0.866025, 248.46509, 149.079054)"/>
<path fill="none" stroke-width="1.136364" stroke-linecap="butt" stroke-linejoin="miter" stroke="rgb(0%, 0%, 0%)" stroke-opacity="1" stroke-miterlimit="10" d="M 11.385448 0.0019164 L 23.383993 0.00275632 L 11.385448 0.0019164 " transform="matrix(0.866025, 0.5, -0.5, 0.866025, 248.46509, 149.079054)"/>
<path fill="none" stroke-width="1.136364" stroke-linecap="butt" stroke-linejoin="miter" stroke="rgb(0%, 0%, 0%)" stroke-opacity="1" stroke-miterlimit="10" d="M 23.387376 0.000803196 L 23.386424 -5.000846 L 23.388328 5.002452 L 23.387376 0.000803196 L 23.388328 5.002452 L 23.386424 -5.000846 L 23.387376 0.000803196 " transform="matrix(0.866025, 0.5, -0.5, 0.866025, 248.46509, 149.079054)"/>
<path fill="none" stroke-width="1.136364" stroke-linecap="butt" stroke-linejoin="miter" stroke="rgb(0%, 0%, 0%)" stroke-opacity="1" stroke-miterlimit="10" d="M 11.38579 0.00024608 L 33.38579 0.00024608 L 26.315477 7.070559 L 33.38579 0.00024608 L 26.315477 7.070559 L 33.38579 0.00024608 L 11.38579 0.00024608 " transform="matrix(0.000000000000000061, 1, -1, 0.000000000000000061, 248.46509, 149.079054)"/>
<path fill="none" stroke-width="1.136364" stroke-linecap="butt" stroke-linejoin="miter" stroke="rgb(0%, 0%, 0%)" stroke-opacity="1" stroke-miterlimit="10" d="M 11.385874 -0.00167032 L 27.385062 -0.00213917 L 11.385874 -0.00167032 " transform="matrix(-0.866025, 0.5, -0.5, -0.866025, 248.46509, 149.079054)"/>
<path fill="none" stroke-width="1.136364" stroke-linecap="butt" stroke-linejoin="miter" stroke="rgb(0%, 0%, 0%)" stroke-opacity="1" stroke-miterlimit="10" d="M 33.386765 5.001043 L 33.194425 4.998249 L 33.004038 4.992071 L 32.812221 4.980558 L 32.624311 4.962278 L 32.43497 4.938663 L 32.247583 4.911665 L 32.062149 4.881284 L 31.877238 4.842184 L 31.69428 4.799701 L 31.513276 4.753835 L 31.330841 4.702633 L 31.152313 4.644665 L 30.975738 4.583315 L 30.801116 4.518581 L 30.630401 4.447082 L 30.461638 4.372199 L 30.294829 4.293934 L 30.131926 4.208903 L 29.974359 4.122442 L 29.820698 4.029215 L 29.66899 3.932606 L 29.519236 3.832613 L 29.37677 3.727808 L 29.236258 3.61962 L 29.101082 3.510002 L 28.969812 3.393619 L 28.843878 3.275805 L 28.719897 3.154609 L 28.603205 3.0286 L 28.49185 2.901161 L 28.382447 2.770339 L 28.278381 2.638087 L 28.181604 2.501023 L 28.090162 2.362529 L 28.004057 2.222605 L 27.923288 2.081251 L 27.844472 1.936515 L 27.772945 1.786966 L 27.706754 1.635987 L 27.649282 1.485531 L 27.597146 1.333645 L 27.550346 1.18033 L 27.508883 1.025585 L 27.472755 0.86941 L 27.441963 0.711805 L 27.41989 0.554724 L 27.403153 0.396213 L 27.391753 0.236272 L 27.383735 0.0782845 L 27.384436 -0.0791799 L 27.390473 -0.238074 L 27.401846 -0.398398 L 27.419985 -0.554816 L 27.443461 -0.712663 L 27.475655 -0.869988 L 27.511232 -1.025359 L 27.552144 -1.182159 L 27.599823 -1.335054 L 27.652838 -1.489378 L 27.712619 -1.639797 L 27.775782 -1.788262 L 27.847665 -1.936203 L 27.92293 -2.082192 L 28.004962 -2.224274 L 28.090376 -2.364403 L 28.184509 -2.504009 L 28.282025 -2.641662 L 28.386307 -2.775408 L 28.493971 -2.907202 L 28.608402 -3.035089 L 28.726215 -3.161023 L 28.850795 -3.28305 L 28.976804 -3.399742 L 29.106196 -3.51448 L 29.242354 -3.625313 L 29.381895 -3.734192 L 29.526248 -3.835782 L 29.673984 -3.935419 L 29.825104 -4.033103 L 29.981036 -4.123497 L 30.14035 -4.211939 L 30.301095 -4.295044 L 30.465223 -4.376196 L 30.634163 -4.45006 L 30.804533 -4.518587 L 30.978286 -4.585161 L 31.153469 -4.646399 L 31.330081 -4.702301 L 31.510077 -4.756249 L 31.691502 -4.804862 L 31.874357 -4.848139 L 32.058642 -4.886079 L 32.244357 -4.918684 L 32.431501 -4.945953 L 32.620075 -4.967885 L 32.810079 -4.984482 L 32.99813 -4.997695 L 33.187611 -5.005573 L 33.378521 -5.008114 L 33.187611 -5.005573 L 32.99813 -4.997695 L 32.810079 -4.984482 L 32.620075 -4.967885 L 32.431501 -4.945953 L 32.244357 -4.918684 L 32.058642 -4.886079 L 31.874357 -4.848139 L 31.691502 -4.804862 L 31.510077 -4.756249 L 31.330081 -4.702301 L 31.153469 -4.646399 L 30.978286 -4.585161 L 30.804533 -4.518587 L 30.634163 -4.45006 L 30.465223 -4.376196 L 30.301095 -4.295044 L 30.14035 -4.211939 L 29.981036 -4.123497 L 29.825104 -4.033103 L 29.673984 -3.935419 L 29.526248 -3.835782 L 29.381895 -3.734192 L 29.242354 -3.625313 L 29.106196 -3.51448 L 28.976804 -3.399742 L 28.850795 -3.28305 L 28.726215 -3.161023 L 28.608402 -3.035089 L 28.493971 -2.907202 L 28.386307 -2.775408 L 28.282025 -2.641662 L 28.184509 -2.504009 L 28.090376 -2.364403 L 28.004962 -2.224274 L 27.92293 -2.082192 L 27.847665 -1.936203 L 27.775782 -1.788262 L 27.712619 -1.639797 L 27.652838 -1.489378 L 27.599823 -1.335054 L 27.552144 -1.182159 L 27.511232 -1.025359 L 27.475655 -0.869988 L 27.443461 -0.712663 L 27.419985 -0.554816 L 27.401846 -0.398398 L 27.390473 -0.238074 L 27.384436 -0.0791799 L 27.383735 0.0782845 L 27.391753 0.236272 L 27.403153 0.396213 L 27.41989 0.554724 L 27.441963 0.711805 L 27.472755 0.86941 L 27.508883 1.025585 L 27.550346 1.18033 L 27.597146 1.333645 L 27.649282 1.485531 L 27.706754 1.635987 L 27.772945 1.786966 L 27.844472 1.936515 L 27.923288 2.081251 L 28.004057 2.222605 L 28.090162 2.362529 L 28.181604 2.501023 L 28.278381 2.638087 L 28.382447 2.770339 L 28.49185 2.901161 L 28.603205 3.0286 L 28.719897 3.154609 L 28.843878 3.275805 L 28.969812 3.393619 L 29.101082 3.510002 L 29.236258 3.61962 L 29.37677 3.727808 L 29.519236 3.832613 L 29.66899 3.932606 L 29.820698 4.029215 L 29.974359 4.122442 L 30.131926 4.208903 L 30.294829 4.293934 L 30.461638 4.372199 L 30.630401 4.447082 L 30.801116 4.518581 L 30.975738 4.583315 L 31.152313 4.644665 L 31.330841 4.702633 L 31.513276 4.753835 L 31.69428 4.799701 L 31.877238 4.842184 L 32.062149 4.881284 L 32.247583 4.911665 L 32.43497 4.938663 L 32.624311 4.962278 L 32.812221 4.980558 L 33.004038 4.992071 L 33.194425 4.998249 L 33.386765 5.001043 " transform="matrix(-0.866025, 0.5, -0.5, -0.866025, 248.46509, 149.079054)"/>
<path fill="none" stroke-width="1.136364" stroke-linecap="butt" stroke-linejoin="miter" stroke="rgb(0%, 0%, 0%)" stroke-opacity="1" stroke-miterlimit="10" d="M 11.38485 -0.000103695 L 26.31471 -0.000203122 L 11.38485 -0.000103695 " transform="matrix(-0.866025, -0.5, 0.5, -0.866025, 248.46509, 149.079054)"/>
<path fill="none" stroke-width="1.136364" stroke-linecap="butt" stroke-linejoin="miter" stroke="rgb(0%, 0%, 0%)" stroke-opacity="1" stroke-miterlimit="10" d="M 33.386693 -0.001168 L 26.313745 -7.072187 L 33.386693 -0.001168 L 26.315674 7.071781 L 26.315698 -7.068804 L 33.388646 0.00221491 L 26.315698 -7.068804 L 26.315674 7.071781 L 33.386693 -0.001168 L 26.313745 -7.072187 L 33.386693 -0.001168 " transform="matrix(-0.866025, -0.5, 0.5, -0.866025, 248.46509, 149.079054)"/>
<path fill="none" stroke-width="1.136364" stroke-linecap="butt" stroke-linejoin="miter" stroke="rgb(0%, 0%, 0%)" stroke-opacity="1" stroke-miterlimit="10" d="M 11.38485 -0.000103695 L 24.312697 0.000958974 L 11.38485 -0.000103695 " transform="matrix(-0.866025, -0.5, 0.5, -0.866025, 248.46509, 149.079054)"/>
<path fill="none" stroke-width="1.136364" stroke-linecap="butt" stroke-linejoin="miter" stroke="rgb(0%, 0%, 0%)" stroke-opacity="1" stroke-miterlimit="10" d="M 24.31608 -0.000994151 L 24.315128 -5.002643 L 24.317032 5.000655 L 24.31608 -0.000994151 L 24.317032 5.000655 L 24.315128 -5.002643 L 24.31608 -0.000994151 " transform="matrix(-0.866025, -0.5, 0.5, -0.866025, 248.46509, 149.079054)"/>
<path fill="none" stroke-width="1.136364" stroke-linecap="butt" stroke-linejoin="miter" stroke="rgb(0%, 0%, 0%)" stroke-opacity="1" stroke-miterlimit="10" d="M 11.38485 -0.000103695 L 22.314067 0.000167945 L 11.38485 -0.000103695 " transform="matrix(-0.866025, -0.5, 0.5, -0.866025, 248.46509, 149.079054)"/>
<path fill="none" stroke-width="1.136364" stroke-linecap="butt" stroke-linejoin="miter" stroke="rgb(0%, 0%, 0%)" stroke-opacity="1" stroke-miterlimit="10" d="M 22.314067 0.000167945 L 22.313115 -5.001481 L 22.315019 5.001817 L 22.314067 0.000167945 L 22.315019 5.001817 L 22.313115 -5.001481 L 22.314067 0.000167945 " transform="matrix(-0.866025, -0.5, 0.5, -0.866025, 248.46509, 149.079054)"/>
<path fill="none" stroke-width="1.136364" stroke-linecap="butt" stroke-linejoin="miter" stroke="rgb(0%, 0%, 0%)" stroke-opacity="1" stroke-miterlimit="10" d="M 11.387155 -0.000928898 C 11.387155 6.288134 6.289499 11.38579 0.000436738 11.38579 C -6.288626 11.38579 -11.386282 6.288134 -11.386282 -0.000928898 C -11.386282 -6.289991 -6.288626 -11.387648 0.000436738 -11.387648 C 6.289499 -11.387648 11.387155 -6.289991 11.387155 -0.000928898 " transform="matrix(1, 0, 0, 1, 347.851126, 149.079054)"/>
<path fill="none" stroke-width="1.136364" stroke-linecap="butt" stroke-linejoin="miter" stroke="rgb(0%, 0%, 0%)" stroke-opacity="1" stroke-miterlimit="10" d="M 11.387648 0.000436738 L 3.797804 0.000436738 L 11.387648 0.000436738 " transform="matrix(0.000000000000000061, -1, 1, 0.000000000000000061, 347.851126, 149.079054)"/>
<path fill="none" stroke-width="1.136364" stroke-linecap="butt" stroke-linejoin="miter" stroke="rgb(0%, 0%, 0%)" stroke-opacity="1" stroke-miterlimit="10" d="M 11.387648 0.000436738 L 33.387648 0.000436738 L 11.387648 0.000436738 " transform="matrix(0.000000000000000061, -1, 1, 0.000000000000000061, 347.851126, 149.079054)"/>
<path fill="none" stroke-width="1.136364" stroke-linecap="butt" stroke-linejoin="miter" stroke="rgb(0%, 0%, 0%)" stroke-opacity="1" stroke-miterlimit="10" d="M 11.385015 0.000199024 L 26.314875 0.000298452 L 11.385015 0.000199024 " transform="matrix(0.866025, -0.5, 0.5, 0.866025, 347.851126, 149.079054)"/>
<path fill="none" stroke-width="1.136364" stroke-linecap="butt" stroke-linejoin="miter" stroke="rgb(0%, 0%, 0%)" stroke-opacity="1" stroke-miterlimit="10" d="M 33.386858 0.00126333 L 26.31584 -7.071685 L 33.386858 0.00126333 L 26.31391 7.072282 L 26.313886 -7.068302 L 33.384905 0.00464624 L 26.313886 -7.068302 L 26.31391 7.072282 L 33.386858 0.00126333 L 26.31584 -7.071685 L 33.386858 0.00126333 " transform="matrix(0.866025, -0.5, 0.5, 0.866025, 347.851126, 149.079054)"/>
<path fill="none" stroke-width="1.136364" stroke-linecap="butt" stroke-linejoin="miter" stroke="rgb(0%, 0%, 0%)" stroke-opacity="1" stroke-miterlimit="10" d="M 11.385015 0.000199024 L 24.312862 -0.000863645 L 11.385015 0.000199024 " transform="matrix(0.866025, -0.5, 0.5, 0.866025, 347.851126, 149.079054)"/>
<path fill="none" stroke-width="1.136364" stroke-linecap="butt" stroke-linejoin="miter" stroke="rgb(0%, 0%, 0%)" stroke-opacity="1" stroke-miterlimit="10" d="M 24.316245 0.00108948 L 24.317197 -5.00056 L 24.315293 5.002739 L 24.316245 0.00108948 L 24.315293 5.002739 L 24.317197 -5.00056 L 24.316245 0.00108948 " transform="matrix(0.866025, -0.5, 0.5, 0.866025, 347.851126, 149.079054)"/>
<path fill="none" stroke-width="1.136364" stroke-linecap="butt" stroke-linejoin="miter" stroke="rgb(0%, 0%, 0%)" stroke-opacity="1" stroke-miterlimit="10" d="M 11.385015 0.000199024 L 22.314232 -0.0000726159 L 11.385015 0.000199024 " transform="matrix(0.866025, -0.5, 0.5, 0.866025, 347.851126, 149.079054)"/>
<path fill="none" stroke-width="1.136364" stroke-linecap="butt" stroke-linejoin="miter" stroke="rgb(0%, 0%, 0%)" stroke-opacity="1" stroke-miterlimit="10" d="M 22.314232 -0.0000726159 L 22.315184 -5.001722 L 22.31328 5.001576 L 22.314232 -0.0000726159 L 22.31328 5.001576 L 22.315184 -5.001722 L 22.314232 -0.0000726159 " transform="matrix(0.866025, -0.5, 0.5, 0.866025, 347.851126, 149.079054)"/>
<path fill="none" stroke-width="1.136364" stroke-linecap="butt" stroke-linejoin="miter" stroke="rgb(0%, 0%, 0%)" stroke-opacity="1" stroke-miterlimit="10" d="M 11.386039 0.00157499 L 26.387604 0.000671768 L 11.386039 0.00157499 " transform="matrix(0.866025, 0.5, -0.5, 0.866025, 347.851126, 149.079054)"/>
<path fill="none" stroke-width="1.136364" stroke-linecap="butt" stroke-linejoin="miter" stroke="rgb(0%, 0%, 0%)" stroke-opacity="1" stroke-miterlimit="10" d="M 26.387604 0.000671768 L 33.458623 -7.072277 L 26.387604 0.000671768 L 33.460552 7.071691 L 26.387604 0.000671768 L 33.460552 7.071691 L 26.387604 0.000671768 L 33.458623 -7.072277 L 26.387604 0.000671768 " transform="matrix(0.866025, 0.5, -0.5, 0.866025, 347.851126, 149.079054)"/>
<path fill="none" stroke-width="1.136364" stroke-linecap="butt" stroke-linejoin="miter" stroke="rgb(0%, 0%, 0%)" stroke-opacity="1" stroke-miterlimit="10" d="M 11.38579 -0.000436738 L 33.38579 -0.000436738 L 11.38579 -0.000436738 " transform="matrix(0.000000000000000061, 1, -1, 0.000000000000000061, 347.851126, 149.079054)"/>
<path fill="none" stroke-width="1.136364" stroke-linecap="butt" stroke-linejoin="miter" stroke="rgb(0%, 0%, 0%)" stroke-opacity="1" stroke-miterlimit="10" d="M 33.38579 -0.000436738 L 33.38579 -5.000437 L 33.38579 4.999563 L 33.38579 -0.000436738 L 33.38579 4.999563 L 33.38579 -5.000437 L 33.38579 -0.000436738 " transform="matrix(0.000000000000000061, 1, -1, 0.000000000000000061, 347.851126, 149.079054)"/>
<path fill="none" stroke-width="1.136364" stroke-linecap="butt" stroke-linejoin="miter" stroke="rgb(0%, 0%, 0%)" stroke-opacity="1" stroke-miterlimit="10" d="M 11.385283 -0.00201173 L 26.386847 -0.00110851 L 11.385283 -0.00201173 " transform="matrix(-0.866025, 0.5, -0.5, -0.866025, 347.851126, 149.079054)"/>
<path fill="none" stroke-width="1.136364" stroke-linecap="butt" stroke-linejoin="miter" stroke="rgb(0%, 0%, 0%)" stroke-opacity="1" stroke-miterlimit="10" d="M 26.386847 -0.00110851 L 33.459796 -7.072127 L 26.386847 -0.00110851 L 33.457866 7.07184 L 26.386847 -0.00110851 L 33.457866 7.07184 L 26.386847 -0.00110851 L 33.459796 -7.072127 L 26.386847 -0.00110851 " transform="matrix(-0.866025, 0.5, -0.5, -0.866025, 347.851126, 149.079054)"/>
<path fill="none" stroke-width="1.136364" stroke-linecap="butt" stroke-linejoin="miter" stroke="rgb(0%, 0%, 0%)" stroke-opacity="1" stroke-miterlimit="10" d="M 11.385283 -0.00201173 L 25.385841 -0.00168955 L 11.385283 -0.00201173 " transform="matrix(-0.866025, 0.5, -0.5, -0.866025, 347.851126, 149.079054)"/>
<path fill="none" stroke-width="1.136364" stroke-linecap="butt" stroke-linejoin="miter" stroke="rgb(0%, 0%, 0%)" stroke-opacity="1" stroke-miterlimit="10" d="M 25.385841 -0.00168955 L 25.386793 -5.003339 L 25.384889 4.99996 L 25.385841 -0.00168955 L 25.384889 4.99996 L 25.386793 -5.003339 L 25.385841 -0.00168955 " transform="matrix(-0.866025, 0.5, -0.5, -0.866025, 347.851126, 149.079054)"/>
<path fill="none" stroke-width="1.136364" stroke-linecap="butt" stroke-linejoin="miter" stroke="rgb(0%, 0%, 0%)" stroke-opacity="1" stroke-miterlimit="10" d="M 11.385283 -0.00201173 L 23.383828 -0.00285165 L 11.385283 -0.00201173 " transform="matrix(-0.866025, 0.5, -0.5, -0.866025, 347.851126, 149.079054)"/>
<path fill="none" stroke-width="1.136364" stroke-linecap="butt" stroke-linejoin="miter" stroke="rgb(0%, 0%, 0%)" stroke-opacity="1" stroke-miterlimit="10" d="M 23.387211 -0.000898525 L 23.388163 -5.002548 L 23.386259 5.000751 L 23.387211 -0.000898525 L 23.386259 5.000751 L 23.388163 -5.002548 L 23.387211 -0.000898525 " transform="matrix(-0.866025, 0.5, -0.5, -0.866025, 347.851126, 149.079054)"/>
<path fill="none" stroke-width="1.136364" stroke-linecap="butt" stroke-linejoin="miter" stroke="rgb(0%, 0%, 0%)" stroke-opacity="1" stroke-miterlimit="10" d="M 11.384259 0.000237714 L 33.382719 0.00112653 L 11.384259 0.000237714 " transform="matrix(-0.866025, -0.5, 0.5, -0.866025, 347.851126, 149.079054)"/>
</svg>
