<?xml version="1.0" encoding="UTF-8"?>
<svg xmlns="http://www.w3.org/2000/svg" xmlns:xlink="http://www.w3.org/1999/xlink" width="380" height="190" viewBox="0 0 380 190">
<path fill="none" stroke-width="1.136364" stroke-linecap="butt" stroke-linejoin="miter" stroke="rgb(0%, 0%, 0%)" stroke-opacity="1" stroke-miterlimit="10" d="M 7 0 C 7 3.867188 3.867188 7 0 7 C -3.867188 7 -7 3.867188 -7 0 C -7 -3.867188 -3.867188 -7 0 -7 C 3.867188 -7 7 -3.867188 7 0 " transform="matrix(1, 0, 0, 1, 47.5, 47.5)"/>
<path fill="none" stroke-width="1.136364" stroke-linecap="butt" stroke-linejoin="miter" stroke="rgb(0%, 0%, 0%)" stroke-opacity="1" stroke-miterlimit="10" d="M 7 0 L 2.109375 0 " transform="matrix(0.000000000000000061, -1, 1, 0.000000000000000061, 47.5, 47.5)"/>
<path fill="none" stroke-width="1.136364" stroke-linecap="butt" stroke-linejoin="miter" stroke="rgb(0%, 0%, 0%)" stroke-opacity="1" stroke-miterlimit="10" d="M 7 0 L 17.429688 0 " transform="matrix(0.000000000000000061, -1, 1, 0.000000000000000061, 47.5, 47.5)"/>
<path fill="none" stroke-width="1.136364" stroke-linecap="butt" stroke-linejoin="miter" stroke="rgb(0%, 0%, 0%)" stroke-opacity="1" stroke-miterlimit="10" d="M 23.929688 0 L 23.921875 0.316406 L 23.902344 0.632812 L 23.871094 0.945312 L 23.828125 1.253906 L 23.773438 1.558594 L 23.707031 1.855469 L 23.628906 2.144531 L 23.542969 2.425781 L 23.445313 2.699219 L 23.335938 2.960938 L 23.21875 3.210938 L 23.09375 3.449219 L 22.957031 3.671875 L 22.8125 3.878906 L 22.660156 4.070312 L 22.5 4.246094 L 22.335938 4.40625 L 22.164063 4.546875 L 21.988281 4.667969 L 21.808594 4.773438 L 21.625 4.859375 L 21.4375 4.925781 L 21.25 4.972656 L 21.058594 4.996094 L 20.867188 5 L 20.675781 4.984375 L 20.488281 4.949219 L 20.300781 4.894531 L 20.117188 4.820312 L 19.933594 4.726562 L 19.753906 4.613281 L 19.582031 4.480469 L 19.414063 4.332031 L 19.253906 4.164062 L 19.097656 3.980469 L 18.949219 3.78125 L 18.808594 3.566406 L 18.675781 3.335938 L 18.554688 3.09375 L 18.441406 2.839844 L 18.339844 2.574219 L 18.246094 2.296875 L 18.164063 2.011719 L 18.09375 1.71875 L 18.035156 1.417969 L 17.988281 1.109375 L 17.953125 0.796875 L 17.929688 0.480469 L 17.917969 0.164062 L 17.917969 -0.152344 L 17.929688 -0.46875 L 17.953125 -0.785156 L 17.988281 -1.097656 L 18.035156 -1.40625 L 18.09375 -1.707031 L 18.164063 -2 L 18.246094 -2.285156 L 18.339844 -2.5625 L 18.441406 -2.828125 L 18.554688 -3.082031 L 18.675781 -3.324219 L 18.808594 -3.554688 L 18.949219 -3.769531 L 19.097656 -3.96875 L 19.253906 -4.152344 L 19.414063 -4.320312 L 19.582031 -4.46875 L 19.753906 -4.601562 L 19.933594 -4.714844 L 20.117188 -4.808594 L 20.300781 -4.882812 L 20.488281 -4.9375 L 20.675781 -4.972656 L 20.867188 -4.988281 L 21.058594 -4.984375 L 21.25 -4.960938 L 21.4375 -4.914062 L 21.625 -4.847656 L 21.808594 -4.761719 L 21.988281 -4.65625 L 22.164063 -4.535156 L 22.335938 -4.394531 L 22.5 -4.234375 L 22.660156 -4.058594 L 22.8125 -3.867188 L 22.957031 -3.660156 L 23.09375 -3.4375 L 23.21875 -3.199219 L 23.335938 -2.949219 L 23.445313 -2.6875 L 23.542969 -2.414062 L 23.628906 -2.132812 L 23.707031 -1.84375 L 23.773438 -1.546875 L 23.828125 -1.242188 L 23.871094 -0.933594 L 23.902344 -0.621094 L 23.921875 -0.304688 L 23.929688 0.0117188 " transform="matrix(0.000000000000000061, -1, 1, 0.000000000000000061, 47.5, 47.5)"/>
<path fill="none" stroke-width="1.136364" stroke-linecap="butt" stroke-linejoin="miter" stroke="rgb(0%, 0%, 0%)" stroke-opacity="1" stroke-miterlimit="10" d="M 15.929688 0 L 15.929688 -5 L 15.929688 5 Z M 15.929688 0 " transform="matrix(0.000000000000000061, -1, 1, 0.000000000000000061, 47.5, 47.5)"/>
<path fill="none" stroke-width="1.136364" stroke-linecap="butt" stroke-linejoin="miter" stroke="rgb(0%, 0%, 0%)" stroke-opacity="1" stroke-miterlimit="10" d="M 29 0 L 21.929688 -7.070312 L 29 0 L 21.929688 7.070312 Z M 29 0 " transform="matrix(0.000000000000000061, -1, 1, 0.000000000000000061, 47.5, 47.5)"/>
<path fill="none" stroke-width="1.136364" stroke-linecap="butt" stroke-linejoin="miter" stroke="rgb(0%, 0%, 0%)" stroke-opacity="1" stroke-miterlimit="10" d="M 6.999202 -0.00125137 L 19.998278 0.000126316 " transform="matrix(0.951057, -0.309017, 0.309017, 0.951057, 47.5, 47.5)"/>
<path fill="none" stroke-width="1.136364" stroke-linecap="butt" stroke-linejoin="miter" stroke="rgb(0%, 0%, 0%)" stroke-opacity="1" stroke-miterlimit="10" d="M 5.700911 -0.0000425807 L 5.69627 0.0395223 L 5.684199 0.0766729 L 5.654947 0.128778 L 5.63043 0.15367 L 5.598483 0.176148 L 5.583716 0.183672 L 5.546753 0.196305 L 5.512204 0.201509 L 5.491215 0.202903 L 5.45165 0.198262 L 5.414499 0.186191 L 5.379763 0.16669 L 5.363602 0.153225 L 5.351156 0.140966 L 5.317439 0.0930454 L 5.298488 0.0376008 L 5.295887 0.0203263 L 5.294492 -0.000663182 L 5.299133 -0.040228 L 5.311204 -0.0773787 L 5.340456 -0.129483 L 5.364973 -0.154375 L 5.39692 -0.176853 L 5.411686 -0.184377 L 5.448649 -0.197011 L 5.483198 -0.202214 L 5.504188 -0.203609 L 5.543753 -0.198968 L 5.580903 -0.186897 L 5.61564 -0.167396 L 5.631801 -0.15393 L 5.644247 -0.141672 L 5.677964 -0.0937512 L 5.696914 -0.0383066 L 5.699516 -0.0210321 L 5.700911 -0.0000425807 L 5.69627 0.0395223 L 5.684199 0.0766729 L 5.654947 0.128778 L 5.63043 0.15367 L 5.598483 0.176148 L 5.583716 0.183672 L 5.546753 0.196305 L 5.512204 0.201509 L 5.491215 0.202903 L 5.45165 0.198262 L 5.414499 0.186191 L 5.379763 0.16669 L 5.363602 0.153225 L 5.351156 0.140966 L 5.317439 0.0930454 L 5.298488 0.0376008 L 5.295887 0.0203263 L 5.294492 -0.000663182 " transform="matrix(0.951057, -0.309017, 0.309017, 0.951057, 47.5, 47.5)"/>
<path fill="none" stroke-width="1.136364" stroke-linecap="butt" stroke-linejoin="miter" stroke="rgb(0%, 0%, 0%)" stroke-opacity="1" stroke-miterlimit="10" d="M 7.000049 0.00153797 L 21.928354 0.00302169 " transform="matrix(0.587785, 0.809017, -0.809017, 0.587785, 47.5, 47.5)"/>
<path fill="none" stroke-width="1.136364" stroke-linecap="butt" stroke-linejoin="miter" stroke="rgb(0%, 0%, 0%)" stroke-opacity="1" stroke-miterlimit="10" d="M 29.000199 -0.00121851 L 21.929571 -7.069687 L 21.929434 7.07257 Z M 29.000199 -0.00121851 " transform="matrix(0.587785, 0.809017, -0.809017, 0.587785, 47.5, 47.5)"/>
<path fill="none" stroke-width="1.136364" stroke-linecap="butt" stroke-linejoin="miter" stroke="rgb(0%, 0%, 0%)" stroke-opacity="1" stroke-miterlimit="10" d="M 19.928051 -0.00176652 L 19.930257 -5.002376 L 19.925845 4.998843 Z M 19.928051 -0.00176652 " transform="matrix(0.587785, 0.809017, -0.809017, 0.587785, 47.5, 47.5)"/>
<path fill="none" stroke-width="1.136364" stroke-linecap="butt" stroke-linejoin="miter" stroke="rgb(0%, 0%, 0%)" stroke-opacity="1" stroke-miterlimit="10" d="M 28.748618 0.000523928 L 6.996889 0.000758064 L 28.748618 0.000523928 M 29.000199 0.00121851 L 21.93173 -7.06941 L 29.000199 0.00121851 L 21.929571 7.069687 Z M 29.000199 0.00121851 " transform="matrix(-0.587785, 0.809017, -0.809017, -0.587785, 47.5, 47.5)"/>
<path fill="none" stroke-width="1.136364" stroke-linecap="butt" stroke-linejoin="miter" stroke="rgb(0%, 0%, 0%)" stroke-opacity="1" stroke-miterlimit="10" d="M 21.998235 -0.00100267 L 6.997995 -0.00246369 L 21.998235 -0.00100267 L 29.06965 -7.071297 L 21.998235 -0.00100267 L 29.06853 7.070412 Z M 21.998235 -0.00100267 " transform="matrix(-0.951057, -0.309017, 0.309017, -0.951057, 47.5, 47.5)"/>
<path fill="none" stroke-width="1.136364" stroke-linecap="butt" stroke-linejoin="miter" stroke="rgb(0%, 0%, 0%)" stroke-opacity="1" stroke-miterlimit="10" d="M 21.000114 -0.00116804 L 21.002242 -5.000412 L 20.997986 4.998076 Z M 21.000114 -0.00116804 " transform="matrix(-0.951057, -0.309017, 0.309017, -0.951057, 47.5, 47.5)"/>
<path fill="none" stroke-width="1.136364" stroke-linecap="butt" stroke-linejoin="miter" stroke="rgb(0%, 0%, 0%)" stroke-opacity="1" stroke-miterlimit="10" d="M 17.99832 0.000750038 L 18.000447 -4.998494 L 17.996192 4.999994 Z M 17.99832 0.000750038 " transform="matrix(-0.951057, -0.309017, 0.309017, -0.951057, 47.5, 47.5)"/>
<path fill="none" stroke-width="1.136364" stroke-linecap="butt" stroke-linejoin="miter" stroke="rgb(0%, 0%, 0%)" stroke-opacity="1" stroke-miterlimit="10" d="M 7 0 C 7 3.867188 3.867188 7 0 7 C -3.867188 7 -7 3.867188 -7 0 C -7 -3.867188 -3.867188 -7 0 -7 C 3.867188 -7 7 -3.867188 7 0 " transform="matrix(1, 0, 0, 1, 142.5, 47.5)"/>
<path fill="none" stroke-width="1.136364" stroke-linecap="butt" stroke-linejoin="miter" stroke="rgb(0%, 0%, 0%)" stroke-opacity="1" stroke-miterlimit="10" d="M 7 0 L 2.109375 0 " transform="matrix(0.000000000000000061, -1, 1, 0.000000000000000061, 142.5, 47.5)"/>
<path fill="none" stroke-width="1.136364" stroke-linecap="butt" stroke-linejoin="miter" stroke="rgb(0%, 0%, 0%)" stroke-opacity="1" stroke-miterlimit="10" d="M 7 0 L 23 0 " transform="matrix(0.000000000000000061, -1, 1, 0.000000000000000061, 142.5, 47.5)"/>
<path fill="none" stroke-width="1.136364" stroke-linecap="butt" stroke-linejoin="miter" stroke="rgb(0%, 0%, 0%)" stroke-opacity="1" stroke-miterlimit="10" d="M 23 3 L 23 -3 L 29 -3 L 29 3 L 29 -3 L 23 -3 Z M 23 3 " transform="matrix(0.000000000000000061, -1, 1, 0.000000000000000061, 142.5, 47.5)"/>
<path fill="none" stroke-width="1.136364" stroke-linecap="butt" stroke-linejoin="miter" stroke="rgb(0%, 0%, 0%)" stroke-opacity="1" stroke-miterlimit="10" d="M 21.5 0 L 21.5 -5 L 21.5 5 Z M 21.5 0 " transform="matrix(0.000000000000000061, -1, 1, 0.000000000000000061, 142.5, 47.5)"/>
<path fill="none" stroke-width="1.136364" stroke-linecap="butt" stroke-linejoin="miter" stroke="rgb(0%, 0%, 0%)" stroke-opacity="1" stroke-miterlimit="10" d="M 28.750392 0.00162673 L 7.00171 0.00367079 L 28.750392 0.00162673 M 29.001153 0.000958394 L 21.929738 -7.069336 L 29.001153 0.000958394 L 21.930858 7.072373 Z M 29.001153 0.000958394 " transform="matrix(0.951057, -0.309017, 0.309017, 0.951057, 142.5, 47.5)"/>
<path fill="none" stroke-width="1.136364" stroke-linecap="butt" stroke-linejoin="miter" stroke="rgb(0%, 0%, 0%)" stroke-opacity="1" stroke-miterlimit="10" d="M 7.000049 0.00153797 L 21.928354 0.00302169 " transform="matrix(0.587785, 0.809017, -0.809017, 0.587785, 142.5, 47.5)"/>
<path fill="none" stroke-width="1.136364" stroke-linecap="butt" stroke-linejoin="miter" stroke="rgb(0%, 0%, 0%)" stroke-opacity="1" stroke-miterlimit="10" d="M 29.000199 -0.00121851 L 21.929571 -7.069687 L 21.929434 7.07257 Z M 29.000199 -0.00121851 " transform="matrix(0.587785, 0.809017, -0.809017, 0.587785, 142.5, 47.5)"/>
<path fill="none" stroke-width="1.136364" stroke-linecap="butt" stroke-linejoin="miter" stroke="rgb(0%, 0%, 0%)" stroke-opacity="1" stroke-miterlimit="10" d="M 7.000049 -0.00153797 L 19.998415 -0.00107179 " transform="matrix(-0.587785, 0.809017, -0.809017, -0.587785, 142.5, 47.5)"/>
<path fill="none" stroke-width="1.136364" stroke-linecap="butt" stroke-linejoin="miter" stroke="rgb(0%, 0%, 0%)" stroke-opacity="1" stroke-miterlimit="10" d="M 5.702222 -0.000147663 L 5.701925 0.0193813 L 5.699333 0.0357501 L 5.687827 0.0730797 L 5.67173 0.104089 L 5.660521 0.12189 L 5.63351 0.15117 L 5.601908 0.174131 L 5.565714 0.190771 L 5.545321 0.19593 L 5.510855 0.201658 L 5.471797 0.201065 L 5.415802 0.183806 L 5.400298 0.175758 L 5.382497 0.164549 L 5.353216 0.137538 L 5.330256 0.105936 L 5.305296 0.0516447 L 5.300136 0.0312515 L 5.297273 0.0140185 L 5.297866 -0.0250395 L 5.300458 -0.0414082 L 5.311964 -0.0787379 L 5.328062 -0.109747 L 5.339271 -0.127548 L 5.366281 -0.156828 L 5.397883 -0.179789 L 5.434077 -0.196429 L 5.45447 -0.201588 L 5.488936 -0.207316 L 5.527994 -0.206723 L 5.583989 -0.189464 L 5.599493 -0.181416 L 5.617294 -0.170207 L 5.646575 -0.143196 L 5.669535 -0.111594 L 5.694495 -0.0573028 L 5.699655 -0.0369096 L 5.702518 -0.0196767 L 5.701925 0.0193813 L 5.699333 0.0357501 L 5.687827 0.0730797 L 5.67173 0.104089 L 5.660521 0.12189 L 5.63351 0.15117 L 5.601908 0.174131 L 5.565714 0.190771 L 5.545321 0.19593 L 5.510855 0.201658 L 5.471797 0.201065 L 5.415802 0.183806 L 5.400298 0.175758 L 5.382497 0.164549 L 5.353216 0.137538 L 5.330256 0.105936 L 5.305296 0.0516447 L 5.300136 0.0312515 L 5.297273 0.0140185 L 5.297569 -0.00551047 " transform="matrix(-0.587785, 0.809017, -0.809017, -0.587785, 142.5, 47.5)"/>
<path fill="none" stroke-width="1.136364" stroke-linecap="butt" stroke-linejoin="miter" stroke="rgb(0%, 0%, 0%)" stroke-opacity="1" stroke-miterlimit="10" d="M 28.750392 -0.00162673 L 7.00171 -0.00367079 L 28.750392 -0.00162673 M 29.001153 -0.000958394 L 21.930858 -7.072373 L 29.001153 -0.000958394 L 21.929738 7.069336 Z M 29.001153 -0.000958394 " transform="matrix(-0.951057, -0.309017, 0.309017, -0.951057, 142.5, 47.5)"/>
<path fill="none" stroke-width="1.136364" stroke-linecap="butt" stroke-linejoin="miter" stroke="rgb(0%, 0%, 0%)" stroke-opacity="1" stroke-miterlimit="10" d="M 7 0 C 7 3.867188 3.867188 7 0 7 C -3.867188 7 -7 3.867188 -7 0 C -7 -3.867188 -3.867188 -7 0 -7 C 3.867188 -7 7 -3.867188 7 0 " transform="matrix(1, 0, 0, 1, 237.5, 47.5)"/>
<path fill="none" stroke-width="1.136364" stroke-linecap="butt" stroke-linejoin="miter" stroke="rgb(0%, 0%, 0%)" stroke-opacity="1" stroke-miterlimit="10" d="M 7 0 L 2.109375 0 " transform="matrix(0.000000000000000061, -1, 1, 0.000000000000000061, 237.5, 47.5)"/>
<path fill="none" stroke-width="1.136364" stroke-linecap="butt" stroke-linejoin="miter" stroke="rgb(0%, 0%, 0%)" stroke-opacity="1" stroke-miterlimit="10" d="M 7 0 L 22.5 0 " transform="matrix(0.000000000000000061, -1, 1, 0.000000000000000061, 237.5, 47.5)"/>
<path fill="none" stroke-width="1.136364" stroke-linecap="butt" stroke-linejoin="miter" stroke="rgb(0%, 0%, 0%)" stroke-opacity="1" stroke-miterlimit="10" d="M 29 0 L 28.992188 0.316406 L 28.972656 0.632812 L 28.941406 0.945312 L 28.898438 1.253906 L 28.84375 1.558594 L 28.777344 1.855469 L 28.699219 2.144531 L 28.613281 2.425781 L 28.515625 2.699219 L 28.40625 2.960938 L 28.289062 3.210938 L 28.164062 3.449219 L 28.027344 3.671875 L 27.882812 3.878906 L 27.730469 4.070312 L 27.570312 4.246094 L 27.40625 4.40625 L 27.234375 4.546875 L 27.058594 4.667969 L 26.878906 4.773438 L 26.695312 4.859375 L 26.507812 4.925781 L 26.320312 4.972656 L 26.128906 4.996094 L 25.9375 5 L 25.746094 4.984375 L 25.558594 4.949219 L 25.371094 4.894531 L 25.1875 4.820312 L 25.003906 4.726562 L 24.824219 4.613281 L 24.652344 4.480469 L 24.484375 4.332031 L 24.324219 4.164062 L 24.167969 3.980469 L 24.019531 3.78125 L 23.878906 3.566406 L 23.746094 3.335938 L 23.625 3.09375 L 23.511719 2.839844 L 23.410156 2.574219 L 23.316406 2.296875 L 23.234375 2.011719 L 23.164062 1.71875 L 23.105469 1.417969 L 23.058594 1.109375 L 23.023438 0.796875 L 23 0.480469 L 22.988281 0.164062 L 22.988281 -0.152344 L 23 -0.46875 L 23.023438 -0.785156 L 23.058594 -1.097656 L 23.105469 -1.40625 L 23.164062 -1.707031 L 23.234375 -2 L 23.316406 -2.285156 L 23.410156 -2.5625 L 23.511719 -2.828125 L 23.625 -3.082031 L 23.746094 -3.324219 L 23.878906 -3.554688 L 24.019531 -3.769531 L 24.167969 -3.96875 L 24.324219 -4.152344 L 24.484375 -4.320312 L 24.652344 -4.46875 L 24.824219 -4.601562 L 25.003906 -4.714844 L 25.1875 -4.808594 L 25.371094 -4.882812 L 25.558594 -4.9375 L 25.746094 -4.972656 L 25.9375 -4.988281 L 26.128906 -4.984375 L 26.320312 -4.960938 L 26.507812 -4.914062 L 26.695312 -4.847656 L 26.878906 -4.761719 L 27.058594 -4.65625 L 27.234375 -4.535156 L 27.40625 -4.394531 L 27.570312 -4.234375 L 27.730469 -4.058594 L 27.882812 -3.867188 L 28.027344 -3.660156 L 28.164062 -3.4375 L 28.289062 -3.199219 L 28.40625 -2.949219 L 28.515625 -2.6875 L 28.613281 -2.414062 L 28.699219 -2.132812 L 28.777344 -1.84375 L 28.84375 -1.546875 L 28.898438 -1.242188 L 28.941406 -0.933594 L 28.972656 -0.621094 L 28.992188 -0.304688 L 29 0.0117188 " transform="matrix(0.000000000000000061, -1, 1, 0.000000000000000061, 237.5, 47.5)"/>
<path fill="none" stroke-width="1.136364" stroke-linecap="butt" stroke-linejoin="miter" stroke="rgb(0%, 0%, 0%)" stroke-opacity="1" stroke-miterlimit="10" d="M 21.997956 0.00084087 L 6.999156 0.000794713 L 21.997956 0.00084087 L 29.070392 -7.069619 L 21.997956 0.00084087 L 29.068416 7.073277 Z M 21.997956 0.00084087 " transform="matrix(0.781831, -0.62349, 0.62349, 0.781831, 237.5, 47.5)"/>
<path fill="none" stroke-width="1.136364" stroke-linecap="butt" stroke-linejoin="miter" stroke="rgb(0%, 0%, 0%)" stroke-opacity="1" stroke-miterlimit="10" d="M 20.999904 -0.000669891 L 21.000732 -5.001288 L 20.999077 4.999948 Z M 20.999904 -0.000669891 " transform="matrix(0.781831, -0.62349, 0.62349, 0.781831, 237.5, 47.5)"/>
<path fill="none" stroke-width="1.136364" stroke-linecap="butt" stroke-linejoin="miter" stroke="rgb(0%, 0%, 0%)" stroke-opacity="1" stroke-miterlimit="10" d="M 18.000879 0.000905887 L 18.001706 -4.999712 L 18.000052 5.001524 Z M 18.000879 0.000905887 " transform="matrix(0.781831, -0.62349, 0.62349, 0.781831, 237.5, 47.5)"/>
<path fill="none" stroke-width="1.136364" stroke-linecap="butt" stroke-linejoin="miter" stroke="rgb(0%, 0%, 0%)" stroke-opacity="1" stroke-miterlimit="10" d="M 28.752234 0.000475383 L 7.003749 0.000115798 L 28.752234 0.000475383 M 29.000519 -0.000100035 L 21.929123 -7.07264 L 29.000519 -0.000100035 L 21.927979 7.071295 Z M 29.000519 -0.000100035 " transform="matrix(0.974928, 0.222521, -0.222521, 0.974928, 237.5, 47.5)"/>
<path fill="none" stroke-width="1.136364" stroke-linecap="butt" stroke-linejoin="miter" stroke="rgb(0%, 0%, 0%)" stroke-opacity="1" stroke-miterlimit="10" d="M 25.999456 -0.000273838 L 18.926916 7.071121 Z M 25.999456 -0.000273838 " transform="matrix(0.974928, 0.222521, -0.222521, 0.974928, 237.5, 47.5)"/>
<path fill="none" stroke-width="1.136364" stroke-linecap="butt" stroke-linejoin="miter" stroke="rgb(0%, 0%, 0%)" stroke-opacity="1" stroke-miterlimit="10" d="M 28.748888 0.00113078 L 6.997232 0.000920096 L 28.748888 0.00113078 M 29.00047 0.000889092 L 21.931426 -7.071309 L 29.00047 0.000889092 L 21.928272 7.069933 Z M 29.00047 0.000889092 " transform="matrix(0.433884, 0.900969, -0.900969, 0.433884, 237.5, 47.5)"/>
<path fill="none" stroke-width="1.136364" stroke-linecap="butt" stroke-linejoin="miter" stroke="rgb(0%, 0%, 0%)" stroke-opacity="1" stroke-miterlimit="10" d="M 21.002125 -0.000888815 L 21.003024 -4.999415 L 21.001226 4.997637 Z M 21.002125 -0.000888815 " transform="matrix(0.433884, 0.900969, -0.900969, 0.433884, 237.5, 47.5)"/>
<path fill="none" stroke-width="1.136364" stroke-linecap="butt" stroke-linejoin="miter" stroke="rgb(0%, 0%, 0%)" stroke-opacity="1" stroke-miterlimit="10" d="M 18.998204 0.000914975 L 18.999104 -4.997611 L 18.997305 4.999441 Z M 18.998204 0.000914975 " transform="matrix(0.433884, 0.900969, -0.900969, 0.433884, 237.5, 47.5)"/>
<path fill="none" stroke-width="1.136364" stroke-linecap="butt" stroke-linejoin="miter" stroke="rgb(0%, 0%, 0%)" stroke-opacity="1" stroke-miterlimit="10" d="M 7.002446 0.000904455 L 29.002165 0.00263032 " transform="matrix(-0.433884, 0.900969, -0.900969, -0.433884, 237.5, 47.5)"/>
<path fill="none" stroke-width="1.136364" stroke-linecap="butt" stroke-linejoin="miter" stroke="rgb(0%, 0%, 0%)" stroke-opacity="1" stroke-miterlimit="10" d="M 29.00047 -0.000889092 L 28.999571 -4.999415 L 29.001369 4.997637 Z M 29.00047 -0.000889092 " transform="matrix(-0.433884, 0.900969, -0.900969, -0.433884, 237.5, 47.5)"/>
<path fill="none" stroke-width="1.136364" stroke-linecap="butt" stroke-linejoin="miter" stroke="rgb(0%, 0%, 0%)" stroke-opacity="1" stroke-miterlimit="10" d="M 6.999941 -0.000985021 L 22.998393 0.00044764 " transform="matrix(-0.974928, 0.222521, -0.222521, -0.974928, 237.5, 47.5)"/>
<path fill="none" stroke-width="1.136364" stroke-linecap="butt" stroke-linejoin="miter" stroke="rgb(0%, 0%, 0%)" stroke-opacity="1" stroke-miterlimit="10" d="M 29.001098 5.000602 L 28.809607 4.996962 L 28.618985 4.989515 L 28.429232 4.978258 L 28.241218 4.959386 L 28.054073 4.936704 L 27.867797 4.910215 L 27.68239 4.879917 L 27.498722 4.842003 L 27.315923 4.80028 L 27.133993 4.754749 L 26.953802 4.701602 L 26.77448 4.644646 L 26.599835 4.584751 L 26.426929 4.517239 L 26.254892 4.445919 L 26.087533 4.37166 L 25.921043 4.293593 L 25.7601 4.208778 L 25.600025 4.120155 L 25.444629 4.028593 L 25.29391 3.934092 L 25.144929 3.831974 L 25.000626 3.726917 L 24.861 3.618921 L 24.726052 3.507986 L 24.595782 3.394111 L 24.470189 3.277298 L 24.349273 3.157546 L 24.233035 3.034854 L 24.121475 2.909223 L 24.014592 2.780654 L 23.912387 2.649145 L 23.814859 2.514697 L 23.722009 2.37731 L 23.633836 2.236984 L 23.550341 2.093719 L 23.475332 1.948384 L 23.405 1.80011 L 23.339346 1.648897 L 23.281308 1.499422 L 23.227948 1.347008 L 23.179266 1.191655 L 23.1382 1.038041 L 23.101811 0.881487 L 23.073039 0.726672 L 23.048945 0.568918 L 23.028659 0.412033 L 23.016859 0.253078 L 23.008868 0.0949926 L 23.009362 -0.0651629 L 23.013664 -0.224449 L 23.025583 -0.381997 L 23.045119 -0.537806 L 23.069332 -0.696555 L 23.101162 -0.853565 L 23.1368 -1.009706 L 23.180055 -1.164108 L 23.227118 -1.317641 L 23.281797 -1.469436 L 23.340285 -1.620361 L 23.40639 -1.769548 L 23.476303 -1.917866 L 23.553832 -2.064445 L 23.634301 -2.206347 L 23.722386 -2.346511 L 23.81428 -2.485805 L 23.91379 -2.62336 L 24.016239 -2.756239 L 24.126305 -2.887378 L 24.23931 -3.013841 L 24.356124 -3.139434 L 24.479684 -3.25948 L 24.607053 -3.378657 L 24.737361 -3.493156 L 24.875286 -3.605917 L 25.01615 -3.714001 L 25.159953 -3.817407 L 25.306695 -3.916135 L 25.457245 -4.013994 L 25.610735 -4.107176 L 25.770972 -4.194811 L 25.934147 -4.277768 L 26.100262 -4.356048 L 26.269317 -4.42965 L 26.44131 -4.498575 L 26.612434 -4.563691 L 26.786497 -4.62413 L 26.963499 -4.679892 L 27.14344 -4.730976 L 27.32632 -4.777382 L 27.508331 -4.81998 L 27.693282 -4.8579 L 27.881171 -4.891143 L 28.068191 -4.920578 L 28.257281 -4.941527 L 28.445502 -4.958667 L 28.636661 -4.97113 L 28.826952 -4.979785 L 29.015504 -4.980823 " transform="matrix(-0.974928, 0.222521, -0.222521, -0.974928, 237.5, 47.5)"/>
<path fill="none" stroke-width="1.136364" stroke-linecap="butt" stroke-linejoin="miter" stroke="rgb(0%, 0%, 0%)" stroke-opacity="1" stroke-miterlimit="10" d="M 6.999156 -0.000794713 L 22.498199 -0.0000692353 " transform="matrix(-0.781831, -0.62349, 0.62349, -0.781831, 237.5, 47.5)"/>
<path fill="none" stroke-width="1.136364" stroke-linecap="butt" stroke-linejoin="miter" stroke="rgb(0%, 0%, 0%)" stroke-opacity="1" stroke-miterlimit="10" d="M 28.999548 0.00141845 L 28.994175 0.320469 L 28.975388 0.635228 L 28.945622 0.94875 L 28.902441 1.257981 L 28.8489 1.560485 L 28.781944 1.858699 L 28.704627 2.150185 L 28.620004 2.43251 L 28.522585 2.705054 L 28.415424 2.965382 L 28.298521 3.213494 L 28.171876 3.44939 L 28.035489 3.673069 L 27.892413 3.882097 L 27.740215 4.07342 L 27.581328 4.25009 L 27.416372 4.40662 L 27.244728 4.548498 L 27.06945 4.673289 L 26.888102 4.777938 L 26.706174 4.863065 L 26.518177 4.928051 L 26.3296 4.973514 L 26.140444 4.999455 L 25.950707 5.005873 L 25.76039 4.992768 L 25.572547 4.957705 L 25.384125 4.90312 L 25.198176 4.826576 L 25.017137 4.731128 L 24.837954 4.619212 L 24.66368 4.488392 L 24.494316 4.338667 L 24.332297 4.173092 L 24.175187 3.988614 L 24.025423 3.788285 L 23.885439 3.57516 L 23.7528 3.346185 L 23.629942 3.104414 L 23.516865 2.849846 L 23.413568 2.582483 L 23.322487 2.305378 L 23.240568 2.020966 L 23.170866 1.726812 L 23.110326 1.425352 L 23.061383 1.119639 L 23.027091 0.807239 L 23.001344 0.493021 L 22.989629 0.177605 L 22.989512 -0.142064 L 23.00281 -0.457442 L 23.027087 -0.771582 L 23.062342 -1.084486 L 23.111013 -1.393098 L 23.170044 -1.694984 L 23.239435 -1.990144 L 23.321623 -2.275522 L 23.414171 -2.554175 L 23.516461 -2.820611 L 23.628493 -3.07483 L 23.750267 -3.316834 L 23.881783 -3.546622 L 24.019987 -3.761758 L 24.170369 -3.961624 L 24.324385 -4.144403 L 24.485088 -4.31253 L 24.654915 -4.462951 L 24.828377 -4.596286 L 25.007907 -4.709479 L 25.188018 -4.803149 L 25.374198 -4.876679 L 25.560958 -4.930686 L 25.748298 -4.96517 L 25.936218 -4.980131 L 26.124717 -4.97557 L 26.313797 -4.951486 L 26.503457 -4.90788 L 26.690642 -4.842315 L 26.872918 -4.757847 L 27.050285 -4.654474 L 27.228231 -4.531578 L 27.398832 -4.392833 L 27.564524 -4.235183 L 27.722871 -4.061684 L 27.876307 -3.86928 L 28.022399 -3.661026 L 28.158711 -3.439976 L 28.287677 -3.203076 L 28.406862 -2.95338 L 28.516267 -2.690887 L 28.613456 -2.418653 L 28.698429 -2.136677 L 28.774239 -1.847394 L 28.837834 -1.548369 L 28.889831 -1.245092 L 28.932665 -0.934508 L 28.963902 -0.619672 L 28.981107 -0.303637 L 28.987332 0.0111605 " transform="matrix(-0.781831, -0.62349, 0.62349, -0.781831, 237.5, 47.5)"/>
<path fill="none" stroke-width="1.136364" stroke-linecap="butt" stroke-linejoin="miter" stroke="rgb(0%, 0%, 0%)" stroke-opacity="1" stroke-miterlimit="10" d="M 21.500148 0.00144153 L 14.429688 7.073878 " transform="matrix(-0.781831, -0.62349, 0.62349, -0.781831, 237.5, 47.5)"/>
<path fill="none" stroke-width="1.136364" stroke-linecap="butt" stroke-linejoin="miter" stroke="rgb(0%, 0%, 0%)" stroke-opacity="1" stroke-miterlimit="10" d="M 7 0 C 7 3.867188 3.867188 7 0 7 C -3.867188 7 -7 3.867188 -7 0 C -7 -3.867188 -3.867188 -7 0 -7 C 3.867188 -7 7 -3.867188 7 0 " transform="matrix(1, 0, 0, 1, 47.5, 142.5)"/>
<path fill="none" stroke-width="1.136364" stroke-linecap="butt" stroke-linejoin="miter" stroke="rgb(0%, 0%, 0%)" stroke-opacity="1" stroke-miterlimit="10" d="M 7 0 L 2.109375 0 " transform="matrix(0.000000000000000061, -1, 1, 0.000000000000000061, 47.5, 142.5)"/>
<path fill="none" stroke-width="1.136364" stroke-linecap="butt" stroke-linejoin="miter" stroke="rgb(0%, 0%, 0%)" stroke-opacity="1" stroke-miterlimit="10" d="M 7 0 L 21.929688 0 " transform="matrix(0.000000000000000061, -1, 1, 0.000000000000000061, 47.5, 142.5)"/>
<path fill="none" stroke-width="1.136364" stroke-linecap="butt" stroke-linejoin="miter" stroke="rgb(0%, 0%, 0%)" stroke-opacity="1" stroke-miterlimit="10" d="M 29 0 L 21.929688 -7.070312 L 21.929688 7.070312 Z M 29 0 " transform="matrix(0.000000000000000061, -1, 1, 0.000000000000000061, 47.5, 142.5)"/>
<path fill="none" stroke-width="1.136364" stroke-linecap="butt" stroke-linejoin="miter" stroke="rgb(0%, 0%, 0%)" stroke-opacity="1" stroke-miterlimit="10" d="M 19.929688 0 L 19.929688 -5 L 19.929688 5 Z M 19.929688 0 " transform="matrix(0.000000000000000061, -1, 1, 0.000000000000000061, 47.5, 142.5)"/>
<path fill="none" stroke-width="1.136364" stroke-linecap="butt" stroke-linejoin="miter" stroke="rgb(0%, 0%, 0%)" stroke-opacity="1" stroke-miterlimit="10" d="M 28.750179 -0.000103571 L 7.000279 -0.000161087 L 28.750179 -0.000103571 M 28.99874 0.00072773 L 21.925791 -7.070291 L 28.99874 0.00072773 L 21.927721 7.073676 Z M 28.99874 0.00072773 " transform="matrix(0.866025, 0.5, -0.5, 0.866025, 47.5, 142.5)"/>
<path fill="none" stroke-width="1.136364" stroke-linecap="butt" stroke-linejoin="miter" stroke="rgb(0%, 0%, 0%)" stroke-opacity="1" stroke-miterlimit="10" d="M 21.000837 -0.00048326 L 20.999885 -5.002132 L 21.001789 5.001166 Z M 21.000837 -0.00048326 " transform="matrix(0.866025, 0.5, -0.5, 0.866025, 47.5, 142.5)"/>
<path fill="none" stroke-width="1.136364" stroke-linecap="butt" stroke-linejoin="miter" stroke="rgb(0%, 0%, 0%)" stroke-opacity="1" stroke-miterlimit="10" d="M 18.998824 0.000678836 L 18.997872 -5.00097 L 18.999776 5.002328 Z M 18.998824 0.000678836 " transform="matrix(0.866025, 0.5, -0.5, 0.866025, 47.5, 142.5)"/>
<path fill="none" stroke-width="1.136364" stroke-linecap="butt" stroke-linejoin="miter" stroke="rgb(0%, 0%, 0%)" stroke-opacity="1" stroke-miterlimit="10" d="M 28.750179 0.000103571 L 7.000279 0.000161087 L 28.750179 0.000103571 M 28.99874 -0.00072773 L 21.927721 -7.073676 L 28.99874 -0.00072773 L 21.925791 7.070291 Z M 28.99874 -0.00072773 " transform="matrix(-0.866025, 0.5, -0.5, -0.866025, 47.5, 142.5)"/>
<path fill="none" stroke-width="1.136364" stroke-linecap="butt" stroke-linejoin="miter" stroke="rgb(0%, 0%, 0%)" stroke-opacity="1" stroke-miterlimit="10" d="M 7 0 C 7 3.867188 3.867188 7 0 7 C -3.867188 7 -7 3.867188 -7 0 C -7 -3.867188 -3.867188 -7 0 -7 C 3.867188 -7 7 -3.867188 7 0 " transform="matrix(1, 0, 0, 1, 142.5, 142.5)"/>
<path fill="none" stroke-width="1.136364" stroke-linecap="butt" stroke-linejoin="miter" stroke="rgb(0%, 0%, 0%)" stroke-opacity="1" stroke-miterlimit="10" d="M 7 0 L 2.109375 0 " transform="matrix(0.000000000000000061, -1, 1, 0.000000000000000061, 142.5, 142.5)"/>
<path fill="none" stroke-width="1.136364" stroke-linecap="butt" stroke-linejoin="miter" stroke="rgb(0%, 0%, 0%)" stroke-opacity="1" stroke-miterlimit="10" d="M 7 0 L 22.5 0 " transform="matrix(0.000000000000000061, -1, 1, 0.000000000000000061, 142.5, 142.5)"/>
<path fill="none" stroke-width="1.136364" stroke-linecap="butt" stroke-linejoin="miter" stroke="rgb(0%, 0%, 0%)" stroke-opacity="1" stroke-miterlimit="10" d="M 29 0 L 28.992188 0.316406 L 28.972656 0.632812 L 28.941406 0.945312 L 28.898438 1.253906 L 28.84375 1.558594 L 28.777344 1.855469 L 28.699219 2.144531 L 28.613281 2.425781 L 28.515625 2.699219 L 28.40625 2.960938 L 28.289063 3.210938 L 28.164063 3.449219 L 28.027344 3.671875 L 27.882813 3.878906 L 27.730469 4.070312 L 27.570313 4.246094 L 27.40625 4.40625 L 27.234375 4.546875 L 27.058594 4.667969 L 26.878906 4.773438 L 26.695313 4.859375 L 26.507813 4.925781 L 26.320313 4.972656 L 26.128906 4.996094 L 25.9375 5 L 25.746094 4.984375 L 25.558594 4.949219 L 25.371094 4.894531 L 25.1875 4.820312 L 25.003906 4.726562 L 24.824219 4.613281 L 24.652344 4.480469 L 24.484375 4.332031 L 24.324219 4.164062 L 24.167969 3.980469 L 24.019531 3.78125 L 23.878906 3.566406 L 23.746094 3.335938 L 23.625 3.09375 L 23.511719 2.839844 L 23.410156 2.574219 L 23.316406 2.296875 L 23.234375 2.011719 L 23.164063 1.71875 L 23.105469 1.417969 L 23.058594 1.109375 L 23.023438 0.796875 L 23 0.480469 L 22.988281 0.164062 L 22.988281 -0.152344 L 23 -0.46875 L 23.023438 -0.785156 L 23.058594 -1.097656 L 23.105469 -1.40625 L 23.164063 -1.707031 L 23.234375 -2 L 23.316406 -2.285156 L 23.410156 -2.5625 L 23.511719 -2.828125 L 23.625 -3.082031 L 23.746094 -3.324219 L 23.878906 -3.554688 L 24.019531 -3.769531 L 24.167969 -3.96875 L 24.324219 -4.152344 L 24.484375 -4.320312 L 24.652344 -4.46875 L 24.824219 -4.601562 L 25.003906 -4.714844 L 25.1875 -4.808594 L 25.371094 -4.882812 L 25.558594 -4.9375 L 25.746094 -4.972656 L 25.9375 -4.988281 L 26.128906 -4.984375 L 26.320313 -4.960938 L 26.507813 -4.914062 L 26.695313 -4.847656 L 26.878906 -4.761719 L 27.058594 -4.65625 L 27.234375 -4.535156 L 27.40625 -4.394531 L 27.570313 -4.234375 L 27.730469 -4.058594 L 27.882813 -3.867188 L 28.027344 -3.660156 L 28.164063 -3.4375 L 28.289063 -3.199219 L 28.40625 -2.949219 L 28.515625 -2.6875 L 28.613281 -2.414062 L 28.699219 -2.132812 L 28.777344 -1.84375 L 28.84375 -1.546875 L 28.898438 -1.242188 L 28.941406 -0.933594 L 28.972656 -0.621094 L 28.992188 -0.304688 L 29 0.0117188 " transform="matrix(0.000000000000000061, -1, 1, 0.000000000000000061, 142.5, 142.5)"/>
<path fill="none" stroke-width="1.136364" stroke-linecap="butt" stroke-linejoin="miter" stroke="rgb(0%, 0%, 0%)" stroke-opacity="1" stroke-miterlimit="10" d="M 21.5 0 L 14.429688 7.070312 " transform="matrix(0.000000000000000061, -1, 1, 0.000000000000000061, 142.5, 142.5)"/>
<path fill="none" stroke-width="1.136364" stroke-linecap="butt" stroke-linejoin="miter" stroke="rgb(0%, 0%, 0%)" stroke-opacity="1" stroke-miterlimit="10" d="M 6.999156 0.000794713 L 22.498199 0.0000692353 " transform="matrix(0.781831, -0.62349, 0.62349, 0.781831, 142.5, 142.5)"/>
<path fill="none" stroke-width="1.136364" stroke-linecap="butt" stroke-linejoin="miter" stroke="rgb(0%, 0%, 0%)" stroke-opacity="1" stroke-miterlimit="10" d="M 28.999548 -0.00141845 L 28.993323 0.313379 L 28.976119 0.629414 L 28.944881 0.94425 L 28.902047 1.254834 L 28.85005 1.558111 L 28.786455 1.857136 L 28.710645 2.146419 L 28.625672 2.428395 L 28.528483 2.700629 L 28.419078 2.963122 L 28.299893 3.212818 L 28.170927 3.449718 L 28.034615 3.670768 L 27.888524 3.879022 L 27.735087 4.071426 L 27.57674 4.244925 L 27.411048 4.402575 L 27.240447 4.54132 L 27.062501 4.664216 L 26.885135 4.767589 L 26.702859 4.852057 L 26.515673 4.917622 L 26.326013 4.961228 L 26.136933 4.985312 L 25.948434 4.989873 L 25.760514 4.974912 L 25.573174 4.940428 L 25.386414 4.886421 L 25.200234 4.812891 L 25.020123 4.719221 L 24.840593 4.606028 L 24.667132 4.472693 L 24.497304 4.322272 L 24.336601 4.154145 L 24.182585 3.971366 L 24.032203 3.7715 L 23.893999 3.556364 L 23.762483 3.326576 L 23.640709 3.084573 L 23.528677 2.830353 L 23.426387 2.563917 L 23.333839 2.285264 L 23.251651 1.999886 L 23.18226 1.704726 L 23.123229 1.40284 L 23.074558 1.094228 L 23.039303 0.781324 L 23.015026 0.467184 L 23.001728 0.151806 L 23.001845 -0.167863 L 23.01356 -0.483279 L 23.039308 -0.797497 L 23.073599 -1.109897 L 23.122542 -1.41561 L 23.183082 -1.71707 L 23.252785 -2.011224 L 23.334703 -2.295636 L 23.425784 -2.572741 L 23.529081 -2.840104 L 23.642158 -3.094672 L 23.765016 -3.336443 L 23.897655 -3.565418 L 24.037639 -3.778543 L 24.187403 -3.978872 L 24.344513 -4.16335 L 24.506532 -4.328925 L 24.675896 -4.47865 L 24.85017 -4.60947 L 25.029353 -4.721386 L 25.210392 -4.816834 L 25.396341 -4.893378 L 25.584763 -4.947963 L 25.772606 -4.983026 L 25.962923 -4.996131 L 26.15266 -4.989713 L 26.341817 -4.963772 L 26.530393 -4.918309 L 26.718391 -4.853323 L 26.900318 -4.768196 L 27.081666 -4.663547 L 27.256944 -4.538756 L 27.428588 -4.396878 L 27.593544 -4.240348 L 27.752431 -4.063678 L 27.904629 -3.872355 L 28.047705 -3.663327 L 28.184092 -3.439648 L 28.310737 -3.203752 L 28.42764 -2.95564 L 28.534801 -2.695312 L 28.63222 -2.422768 L 28.716843 -2.140443 L 28.79416 -1.848957 L 28.861116 -1.550743 L 28.914657 -1.248239 L 28.957838 -0.939008 L 28.987604 -0.625486 L 29.006391 -0.310727 L 29.011764 0.00832358 " transform="matrix(0.781831, -0.62349, 0.62349, 0.781831, 142.5, 142.5)"/>
<path fill="none" stroke-width="1.136364" stroke-linecap="butt" stroke-linejoin="miter" stroke="rgb(0%, 0%, 0%)" stroke-opacity="1" stroke-miterlimit="10" d="M 21.500148 -0.00144153 L 14.427712 7.069018 " transform="matrix(0.781831, -0.62349, 0.62349, 0.781831, 142.5, 142.5)"/>
<path fill="none" stroke-width="1.136364" stroke-linecap="butt" stroke-linejoin="miter" stroke="rgb(0%, 0%, 0%)" stroke-opacity="1" stroke-miterlimit="10" d="M 18.501123 0.000134252 L 11.428686 7.070594 " transform="matrix(0.781831, -0.62349, 0.62349, 0.781831, 142.5, 142.5)"/>
<path fill="none" stroke-width="1.136364" stroke-linecap="butt" stroke-linejoin="miter" stroke="rgb(0%, 0%, 0%)" stroke-opacity="1" stroke-miterlimit="10" d="M 6.999941 0.000985021 L 29.000519 -0.000100035 " transform="matrix(0.974928, 0.222521, -0.222521, 0.974928, 142.5, 142.5)"/>
<path fill="none" stroke-width="1.136364" stroke-linecap="butt" stroke-linejoin="miter" stroke="rgb(0%, 0%, 0%)" stroke-opacity="1" stroke-miterlimit="10" d="M 7.002446 -0.000904455 L 21.929849 -0.000688319 " transform="matrix(0.433884, 0.900969, -0.900969, 0.433884, 142.5, 142.5)"/>
<path fill="none" stroke-width="1.136364" stroke-linecap="butt" stroke-linejoin="miter" stroke="rgb(0%, 0%, 0%)" stroke-opacity="1" stroke-miterlimit="10" d="M 29.00047 0.000889092 L 21.931426 -7.071309 L 21.931791 7.071627 Z M 29.00047 0.000889092 " transform="matrix(0.433884, 0.900969, -0.900969, 0.433884, 142.5, 142.5)"/>
<path fill="none" stroke-width="1.136364" stroke-linecap="butt" stroke-linejoin="miter" stroke="rgb(0%, 0%, 0%)" stroke-opacity="1" stroke-miterlimit="10" d="M 7.002446 0.000904455 L 20.001012 0.00174662 " transform="matrix(-0.433884, 0.900969, -0.900969, -0.433884, 142.5, 142.5)"/>
<path fill="none" stroke-width="1.136364" stroke-linecap="butt" stroke-linejoin="miter" stroke="rgb(0%, 0%, 0%)" stroke-opacity="1" stroke-miterlimit="10" d="M 5.700869 -0.000952436 L 5.70061 0.0165149 L 5.693052 0.0548393 L 5.687578 0.0704822 L 5.669592 0.105157 L 5.648216 0.132794 L 5.60051 0.168775 L 5.565316 0.185724 L 5.526732 0.195633 L 5.505745 0.197069 L 5.488278 0.19681 L 5.430791 0.185473 L 5.378778 0.158494 L 5.36496 0.147806 L 5.349447 0.133599 L 5.325459 0.101794 L 5.308511 0.0666002 L 5.293646 0.00872449 L 5.294165 -0.0262102 L 5.301723 -0.0645346 L 5.307196 -0.0801774 L 5.325182 -0.114853 L 5.346558 -0.142489 L 5.394265 -0.17847 L 5.429459 -0.195419 L 5.468043 -0.205329 L 5.489029 -0.206764 L 5.506497 -0.206505 L 5.563983 -0.195168 L 5.615996 -0.168189 L 5.629815 -0.157501 L 5.645328 -0.143294 L 5.669315 -0.11149 L 5.686264 -0.0762955 L 5.701128 -0.0184198 L 5.70061 0.0165149 L 5.693052 0.0548393 L 5.687578 0.0704822 L 5.669592 0.105157 L 5.648216 0.132794 L 5.60051 0.168775 L 5.565316 0.185724 L 5.526732 0.195633 L 5.505745 0.197069 L 5.488278 0.19681 L 5.430791 0.185473 L 5.378778 0.158494 L 5.36496 0.147806 L 5.349447 0.133599 L 5.325459 0.101794 L 5.308511 0.0666002 L 5.293646 0.00872449 L 5.293906 -0.00874286 " transform="matrix(-0.433884, 0.900969, -0.900969, -0.433884, 142.5, 142.5)"/>
<path fill="none" stroke-width="1.136364" stroke-linecap="butt" stroke-linejoin="miter" stroke="rgb(0%, 0%, 0%)" stroke-opacity="1" stroke-miterlimit="10" d="M 6.999941 -0.000985021 L 21.928551 0.000672302 " transform="matrix(-0.974928, 0.222521, -0.222521, -0.974928, 142.5, 142.5)"/>
<path fill="none" stroke-width="1.136364" stroke-linecap="butt" stroke-linejoin="miter" stroke="rgb(0%, 0%, 0%)" stroke-opacity="1" stroke-miterlimit="10" d="M 29.000519 0.000100035 L 21.927979 -7.071295 L 21.929123 7.07264 Z M 29.000519 0.000100035 " transform="matrix(-0.974928, 0.222521, -0.222521, -0.974928, 142.5, 142.5)"/>
<path fill="none" stroke-width="1.136364" stroke-linecap="butt" stroke-linejoin="miter" stroke="rgb(0%, 0%, 0%)" stroke-opacity="1" stroke-miterlimit="10" d="M 19.929112 0.00107791 L 19.928533 -4.999424 L 19.929692 5.00158 Z M 19.929112 0.00107791 " transform="matrix(-0.974928, 0.222521, -0.222521, -0.974928, 142.5, 142.5)"/>
<path fill="none" stroke-width="1.136364" stroke-linecap="butt" stroke-linejoin="miter" stroke="rgb(0%, 0%, 0%)" stroke-opacity="1" stroke-miterlimit="10" d="M 17.929673 0.00148352 L 17.929094 -4.999018 L 17.930252 5.001985 Z M 17.929673 0.00148352 " transform="matrix(-0.974928, 0.222521, -0.222521, -0.974928, 142.5, 142.5)"/>
<path fill="none" stroke-width="1.136364" stroke-linecap="butt" stroke-linejoin="miter" stroke="rgb(0%, 0%, 0%)" stroke-opacity="1" stroke-miterlimit="10" d="M 28.749426 0.00103263 L 6.999156 -0.000794713 L 28.749426 0.00103263 M 28.999548 0.00141845 L 21.927111 -7.069041 L 28.999548 0.00141845 L 21.929088 7.073855 Z M 28.999548 0.00141845 " transform="matrix(-0.781831, -0.62349, 0.62349, -0.781831, 142.5, 142.5)"/>
<path fill="none" stroke-width="1.136364" stroke-linecap="butt" stroke-linejoin="miter" stroke="rgb(0%, 0%, 0%)" stroke-opacity="1" stroke-miterlimit="10" d="M 7 0 C 7 3.867188 3.867188 7 0 7 C -3.867188 7 -7 3.867188 -7 0 C -7 -3.867188 -3.867188 -7 0 -7 C 3.867188 -7 7 -3.867188 7 0 " transform="matrix(1, 0, 0, 1, 237.5, 142.5)"/>
<path fill="none" stroke-width="1.136364" stroke-linecap="butt" stroke-linejoin="miter" stroke="rgb(0%, 0%, 0%)" stroke-opacity="1" stroke-miterlimit="10" d="M 7 0 L 2.109375 0 " transform="matrix(0.000000000000000061, -1, 1, 0.000000000000000061, 237.5, 142.5)"/>
<path fill="none" stroke-width="1.136364" stroke-linecap="butt" stroke-linejoin="miter" stroke="rgb(0%, 0%, 0%)" stroke-opacity="1" stroke-miterlimit="10" d="M 7 0 L 29 0 " transform="matrix(0.000000000000000061, -1, 1, 0.000000000000000061, 237.5, 142.5)"/>
<path fill="none" stroke-width="1.136364" stroke-linecap="butt" stroke-linejoin="miter" stroke="rgb(0%, 0%, 0%)" stroke-opacity="1" stroke-miterlimit="10" d="M 29 0 L 29 -5 L 29 5 Z M 29 0 " transform="matrix(0.000000000000000061, -1, 1, 0.000000000000000061, 237.5, 142.5)"/>
<path fill="none" stroke-width="1.136364" stroke-linecap="butt" stroke-linejoin="miter" stroke="rgb(0%, 0%, 0%)" stroke-opacity="1" stroke-miterlimit="10" d="M 27 0 L 27 -5 L 27 5 Z M 27 0 " transform="matrix(0.000000000000000061, -1, 1, 0.000000000000000061, 237.5, 142.5)"/>
<path fill="none" stroke-width="1.136364" stroke-linecap="butt" stroke-linejoin="miter" stroke="rgb(0%, 0%, 0%)" stroke-opacity="1" stroke-miterlimit="10" d="M 7.000279 0.000161087 L 22.498964 -0.000598293 " transform="matrix(0.866025, -0.5, 0.5, 0.866025, 237.5, 142.5)"/>
<path fill="none" stroke-width="1.136364" stroke-linecap="butt" stroke-linejoin="miter" stroke="rgb(0%, 0%, 0%)" stroke-opacity="1" stroke-miterlimit="10" d="M 28.99874 -0.00072773 L 28.992001 0.315631 L 28.973161 0.629513 L 28.942219 0.940919 L 28.899175 1.249848 L 28.845982 1.552918 L 28.782641 1.850128 L 28.705768 2.139526 L 28.618746 2.423065 L 28.520146 2.695408 L 28.41335 2.958509 L 28.296929 3.207031 L 28.168929 3.444359 L 28.031304 3.667107 L 27.889389 3.873848 L 27.737849 4.066011 L 27.578637 4.240212 L 27.415136 4.398405 L 27.243962 4.538637 L 27.068498 4.66286 L 26.887316 4.76574 L 26.703798 4.849228 L 26.517943 4.913326 L 26.329752 4.958032 L 26.139224 4.983348 L 25.948314 4.985889 L 25.75845 4.970993 L 25.571586 4.935276 L 25.382386 4.880168 L 25.196186 4.804239 L 25.016368 4.709442 L 24.837597 4.597208 L 24.665209 4.466105 L 24.499203 4.316135 L 24.337627 4.150681 L 24.182434 3.966358 L 24.035053 3.768504 L 23.894055 3.551782 L 23.76087 3.321529 L 23.638879 3.079697 L 23.524702 2.824334 L 23.42172 2.557392 L 23.329933 2.278871 L 23.247388 1.992155 L 23.177469 1.699196 L 23.116792 1.398042 L 23.06874 1.090645 L 23.03136 0.780389 L 23.006606 0.46389 L 22.995906 0.146485 L 22.993926 -0.170397 L 23.006 -0.488186 L 23.030176 -0.803498 L 23.066454 -1.116333 L 23.112881 -1.423309 L 23.172839 -1.722473 L 23.242947 -2.015777 L 23.323203 -2.303222 L 23.415037 -2.579471 L 23.51845 -2.844525 L 23.630059 -3.100337 L 23.753246 -3.344953 L 23.886058 -3.574991 L 24.025113 -3.792404 L 24.17184 -3.991856 L 24.328193 -4.176729 L 24.488835 -4.345594 L 24.657149 -4.496498 L 24.831183 -4.626058 L 25.009506 -4.739609 L 25.190165 -4.83377 L 25.37316 -4.90854 L 25.561874 -4.961965 L 25.749542 -4.997953 L 25.939546 -5.014549 L 26.129933 -5.008372 L 26.319274 -4.984756 L 26.508997 -4.938367 L 26.695721 -4.871157 L 26.881398 -4.786509 L 27.060692 -4.682994 L 27.236987 -4.558657 L 27.408852 -4.418836 L 27.574334 -4.260147 L 27.733433 -4.082591 L 27.88472 -3.891502 L 28.026242 -3.6835 L 28.163333 -3.460012 L 28.28923 -3.224946 L 28.407314 -2.976348 L 28.514202 -2.716172 L 28.613278 -2.442464 L 28.699729 -2.162514 L 28.774984 -1.870985 L 28.840997 -1.57126 L 28.894385 -1.265293 L 28.937101 -0.956467 L 28.967192 -0.641398 L 28.983227 -0.325422 L 28.988591 -0.0065871 " transform="matrix(0.866025, -0.5, 0.5, 0.866025, 237.5, 142.5)"/>
<path fill="none" stroke-width="1.136364" stroke-linecap="butt" stroke-linejoin="miter" stroke="rgb(0%, 0%, 0%)" stroke-opacity="1" stroke-miterlimit="10" d="M 21.998461 0.000888817 L 6.996896 0.00179204 L 21.998461 0.000888817 L 29.069479 -7.07206 L 21.998461 0.000888817 L 29.071409 7.071908 Z M 21.998461 0.000888817 " transform="matrix(0.866025, 0.5, -0.5, 0.866025, 237.5, 142.5)"/>
<path fill="none" stroke-width="1.136364" stroke-linecap="butt" stroke-linejoin="miter" stroke="rgb(0%, 0%, 0%)" stroke-opacity="1" stroke-miterlimit="10" d="M 21.000837 -0.00048326 L 20.999885 -5.002132 L 21.001789 5.001166 Z M 21.000837 -0.00048326 " transform="matrix(0.866025, 0.5, -0.5, 0.866025, 237.5, 142.5)"/>
<path fill="none" stroke-width="1.136364" stroke-linecap="butt" stroke-linejoin="miter" stroke="rgb(0%, 0%, 0%)" stroke-opacity="1" stroke-miterlimit="10" d="M 18.001201 -0.000693241 L 18.000249 -5.002342 L 18.002153 5.000956 Z M 18.001201 -0.000693241 " transform="matrix(0.866025, 0.5, -0.5, 0.866025, 237.5, 142.5)"/>
<path fill="none" stroke-width="1.136364" stroke-linecap="butt" stroke-linejoin="miter" stroke="rgb(0%, 0%, 0%)" stroke-opacity="1" stroke-miterlimit="10" d="M 29 0 L 7 0 L 29 0 L 21.929687 7.070312 Z M 29 0 " transform="matrix(0.000000000000000061, 1, -1, 0.000000000000000061, 237.5, 142.5)"/>
<path fill="none" stroke-width="1.136364" stroke-linecap="butt" stroke-linejoin="miter" stroke="rgb(0%, 0%, 0%)" stroke-opacity="1" stroke-miterlimit="10" d="M 7.000279 0.000161087 L 22.999467 -0.000307769 " transform="matrix(-0.866025, 0.5, -0.5, -0.866025, 237.5, 142.5)"/>
<path fill="none" stroke-width="1.136364" stroke-linecap="butt" stroke-linejoin="miter" stroke="rgb(0%, 0%, 0%)" stroke-opacity="1" stroke-miterlimit="10" d="M 28.997787 5.000921 L 28.805447 4.998127 L 28.61506 4.991949 L 28.423243 4.980436 L 28.235333 4.962157 L 28.045992 4.938541 L 27.858605 4.911543 L 27.673171 4.881162 L 27.48826 4.842062 L 27.305302 4.799579 L 27.124298 4.753713 L 26.941863 4.702511 L 26.763335 4.644543 L 26.58676 4.583193 L 26.412138 4.518459 L 26.241423 4.44696 L 26.07266 4.372078 L 25.905851 4.293812 L 25.742948 4.208781 L 25.585381 4.12232 L 25.43172 4.029094 L 25.280012 3.932484 L 25.130258 3.832492 L 24.987792 3.727686 L 24.84728 3.619498 L 24.712104 3.509881 L 24.580834 3.393497 L 24.4549 3.275683 L 24.330919 3.154487 L 24.214227 3.028478 L 24.102872 2.901039 L 23.993469 2.770217 L 23.889403 2.637966 L 23.792626 2.500901 L 23.701184 2.362407 L 23.615079 2.222483 L 23.53431 2.08113 L 23.455494 1.936393 L 23.383967 1.786844 L 23.317776 1.635865 L 23.260304 1.485409 L 23.208168 1.333524 L 23.161368 1.180208 L 23.119904 1.025463 L 23.083777 0.869288 L 23.052985 0.711684 L 23.030912 0.554602 L 23.014175 0.396091 L 23.002775 0.236151 L 22.994757 0.0781628 L 22.995458 -0.0793016 L 23.001495 -0.238196 L 23.012868 -0.39852 L 23.031007 -0.554938 L 23.054483 -0.712785 L 23.086677 -0.870109 L 23.122253 -1.02548 L 23.163166 -1.182281 L 23.210845 -1.335176 L 23.26386 -1.4895 L 23.323641 -1.639918 L 23.386804 -1.788383 L 23.458687 -1.936325 L 23.533952 -2.082313 L 23.615983 -2.224396 L 23.701398 -2.364525 L 23.795531 -2.504131 L 23.893047 -2.641783 L 23.997329 -2.77553 L 24.104993 -2.907323 L 24.219424 -3.03521 L 24.337237 -3.161144 L 24.461817 -3.283172 L 24.587826 -3.399864 L 24.717218 -3.514602 L 24.853376 -3.625435 L 24.992916 -3.734314 L 25.13727 -3.835904 L 25.285006 -3.935541 L 25.436126 -4.033224 L 25.592058 -4.123619 L 25.751372 -4.21206 L 25.912117 -4.295166 L 26.076245 -4.376318 L 26.245185 -4.450181 L 26.415555 -4.518708 L 26.589308 -4.585282 L 26.764491 -4.64652 L 26.941103 -4.702422 L 27.121099 -4.756371 L 27.302524 -4.804984 L 27.485379 -4.84826 L 27.669664 -4.886201 L 27.855378 -4.918806 L 28.042523 -4.946074 L 28.231097 -4.968007 L 28.421101 -4.984603 L 28.609152 -4.997817 L 28.798632 -5.005695 L 28.989543 -5.008236 " transform="matrix(-0.866025, 0.5, -0.5, -0.866025, 237.5, 142.5)"/>
<path fill="none" stroke-width="1.136364" stroke-linecap="butt" stroke-linejoin="miter" stroke="rgb(0%, 0%, 0%)" stroke-opacity="1" stroke-miterlimit="10" d="M 7.000279 -0.000161087 L 21.930139 -0.000260514 " transform="matrix(-0.866025, -0.5, 0.5, -0.866025, 237.5, 142.5)"/>
<path fill="none" stroke-width="1.136364" stroke-linecap="butt" stroke-linejoin="miter" stroke="rgb(0%, 0%, 0%)" stroke-opacity="1" stroke-miterlimit="10" d="M 28.99874 0.00072773 L 21.925791 -7.070291 L 21.925768 7.070293 Z M 28.99874 0.00072773 " transform="matrix(-0.866025, -0.5, 0.5, -0.866025, 237.5, 142.5)"/>
<path fill="none" stroke-width="1.136364" stroke-linecap="butt" stroke-linejoin="miter" stroke="rgb(0%, 0%, 0%)" stroke-opacity="1" stroke-miterlimit="10" d="M 19.928126 0.000901582 L 19.927174 -5.000748 L 19.929078 5.002551 Z M 19.928126 0.000901582 " transform="matrix(-0.866025, -0.5, 0.5, -0.866025, 237.5, 142.5)"/>
<path fill="none" stroke-width="1.136364" stroke-linecap="butt" stroke-linejoin="miter" stroke="rgb(0%, 0%, 0%)" stroke-opacity="1" stroke-miterlimit="10" d="M 17.929496 0.000110553 L 17.928544 -5.001539 L 17.930448 5.00176 Z M 17.929496 0.000110553 " transform="matrix(-0.866025, -0.5, 0.5, -0.866025, 237.5, 142.5)"/>
<path fill="none" stroke-width="1.136364" stroke-linecap="butt" stroke-linejoin="miter" stroke="rgb(0%, 0%, 0%)" stroke-opacity="1" stroke-miterlimit="10" d="M 7 0 C 7 3.867188 3.867188 7 0 7 C -3.867188 7 -7 3.867188 -7 0 C -7 -3.867188 -3.867188 -7 0 -7 C 3.867188 -7 7 -3.867188 7 0 " transform="matrix(1, 0, 0, 1, 332.5, 142.5)"/>
<path fill="none" stroke-width="1.136364" stroke-linecap="butt" stroke-linejoin="miter" stroke="rgb(0%, 0%, 0%)" stroke-opacity="1" stroke-miterlimit="10" d="M 7 0 L 2.109375 0 " transform="matrix(0.000000000000000061, -1, 1, 0.000000000000000061, 332.5, 142.5)"/>
<path fill="none" stroke-width="1.136364" stroke-linecap="butt" stroke-linejoin="miter" stroke="rgb(0%, 0%, 0%)" stroke-opacity="1" stroke-miterlimit="10" d="M 7 0 L 29 0 " transform="matrix(0.000000000000000061, -1, 1, 0.000000000000000061, 332.5, 142.5)"/>
<path fill="none" stroke-width="1.136364" stroke-linecap="butt" stroke-linejoin="miter" stroke="rgb(0%, 0%, 0%)" stroke-opacity="1" stroke-miterlimit="10" d="M 7.000279 0.000161087 L 21.930139 0.000260514 " transform="matrix(0.866025, -0.5, 0.5, 0.866025, 332.5, 142.5)"/>
<path fill="none" stroke-width="1.136364" stroke-linecap="butt" stroke-linejoin="miter" stroke="rgb(0%, 0%, 0%)" stroke-opacity="1" stroke-miterlimit="10" d="M 28.99874 -0.00072773 L 21.927721 -7.073676 L 21.927744 7.066908 Z M 28.99874 -0.00072773 " transform="matrix(0.866025, -0.5, 0.5, 0.866025, 332.5, 142.5)"/>
<path fill="none" stroke-width="1.136364" stroke-linecap="butt" stroke-linejoin="miter" stroke="rgb(0%, 0%, 0%)" stroke-opacity="1" stroke-miterlimit="10" d="M 19.928126 -0.000901582 L 19.929078 -5.002551 L 19.927174 5.000748 Z M 19.928126 -0.000901582 " transform="matrix(0.866025, -0.5, 0.5, 0.866025, 332.5, 142.5)"/>
<path fill="none" stroke-width="1.136364" stroke-linecap="butt" stroke-linejoin="miter" stroke="rgb(0%, 0%, 0%)" stroke-opacity="1" stroke-miterlimit="10" d="M 17.929496 -0.000110553 L 17.930448 -5.00176 L 17.928544 5.001539 Z M 17.929496 -0.000110553 " transform="matrix(0.866025, -0.5, 0.5, 0.866025, 332.5, 142.5)"/>
<path fill="none" stroke-width="1.136364" stroke-linecap="butt" stroke-linejoin="miter" stroke="rgb(0%, 0%, 0%)" stroke-opacity="1" stroke-miterlimit="10" d="M 21.998461 0.000888817 L 6.996896 0.00179204 L 21.998461 0.000888817 L 29.069479 -7.07206 L 21.998461 0.000888817 L 29.071409 7.071908 Z M 21.998461 0.000888817 " transform="matrix(0.866025, 0.5, -0.5, 0.866025, 332.5, 142.5)"/>
<path fill="none" stroke-width="1.136364" stroke-linecap="butt" stroke-linejoin="miter" stroke="rgb(0%, 0%, 0%)" stroke-opacity="1" stroke-miterlimit="10" d="M 7 0 L 29 0 " transform="matrix(0.000000000000000061, 1, -1, 0.000000000000000061, 332.5, 142.5)"/>
<path fill="none" stroke-width="1.136364" stroke-linecap="butt" stroke-linejoin="miter" stroke="rgb(0%, 0%, 0%)" stroke-opacity="1" stroke-miterlimit="10" d="M 29 0 L 29 -5 L 29 5 Z M 29 0 " transform="matrix(0.000000000000000061, 1, -1, 0.000000000000000061, 332.5, 142.5)"/>
<path fill="none" stroke-width="1.136364" stroke-linecap="butt" stroke-linejoin="miter" stroke="rgb(0%, 0%, 0%)" stroke-opacity="1" stroke-miterlimit="10" d="M 21.998461 -0.000888817 L 6.996896 -0.00179204 L 21.998461 -0.000888817 L 29.071409 -7.071908 L 21.998461 -0.000888817 L 29.069479 7.07206 Z M 21.998461 -0.000888817 " transform="matrix(-0.866025, 0.5, -0.5, -0.866025, 332.5, 142.5)"/>
<path fill="none" stroke-width="1.136364" stroke-linecap="butt" stroke-linejoin="miter" stroke="rgb(0%, 0%, 0%)" stroke-opacity="1" stroke-miterlimit="10" d="M 21.000837 0.00048326 L 21.001789 -5.001166 L 20.999885 5.002132 Z M 21.000837 0.00048326 " transform="matrix(-0.866025, 0.5, -0.5, -0.866025, 332.5, 142.5)"/>
<path fill="none" stroke-width="1.136364" stroke-linecap="butt" stroke-linejoin="miter" stroke="rgb(0%, 0%, 0%)" stroke-opacity="1" stroke-miterlimit="10" d="M 18.001201 0.000693241 L 18.002153 -5.000956 L 18.000249 5.002342 Z M 18.001201 0.000693241 " transform="matrix(-0.866025, 0.5, -0.5, -0.866025, 332.5, 142.5)"/>
<path fill="none" stroke-width="1.136364" stroke-linecap="butt" stroke-linejoin="miter" stroke="rgb(0%, 0%, 0%)" stroke-opacity="1" stroke-miterlimit="10" d="M 7.000279 -0.000161087 L 28.99874 0.00072773 " transform="matrix(-0.866025, -0.5, 0.5, -0.866025, 332.5, 142.5)"/>
</svg>
