<?xml version="1.0" encoding="UTF-8"?>
<svg xmlns="http://www.w3.org/2000/svg" xmlns:xlink="http://www.w3.org/1999/xlink" width="99.386036" height="99.386036" viewBox="0 0 99.386036 99.386036">
<path fill="none" stroke-width="1.136364" stroke-linecap="butt" stroke-linejoin="miter" stroke="rgb(0%, 0%, 0%)" stroke-opacity="1" stroke-miterlimit="10" d="M 11.385107 -0.00161172 C 11.385107 6.287451 6.287451 11.385107 -0.00161172 11.385107 C -6.286768 11.385107 -11.384424 6.287451 -11.384424 -0.00161172 C -11.384424 -6.286768 -6.286768 -11.384424 -0.00161172 -11.384424 C 6.287451 -11.384424 11.385107 -6.286768 11.385107 -0.00161172 " transform="matrix(1, 0, 0, 1, 49.693018, 49.693018)"/>
<path fill="none" stroke-width="1.136364" stroke-linecap="butt" stroke-linejoin="miter" stroke="rgb(0%, 0%, 0%)" stroke-opacity="1" stroke-miterlimit="10" d="M 11.385107 0.00161172 L 3.795263 0.00161172 " transform="matrix(0.000000000000000061, 1, -1, 0.000000000000000061, 49.693018, 49.693018)"/>
<path fill="none" stroke-width="1.136364" stroke-linecap="butt" stroke-linejoin="miter" stroke="rgb(0%, 0%, 0%)" stroke-opacity="1" stroke-miterlimit="10" d="M 26.385107 0.00161172 L 11.385107 0.00161172 L 26.385107 0.00161172 L 33.45542 -7.068701 L 26.385107 0.00161172 L 33.45542 7.071924 Z M 26.385107 0.00161172 " transform="matrix(0.000000000000000061, 1, -1, 0.000000000000000061, 49.693018, 49.693018)"/>
<path fill="none" stroke-width="1.136364" stroke-linecap="butt" stroke-linejoin="miter" stroke="rgb(0%, 0%, 0%)" stroke-opacity="1" stroke-miterlimit="10" d="M 25.385107 0.00161172 L 25.385107 -4.998388 L 25.385107 5.001612 Z M 25.385107 0.00161172 " transform="matrix(0.000000000000000061, 1, -1, 0.000000000000000061, 49.693018, 49.693018)"/>
<path fill="none" stroke-width="1.136364" stroke-linecap="butt" stroke-linejoin="miter" stroke="rgb(0%, 0%, 0%)" stroke-opacity="1" stroke-miterlimit="10" d="M 22.385107 0.00161172 L 22.385107 -4.998388 L 22.385107 5.001612 Z M 22.385107 0.00161172 " transform="matrix(0.000000000000000061, 1, -1, 0.000000000000000061, 49.693018, 49.693018)"/>
<path fill="none" stroke-width="1.136364" stroke-linecap="butt" stroke-linejoin="miter" stroke="rgb(0%, 0%, 0%)" stroke-opacity="1" stroke-miterlimit="10" d="M 26.387473 -0.00103227 L 11.388673 -0.000986112 L 26.387473 -0.00103227 L 33.457933 -7.073469 L 26.387473 -0.00103227 L 33.459909 7.069428 Z M 26.387473 -0.00103227 " transform="matrix(0.781831, 0.62349, -0.62349, 0.781831, 49.693018, 49.693018)"/>
<path fill="none" stroke-width="1.136364" stroke-linecap="butt" stroke-linejoin="miter" stroke="rgb(0%, 0%, 0%)" stroke-opacity="1" stroke-miterlimit="10" d="M 25.383932 -0.000140031 L 25.383105 -5.000758 L 25.384759 5.000478 Z M 25.383932 -0.000140031 " transform="matrix(0.781831, 0.62349, -0.62349, 0.781831, 49.693018, 49.693018)"/>
<path fill="none" stroke-width="1.136364" stroke-linecap="butt" stroke-linejoin="miter" stroke="rgb(0%, 0%, 0%)" stroke-opacity="1" stroke-miterlimit="10" d="M 22.387342 0.00133822 L 22.386515 -4.99928 L 22.388169 5.001956 Z M 22.387342 0.00133822 " transform="matrix(0.781831, 0.62349, -0.62349, 0.781831, 49.693018, 49.693018)"/>
<path fill="none" stroke-width="1.136364" stroke-linecap="butt" stroke-linejoin="miter" stroke="rgb(0%, 0%, 0%)" stroke-opacity="1" stroke-miterlimit="10" d="M 33.13756 0.00112347 L 11.389075 0.00148305 L 33.13756 0.00112347 M 33.385844 0.00169889 L 26.313304 -7.069696 L 33.385844 0.00169889 L 26.314449 7.074239 Z M 33.385844 0.00169889 " transform="matrix(0.974928, -0.222521, 0.222521, 0.974928, 49.693018, 49.693018)"/>
<path fill="none" stroke-width="1.136364" stroke-linecap="butt" stroke-linejoin="miter" stroke="rgb(0%, 0%, 0%)" stroke-opacity="1" stroke-miterlimit="10" d="M 33.386437 0.000929612 L 11.386718 -0.000796251 L 33.386437 0.000929612 L 26.317393 7.073128 Z M 33.386437 0.000929612 " transform="matrix(0.433884, -0.900969, 0.900969, 0.433884, 49.693018, 49.693018)"/>
<path fill="none" stroke-width="1.136364" stroke-linecap="butt" stroke-linejoin="miter" stroke="rgb(0%, 0%, 0%)" stroke-opacity="1" stroke-miterlimit="10" d="M 30.386617 0.00180818 L 23.317574 7.074007 Z M 30.386617 0.00180818 " transform="matrix(0.433884, -0.900969, 0.900969, 0.433884, 49.693018, 49.693018)"/>
<path fill="none" stroke-width="1.136364" stroke-linecap="butt" stroke-linejoin="miter" stroke="rgb(0%, 0%, 0%)" stroke-opacity="1" stroke-miterlimit="10" d="M 33.38614 -0.000314414 L 11.386422 0.00141145 L 33.38614 -0.000314414 L 26.313942 7.068729 Z M 33.38614 -0.000314414 " transform="matrix(-0.433884, -0.900969, 0.900969, -0.433884, 49.693018, 49.693018)"/>
<path fill="none" stroke-width="1.136364" stroke-linecap="butt" stroke-linejoin="miter" stroke="rgb(0%, 0%, 0%)" stroke-opacity="1" stroke-miterlimit="10" d="M 30.386321 -0.00119299 L 23.314123 7.067851 Z M 30.386321 -0.00119299 " transform="matrix(-0.433884, -0.900969, 0.900969, -0.433884, 49.693018, 49.693018)"/>
<path fill="none" stroke-width="1.136364" stroke-linecap="butt" stroke-linejoin="miter" stroke="rgb(0%, 0%, 0%)" stroke-opacity="1" stroke-miterlimit="10" d="M 11.384601 -0.000461889 L 26.313211 -0.00211921 " transform="matrix(-0.974928, -0.222521, 0.222521, -0.974928, 49.693018, 49.693018)"/>
<path fill="none" stroke-width="1.136364" stroke-linecap="butt" stroke-linejoin="miter" stroke="rgb(0%, 0%, 0%)" stroke-opacity="1" stroke-miterlimit="10" d="M 33.385179 -0.00154695 L 26.313783 -7.074087 L 26.312639 7.069848 Z M 33.385179 -0.00154695 " transform="matrix(-0.974928, -0.222521, 0.222521, -0.974928, 49.693018, 49.693018)"/>
<path fill="none" stroke-width="1.136364" stroke-linecap="butt" stroke-linejoin="miter" stroke="rgb(0%, 0%, 0%)" stroke-opacity="1" stroke-miterlimit="10" d="M 24.314641 0.00128349 L 24.315221 -4.999218 L 24.314062 5.001785 Z M 24.314641 0.00128349 " transform="matrix(-0.974928, -0.222521, 0.222521, -0.974928, 49.693018, 49.693018)"/>
<path fill="none" stroke-width="1.136364" stroke-linecap="butt" stroke-linejoin="miter" stroke="rgb(0%, 0%, 0%)" stroke-opacity="1" stroke-miterlimit="10" d="M 33.135974 0.00178707 L 11.385704 0.00361441 L 33.135974 0.00178707 M 33.386096 0.00140125 L 26.315636 -7.071035 L 33.386096 0.00140125 L 26.313659 7.071861 Z M 33.386096 0.00140125 " transform="matrix(-0.781831, 0.62349, -0.62349, -0.781831, 49.693018, 49.693018)"/>
</svg>
