<?xml version="1.0" encoding="UTF-8"?>
<svg xmlns="http://www.w3.org/2000/svg" xmlns:xlink="http://www.w3.org/1999/xlink" width="95" height="95" viewBox="0 0 95 95">
<path fill="none" stroke-width="1.136364" stroke-linecap="butt" stroke-linejoin="miter" stroke="rgb(0%, 0%, 0%)" stroke-opacity="1" stroke-miterlimit="10" d="M 7 0 C 7 3.867188 3.867188 7 0 7 C -3.867188 7 -7 3.867188 -7 0 C -7 -3.867188 -3.867188 -7 0 -7 C 3.867188 -7 7 -3.867188 7 0 " transform="matrix(1, 0, 0, 1, 47.5, 47.5)"/>
<path fill="none" stroke-width="1.136364" stroke-linecap="butt" stroke-linejoin="miter" stroke="rgb(0%, 0%, 0%)" stroke-opacity="1" stroke-miterlimit="10" d="M 7 0 L 2.109375 0 " transform="matrix(0.000000000000000061, 1, -1, 0.000000000000000061, 47.5, 47.5)"/>
<path fill="none" stroke-width="1.136364" stroke-linecap="butt" stroke-linejoin="miter" stroke="rgb(0%, 0%, 0%)" stroke-opacity="1" stroke-miterlimit="10" d="M 22 0.000000000000007105 L 7 0 L 22 0.000000000000007105 L 29.070312 -7.070312 L 22 0.000000000000007105 L 29.070312 7.070313 Z M 22 0.000000000000007105 " transform="matrix(0.000000000000000061, 1, -1, 0.000000000000000061, 47.5, 47.5)"/>
<path fill="none" stroke-width="1.136364" stroke-linecap="butt" stroke-linejoin="miter" stroke="rgb(0%, 0%, 0%)" stroke-opacity="1" stroke-miterlimit="10" d="M 21 0.000000000000007105 L 21 -5 L 21 5 Z M 21 0.000000000000007105 " transform="matrix(0.000000000000000061, 1, -1, 0.000000000000000061, 47.5, 47.5)"/>
<path fill="none" stroke-width="1.136364" stroke-linecap="butt" stroke-linejoin="miter" stroke="rgb(0%, 0%, 0%)" stroke-opacity="1" stroke-miterlimit="10" d="M 18 0.000000000000007105 L 18 -5 L 18 5 Z M 18 0.000000000000007105 " transform="matrix(0.000000000000000061, 1, -1, 0.000000000000000061, 47.5, 47.5)"/>
<path fill="none" stroke-width="1.136364" stroke-linecap="butt" stroke-linejoin="miter" stroke="rgb(0%, 0%, 0%)" stroke-opacity="1" stroke-miterlimit="10" d="M 21.997956 -0.00084087 L 6.999156 -0.000794713 L 21.997956 -0.00084087 L 29.068416 -7.073277 L 21.997956 -0.00084087 L 29.070392 7.069619 Z M 21.997956 -0.00084087 " transform="matrix(0.781831, 0.62349, -0.62349, 0.781831, 47.5, 47.5)"/>
<path fill="none" stroke-width="1.136364" stroke-linecap="butt" stroke-linejoin="miter" stroke="rgb(0%, 0%, 0%)" stroke-opacity="1" stroke-miterlimit="10" d="M 20.999904 0.000669891 L 20.999077 -4.999948 L 21.000732 5.001288 Z M 20.999904 0.000669891 " transform="matrix(0.781831, 0.62349, -0.62349, 0.781831, 47.5, 47.5)"/>
<path fill="none" stroke-width="1.136364" stroke-linecap="butt" stroke-linejoin="miter" stroke="rgb(0%, 0%, 0%)" stroke-opacity="1" stroke-miterlimit="10" d="M 18.000879 -0.000905887 L 18.000052 -5.001524 L 18.001706 4.999712 Z M 18.000879 -0.000905887 " transform="matrix(0.781831, 0.62349, -0.62349, 0.781831, 47.5, 47.5)"/>
<path fill="none" stroke-width="1.136364" stroke-linecap="butt" stroke-linejoin="miter" stroke="rgb(0%, 0%, 0%)" stroke-opacity="1" stroke-miterlimit="10" d="M 28.752234 -0.000475383 L 7.003749 -0.000115798 L 28.752234 -0.000475383 M 29.000519 0.000100035 L 21.927979 -7.071295 L 29.000519 0.000100035 L 21.929123 7.07264 Z M 29.000519 0.000100035 " transform="matrix(0.974928, -0.222521, 0.222521, 0.974928, 47.5, 47.5)"/>
<path fill="none" stroke-width="1.136364" stroke-linecap="butt" stroke-linejoin="miter" stroke="rgb(0%, 0%, 0%)" stroke-opacity="1" stroke-miterlimit="10" d="M 29.00047 -0.000889092 L 7.000752 -0.00261495 L 29.00047 -0.000889092 L 21.931426 7.071309 Z M 29.00047 -0.000889092 " transform="matrix(0.433884, -0.900969, 0.900969, 0.433884, 47.5, 47.5)"/>
<path fill="none" stroke-width="1.136364" stroke-linecap="butt" stroke-linejoin="miter" stroke="rgb(0%, 0%, 0%)" stroke-opacity="1" stroke-miterlimit="10" d="M 26.000651 -0.0000105195 L 18.931607 7.072188 Z M 26.000651 -0.0000105195 " transform="matrix(0.433884, -0.900969, 0.900969, 0.433884, 47.5, 47.5)"/>
<path fill="none" stroke-width="1.136364" stroke-linecap="butt" stroke-linejoin="miter" stroke="rgb(0%, 0%, 0%)" stroke-opacity="1" stroke-miterlimit="10" d="M 29.00047 0.000889092 L 7.000752 0.00261495 L 29.00047 0.000889092 L 21.928272 7.069933 Z M 29.00047 0.000889092 " transform="matrix(-0.433884, -0.900969, 0.900969, -0.433884, 47.5, 47.5)"/>
<path fill="none" stroke-width="1.136364" stroke-linecap="butt" stroke-linejoin="miter" stroke="rgb(0%, 0%, 0%)" stroke-opacity="1" stroke-miterlimit="10" d="M 26.000651 0.0000105195 L 18.928452 7.069054 Z M 26.000651 0.0000105195 " transform="matrix(-0.433884, -0.900969, 0.900969, -0.433884, 47.5, 47.5)"/>
<path fill="none" stroke-width="1.136364" stroke-linecap="butt" stroke-linejoin="miter" stroke="rgb(0%, 0%, 0%)" stroke-opacity="1" stroke-miterlimit="10" d="M 6.999941 0.000985021 L 21.928551 -0.000672302 " transform="matrix(-0.974928, -0.222521, 0.222521, -0.974928, 47.5, 47.5)"/>
<path fill="none" stroke-width="1.136364" stroke-linecap="butt" stroke-linejoin="miter" stroke="rgb(0%, 0%, 0%)" stroke-opacity="1" stroke-miterlimit="10" d="M 29.000519 -0.000100035 L 21.929123 -7.07264 L 21.927979 7.071295 Z M 29.000519 -0.000100035 " transform="matrix(-0.974928, -0.222521, 0.222521, -0.974928, 47.5, 47.5)"/>
<path fill="none" stroke-width="1.136364" stroke-linecap="butt" stroke-linejoin="miter" stroke="rgb(0%, 0%, 0%)" stroke-opacity="1" stroke-miterlimit="10" d="M 19.929112 -0.00107791 L 19.929692 -5.00158 L 19.928533 4.999424 Z M 19.929112 -0.00107791 " transform="matrix(-0.974928, -0.222521, 0.222521, -0.974928, 47.5, 47.5)"/>
<path fill="none" stroke-width="1.136364" stroke-linecap="butt" stroke-linejoin="miter" stroke="rgb(0%, 0%, 0%)" stroke-opacity="1" stroke-miterlimit="10" d="M 28.749426 -0.00103263 L 6.999156 0.000794713 L 28.749426 -0.00103263 M 28.999548 -0.00141845 L 21.929088 -7.073855 L 28.999548 -0.00141845 L 21.927111 7.069041 Z M 28.999548 -0.00141845 " transform="matrix(-0.781831, 0.62349, -0.62349, -0.781831, 47.5, 47.5)"/>
</svg>
