<?xml version="1.0" encoding="UTF-8"?>
<svg xmlns="http://www.w3.org/2000/svg" xmlns:xlink="http://www.w3.org/1999/xlink" width="99.386036" height="99.386036" viewBox="0 0 99.386036 99.386036">
<path fill="none" stroke-width="1.136364" stroke-linecap="butt" stroke-linejoin="miter" stroke="rgb(0%, 0%, 0%)" stroke-opacity="1" stroke-miterlimit="10" d="M 11.385107 -0.00161172 C 11.385107 6.287451 6.287451 11.385107 -0.00161172 11.385107 C -6.286768 11.385107 -11.384424 6.287451 -11.384424 -0.00161172 C -11.384424 -6.286768 -6.286768 -11.384424 -0.00161172 -11.384424 C 6.287451 -11.384424 11.385107 -6.286768 11.385107 -0.00161172 " transform="matrix(1, 0, 0, 1, 49.693018, 49.693018)"/>
<path fill="none" stroke-width="1.136364" stroke-linecap="butt" stroke-linejoin="miter" stroke="rgb(0%, 0%, 0%)" stroke-opacity="1" stroke-miterlimit="10" d="M 11.385107 0.00161172 L 3.795263 0.00161172 L 11.385107 0.00161172 " transform="matrix(0.000000000000000061, 1, -1, 0.000000000000000061, 49.693018, 49.693018)"/>
<path fill="none" stroke-width="1.136364" stroke-linecap="butt" stroke-linejoin="miter" stroke="rgb(0%, 0%, 0%)" stroke-opacity="1" stroke-miterlimit="10" d="M 11.385107 0.00161172 L 26.385107 0.00161172 L 11.385107 0.00161172 " transform="matrix(0.000000000000000061, 1, -1, 0.000000000000000061, 49.693018, 49.693018)"/>
<path fill="none" stroke-width="1.136364" stroke-linecap="butt" stroke-linejoin="miter" stroke="rgb(0%, 0%, 0%)" stroke-opacity="1" stroke-miterlimit="10" d="M 26.385107 0.00161172 L 33.45542 -7.068701 L 26.385107 0.00161172 L 33.45542 7.071924 L 26.385107 0.00161172 L 33.45542 7.071924 L 26.385107 0.00161172 L 33.45542 -7.068701 L 26.385107 0.00161172 " transform="matrix(0.000000000000000061, 1, -1, 0.000000000000000061, 49.693018, 49.693018)"/>
<path fill="none" stroke-width="1.136364" stroke-linecap="butt" stroke-linejoin="miter" stroke="rgb(0%, 0%, 0%)" stroke-opacity="1" stroke-miterlimit="10" d="M 11.385107 0.00161172 L 25.385107 0.00161172 L 11.385107 0.00161172 " transform="matrix(0.000000000000000061, 1, -1, 0.000000000000000061, 49.693018, 49.693018)"/>
<path fill="none" stroke-width="1.136364" stroke-linecap="butt" stroke-linejoin="miter" stroke="rgb(0%, 0%, 0%)" stroke-opacity="1" stroke-miterlimit="10" d="M 25.385107 0.00161172 L 25.385107 -4.998388 L 25.385107 5.001612 L 25.385107 0.00161172 L 25.385107 5.001612 L 25.385107 -4.998388 L 25.385107 0.00161172 " transform="matrix(0.000000000000000061, 1, -1, 0.000000000000000061, 49.693018, 49.693018)"/>
<path fill="none" stroke-width="1.136364" stroke-linecap="butt" stroke-linejoin="miter" stroke="rgb(0%, 0%, 0%)" stroke-opacity="1" stroke-miterlimit="10" d="M 11.385107 0.00161172 L 23.385107 0.00161172 L 11.385107 0.00161172 " transform="matrix(0.000000000000000061, 1, -1, 0.000000000000000061, 49.693018, 49.693018)"/>
<path fill="none" stroke-width="1.136364" stroke-linecap="butt" stroke-linejoin="miter" stroke="rgb(0%, 0%, 0%)" stroke-opacity="1" stroke-miterlimit="10" d="M 23.385107 0.00161172 L 23.385107 -4.998388 L 23.385107 5.001612 L 23.385107 0.00161172 L 23.385107 5.001612 L 23.385107 -4.998388 L 23.385107 0.00161172 " transform="matrix(0.000000000000000061, 1, -1, 0.000000000000000061, 49.693018, 49.693018)"/>
<path fill="none" stroke-width="1.136364" stroke-linecap="butt" stroke-linejoin="miter" stroke="rgb(0%, 0%, 0%)" stroke-opacity="1" stroke-miterlimit="10" d="M 11.385619 0.00144939 L 26.384419 0.00140324 L 11.385619 0.00144939 " transform="matrix(0.781831, 0.62349, -0.62349, 0.781831, 49.693018, 49.693018)"/>
<path fill="none" stroke-width="1.136364" stroke-linecap="butt" stroke-linejoin="miter" stroke="rgb(0%, 0%, 0%)" stroke-opacity="1" stroke-miterlimit="10" d="M 26.387473 -0.00103227 L 33.457933 -7.073469 L 26.387473 -0.00103227 L 33.459909 7.069428 L 26.387473 -0.00103227 L 33.459909 7.069428 L 26.387473 -0.00103227 L 33.457933 -7.073469 L 26.387473 -0.00103227 " transform="matrix(0.781831, 0.62349, -0.62349, 0.781831, 49.693018, 49.693018)"/>
<path fill="none" stroke-width="1.136364" stroke-linecap="butt" stroke-linejoin="miter" stroke="rgb(0%, 0%, 0%)" stroke-opacity="1" stroke-miterlimit="10" d="M 11.385619 0.00144939 L 25.386368 0.002914 L 11.385619 0.00144939 " transform="matrix(0.781831, 0.62349, -0.62349, 0.781831, 49.693018, 49.693018)"/>
<path fill="none" stroke-width="1.136364" stroke-linecap="butt" stroke-linejoin="miter" stroke="rgb(0%, 0%, 0%)" stroke-opacity="1" stroke-miterlimit="10" d="M 25.383932 -0.000140031 L 25.383105 -5.000758 L 25.384759 5.000478 L 25.383932 -0.000140031 L 25.384759 5.000478 L 25.383105 -5.000758 L 25.383932 -0.000140031 " transform="matrix(0.781831, 0.62349, -0.62349, 0.781831, 49.693018, 49.693018)"/>
<path fill="none" stroke-width="1.136364" stroke-linecap="butt" stroke-linejoin="miter" stroke="rgb(0%, 0%, 0%)" stroke-opacity="1" stroke-miterlimit="10" d="M 11.385619 0.00144939 L 23.385394 -0.000172539 L 11.385619 0.00144939 " transform="matrix(0.781831, 0.62349, -0.62349, 0.781831, 49.693018, 49.693018)"/>
<path fill="none" stroke-width="1.136364" stroke-linecap="butt" stroke-linejoin="miter" stroke="rgb(0%, 0%, 0%)" stroke-opacity="1" stroke-miterlimit="10" d="M 23.385394 -0.000172539 L 23.384566 -5.00079 L 23.386221 5.000445 L 23.385394 -0.000172539 L 23.386221 5.000445 L 23.384566 -5.00079 L 23.385394 -0.000172539 " transform="matrix(0.781831, 0.62349, -0.62349, 0.781831, 49.693018, 49.693018)"/>
<path fill="none" stroke-width="1.136364" stroke-linecap="butt" stroke-linejoin="miter" stroke="rgb(0%, 0%, 0%)" stroke-opacity="1" stroke-miterlimit="10" d="M 11.385267 0.000613831 L 33.385844 0.00169889 L 11.385267 0.000613831 " transform="matrix(0.974928, -0.222521, 0.222521, 0.974928, 49.693018, 49.693018)"/>
<path fill="none" stroke-width="1.136364" stroke-linecap="butt" stroke-linejoin="miter" stroke="rgb(0%, 0%, 0%)" stroke-opacity="1" stroke-miterlimit="10" d="M 33.385844 0.00169889 L 26.313304 -7.069696 L 33.385844 0.00169889 L 26.314449 7.074239 L 33.385844 0.00169889 L 26.314449 7.074239 L 33.385844 0.00169889 L 26.313304 -7.069696 L 33.385844 0.00169889 " transform="matrix(0.974928, -0.222521, 0.222521, 0.974928, 49.693018, 49.693018)"/>
<path fill="none" stroke-width="1.136364" stroke-linecap="butt" stroke-linejoin="miter" stroke="rgb(0%, 0%, 0%)" stroke-opacity="1" stroke-miterlimit="10" d="M 11.386718 -0.000796251 L 33.386437 0.000929612 L 26.317393 7.073128 L 33.386437 0.000929612 L 26.317393 7.073128 L 33.386437 0.000929612 L 11.386718 -0.000796251 " transform="matrix(0.433884, -0.900969, 0.900969, 0.433884, 49.693018, 49.693018)"/>
<path fill="none" stroke-width="1.136364" stroke-linecap="butt" stroke-linejoin="miter" stroke="rgb(0%, 0%, 0%)" stroke-opacity="1" stroke-miterlimit="10" d="M 11.386718 -0.000796251 L 30.384923 -0.00171123 L 23.315879 7.070487 L 30.384923 -0.00171123 L 23.315879 7.070487 L 30.384923 -0.00171123 L 11.386718 -0.000796251 " transform="matrix(0.433884, -0.900969, 0.900969, 0.433884, 49.693018, 49.693018)"/>
<path fill="none" stroke-width="1.136364" stroke-linecap="butt" stroke-linejoin="miter" stroke="rgb(0%, 0%, 0%)" stroke-opacity="1" stroke-miterlimit="10" d="M 11.386422 0.00141145 L 33.38614 -0.000314414 L 26.313942 7.068729 L 33.38614 -0.000314414 L 26.313942 7.068729 L 33.38614 -0.000314414 L 11.386422 0.00141145 " transform="matrix(-0.433884, -0.900969, 0.900969, -0.433884, 49.693018, 49.693018)"/>
<path fill="none" stroke-width="1.136364" stroke-linecap="butt" stroke-linejoin="miter" stroke="rgb(0%, 0%, 0%)" stroke-opacity="1" stroke-miterlimit="10" d="M 11.386422 0.00141145 L 30.384626 0.00232642 L 23.312428 7.07137 L 30.384626 0.00232642 L 23.312428 7.07137 L 30.384626 0.00232642 L 11.386422 0.00141145 " transform="matrix(-0.433884, -0.900969, 0.900969, -0.433884, 49.693018, 49.693018)"/>
<path fill="none" stroke-width="1.136364" stroke-linecap="butt" stroke-linejoin="miter" stroke="rgb(0%, 0%, 0%)" stroke-opacity="1" stroke-miterlimit="10" d="M 11.384601 -0.000461889 L 26.313211 -0.00211921 L 11.384601 -0.000461889 " transform="matrix(-0.974928, -0.222521, 0.222521, -0.974928, 49.693018, 49.693018)"/>
<path fill="none" stroke-width="1.136364" stroke-linecap="butt" stroke-linejoin="miter" stroke="rgb(0%, 0%, 0%)" stroke-opacity="1" stroke-miterlimit="10" d="M 33.385179 -0.00154695 L 26.313783 -7.074087 L 33.385179 -0.00154695 L 26.312639 7.069848 L 26.313783 -7.074087 L 33.385179 -0.00154695 L 26.313783 -7.074087 L 26.312639 7.069848 L 33.385179 -0.00154695 L 26.313783 -7.074087 L 33.385179 -0.00154695 " transform="matrix(-0.974928, -0.222521, 0.222521, -0.974928, 49.693018, 49.693018)"/>
<path fill="none" stroke-width="1.136364" stroke-linecap="butt" stroke-linejoin="miter" stroke="rgb(0%, 0%, 0%)" stroke-opacity="1" stroke-miterlimit="10" d="M 11.384601 -0.000461889 L 24.314641 0.00128349 L 11.384601 -0.000461889 " transform="matrix(-0.974928, -0.222521, 0.222521, -0.974928, 49.693018, 49.693018)"/>
<path fill="none" stroke-width="1.136364" stroke-linecap="butt" stroke-linejoin="miter" stroke="rgb(0%, 0%, 0%)" stroke-opacity="1" stroke-miterlimit="10" d="M 24.314641 0.00128349 L 24.315221 -4.999218 L 24.314062 5.001785 L 24.314641 0.00128349 L 24.314062 5.001785 L 24.315221 -4.999218 L 24.314641 0.00128349 " transform="matrix(-0.974928, -0.222521, 0.222521, -0.974928, 49.693018, 49.693018)"/>
<path fill="none" stroke-width="1.136364" stroke-linecap="butt" stroke-linejoin="miter" stroke="rgb(0%, 0%, 0%)" stroke-opacity="1" stroke-miterlimit="10" d="M 11.385086 -0.00187512 L 33.383041 -0.00103426 L 11.385086 -0.00187512 " transform="matrix(-0.781831, 0.62349, -0.62349, -0.781831, 49.693018, 49.693018)"/>
<path fill="none" stroke-width="1.136364" stroke-linecap="butt" stroke-linejoin="miter" stroke="rgb(0%, 0%, 0%)" stroke-opacity="1" stroke-miterlimit="10" d="M 33.386096 0.00140125 L 26.315636 -7.071035 L 33.386096 0.00140125 L 26.313659 7.071861 L 33.386096 0.00140125 L 26.313659 7.071861 L 33.386096 0.00140125 L 26.315636 -7.071035 L 33.386096 0.00140125 " transform="matrix(-0.781831, 0.62349, -0.62349, -0.781831, 49.693018, 49.693018)"/>
</svg>
