<?xml version="1.0" encoding="UTF-8"?>
<svg xmlns="http://www.w3.org/2000/svg" xmlns:xlink="http://www.w3.org/1999/xlink" width="298.158108" height="99.386036" viewBox="0 0 298.158108 99.386036">
<path fill="none" stroke-width="1.136364" stroke-linecap="butt" stroke-linejoin="miter" stroke="rgb(0%, 0%, 0%)" stroke-opacity="1" stroke-miterlimit="10" d="M 11.385107 -0.00161172 C 11.385107 6.287451 6.287451 11.385107 -0.00161172 11.385107 C -6.286768 11.385107 -11.384424 6.287451 -11.384424 -0.00161172 C -11.384424 -6.286768 -6.286768 -11.384424 -0.00161172 -11.384424 C 6.287451 -11.384424 11.385107 -6.286768 11.385107 -0.00161172 " transform="matrix(1, 0, 0, 1, 49.693018, 49.693018)"/>
<path fill="none" stroke-width="1.136364" stroke-linecap="butt" stroke-linejoin="miter" stroke="rgb(0%, 0%, 0%)" stroke-opacity="1" stroke-miterlimit="10" d="M 11.384424 -0.00161172 L 3.79458 -0.00161172 " transform="matrix(0.000000000000000061, -1, 1, 0.000000000000000061, 49.693018, 49.693018)"/>
<path fill="none" stroke-width="1.136364" stroke-linecap="butt" stroke-linejoin="miter" stroke="rgb(0%, 0%, 0%)" stroke-opacity="1" stroke-miterlimit="10" d="M 11.384424 -0.00161172 L 21.814112 -0.00161172 " transform="matrix(0.000000000000000061, -1, 1, 0.000000000000000061, 49.693018, 49.693018)"/>
<path fill="none" stroke-width="1.136364" stroke-linecap="butt" stroke-linejoin="miter" stroke="rgb(0%, 0%, 0%)" stroke-opacity="1" stroke-miterlimit="10" d="M 28.314112 -0.00161172 L 28.306299 0.314795 L 28.286768 0.631201 L 28.255518 0.943701 L 28.212549 1.252295 L 28.157862 1.556982 L 28.091455 1.853857 L 28.01333 2.14292 L 27.927393 2.42417 L 27.829737 2.697607 L 27.720362 2.959326 L 27.603174 3.209326 L 27.478174 3.447607 L 27.341455 3.670263 L 27.196924 3.877295 L 27.04458 4.068701 L 26.884424 4.244482 L 26.720362 4.404638 L 26.548487 4.545263 L 26.372705 4.666357 L 26.193018 4.771826 L 26.009424 4.857763 L 25.821924 4.92417 L 25.634424 4.971045 L 25.443018 4.994482 L 25.251612 4.998388 L 25.060205 4.982763 L 24.872705 4.947607 L 24.685205 4.89292 L 24.501612 4.818701 L 24.318018 4.724951 L 24.13833 4.61167 L 23.966455 4.478857 L 23.798487 4.33042 L 23.63833 4.162451 L 23.48208 3.978857 L 23.333643 3.779638 L 23.193018 3.564795 L 23.060205 3.334326 L 22.939112 3.092138 L 22.82583 2.838232 L 22.724268 2.572607 L 22.630518 2.295263 L 22.548487 2.010107 L 22.478174 1.717138 L 22.41958 1.416357 L 22.372705 1.107763 L 22.337549 0.795263 L 22.314112 0.478857 L 22.302393 0.162451 L 22.302393 -0.153955 L 22.314112 -0.470362 L 22.337549 -0.786768 L 22.372705 -1.099268 L 22.41958 -1.407862 L 22.478174 -1.708643 L 22.548487 -2.001612 L 22.630518 -2.286768 L 22.724268 -2.564112 L 22.82583 -2.829737 L 22.939112 -3.083643 L 23.060205 -3.32583 L 23.193018 -3.556299 L 23.333643 -3.771143 L 23.48208 -3.970362 L 23.63833 -4.153955 L 23.798487 -4.321924 L 23.966455 -4.470362 L 24.13833 -4.603174 L 24.318018 -4.716455 L 24.501612 -4.810205 L 24.685205 -4.884424 L 24.872705 -4.939112 L 25.060205 -4.974268 L 25.251612 -4.989893 L 25.443018 -4.985987 L 25.634424 -4.962549 L 25.821924 -4.915674 L 26.009424 -4.849268 L 26.193018 -4.76333 L 26.372705 -4.657862 L 26.548487 -4.536768 L 26.720362 -4.396143 L 26.884424 -4.235987 L 27.04458 -4.060205 L 27.196924 -3.868799 L 27.341455 -3.661768 L 27.478174 -3.439112 L 27.603174 -3.20083 L 27.720362 -2.95083 L 27.829737 -2.689112 L 27.927393 -2.415674 L 28.01333 -2.134424 L 28.091455 -1.845362 L 28.157862 -1.548487 L 28.212549 -1.243799 L 28.255518 -0.935205 L 28.286768 -0.622705 L 28.306299 -0.306299 L 28.314112 0.010107 " transform="matrix(0.000000000000000061, -1, 1, 0.000000000000000061, 49.693018, 49.693018)"/>
<path fill="none" stroke-width="1.136364" stroke-linecap="butt" stroke-linejoin="miter" stroke="rgb(0%, 0%, 0%)" stroke-opacity="1" stroke-miterlimit="10" d="M 20.314112 -0.00161172 L 20.314112 -5.001612 L 20.314112 4.998388 Z M 20.314112 -0.00161172 " transform="matrix(0.000000000000000061, -1, 1, 0.000000000000000061, 49.693018, 49.693018)"/>
<path fill="none" stroke-width="1.136364" stroke-linecap="butt" stroke-linejoin="miter" stroke="rgb(0%, 0%, 0%)" stroke-opacity="1" stroke-miterlimit="10" d="M 33.384424 -0.00161172 L 26.314112 -7.071924 L 33.384424 -0.00161172 L 26.314112 7.068701 Z M 33.384424 -0.00161172 " transform="matrix(0.000000000000000061, -1, 1, 0.000000000000000061, 49.693018, 49.693018)"/>
<path fill="none" stroke-width="1.136364" stroke-linecap="butt" stroke-linejoin="miter" stroke="rgb(0%, 0%, 0%)" stroke-opacity="1" stroke-miterlimit="10" d="M 11.387227 0.00169279 L 24.386303 0.00307048 " transform="matrix(0.951057, -0.309017, 0.309017, 0.951057, 49.693018, 49.693018)"/>
<path fill="none" stroke-width="1.136364" stroke-linecap="butt" stroke-linejoin="miter" stroke="rgb(0%, 0%, 0%)" stroke-opacity="1" stroke-miterlimit="10" d="M 10.08522 0.00169449 L 10.08058 0.0412593 L 10.068509 0.07841 L 10.039257 0.130515 L 10.01474 0.155407 L 9.982793 0.177885 L 9.968026 0.185409 L 9.931063 0.198042 L 9.896514 0.203246 L 9.875525 0.20464 L 9.83596 0.199999 L 9.798809 0.187929 L 9.764073 0.168427 L 9.747912 0.154962 L 9.735466 0.142703 L 9.701749 0.0947825 L 9.682798 0.0393379 L 9.680197 0.0220634 L 9.678802 0.00107389 L 9.683443 -0.038491 L 9.695514 -0.0756416 L 9.724765 -0.127746 L 9.749282 -0.152638 L 9.78123 -0.175116 L 9.795996 -0.18264 L 9.832959 -0.195274 L 9.867508 -0.200477 L 9.888498 -0.201872 L 9.928063 -0.197231 L 9.965213 -0.18516 L 9.99995 -0.165659 L 10.016111 -0.152193 L 10.028557 -0.139935 L 10.062274 -0.0920141 L 10.081224 -0.0365695 L 10.083826 -0.019295 L 10.08522 0.00169449 L 10.08058 0.0412593 L 10.068509 0.07841 L 10.039257 0.130515 L 10.01474 0.155407 L 9.982793 0.177885 L 9.968026 0.185409 L 9.931063 0.198042 L 9.896514 0.203246 L 9.875525 0.20464 L 9.83596 0.199999 L 9.798809 0.187929 L 9.764073 0.168427 L 9.747912 0.154962 L 9.735466 0.142703 L 9.701749 0.0947825 L 9.682798 0.0393379 L 9.680197 0.0220634 L 9.678802 0.00107389 " transform="matrix(0.951057, -0.309017, 0.309017, 0.951057, 49.693018, 49.693018)"/>
<path fill="none" stroke-width="1.136364" stroke-linecap="butt" stroke-linejoin="miter" stroke="rgb(0%, 0%, 0%)" stroke-opacity="1" stroke-miterlimit="10" d="M 11.38812 0.000084226 L 26.316425 0.00156794 " transform="matrix(0.587785, 0.809017, -0.809017, 0.587785, 49.693018, 49.693018)"/>
<path fill="none" stroke-width="1.136364" stroke-linecap="butt" stroke-linejoin="miter" stroke="rgb(0%, 0%, 0%)" stroke-opacity="1" stroke-miterlimit="10" d="M 33.385974 0.000487968 L 26.315345 -7.06798 L 26.315209 7.074277 Z M 33.385974 0.000487968 " transform="matrix(0.587785, 0.809017, -0.809017, 0.587785, 49.693018, 49.693018)"/>
<path fill="none" stroke-width="1.136364" stroke-linecap="butt" stroke-linejoin="miter" stroke="rgb(0%, 0%, 0%)" stroke-opacity="1" stroke-miterlimit="10" d="M 24.313826 -0.0000600462 L 24.316032 -5.00067 L 24.31162 5.00055 Z M 24.313826 -0.0000600462 " transform="matrix(0.587785, 0.809017, -0.809017, 0.587785, 49.693018, 49.693018)"/>
<path fill="none" stroke-width="1.136364" stroke-linecap="butt" stroke-linejoin="miter" stroke="rgb(0%, 0%, 0%)" stroke-opacity="1" stroke-miterlimit="10" d="M 33.133992 -0.00173496 L 11.382262 -0.00150082 L 33.133992 -0.00173496 M 33.385572 -0.00104038 L 26.317104 -7.071669 L 33.385572 -0.00104038 L 26.314944 7.067428 Z M 33.385572 -0.00104038 " transform="matrix(-0.587785, 0.809017, -0.809017, -0.587785, 49.693018, 49.693018)"/>
<path fill="none" stroke-width="1.136364" stroke-linecap="butt" stroke-linejoin="miter" stroke="rgb(0%, 0%, 0%)" stroke-opacity="1" stroke-miterlimit="10" d="M 26.386818 -0.0000207707 L 11.386578 -0.00148179 L 26.386818 -0.0000207707 L 33.458233 -7.070315 L 26.386818 -0.0000207707 L 33.457113 7.071394 Z M 26.386818 -0.0000207707 " transform="matrix(-0.951057, -0.309017, 0.309017, -0.951057, 49.693018, 49.693018)"/>
<path fill="none" stroke-width="1.136364" stroke-linecap="butt" stroke-linejoin="miter" stroke="rgb(0%, 0%, 0%)" stroke-opacity="1" stroke-miterlimit="10" d="M 25.384982 0.00102096 L 25.387109 -4.998223 L 25.382854 5.000265 Z M 25.384982 0.00102096 " transform="matrix(-0.951057, -0.309017, 0.309017, -0.951057, 49.693018, 49.693018)"/>
<path fill="none" stroke-width="1.136364" stroke-linecap="butt" stroke-linejoin="miter" stroke="rgb(0%, 0%, 0%)" stroke-opacity="1" stroke-miterlimit="10" d="M 22.386902 0.00173194 L 22.38903 -4.997512 L 22.384775 5.000976 Z M 22.386902 0.00173194 " transform="matrix(-0.951057, -0.309017, 0.309017, -0.951057, 49.693018, 49.693018)"/>
<path fill="none" stroke-width="1.136364" stroke-linecap="butt" stroke-linejoin="miter" stroke="rgb(0%, 0%, 0%)" stroke-opacity="1" stroke-miterlimit="10" d="M 11.38579 -0.00161172 C 11.38579 6.287451 6.288134 11.385107 -0.000928898 11.385107 C -6.289991 11.385107 -11.387648 6.287451 -11.387648 -0.00161172 C -11.387648 -6.286768 -6.289991 -11.384424 -0.000928898 -11.384424 C 6.288134 -11.384424 11.38579 -6.286768 11.38579 -0.00161172 " transform="matrix(1, 0, 0, 1, 149.079054, 49.693018)"/>
<path fill="none" stroke-width="1.136364" stroke-linecap="butt" stroke-linejoin="miter" stroke="rgb(0%, 0%, 0%)" stroke-opacity="1" stroke-miterlimit="10" d="M 11.384424 -0.000928898 L 3.79458 -0.000928898 " transform="matrix(0.000000000000000061, -1, 1, 0.000000000000000061, 149.079054, 49.693018)"/>
<path fill="none" stroke-width="1.136364" stroke-linecap="butt" stroke-linejoin="miter" stroke="rgb(0%, 0%, 0%)" stroke-opacity="1" stroke-miterlimit="10" d="M 11.384424 -0.000928898 L 27.384424 -0.000928898 " transform="matrix(0.000000000000000061, -1, 1, 0.000000000000000061, 149.079054, 49.693018)"/>
<path fill="none" stroke-width="1.136364" stroke-linecap="butt" stroke-linejoin="miter" stroke="rgb(0%, 0%, 0%)" stroke-opacity="1" stroke-miterlimit="10" d="M 27.384424 2.999071 L 27.384424 -3.000929 L 33.384424 -3.000929 L 33.384424 2.999071 L 33.384424 -3.000929 L 27.384424 -3.000929 Z M 27.384424 2.999071 " transform="matrix(0.000000000000000061, -1, 1, 0.000000000000000061, 149.079054, 49.693018)"/>
<path fill="none" stroke-width="1.136364" stroke-linecap="butt" stroke-linejoin="miter" stroke="rgb(0%, 0%, 0%)" stroke-opacity="1" stroke-miterlimit="10" d="M 25.884424 -0.000928898 L 25.884424 -5.000929 L 25.884424 4.999071 Z M 25.884424 -0.000928898 " transform="matrix(0.000000000000000061, -1, 1, 0.000000000000000061, 149.079054, 49.693018)"/>
<path fill="none" stroke-width="1.136364" stroke-linecap="butt" stroke-linejoin="miter" stroke="rgb(0%, 0%, 0%)" stroke-opacity="1" stroke-miterlimit="10" d="M 33.136558 -0.000140263 L 11.387876 0.0019038 L 33.136558 -0.000140263 M 33.387319 -0.000808598 L 26.315904 -7.071103 L 33.387319 -0.000808598 L 26.317024 7.070606 Z M 33.387319 -0.000808598 " transform="matrix(0.951057, -0.309017, 0.309017, 0.951057, 149.079054, 49.693018)"/>
<path fill="none" stroke-width="1.136364" stroke-linecap="butt" stroke-linejoin="miter" stroke="rgb(0%, 0%, 0%)" stroke-opacity="1" stroke-miterlimit="10" d="M 11.388521 -0.000468185 L 26.316827 0.00101553 " transform="matrix(0.587785, 0.809017, -0.809017, 0.587785, 149.079054, 49.693018)"/>
<path fill="none" stroke-width="1.136364" stroke-linecap="butt" stroke-linejoin="miter" stroke="rgb(0%, 0%, 0%)" stroke-opacity="1" stroke-miterlimit="10" d="M 33.386375 -0.000064443 L 26.315747 -7.068533 L 26.315611 7.073724 Z M 33.386375 -0.000064443 " transform="matrix(0.587785, 0.809017, -0.809017, 0.587785, 149.079054, 49.693018)"/>
<path fill="none" stroke-width="1.136364" stroke-linecap="butt" stroke-linejoin="miter" stroke="rgb(0%, 0%, 0%)" stroke-opacity="1" stroke-miterlimit="10" d="M 11.387317 -0.00118905 L 24.385683 -0.00072287 " transform="matrix(-0.587785, 0.809017, -0.809017, -0.587785, 149.079054, 49.693018)"/>
<path fill="none" stroke-width="1.136364" stroke-linecap="butt" stroke-linejoin="miter" stroke="rgb(0%, 0%, 0%)" stroke-opacity="1" stroke-miterlimit="10" d="M 10.084034 -0.000662927 L 10.083737 0.0188661 L 10.081145 0.0352348 L 10.069639 0.0725645 L 10.053542 0.103574 L 10.042333 0.121374 L 10.015323 0.150655 L 9.98372 0.173615 L 9.947526 0.190255 L 9.927133 0.195415 L 9.892667 0.201142 L 9.853609 0.200549 L 9.797614 0.183291 L 9.78211 0.175242 L 9.764309 0.164033 L 9.735028 0.137023 L 9.712068 0.105421 L 9.687108 0.0511294 L 9.681948 0.0307362 L 9.679085 0.0135033 L 9.679678 -0.0255547 L 9.68227 -0.0419235 L 9.693776 -0.0792531 L 9.709874 -0.110262 L 9.721083 -0.128063 L 9.748093 -0.157344 L 9.779695 -0.180304 L 9.815889 -0.196944 L 9.836282 -0.202104 L 9.870748 -0.207831 L 9.909806 -0.207238 L 9.965801 -0.18998 L 9.981305 -0.181931 L 9.999106 -0.170722 L 10.028387 -0.143712 L 10.051347 -0.11211 L 10.076307 -0.0578181 L 10.081467 -0.0374249 L 10.084331 -0.0201919 L 10.083737 0.0188661 L 10.081145 0.0352348 L 10.069639 0.0725645 L 10.053542 0.103574 L 10.042333 0.121374 L 10.015323 0.150655 L 9.98372 0.173615 L 9.947526 0.190255 L 9.927133 0.195415 L 9.892667 0.201142 L 9.853609 0.200549 L 9.797614 0.183291 L 9.78211 0.175242 L 9.764309 0.164033 L 9.735028 0.137023 L 9.712068 0.105421 L 9.687108 0.0511294 L 9.681948 0.0307362 L 9.679085 0.0135033 L 9.679381 -0.00602573 " transform="matrix(-0.587785, 0.809017, -0.809017, -0.587785, 149.079054, 49.693018)"/>
<path fill="none" stroke-width="1.136364" stroke-linecap="butt" stroke-linejoin="miter" stroke="rgb(0%, 0%, 0%)" stroke-opacity="1" stroke-miterlimit="10" d="M 33.13461 0.00077327 L 11.385928 -0.00127079 L 33.13461 0.00077327 M 33.385371 0.00144161 L 26.315076 -7.069973 L 33.385371 0.00144161 L 26.313956 7.071736 Z M 33.385371 0.00144161 " transform="matrix(-0.951057, -0.309017, 0.309017, -0.951057, 149.079054, 49.693018)"/>
<path fill="none" stroke-width="1.136364" stroke-linecap="butt" stroke-linejoin="miter" stroke="rgb(0%, 0%, 0%)" stroke-opacity="1" stroke-miterlimit="10" d="M 11.386473 -0.00161172 C 11.386473 6.287451 6.288816 11.385107 -0.00024608 11.385107 C -6.289309 11.385107 -11.386965 6.287451 -11.386965 -0.00161172 C -11.386965 -6.286768 -6.289309 -11.384424 -0.00024608 -11.384424 C 6.288816 -11.384424 11.386473 -6.286768 11.386473 -0.00161172 " transform="matrix(1, 0, 0, 1, 248.46509, 49.693018)"/>
<path fill="none" stroke-width="1.136364" stroke-linecap="butt" stroke-linejoin="miter" stroke="rgb(0%, 0%, 0%)" stroke-opacity="1" stroke-miterlimit="10" d="M 11.384424 -0.00024608 L 3.79458 -0.00024608 " transform="matrix(0.000000000000000061, -1, 1, 0.000000000000000061, 248.46509, 49.693018)"/>
<path fill="none" stroke-width="1.136364" stroke-linecap="butt" stroke-linejoin="miter" stroke="rgb(0%, 0%, 0%)" stroke-opacity="1" stroke-miterlimit="10" d="M 11.384424 -0.00024608 L 27.384424 -0.00024608 " transform="matrix(0.000000000000000061, -1, 1, 0.000000000000000061, 248.46509, 49.693018)"/>
<path fill="none" stroke-width="1.136364" stroke-linecap="butt" stroke-linejoin="miter" stroke="rgb(0%, 0%, 0%)" stroke-opacity="1" stroke-miterlimit="10" d="M 33.384424 4.999754 L 33.193018 4.995848 L 33.001612 4.988035 L 32.810205 4.976316 L 32.622705 4.956785 L 32.435205 4.933348 L 32.247705 4.906004 L 32.060205 4.874754 L 31.876612 4.835691 L 31.693018 4.792723 L 31.509424 4.745848 L 31.329737 4.695066 L 31.150049 4.640379 L 30.974268 4.577879 L 30.802393 4.511473 L 30.630518 4.44116 L 30.462549 4.366941 L 30.298487 4.288816 L 30.13833 4.206785 L 29.978174 4.120848 L 29.821924 4.027098 L 29.66958 3.929441 L 29.521143 3.827879 L 29.376612 3.72241 L 29.235987 3.613035 L 29.099268 3.50366 L 28.966455 3.390379 L 28.841455 3.273191 L 28.720362 3.152098 L 28.603174 3.027098 L 28.489893 2.898191 L 28.380518 2.769285 L 28.278955 2.636473 L 28.181299 2.499754 L 28.087549 2.363035 L 28.001612 2.22241 L 27.91958 2.077879 L 27.841455 1.933348 L 27.771143 1.78491 L 27.704737 1.636473 L 27.646143 1.484129 L 27.591455 1.331785 L 27.54458 1.179441 L 27.501612 1.023191 L 27.466455 0.866941 L 27.435205 0.710691 L 27.411768 0.554441 L 27.392237 0.398191 L 27.380518 0.238035 L 27.372705 0.0778789 L 27.372705 -0.0822773 L 27.380518 -0.242434 L 27.392237 -0.40259 L 27.411768 -0.55884 L 27.435205 -0.71509 L 27.466455 -0.87134 L 27.501612 -1.02759 L 27.54458 -1.18384 L 27.591455 -1.336184 L 27.646143 -1.488527 L 27.704737 -1.640871 L 27.771143 -1.789309 L 27.841455 -1.937746 L 27.91958 -2.082277 L 28.001612 -2.226809 L 28.087549 -2.367434 L 28.181299 -2.504152 L 28.278955 -2.640871 L 28.380518 -2.773684 L 28.489893 -2.90259 L 28.603174 -3.031496 L 28.720362 -3.156496 L 28.841455 -3.27759 L 28.966455 -3.394777 L 29.099268 -3.508059 L 29.235987 -3.617434 L 29.376612 -3.726809 L 29.521143 -3.832277 L 29.66958 -3.93384 L 29.821924 -4.031496 L 29.978174 -4.125246 L 30.13833 -4.211184 L 30.298487 -4.293215 L 30.462549 -4.37134 L 30.630518 -4.445559 L 30.802393 -4.515871 L 30.974268 -4.582277 L 31.150049 -4.644777 L 31.329737 -4.699465 L 31.509424 -4.750246 L 31.693018 -4.797121 L 31.876612 -4.84009 L 32.060205 -4.879152 L 32.247705 -4.910402 L 32.435205 -4.937746 L 32.622705 -4.961184 L 32.810205 -4.980715 L 33.001612 -4.992434 L 33.193018 -5.000246 L 33.384424 -5.004152 " transform="matrix(0.000000000000000061, -1, 1, 0.000000000000000061, 248.46509, 49.693018)"/>
<path fill="none" stroke-width="1.136364" stroke-linecap="butt" stroke-linejoin="miter" stroke="rgb(0%, 0%, 0%)" stroke-opacity="1" stroke-miterlimit="10" d="M 25.884424 -0.00024608 L 25.884424 -5.000246 L 25.884424 4.999754 Z M 25.884424 -0.00024608 " transform="matrix(0.000000000000000061, -1, 1, 0.000000000000000061, 248.46509, 49.693018)"/>
<path fill="none" stroke-width="1.136364" stroke-linecap="butt" stroke-linejoin="miter" stroke="rgb(0%, 0%, 0%)" stroke-opacity="1" stroke-miterlimit="10" d="M 11.386261 -0.0000640857 L 26.315514 -0.000520706 " transform="matrix(0.781831, -0.62349, 0.62349, 0.781831, 248.46509, 49.693018)"/>
<path fill="none" stroke-width="1.136364" stroke-linecap="butt" stroke-linejoin="miter" stroke="rgb(0%, 0%, 0%)" stroke-opacity="1" stroke-miterlimit="10" d="M 33.384217 0.000776784 L 26.313757 -7.07166 L 26.311781 7.071237 Z M 33.384217 0.000776784 " transform="matrix(0.781831, -0.62349, 0.62349, 0.781831, 248.46509, 49.693018)"/>
<path fill="none" stroke-width="1.136364" stroke-linecap="butt" stroke-linejoin="miter" stroke="rgb(0%, 0%, 0%)" stroke-opacity="1" stroke-miterlimit="10" d="M 33.139043 -0.000761653 L 11.390558 -0.00112124 L 33.139043 -0.000761653 M 33.387328 -0.00133707 L 26.315932 -7.073877 L 33.387328 -0.00133707 L 26.314788 7.070058 Z M 33.387328 -0.00133707 " transform="matrix(0.974928, 0.222521, -0.222521, 0.974928, 248.46509, 49.693018)"/>
<path fill="none" stroke-width="1.136364" stroke-linecap="butt" stroke-linejoin="miter" stroke="rgb(0%, 0%, 0%)" stroke-opacity="1" stroke-miterlimit="10" d="M 33.134368 0.00189735 L 11.382712 0.00168667 L 33.134368 0.00189735 M 33.38595 0.00165567 L 26.316906 -7.070543 L 33.38595 0.00165567 L 26.313751 7.070699 Z M 33.38595 0.00165567 " transform="matrix(0.433884, 0.900969, -0.900969, 0.433884, 248.46509, 49.693018)"/>
<path fill="none" stroke-width="1.136364" stroke-linecap="butt" stroke-linejoin="miter" stroke="rgb(0%, 0%, 0%)" stroke-opacity="1" stroke-miterlimit="10" d="M 33.386163 -0.00121225 L 11.386445 -0.00293811 L 33.386163 -0.00121225 L 26.31712 7.070986 Z M 33.386163 -0.00121225 " transform="matrix(-0.433884, 0.900969, -0.900969, -0.433884, 248.46509, 49.693018)"/>
<path fill="none" stroke-width="1.136364" stroke-linecap="butt" stroke-linejoin="miter" stroke="rgb(0%, 0%, 0%)" stroke-opacity="1" stroke-miterlimit="10" d="M 30.386344 -0.000333673 L 23.3173 7.071865 Z M 30.386344 -0.000333673 " transform="matrix(-0.433884, 0.900969, -0.900969, -0.433884, 248.46509, 49.693018)"/>
<path fill="none" stroke-width="1.136364" stroke-linecap="butt" stroke-linejoin="miter" stroke="rgb(0%, 0%, 0%)" stroke-opacity="1" stroke-miterlimit="10" d="M 11.38723 0.000361531 L 33.387807 0.00144659 " transform="matrix(-0.974928, 0.222521, -0.222521, -0.974928, 248.46509, 49.693018)"/>
<path fill="none" stroke-width="1.136364" stroke-linecap="butt" stroke-linejoin="miter" stroke="rgb(0%, 0%, 0%)" stroke-opacity="1" stroke-miterlimit="10" d="M 11.386646 -0.000242771 L 22.313332 -0.00046969 " transform="matrix(-0.781831, -0.62349, 0.62349, -0.781831, 248.46509, 49.693018)"/>
<path fill="none" stroke-width="1.136364" stroke-linecap="butt" stroke-linejoin="miter" stroke="rgb(0%, 0%, 0%)" stroke-opacity="1" stroke-miterlimit="10" d="M 28.814681 0.00101799 L 28.809308 0.320068 L 28.790521 0.634827 L 28.760755 0.948349 L 28.717574 1.25758 L 28.664033 1.560085 L 28.597077 1.858298 L 28.51976 2.149785 L 28.435137 2.43211 L 28.337718 2.704654 L 28.230557 2.964982 L 28.113654 3.213094 L 27.987009 3.448989 L 27.850622 3.672669 L 27.707546 3.881697 L 27.555348 4.073019 L 27.396461 4.24969 L 27.231505 4.40622 L 27.059861 4.548097 L 26.884583 4.672888 L 26.703235 4.777538 L 26.521307 4.862665 L 26.33331 4.927651 L 26.144733 4.973114 L 25.955576 4.999055 L 25.76584 5.005472 L 25.575523 4.992368 L 25.38768 4.957305 L 25.199258 4.902719 L 25.013309 4.826176 L 24.83227 4.730728 L 24.653087 4.618812 L 24.478813 4.487991 L 24.309449 4.338267 L 24.14743 4.172692 L 23.99032 3.988213 L 23.840556 3.787884 L 23.700572 3.574759 L 23.567933 3.345784 L 23.445075 3.104013 L 23.331998 2.849446 L 23.228701 2.582083 L 23.13762 2.304978 L 23.055701 2.020566 L 22.985999 1.726412 L 22.925459 1.424952 L 22.876516 1.119239 L 22.842224 0.806838 L 22.816477 0.49262 L 22.804762 0.177204 L 22.804645 -0.142465 L 22.817943 -0.457842 L 22.84222 -0.771983 L 22.877475 -1.084886 L 22.926146 -1.393499 L 22.985177 -1.695385 L 23.054568 -1.990544 L 23.136756 -2.275923 L 23.229304 -2.554575 L 23.331594 -2.821011 L 23.443626 -3.075231 L 23.5654 -3.317235 L 23.696916 -3.547022 L 23.83512 -3.762158 L 23.985502 -3.962024 L 24.139518 -4.144803 L 24.300221 -4.31293 L 24.470048 -4.463352 L 24.64351 -4.596686 L 24.82304 -4.709879 L 25.003151 -4.80355 L 25.189331 -4.877079 L 25.376091 -4.931086 L 25.563431 -4.96557 L 25.751351 -4.980532 L 25.93985 -4.975971 L 26.12893 -4.951887 L 26.31859 -4.90828 L 26.505775 -4.842716 L 26.688051 -4.758247 L 26.865418 -4.654874 L 27.043364 -4.531979 L 27.213965 -4.393233 L 27.379657 -4.235584 L 27.538004 -4.062084 L 27.69144 -3.86968 L 27.837532 -3.661426 L 27.973844 -3.440376 L 28.10281 -3.203476 L 28.221995 -2.95378 L 28.3314 -2.691288 L 28.428589 -2.419054 L 28.513562 -2.137077 L 28.589372 -1.847795 L 28.652967 -1.54877 L 28.704964 -1.245493 L 28.747798 -0.934909 L 28.779035 -0.620072 L 28.79624 -0.304038 L 28.802465 0.01076 " transform="matrix(-0.781831, -0.62349, 0.62349, -0.781831, 248.46509, 49.693018)"/>
<path fill="none" stroke-width="1.136364" stroke-linecap="butt" stroke-linejoin="miter" stroke="rgb(0%, 0%, 0%)" stroke-opacity="1" stroke-miterlimit="10" d="M 21.315281 0.00104107 L 16.365592 4.952539 " transform="matrix(-0.781831, -0.62349, 0.62349, -0.781831, 248.46509, 49.693018)"/>
<path fill="none" stroke-width="1.136364" stroke-linecap="butt" stroke-linejoin="miter" stroke="rgb(0%, 0%, 0%)" stroke-opacity="1" stroke-miterlimit="10" d="M 33.384602 -0.00108364 L 26.312166 -7.071543 L 33.384602 -0.00108364 L 26.314142 7.071353 Z M 33.384602 -0.00108364 " transform="matrix(-0.781831, -0.62349, 0.62349, -0.781831, 248.46509, 49.693018)"/>
<path fill="none" stroke-width="1.136364" stroke-linecap="butt" stroke-linejoin="miter" stroke="rgb(0%, 0%, 0%)" stroke-opacity="1" stroke-miterlimit="10" d="M 18.316256 -0.000534707 L 13.366566 4.950963 " transform="matrix(-0.781831, -0.62349, 0.62349, -0.781831, 248.46509, 49.693018)"/>
</svg>
