<?xml version="1.0" encoding="UTF-8"?>
<svg xmlns="http://www.w3.org/2000/svg" xmlns:xlink="http://www.w3.org/1999/xlink" width="298.158108" height="99.386036" viewBox="0 0 298.158108 99.386036">
<path fill="none" stroke-width="1.136364" stroke-linecap="butt" stroke-linejoin="miter" stroke="rgb(0%, 0%, 0%)" stroke-opacity="1" stroke-miterlimit="10" d="M 11.385107 -0.00161172 C 11.385107 6.287451 6.287451 11.385107 -0.00161172 11.385107 C -6.286768 11.385107 -11.384424 6.287451 -11.384424 -0.00161172 C -11.384424 -6.286768 -6.286768 -11.384424 -0.00161172 -11.384424 C 6.287451 -11.384424 11.385107 -6.286768 11.385107 -0.00161172 " transform="matrix(1, 0, 0, 1, 49.693018, 49.693018)"/>
<path fill="none" stroke-width="1.136364" stroke-linecap="butt" stroke-linejoin="miter" stroke="rgb(0%, 0%, 0%)" stroke-opacity="1" stroke-miterlimit="10" d="M 11.384424 -0.00161172 L 3.79458 -0.00161172 L 11.384424 -0.00161172 " transform="matrix(0.000000000000000061, -1, 1, 0.000000000000000061, 49.693018, 49.693018)"/>
<path fill="none" stroke-width="1.136364" stroke-linecap="butt" stroke-linejoin="miter" stroke="rgb(0%, 0%, 0%)" stroke-opacity="1" stroke-miterlimit="10" d="M 11.384424 -0.00161172 L 22.314112 -0.00161172 L 11.384424 -0.00161172 " transform="matrix(0.000000000000000061, -1, 1, 0.000000000000000061, 49.693018, 49.693018)"/>
<path fill="none" stroke-width="1.136364" stroke-linecap="butt" stroke-linejoin="miter" stroke="rgb(0%, 0%, 0%)" stroke-opacity="1" stroke-miterlimit="10" d="M 28.314112 -0.00161172 L 28.306299 0.33042 L 28.286768 0.662451 L 28.255518 0.990576 L 28.208643 1.314795 L 28.150049 1.631201 L 28.079737 1.943701 L 27.997705 2.244482 L 27.900049 2.537451 L 27.79458 2.818701 L 27.677393 3.088232 L 27.548487 3.342138 L 27.411768 3.58042 L 27.26333 3.803076 L 27.10708 4.010107 L 26.943018 4.197607 L 26.771143 4.369482 L 26.591455 4.521826 L 26.407862 4.654638 L 26.220362 4.764013 L 26.028955 4.853857 L 25.833643 4.920263 L 25.634424 4.967138 L 25.435205 4.990576 L 25.235987 4.990576 L 25.036768 4.971045 L 24.837549 4.928076 L 24.642237 4.86167 L 24.45083 4.775732 L 24.26333 4.666357 L 24.079737 4.537451 L 23.900049 4.389013 L 23.728174 4.221045 L 23.564112 4.033545 L 23.407862 3.83042 L 23.259424 3.607763 L 23.118799 3.369482 L 22.989893 3.115576 L 22.868799 2.849951 L 22.759424 2.568701 L 22.661768 2.279638 L 22.57583 1.978857 L 22.501612 1.670263 L 22.439112 1.353857 L 22.392237 1.029638 L 22.35708 0.701513 L 22.333643 0.369482 L 22.32583 0.0374508 L 22.329737 -0.29458 L 22.349268 -0.626612 L 22.380518 -0.954737 L 22.423487 -1.278955 L 22.48208 -1.599268 L 22.552393 -1.911768 L 22.634424 -2.216455 L 22.728174 -2.509424 L 22.833643 -2.790674 L 22.95083 -3.060205 L 23.079737 -3.318018 L 23.216455 -3.560205 L 23.364893 -3.786768 L 23.521143 -3.997705 L 23.685205 -4.189112 L 23.85708 -4.360987 L 24.032862 -4.51333 L 24.216455 -4.646143 L 24.403955 -4.759424 L 24.595362 -4.853174 L 24.790674 -4.923487 L 24.989893 -4.974268 L 25.189112 -5.001612 L 25.38833 -5.005518 L 25.587549 -4.989893 L 25.786768 -4.95083 L 25.98208 -4.88833 L 26.177393 -4.806299 L 26.368799 -4.70083 L 26.552393 -4.57583 L 26.73208 -4.431299 L 26.903955 -4.267237 L 27.071924 -4.083643 L 27.23208 -3.880518 L 27.384424 -3.661768 L 27.525049 -3.427393 L 27.657862 -3.177393 L 27.778955 -2.911768 L 27.88833 -2.634424 L 27.985987 -2.345362 L 28.071924 -2.04458 L 28.146143 -1.735987 L 28.208643 -1.41958 L 28.259424 -1.095362 L 28.29458 -0.767237 L 28.318018 -0.435205 L 28.329737 -0.103174 L 28.32583 0.228857 L 28.310205 0.560888 L 28.278955 0.889013 L 28.235987 1.213232 L 28.181299 1.533545 L 28.235987 1.213232 L 28.278955 0.889013 L 28.310205 0.560888 L 28.32583 0.228857 L 28.329737 -0.103174 L 28.318018 -0.435205 L 28.29458 -0.767237 L 28.259424 -1.095362 L 28.208643 -1.41958 L 28.146143 -1.735987 L 28.071924 -2.04458 L 27.985987 -2.345362 L 27.88833 -2.634424 L 27.778955 -2.911768 L 27.657862 -3.177393 L 27.525049 -3.427393 L 27.384424 -3.661768 L 27.23208 -3.880518 L 27.071924 -4.083643 L 26.903955 -4.267237 L 26.73208 -4.431299 L 26.552393 -4.57583 L 26.368799 -4.70083 L 26.177393 -4.806299 L 25.98208 -4.88833 L 25.786768 -4.95083 L 25.587549 -4.989893 L 25.38833 -5.005518 L 25.189112 -5.001612 L 24.989893 -4.974268 L 24.790674 -4.923487 L 24.595362 -4.853174 L 24.403955 -4.759424 L 24.216455 -4.646143 L 24.032862 -4.51333 L 23.85708 -4.360987 L 23.685205 -4.189112 L 23.521143 -3.997705 L 23.364893 -3.786768 L 23.216455 -3.560205 L 23.079737 -3.318018 L 22.95083 -3.060205 L 22.833643 -2.790674 L 22.728174 -2.509424 L 22.634424 -2.216455 L 22.552393 -1.911768 L 22.48208 -1.599268 L 22.423487 -1.278955 L 22.380518 -0.954737 L 22.349268 -0.626612 L 22.329737 -0.29458 L 22.32583 0.0374508 L 22.333643 0.369482 L 22.35708 0.701513 L 22.392237 1.029638 L 22.439112 1.353857 L 22.501612 1.670263 L 22.57583 1.978857 L 22.661768 2.279638 L 22.759424 2.568701 L 22.868799 2.849951 L 22.989893 3.115576 L 23.118799 3.369482 L 23.259424 3.607763 L 23.407862 3.83042 L 23.564112 4.033545 L 23.728174 4.221045 L 23.900049 4.389013 L 24.079737 4.537451 L 24.26333 4.666357 L 24.45083 4.775732 L 24.642237 4.86167 L 24.837549 4.928076 L 25.036768 4.971045 L 25.235987 4.990576 L 25.435205 4.990576 L 25.634424 4.967138 L 25.833643 4.920263 L 26.028955 4.853857 L 26.220362 4.764013 L 26.407862 4.654638 L 26.591455 4.521826 L 26.771143 4.369482 L 26.943018 4.197607 L 27.10708 4.010107 L 27.26333 3.803076 L 27.411768 3.58042 L 27.548487 3.342138 L 27.677393 3.088232 L 27.79458 2.818701 L 27.900049 2.537451 L 27.997705 2.244482 L 28.079737 1.943701 L 28.150049 1.631201 L 28.208643 1.314795 L 28.255518 0.990576 L 28.286768 0.662451 L 28.306299 0.33042 L 28.314112 -0.00161172 " transform="matrix(0.000000000000000061, -1, 1, 0.000000000000000061, 49.693018, 49.693018)"/>
<path fill="none" stroke-width="1.136364" stroke-linecap="butt" stroke-linejoin="miter" stroke="rgb(0%, 0%, 0%)" stroke-opacity="1" stroke-miterlimit="10" d="M 11.384424 -0.00161172 L 20.314112 -0.00161172 L 11.384424 -0.00161172 " transform="matrix(0.000000000000000061, -1, 1, 0.000000000000000061, 49.693018, 49.693018)"/>
<path fill="none" stroke-width="1.136364" stroke-linecap="butt" stroke-linejoin="miter" stroke="rgb(0%, 0%, 0%)" stroke-opacity="1" stroke-miterlimit="10" d="M 20.314112 -0.00161172 L 20.314112 -5.001612 L 20.314112 4.998388 L 20.314112 -0.00161172 L 20.314112 4.998388 L 20.314112 -5.001612 L 20.314112 -0.00161172 " transform="matrix(0.000000000000000061, -1, 1, 0.000000000000000061, 49.693018, 49.693018)"/>
<path fill="none" stroke-width="1.136364" stroke-linecap="butt" stroke-linejoin="miter" stroke="rgb(0%, 0%, 0%)" stroke-opacity="1" stroke-miterlimit="10" d="M 33.384424 -0.00161172 L 26.314112 -7.071924 L 33.384424 -0.00161172 L 26.314112 7.068701 L 33.384424 -0.00161172 L 26.314112 7.068701 L 33.384424 -0.00161172 L 26.314112 -7.071924 L 33.384424 -0.00161172 " transform="matrix(0.000000000000000061, -1, 1, 0.000000000000000061, 49.693018, 49.693018)"/>
<path fill="none" stroke-width="1.136364" stroke-linecap="butt" stroke-linejoin="miter" stroke="rgb(0%, 0%, 0%)" stroke-opacity="1" stroke-miterlimit="10" d="M 11.387227 0.00169279 L 24.386303 0.00307048 L 11.387227 0.00169279 " transform="matrix(0.951057, -0.309017, 0.309017, 0.951057, 49.693018, 49.693018)"/>
<path fill="none" stroke-width="1.136364" stroke-linecap="butt" stroke-linejoin="miter" stroke="rgb(0%, 0%, 0%)" stroke-opacity="1" stroke-miterlimit="10" d="M 9.885076 -0.00172733 L 9.880435 0.0378375 L 9.868364 0.0749882 L 9.839112 0.127093 L 9.814595 0.151985 L 9.782648 0.174463 L 9.767882 0.181987 L 9.730919 0.19462 L 9.69637 0.199824 L 9.67538 0.201219 L 9.635815 0.196578 L 9.598665 0.184507 L 9.563928 0.165006 L 9.547767 0.15154 L 9.535321 0.139281 L 9.501604 0.0913607 L 9.482654 0.035916 L 9.480052 0.0186416 L 9.478657 -0.00234793 L 9.483298 -0.0419128 L 9.495369 -0.0790634 L 9.524621 -0.131168 L 9.549138 -0.15606 L 9.581085 -0.178538 L 9.595852 -0.186062 L 9.632815 -0.198696 L 9.667364 -0.203899 L 9.688353 -0.205294 L 9.727918 -0.200653 L 9.765069 -0.188582 L 9.799805 -0.169081 L 9.815966 -0.155615 L 9.828412 -0.143357 L 9.862129 -0.095436 L 9.881079 -0.0399913 L 9.883681 -0.0227168 L 9.885076 -0.00172733 L 9.880435 0.0378375 L 9.868364 0.0749882 L 9.839112 0.127093 L 9.814595 0.151985 L 9.782648 0.174463 L 9.767882 0.181987 L 9.730919 0.19462 L 9.69637 0.199824 L 9.67538 0.201219 L 9.635815 0.196578 L 9.598665 0.184507 L 9.563928 0.165006 L 9.547767 0.15154 L 9.535321 0.139281 L 9.501604 0.0913607 L 9.482654 0.035916 L 9.480052 0.0186416 L 9.478657 -0.00234793 L 9.480052 0.0186416 L 9.482654 0.035916 L 9.501604 0.0913607 L 9.535321 0.139281 L 9.547767 0.15154 L 9.563928 0.165006 L 9.598665 0.184507 L 9.635815 0.196578 L 9.67538 0.201219 L 9.69637 0.199824 L 9.730919 0.19462 L 9.767882 0.181987 L 9.782648 0.174463 L 9.814595 0.151985 L 9.839112 0.127093 L 9.868364 0.0749882 L 9.880435 0.0378375 L 9.885076 -0.00172733 L 9.883681 -0.0227168 L 9.881079 -0.0399913 L 9.862129 -0.095436 L 9.828412 -0.143357 L 9.815966 -0.155615 L 9.799805 -0.169081 L 9.765069 -0.188582 L 9.727918 -0.200653 L 9.688353 -0.205294 L 9.667364 -0.203899 L 9.632815 -0.198696 L 9.595852 -0.186062 L 9.581085 -0.178538 L 9.549138 -0.15606 L 9.524621 -0.131168 L 9.495369 -0.0790634 L 9.483298 -0.0419128 L 9.478657 -0.00234793 L 9.480052 0.0186416 L 9.482654 0.035916 L 9.501604 0.0913607 L 9.535321 0.139281 L 9.547767 0.15154 L 9.563928 0.165006 L 9.598665 0.184507 L 9.635815 0.196578 L 9.67538 0.201219 L 9.69637 0.199824 L 9.730919 0.19462 L 9.767882 0.181987 L 9.782648 0.174463 L 9.814595 0.151985 L 9.839112 0.127093 L 9.868364 0.0749882 L 9.880435 0.0378375 L 9.885076 -0.00172733 " transform="matrix(0.951057, -0.309017, 0.309017, 0.951057, 49.693018, 49.693018)"/>
<path fill="none" stroke-width="1.136364" stroke-linecap="butt" stroke-linejoin="miter" stroke="rgb(0%, 0%, 0%)" stroke-opacity="1" stroke-miterlimit="10" d="M 11.38812 0.000084226 L 26.316425 0.00156794 L 11.38812 0.000084226 " transform="matrix(0.587785, 0.809017, -0.809017, 0.587785, 49.693018, 49.693018)"/>
<path fill="none" stroke-width="1.136364" stroke-linecap="butt" stroke-linejoin="miter" stroke="rgb(0%, 0%, 0%)" stroke-opacity="1" stroke-miterlimit="10" d="M 33.385974 0.000487968 L 26.315345 -7.06798 L 33.385974 0.000487968 L 26.317505 7.071116 L 26.317642 -7.071141 L 33.38827 -0.00267225 L 26.317642 -7.071141 L 26.317505 7.071116 L 33.385974 0.000487968 L 26.315345 -7.06798 L 33.385974 0.000487968 " transform="matrix(0.587785, 0.809017, -0.809017, 0.587785, 49.693018, 49.693018)"/>
<path fill="none" stroke-width="1.136364" stroke-linecap="butt" stroke-linejoin="miter" stroke="rgb(0%, 0%, 0%)" stroke-opacity="1" stroke-miterlimit="10" d="M 11.38812 0.000084226 L 24.316986 0.00223599 L 11.38812 0.000084226 " transform="matrix(0.587785, 0.809017, -0.809017, 0.587785, 49.693018, 49.693018)"/>
<path fill="none" stroke-width="1.136364" stroke-linecap="butt" stroke-linejoin="miter" stroke="rgb(0%, 0%, 0%)" stroke-opacity="1" stroke-miterlimit="10" d="M 24.313826 -0.0000600462 L 24.316032 -5.00067 L 24.31162 5.00055 L 24.313826 -0.0000600462 L 24.31162 5.00055 L 24.316032 -5.00067 L 24.313826 -0.0000600462 " transform="matrix(0.587785, 0.809017, -0.809017, 0.587785, 49.693018, 49.693018)"/>
<path fill="none" stroke-width="1.136364" stroke-linecap="butt" stroke-linejoin="miter" stroke="rgb(0%, 0%, 0%)" stroke-opacity="1" stroke-miterlimit="10" d="M 11.387719 -0.000636637 L 33.385572 -0.00104038 L 11.387719 -0.000636637 " transform="matrix(-0.587785, 0.809017, -0.809017, -0.587785, 49.693018, 49.693018)"/>
<path fill="none" stroke-width="1.136364" stroke-linecap="butt" stroke-linejoin="miter" stroke="rgb(0%, 0%, 0%)" stroke-opacity="1" stroke-miterlimit="10" d="M 33.385572 -0.00104038 L 26.317104 -7.071669 L 33.385572 -0.00104038 L 26.314944 7.067428 L 33.385572 -0.00104038 L 26.314944 7.067428 L 33.385572 -0.00104038 L 26.317104 -7.071669 L 33.385572 -0.00104038 " transform="matrix(-0.587785, 0.809017, -0.809017, -0.587785, 49.693018, 49.693018)"/>
<path fill="none" stroke-width="1.136364" stroke-linecap="butt" stroke-linejoin="miter" stroke="rgb(0%, 0%, 0%)" stroke-opacity="1" stroke-miterlimit="10" d="M 11.386578 -0.00148179 L 26.386818 -0.0000207707 L 11.386578 -0.00148179 " transform="matrix(-0.951057, -0.309017, 0.309017, -0.951057, 49.693018, 49.693018)"/>
<path fill="none" stroke-width="1.136364" stroke-linecap="butt" stroke-linejoin="miter" stroke="rgb(0%, 0%, 0%)" stroke-opacity="1" stroke-miterlimit="10" d="M 26.386818 -0.0000207707 L 33.458233 -7.070315 L 26.386818 -0.0000207707 L 33.457113 7.071394 L 26.386818 -0.0000207707 L 33.457113 7.071394 L 26.386818 -0.0000207707 L 33.458233 -7.070315 L 26.386818 -0.0000207707 " transform="matrix(-0.951057, -0.309017, 0.309017, -0.951057, 49.693018, 49.693018)"/>
<path fill="none" stroke-width="1.136364" stroke-linecap="butt" stroke-linejoin="miter" stroke="rgb(0%, 0%, 0%)" stroke-opacity="1" stroke-miterlimit="10" d="M 11.386578 -0.00148179 L 25.388697 -0.000186142 L 11.386578 -0.00148179 " transform="matrix(-0.951057, -0.309017, 0.309017, -0.951057, 49.693018, 49.693018)"/>
<path fill="none" stroke-width="1.136364" stroke-linecap="butt" stroke-linejoin="miter" stroke="rgb(0%, 0%, 0%)" stroke-opacity="1" stroke-miterlimit="10" d="M 25.384982 0.00102096 L 25.387109 -4.998223 L 25.382854 5.000265 L 25.384982 0.00102096 L 25.382854 5.000265 L 25.387109 -4.998223 L 25.384982 0.00102096 " transform="matrix(-0.951057, -0.309017, 0.309017, -0.951057, 49.693018, 49.693018)"/>
<path fill="none" stroke-width="1.136364" stroke-linecap="butt" stroke-linejoin="miter" stroke="rgb(0%, 0%, 0%)" stroke-opacity="1" stroke-miterlimit="10" d="M 11.386578 -0.00148179 L 23.387532 -0.00302485 L 11.386578 -0.00148179 " transform="matrix(-0.951057, -0.309017, 0.309017, -0.951057, 49.693018, 49.693018)"/>
<path fill="none" stroke-width="1.136364" stroke-linecap="butt" stroke-linejoin="miter" stroke="rgb(0%, 0%, 0%)" stroke-opacity="1" stroke-miterlimit="10" d="M 23.385024 0.00189731 L 23.387152 -4.997347 L 23.382896 5.001141 L 23.385024 0.00189731 L 23.382896 5.001141 L 23.387152 -4.997347 L 23.385024 0.00189731 " transform="matrix(-0.951057, -0.309017, 0.309017, -0.951057, 49.693018, 49.693018)"/>
<path fill="none" stroke-width="1.136364" stroke-linecap="butt" stroke-linejoin="miter" stroke="rgb(0%, 0%, 0%)" stroke-opacity="1" stroke-miterlimit="10" d="M 11.38579 -0.00161172 C 11.38579 6.287451 6.288134 11.385107 -0.000928898 11.385107 C -6.289991 11.385107 -11.387648 6.287451 -11.387648 -0.00161172 C -11.387648 -6.286768 -6.289991 -11.384424 -0.000928898 -11.384424 C 6.288134 -11.384424 11.38579 -6.286768 11.38579 -0.00161172 " transform="matrix(1, 0, 0, 1, 149.079054, 49.693018)"/>
<path fill="none" stroke-width="1.136364" stroke-linecap="butt" stroke-linejoin="miter" stroke="rgb(0%, 0%, 0%)" stroke-opacity="1" stroke-miterlimit="10" d="M 11.384424 -0.000928898 L 3.79458 -0.000928898 L 11.384424 -0.000928898 " transform="matrix(0.000000000000000061, -1, 1, 0.000000000000000061, 149.079054, 49.693018)"/>
<path fill="none" stroke-width="1.136364" stroke-linecap="butt" stroke-linejoin="miter" stroke="rgb(0%, 0%, 0%)" stroke-opacity="1" stroke-miterlimit="10" d="M 11.384424 -0.000928898 L 27.384424 -0.000928898 L 11.384424 -0.000928898 " transform="matrix(0.000000000000000061, -1, 1, 0.000000000000000061, 149.079054, 49.693018)"/>
<path fill="none" stroke-width="1.136364" stroke-linecap="butt" stroke-linejoin="miter" stroke="rgb(0%, 0%, 0%)" stroke-opacity="1" stroke-miterlimit="10" d="M 27.384424 -0.000928898 L 27.384424 2.999071 L 27.384424 -3.000929 L 33.384424 -3.000929 L 33.384424 2.999071 L 33.384424 -3.000929 L 27.384424 -3.000929 L 27.384424 2.999071 L 27.384424 -0.000928898 " transform="matrix(0.000000000000000061, -1, 1, 0.000000000000000061, 149.079054, 49.693018)"/>
<path fill="none" stroke-width="1.136364" stroke-linecap="butt" stroke-linejoin="miter" stroke="rgb(0%, 0%, 0%)" stroke-opacity="1" stroke-miterlimit="10" d="M 11.384424 -0.000928898 L 25.884424 -0.000928898 L 11.384424 -0.000928898 " transform="matrix(0.000000000000000061, -1, 1, 0.000000000000000061, 149.079054, 49.693018)"/>
<path fill="none" stroke-width="1.136364" stroke-linecap="butt" stroke-linejoin="miter" stroke="rgb(0%, 0%, 0%)" stroke-opacity="1" stroke-miterlimit="10" d="M 25.884424 -0.000928898 L 25.884424 -5.000929 L 25.884424 4.999071 L 25.884424 -0.000928898 L 25.884424 4.999071 L 25.884424 -5.000929 L 25.884424 -0.000928898 " transform="matrix(0.000000000000000061, -1, 1, 0.000000000000000061, 149.079054, 49.693018)"/>
<path fill="none" stroke-width="1.136364" stroke-linecap="butt" stroke-linejoin="miter" stroke="rgb(0%, 0%, 0%)" stroke-opacity="1" stroke-miterlimit="10" d="M 11.384161 0.000696699 L 33.382397 0.00169937 L 11.384161 0.000696699 " transform="matrix(0.951057, -0.309017, 0.309017, 0.951057, 149.079054, 49.693018)"/>
<path fill="none" stroke-width="1.136364" stroke-linecap="butt" stroke-linejoin="miter" stroke="rgb(0%, 0%, 0%)" stroke-opacity="1" stroke-miterlimit="10" d="M 33.387319 -0.000808598 L 26.315904 -7.071103 L 33.387319 -0.000808598 L 26.317024 7.070606 L 33.387319 -0.000808598 L 26.317024 7.070606 L 33.387319 -0.000808598 L 26.315904 -7.071103 L 33.387319 -0.000808598 " transform="matrix(0.951057, -0.309017, 0.309017, 0.951057, 149.079054, 49.693018)"/>
<path fill="none" stroke-width="1.136364" stroke-linecap="butt" stroke-linejoin="miter" stroke="rgb(0%, 0%, 0%)" stroke-opacity="1" stroke-miterlimit="10" d="M 11.388521 -0.000468185 L 26.316827 0.00101553 L 11.388521 -0.000468185 " transform="matrix(0.587785, 0.809017, -0.809017, 0.587785, 149.079054, 49.693018)"/>
<path fill="none" stroke-width="1.136364" stroke-linecap="butt" stroke-linejoin="miter" stroke="rgb(0%, 0%, 0%)" stroke-opacity="1" stroke-miterlimit="10" d="M 33.386375 -0.000064443 L 26.315747 -7.068533 L 33.386375 -0.000064443 L 26.317907 7.070564 L 26.318043 -7.071693 L 33.388671 -0.00322467 L 26.318043 -7.071693 L 26.317907 7.070564 L 33.386375 -0.000064443 L 26.315747 -7.068533 L 33.386375 -0.000064443 " transform="matrix(0.587785, 0.809017, -0.809017, 0.587785, 149.079054, 49.693018)"/>
<path fill="none" stroke-width="1.136364" stroke-linecap="butt" stroke-linejoin="miter" stroke="rgb(0%, 0%, 0%)" stroke-opacity="1" stroke-miterlimit="10" d="M 11.387317 -0.00118905 L 24.385683 -0.00072287 L 11.387317 -0.00118905 " transform="matrix(-0.587785, 0.809017, -0.809017, -0.587785, 149.079054, 49.693018)"/>
<path fill="none" stroke-width="1.136364" stroke-linecap="butt" stroke-linejoin="miter" stroke="rgb(0%, 0%, 0%)" stroke-opacity="1" stroke-miterlimit="10" d="M 9.885584 -0.00133212 L 9.885287 0.0181969 L 9.882695 0.0345657 L 9.871189 0.0718953 L 9.855092 0.102904 L 9.843882 0.120705 L 9.816872 0.149986 L 9.78527 0.172946 L 9.749076 0.189586 L 9.728683 0.194746 L 9.694217 0.200473 L 9.655159 0.19988 L 9.599164 0.182622 L 9.58366 0.174573 L 9.565859 0.163364 L 9.536578 0.136354 L 9.513618 0.104752 L 9.488658 0.0504602 L 9.483498 0.030067 L 9.480635 0.0128341 L 9.481228 -0.0262239 L 9.48382 -0.0425927 L 9.495326 -0.0799223 L 9.511423 -0.110932 L 9.522632 -0.128732 L 9.549643 -0.158013 L 9.581245 -0.180973 L 9.617439 -0.197613 L 9.637832 -0.202773 L 9.672298 -0.2085 L 9.711356 -0.207907 L 9.767351 -0.190649 L 9.782855 -0.1826 L 9.800656 -0.171391 L 9.829937 -0.144381 L 9.852897 -0.112779 L 9.877857 -0.0584873 L 9.883017 -0.0380941 L 9.88588 -0.0208611 L 9.885287 0.0181969 L 9.882695 0.0345657 L 9.871189 0.0718953 L 9.855092 0.102904 L 9.843882 0.120705 L 9.816872 0.149986 L 9.78527 0.172946 L 9.749076 0.189586 L 9.728683 0.194746 L 9.694217 0.200473 L 9.655159 0.19988 L 9.599164 0.182622 L 9.58366 0.174573 L 9.565859 0.163364 L 9.536578 0.136354 L 9.513618 0.104752 L 9.488658 0.0504602 L 9.483498 0.030067 L 9.480635 0.0128341 L 9.480931 -0.00669493 L 9.480635 0.0128341 L 9.483498 0.030067 L 9.488658 0.0504602 L 9.513618 0.104752 L 9.536578 0.136354 L 9.565859 0.163364 L 9.58366 0.174573 L 9.599164 0.182622 L 9.655159 0.19988 L 9.694217 0.200473 L 9.728683 0.194746 L 9.749076 0.189586 L 9.78527 0.172946 L 9.816872 0.149986 L 9.843882 0.120705 L 9.855092 0.102904 L 9.871189 0.0718953 L 9.882695 0.0345657 L 9.885287 0.0181969 L 9.88588 -0.0208611 L 9.883017 -0.0380941 L 9.877857 -0.0584873 L 9.852897 -0.112779 L 9.829937 -0.144381 L 9.800656 -0.171391 L 9.782855 -0.1826 L 9.767351 -0.190649 L 9.711356 -0.207907 L 9.672298 -0.2085 L 9.637832 -0.202773 L 9.617439 -0.197613 L 9.581245 -0.180973 L 9.549643 -0.158013 L 9.522632 -0.128732 L 9.511423 -0.110932 L 9.495326 -0.0799223 L 9.48382 -0.0425927 L 9.481228 -0.0262239 L 9.480635 0.0128341 L 9.483498 0.030067 L 9.488658 0.0504602 L 9.513618 0.104752 L 9.536578 0.136354 L 9.565859 0.163364 L 9.58366 0.174573 L 9.599164 0.182622 L 9.655159 0.19988 L 9.694217 0.200473 L 9.728683 0.194746 L 9.749076 0.189586 L 9.78527 0.172946 L 9.816872 0.149986 L 9.843882 0.120705 L 9.855092 0.102904 L 9.871189 0.0718953 L 9.882695 0.0345657 L 9.885287 0.0181969 L 9.885584 -0.00133212 " transform="matrix(-0.587785, 0.809017, -0.809017, -0.587785, 149.079054, 49.693018)"/>
<path fill="none" stroke-width="1.136364" stroke-linecap="butt" stroke-linejoin="miter" stroke="rgb(0%, 0%, 0%)" stroke-opacity="1" stroke-miterlimit="10" d="M 11.385928 -0.00127079 L 33.384164 -0.00227346 L 11.385928 -0.00127079 " transform="matrix(-0.951057, -0.309017, 0.309017, -0.951057, 149.079054, 49.693018)"/>
<path fill="none" stroke-width="1.136364" stroke-linecap="butt" stroke-linejoin="miter" stroke="rgb(0%, 0%, 0%)" stroke-opacity="1" stroke-miterlimit="10" d="M 33.385371 0.00144161 L 26.315076 -7.069973 L 33.385371 0.00144161 L 26.313956 7.071736 L 33.385371 0.00144161 L 26.313956 7.071736 L 33.385371 0.00144161 L 26.315076 -7.069973 L 33.385371 0.00144161 " transform="matrix(-0.951057, -0.309017, 0.309017, -0.951057, 149.079054, 49.693018)"/>
<path fill="none" stroke-width="1.136364" stroke-linecap="butt" stroke-linejoin="miter" stroke="rgb(0%, 0%, 0%)" stroke-opacity="1" stroke-miterlimit="10" d="M 11.386473 -0.00161172 C 11.386473 6.287451 6.288816 11.385107 -0.00024608 11.385107 C -6.289309 11.385107 -11.386965 6.287451 -11.386965 -0.00161172 C -11.386965 -6.286768 -6.289309 -11.384424 -0.00024608 -11.384424 C 6.288816 -11.384424 11.386473 -6.286768 11.386473 -0.00161172 " transform="matrix(1, 0, 0, 1, 248.46509, 49.693018)"/>
<path fill="none" stroke-width="1.136364" stroke-linecap="butt" stroke-linejoin="miter" stroke="rgb(0%, 0%, 0%)" stroke-opacity="1" stroke-miterlimit="10" d="M 11.384424 -0.00024608 L 3.79458 -0.00024608 L 11.384424 -0.00024608 " transform="matrix(0.000000000000000061, -1, 1, 0.000000000000000061, 248.46509, 49.693018)"/>
<path fill="none" stroke-width="1.136364" stroke-linecap="butt" stroke-linejoin="miter" stroke="rgb(0%, 0%, 0%)" stroke-opacity="1" stroke-miterlimit="10" d="M 11.384424 -0.00024608 L 27.384424 -0.00024608 L 11.384424 -0.00024608 " transform="matrix(0.000000000000000061, -1, 1, 0.000000000000000061, 248.46509, 49.693018)"/>
<path fill="none" stroke-width="1.136364" stroke-linecap="butt" stroke-linejoin="miter" stroke="rgb(0%, 0%, 0%)" stroke-opacity="1" stroke-miterlimit="10" d="M 33.384424 4.999754 L 33.193018 4.995848 L 33.001612 4.988035 L 32.810205 4.976316 L 32.622705 4.956785 L 32.435205 4.933348 L 32.247705 4.906004 L 32.060205 4.874754 L 31.876612 4.835691 L 31.693018 4.792723 L 31.509424 4.745848 L 31.329737 4.695066 L 31.150049 4.640379 L 30.974268 4.577879 L 30.802393 4.511473 L 30.630518 4.44116 L 30.462549 4.366941 L 30.298487 4.288816 L 30.13833 4.206785 L 29.978174 4.120848 L 29.821924 4.027098 L 29.66958 3.929441 L 29.521143 3.827879 L 29.376612 3.72241 L 29.235987 3.613035 L 29.099268 3.50366 L 28.966455 3.390379 L 28.841455 3.273191 L 28.720362 3.152098 L 28.603174 3.027098 L 28.489893 2.898191 L 28.380518 2.769285 L 28.278955 2.636473 L 28.181299 2.499754 L 28.087549 2.363035 L 28.001612 2.22241 L 27.91958 2.077879 L 27.841455 1.933348 L 27.771143 1.78491 L 27.704737 1.636473 L 27.646143 1.484129 L 27.591455 1.331785 L 27.54458 1.179441 L 27.501612 1.023191 L 27.466455 0.866941 L 27.435205 0.710691 L 27.411768 0.554441 L 27.392237 0.398191 L 27.380518 0.238035 L 27.372705 0.0778789 L 27.372705 -0.0822773 L 27.380518 -0.242434 L 27.392237 -0.40259 L 27.411768 -0.55884 L 27.435205 -0.71509 L 27.466455 -0.87134 L 27.501612 -1.02759 L 27.54458 -1.18384 L 27.591455 -1.336184 L 27.646143 -1.488527 L 27.704737 -1.640871 L 27.771143 -1.789309 L 27.841455 -1.937746 L 27.91958 -2.082277 L 28.001612 -2.226809 L 28.087549 -2.367434 L 28.181299 -2.504152 L 28.278955 -2.640871 L 28.380518 -2.773684 L 28.489893 -2.90259 L 28.603174 -3.031496 L 28.720362 -3.156496 L 28.841455 -3.27759 L 28.966455 -3.394777 L 29.099268 -3.508059 L 29.235987 -3.617434 L 29.376612 -3.726809 L 29.521143 -3.832277 L 29.66958 -3.93384 L 29.821924 -4.031496 L 29.978174 -4.125246 L 30.13833 -4.211184 L 30.298487 -4.293215 L 30.462549 -4.37134 L 30.630518 -4.445559 L 30.802393 -4.515871 L 30.974268 -4.582277 L 31.150049 -4.644777 L 31.329737 -4.699465 L 31.509424 -4.750246 L 31.693018 -4.797121 L 31.876612 -4.84009 L 32.060205 -4.879152 L 32.247705 -4.910402 L 32.435205 -4.937746 L 32.622705 -4.961184 L 32.810205 -4.980715 L 33.001612 -4.992434 L 33.193018 -5.000246 L 33.384424 -5.004152 L 33.193018 -5.000246 L 33.001612 -4.992434 L 32.810205 -4.980715 L 32.622705 -4.961184 L 32.435205 -4.937746 L 32.247705 -4.910402 L 32.060205 -4.879152 L 31.876612 -4.84009 L 31.693018 -4.797121 L 31.509424 -4.750246 L 31.329737 -4.699465 L 31.150049 -4.644777 L 30.974268 -4.582277 L 30.802393 -4.515871 L 30.630518 -4.445559 L 30.462549 -4.37134 L 30.298487 -4.293215 L 30.13833 -4.211184 L 29.978174 -4.125246 L 29.821924 -4.031496 L 29.66958 -3.93384 L 29.521143 -3.832277 L 29.376612 -3.726809 L 29.235987 -3.617434 L 29.099268 -3.508059 L 28.966455 -3.394777 L 28.841455 -3.27759 L 28.720362 -3.156496 L 28.603174 -3.031496 L 28.489893 -2.90259 L 28.380518 -2.773684 L 28.278955 -2.640871 L 28.181299 -2.504152 L 28.087549 -2.367434 L 28.001612 -2.226809 L 27.91958 -2.082277 L 27.841455 -1.937746 L 27.771143 -1.789309 L 27.704737 -1.640871 L 27.646143 -1.488527 L 27.591455 -1.336184 L 27.54458 -1.18384 L 27.501612 -1.02759 L 27.466455 -0.87134 L 27.435205 -0.71509 L 27.411768 -0.55884 L 27.392237 -0.40259 L 27.380518 -0.242434 L 27.372705 -0.0822773 L 27.372705 0.0778789 L 27.380518 0.238035 L 27.392237 0.398191 L 27.411768 0.554441 L 27.435205 0.710691 L 27.466455 0.866941 L 27.501612 1.023191 L 27.54458 1.179441 L 27.591455 1.331785 L 27.646143 1.484129 L 27.704737 1.636473 L 27.771143 1.78491 L 27.841455 1.933348 L 27.91958 2.077879 L 28.001612 2.22241 L 28.087549 2.363035 L 28.181299 2.499754 L 28.278955 2.636473 L 28.380518 2.769285 L 28.489893 2.898191 L 28.603174 3.027098 L 28.720362 3.152098 L 28.841455 3.273191 L 28.966455 3.390379 L 29.099268 3.50366 L 29.235987 3.613035 L 29.376612 3.72241 L 29.521143 3.827879 L 29.66958 3.929441 L 29.821924 4.027098 L 29.978174 4.120848 L 30.13833 4.206785 L 30.298487 4.288816 L 30.462549 4.366941 L 30.630518 4.44116 L 30.802393 4.511473 L 30.974268 4.577879 L 31.150049 4.640379 L 31.329737 4.695066 L 31.509424 4.745848 L 31.693018 4.792723 L 31.876612 4.835691 L 32.060205 4.874754 L 32.247705 4.906004 L 32.435205 4.933348 L 32.622705 4.956785 L 32.810205 4.976316 L 33.001612 4.988035 L 33.193018 4.995848 L 33.384424 4.999754 " transform="matrix(0.000000000000000061, -1, 1, 0.000000000000000061, 248.46509, 49.693018)"/>
<path fill="none" stroke-width="1.136364" stroke-linecap="butt" stroke-linejoin="miter" stroke="rgb(0%, 0%, 0%)" stroke-opacity="1" stroke-miterlimit="10" d="M 11.384424 -0.00024608 L 25.884424 -0.00024608 L 11.384424 -0.00024608 " transform="matrix(0.000000000000000061, -1, 1, 0.000000000000000061, 248.46509, 49.693018)"/>
<path fill="none" stroke-width="1.136364" stroke-linecap="butt" stroke-linejoin="miter" stroke="rgb(0%, 0%, 0%)" stroke-opacity="1" stroke-miterlimit="10" d="M 25.884424 -0.00024608 L 25.884424 -5.000246 L 25.884424 4.999754 L 25.884424 -0.00024608 L 25.884424 4.999754 L 25.884424 -5.000246 L 25.884424 -0.00024608 " transform="matrix(0.000000000000000061, -1, 1, 0.000000000000000061, 248.46509, 49.693018)"/>
<path fill="none" stroke-width="1.136364" stroke-linecap="butt" stroke-linejoin="miter" stroke="rgb(0%, 0%, 0%)" stroke-opacity="1" stroke-miterlimit="10" d="M 11.386261 -0.0000640857 L 26.315514 -0.000520706 L 11.386261 -0.0000640857 " transform="matrix(0.781831, -0.62349, 0.62349, 0.781831, 248.46509, 49.693018)"/>
<path fill="none" stroke-width="1.136364" stroke-linecap="butt" stroke-linejoin="miter" stroke="rgb(0%, 0%, 0%)" stroke-opacity="1" stroke-miterlimit="10" d="M 33.384217 0.000776784 L 26.313757 -7.07166 L 33.384217 0.000776784 L 26.311781 7.071237 L 26.313757 -7.07166 L 33.384217 0.000776784 L 26.313757 -7.07166 L 26.311781 7.071237 L 33.384217 0.000776784 L 26.313757 -7.07166 L 33.384217 0.000776784 " transform="matrix(0.781831, -0.62349, 0.62349, 0.781831, 248.46509, 49.693018)"/>
<path fill="none" stroke-width="1.136364" stroke-linecap="butt" stroke-linejoin="miter" stroke="rgb(0%, 0%, 0%)" stroke-opacity="1" stroke-miterlimit="10" d="M 11.38675 -0.000252015 L 33.387328 -0.00133707 L 11.38675 -0.000252015 " transform="matrix(0.974928, 0.222521, -0.222521, 0.974928, 248.46509, 49.693018)"/>
<path fill="none" stroke-width="1.136364" stroke-linecap="butt" stroke-linejoin="miter" stroke="rgb(0%, 0%, 0%)" stroke-opacity="1" stroke-miterlimit="10" d="M 33.387328 -0.00133707 L 26.315932 -7.073877 L 33.387328 -0.00133707 L 26.314788 7.070058 L 33.387328 -0.00133707 L 26.314788 7.070058 L 33.387328 -0.00133707 L 26.315932 -7.073877 L 33.387328 -0.00133707 " transform="matrix(0.974928, 0.222521, -0.222521, 0.974928, 248.46509, 49.693018)"/>
<path fill="none" stroke-width="1.136364" stroke-linecap="butt" stroke-linejoin="miter" stroke="rgb(0%, 0%, 0%)" stroke-opacity="1" stroke-miterlimit="10" d="M 11.387926 -0.000137881 L 33.387644 -0.00186374 L 11.387926 -0.000137881 " transform="matrix(0.433884, 0.900969, -0.900969, 0.433884, 248.46509, 49.693018)"/>
<path fill="none" stroke-width="1.136364" stroke-linecap="butt" stroke-linejoin="miter" stroke="rgb(0%, 0%, 0%)" stroke-opacity="1" stroke-miterlimit="10" d="M 33.38595 0.00165567 L 26.316906 -7.070543 L 33.38595 0.00165567 L 26.313751 7.070699 L 33.38595 0.00165567 L 26.313751 7.070699 L 33.38595 0.00165567 L 26.316906 -7.070543 L 33.38595 0.00165567 " transform="matrix(0.433884, 0.900969, -0.900969, 0.433884, 248.46509, 49.693018)"/>
<path fill="none" stroke-width="1.136364" stroke-linecap="butt" stroke-linejoin="miter" stroke="rgb(0%, 0%, 0%)" stroke-opacity="1" stroke-miterlimit="10" d="M 11.38814 0.000581301 L 33.387858 0.00230716 L 26.318814 7.074506 L 33.387858 0.00230716 L 26.318814 7.074506 L 33.387858 0.00230716 L 11.38814 0.000581301 " transform="matrix(-0.433884, 0.900969, -0.900969, -0.433884, 248.46509, 49.693018)"/>
<path fill="none" stroke-width="1.136364" stroke-linecap="butt" stroke-linejoin="miter" stroke="rgb(0%, 0%, 0%)" stroke-opacity="1" stroke-miterlimit="10" d="M 11.38814 0.000581301 L 30.386344 -0.000333673 L 23.3173 7.071865 L 30.386344 -0.000333673 L 23.3173 7.071865 L 30.386344 -0.000333673 L 11.38814 0.000581301 " transform="matrix(-0.433884, 0.900969, -0.900969, -0.433884, 248.46509, 49.693018)"/>
<path fill="none" stroke-width="1.136364" stroke-linecap="butt" stroke-linejoin="miter" stroke="rgb(0%, 0%, 0%)" stroke-opacity="1" stroke-miterlimit="10" d="M 11.38723 0.000361531 L 33.387807 0.00144659 L 11.38723 0.000361531 " transform="matrix(-0.974928, 0.222521, -0.222521, -0.974928, 248.46509, 49.693018)"/>
<path fill="none" stroke-width="1.136364" stroke-linecap="butt" stroke-linejoin="miter" stroke="rgb(0%, 0%, 0%)" stroke-opacity="1" stroke-miterlimit="10" d="M 11.386646 -0.000242771 L 22.813576 0.000301945 L 11.386646 -0.000242771 " transform="matrix(-0.781831, -0.62349, 0.62349, -0.781831, 248.46509, 49.693018)"/>
<path fill="none" stroke-width="1.136364" stroke-linecap="butt" stroke-linejoin="miter" stroke="rgb(0%, 0%, 0%)" stroke-opacity="1" stroke-miterlimit="10" d="M 28.814681 0.00101799 L 28.810507 0.334101 L 28.789864 0.665329 L 28.755807 0.992266 L 28.708335 1.314911 L 28.647448 1.633266 L 28.576201 1.944894 L 28.492158 2.246741 L 28.395319 2.538808 L 28.288738 2.818658 L 28.169361 3.088728 L 28.04086 3.341093 L 27.902617 3.581241 L 27.755251 3.803684 L 27.598761 4.00842 L 27.435583 4.198506 L 27.263282 4.370885 L 27.084911 4.523124 L 26.900471 4.655221 L 26.713016 4.764742 L 26.51949 4.854121 L 26.32295 4.920924 L 26.125829 4.968204 L 25.925693 4.992908 L 25.725596 4.992599 L 25.524919 4.972768 L 25.326715 4.930979 L 25.130986 4.867231 L 24.937731 4.781525 L 24.74695 4.673861 L 24.564133 4.544858 L 24.386225 4.39695 L 24.213227 4.230138 L 24.048192 4.041987 L 23.890503 3.837986 L 23.743213 3.615699 L 23.603267 3.377562 L 23.473103 3.126628 L 23.355773 2.860464 L 23.248223 2.581503 L 23.150455 2.289746 L 23.064902 1.988247 L 22.991566 1.677006 L 22.929827 1.361513 L 22.882739 1.039331 L 22.84725 0.712898 L 22.823358 0.382211 L 22.813499 0.0503263 L 22.817673 -0.282757 L 22.83588 -0.617039 L 22.867502 -0.947029 L 22.912538 -1.272729 L 22.967935 -1.591702 L 23.039182 -1.90333 L 23.12079 -2.208231 L 23.215193 -2.503352 L 23.319339 -2.786257 L 23.438716 -3.056327 L 23.564781 -3.311745 L 23.700589 -3.554947 L 23.845519 -3.780444 L 24.002628 -3.990671 L 24.165805 -4.180756 L 24.338107 -4.353135 L 24.514042 -4.508428 L 24.696047 -4.643579 L 24.884121 -4.758589 L 25.07521 -4.851023 L 25.269316 -4.92088 L 25.466436 -4.96816 L 25.664137 -4.995918 L 25.864852 -5.001098 L 26.063094 -4.984321 L 26.261298 -4.942532 L 26.460081 -4.88122 L 26.653336 -4.795514 L 26.841681 -4.690904 L 27.027553 -4.564336 L 27.208514 -4.418864 L 27.381513 -4.252052 L 27.547166 -4.069391 L 27.707909 -3.867825 L 27.858253 -3.647973 L 28.001253 -3.412271 L 28.131417 -3.161338 L 28.251801 -2.897609 L 28.362405 -2.621084 L 28.463227 -2.331762 L 28.551834 -2.032699 L 28.628225 -1.723894 L 28.689963 -1.4084 L 28.739486 -1.083165 L 28.774976 -0.756731 L 28.798868 -0.426045 L 28.808727 -0.0941597 L 28.804553 0.238924 L 28.7894 0.57077 L 28.760832 0.898325 L 28.71885 1.221589 L 28.663453 1.540562 L 28.71885 1.221589 L 28.760832 0.898325 L 28.7894 0.57077 L 28.804553 0.238924 L 28.808727 -0.0941597 L 28.798868 -0.426045 L 28.774976 -0.756731 L 28.739486 -1.083165 L 28.689963 -1.4084 L 28.628225 -1.723894 L 28.551834 -2.032699 L 28.463227 -2.331762 L 28.362405 -2.621084 L 28.251801 -2.897609 L 28.131417 -3.161338 L 28.001253 -3.412271 L 27.858253 -3.647973 L 27.707909 -3.867825 L 27.547166 -4.069391 L 27.381513 -4.252052 L 27.208514 -4.418864 L 27.027553 -4.564336 L 26.841681 -4.690904 L 26.653336 -4.795514 L 26.460081 -4.88122 L 26.261298 -4.942532 L 26.063094 -4.984321 L 25.864852 -5.001098 L 25.664137 -4.995918 L 25.466436 -4.96816 L 25.269316 -4.92088 L 25.07521 -4.851023 L 24.884121 -4.758589 L 24.696047 -4.643579 L 24.514042 -4.508428 L 24.338107 -4.353135 L 24.165805 -4.180756 L 24.002628 -3.990671 L 23.845519 -3.780444 L 23.700589 -3.554947 L 23.564781 -3.311745 L 23.438716 -3.056327 L 23.319339 -2.786257 L 23.215193 -2.503352 L 23.12079 -2.208231 L 23.039182 -1.90333 L 22.967935 -1.591702 L 22.912538 -1.272729 L 22.867502 -0.947029 L 22.83588 -0.617039 L 22.817673 -0.282757 L 22.813499 0.0503263 L 22.823358 0.382211 L 22.84725 0.712898 L 22.882739 1.039331 L 22.929827 1.361513 L 22.991566 1.677006 L 23.064902 1.988247 L 23.150455 2.289746 L 23.248223 2.581503 L 23.355773 2.860464 L 23.473103 3.126628 L 23.603267 3.377562 L 23.743213 3.615699 L 23.890503 3.837986 L 24.048192 4.041987 L 24.213227 4.230138 L 24.386225 4.39695 L 24.564133 4.544858 L 24.74695 4.673861 L 24.937731 4.781525 L 25.130986 4.867231 L 25.326715 4.930979 L 25.524919 4.972768 L 25.725596 4.992599 L 25.925693 4.992908 L 26.125829 4.968204 L 26.32295 4.920924 L 26.51949 4.854121 L 26.713016 4.764742 L 26.900471 4.655221 L 27.084911 4.523124 L 27.263282 4.370885 L 27.435583 4.198506 L 27.598761 4.00842 L 27.755251 3.803684 L 27.902617 3.581241 L 28.04086 3.341093 L 28.169361 3.088728 L 28.288738 2.818658 L 28.395319 2.538808 L 28.492158 2.246741 L 28.576201 1.944894 L 28.647448 1.633266 L 28.708335 1.314911 L 28.755807 0.992266 L 28.789864 0.665329 L 28.810507 0.334101 L 28.814681 0.00101799 " transform="matrix(-0.781831, -0.62349, 0.62349, -0.781831, 248.46509, 49.693018)"/>
<path fill="none" stroke-width="1.136364" stroke-linecap="butt" stroke-linejoin="miter" stroke="rgb(0%, 0%, 0%)" stroke-opacity="1" stroke-miterlimit="10" d="M 11.386646 -0.000242771 L 21.315281 0.00104107 L 16.365592 4.952539 L 21.315281 0.00104107 L 16.365592 4.952539 L 21.315281 0.00104107 L 11.386646 -0.000242771 " transform="matrix(-0.781831, -0.62349, 0.62349, -0.781831, 248.46509, 49.693018)"/>
<path fill="none" stroke-width="1.136364" stroke-linecap="butt" stroke-linejoin="miter" stroke="rgb(0%, 0%, 0%)" stroke-opacity="1" stroke-miterlimit="10" d="M 11.386646 -0.000242771 L 18.816499 0.000236928 L 13.86681 4.951735 L 18.816499 0.000236928 L 13.86681 4.951735 L 18.816499 0.000236928 L 11.386646 -0.000242771 " transform="matrix(-0.781831, -0.62349, 0.62349, -0.781831, 248.46509, 49.693018)"/>
<path fill="none" stroke-width="1.136364" stroke-linecap="butt" stroke-linejoin="miter" stroke="rgb(0%, 0%, 0%)" stroke-opacity="1" stroke-miterlimit="10" d="M 33.384602 -0.00108364 L 26.312166 -7.071543 L 33.384602 -0.00108364 L 26.314142 7.071353 L 33.384602 -0.00108364 L 26.314142 7.071353 L 33.384602 -0.00108364 L 26.312166 -7.071543 L 33.384602 -0.00108364 " transform="matrix(-0.781831, -0.62349, 0.62349, -0.781831, 248.46509, 49.693018)"/>
</svg>
